<svg xmlns="http://www.w3.org/2000/svg" width="1080" height="500" viewBox="0 0 1080 500" role="img" aria-label="COPM — Daily Transfers">
  <style>
    .title { font: 600 22px -apple-system, 'Segoe UI', system-ui, sans-serif; fill: #e6edf3; }
    .subtitle { font: 400 14px -apple-system, 'Segoe UI', system-ui, sans-serif; fill: #7d8590; }
    .axis { font: 400 13px -apple-system, 'Segoe UI', system-ui, sans-serif; fill: #8b949e; }
    .label { font: 500 14px -apple-system, 'Segoe UI', system-ui, sans-serif; fill: #e6edf3; }
    .annot { font: 600 13px -apple-system, 'Segoe UI', system-ui, sans-serif; }
    .badge { font: 600 13px -apple-system, 'Segoe UI', system-ui, sans-serif; }
    .footer { font: 400 12px ui-monospace, 'SF Mono', Menlo, monospace; fill: #7d8590; }
  </style>
  <defs><linearGradient id="g0" x1="0" y1="0" x2="0" y2="1">
      <stop offset="0%" stop-color="#9a6bff" stop-opacity="0.35"/>
      <stop offset="100%" stop-color="#9a6bff" stop-opacity="0.02"/>
    </linearGradient></defs>
  <rect width="1080" height="500" fill="#0b0e14"/>
  <rect x="8" y="8" width="1064" height="484" rx="10" fill="#11151d" stroke="#222938" stroke-width="1"/>
  <text x="28" y="40" class="title">COPM — Daily Transfers</text>
  <rect x="968.5" y="24" width="83.5" height="22" rx="11" fill="#9a6bff22" stroke="#9a6bff" stroke-width="1"/>
  <text x="1010.25" y="39" class="badge" fill="#9a6bff" text-anchor="middle">Polygon</text>
  <text x="28" y="59" class="subtitle">2023-09-21 → 2026-06-12 · peak: 2,597 transfers in one day</text>
  <line x1="78" y1="424" x2="1044" y2="424" stroke="#222938" stroke-width="1"/><text x="68" y="428" class="axis" text-anchor="end">0</text><line x1="78" y1="311.33333333333337" x2="1044" y2="311.33333333333337" stroke="#222938" stroke-width="1"/><text x="68" y="315.33333333333337" class="axis" text-anchor="end">1,000</text><line x1="78" y1="198.66666666666669" x2="1044" y2="198.66666666666669" stroke="#222938" stroke-width="1"/><text x="68" y="202.66666666666669" class="axis" text-anchor="end">2,000</text><line x1="78" y1="86" x2="1044" y2="86" stroke="#222938" stroke-width="1"/><text x="68" y="90" class="axis" text-anchor="end">3,000</text><line x1="58.582914572864325" y1="86" x2="58.582914572864325" y2="424" stroke="#222938" stroke-width="1" stroke-dasharray="2,5"/><text x="58.582914572864325" y="444" class="axis" text-anchor="middle">Sep 23</text><line x1="146.93065326633166" y1="86" x2="146.93065326633166" y2="424" stroke="#222938" stroke-width="1" stroke-dasharray="2,5"/><text x="146.93065326633166" y="444" class="axis" text-anchor="middle">Dec 23</text><line x1="235.278391959799" y1="86" x2="235.278391959799" y2="424" stroke="#222938" stroke-width="1" stroke-dasharray="2,5"/><text x="235.278391959799" y="444" class="axis" text-anchor="middle">Mar 24</text><line x1="324.5969849246231" y1="86" x2="324.5969849246231" y2="424" stroke="#222938" stroke-width="1" stroke-dasharray="2,5"/><text x="324.5969849246231" y="444" class="axis" text-anchor="middle">Jun 24</text><line x1="413.9155778894472" y1="86" x2="413.9155778894472" y2="424" stroke="#222938" stroke-width="1" stroke-dasharray="2,5"/><text x="413.9155778894472" y="444" class="axis" text-anchor="middle">Sep 24</text><line x1="502.26331658291457" y1="86" x2="502.26331658291457" y2="424" stroke="#222938" stroke-width="1" stroke-dasharray="2,5"/><text x="502.26331658291457" y="444" class="axis" text-anchor="middle">Dec 24</text><line x1="589.6402010050251" y1="86" x2="589.6402010050251" y2="424" stroke="#222938" stroke-width="1" stroke-dasharray="2,5"/><text x="589.6402010050251" y="444" class="axis" text-anchor="middle">Mar 25</text><line x1="678.9587939698492" y1="86" x2="678.9587939698492" y2="424" stroke="#222938" stroke-width="1" stroke-dasharray="2,5"/><text x="678.9587939698492" y="444" class="axis" text-anchor="middle">Jun 25</text><line x1="768.2773869346734" y1="86" x2="768.2773869346734" y2="424" stroke="#222938" stroke-width="1" stroke-dasharray="2,5"/><text x="768.2773869346734" y="444" class="axis" text-anchor="middle">Sep 25</text><line x1="856.6251256281407" y1="86" x2="856.6251256281407" y2="424" stroke="#222938" stroke-width="1" stroke-dasharray="2,5"/><text x="856.6251256281407" y="444" class="axis" text-anchor="middle">Dec 25</text><line x1="944.0020100502513" y1="86" x2="944.0020100502513" y2="424" stroke="#222938" stroke-width="1" stroke-dasharray="2,5"/><text x="944.0020100502513" y="444" class="axis" text-anchor="middle">Mar 26</text><line x1="1033.3206030150754" y1="86" x2="1033.3206030150754" y2="424" stroke="#222938" stroke-width="1" stroke-dasharray="2,5"/><text x="1033.3206030150754" y="444" class="axis" text-anchor="middle">Jun 26</text><path d="M 78 424 L 78.0 421.1 L 79.0 421.4 L 79.9 423.8 L 80.9 423.9 L 81.9 424.0 L 82.9 424.0 L 83.8 424.0 L 84.8 424.0 L 85.8 424.0 L 86.7 424.0 L 87.7 424.0 L 88.7 424.0 L 89.7 424.0 L 90.6 424.0 L 91.6 424.0 L 92.6 423.8 L 93.5 424.0 L 94.5 424.0 L 95.5 424.0 L 96.4 424.0 L 97.4 424.0 L 98.4 424.0 L 99.4 424.0 L 100.3 424.0 L 101.3 424.0 L 102.3 424.0 L 103.2 423.8 L 104.2 423.8 L 105.2 424.0 L 106.2 424.0 L 107.1 424.0 L 108.1 424.0 L 109.1 424.0 L 110.0 424.0 L 111.0 423.9 L 112.0 423.8 L 113.0 424.0 L 113.9 424.0 L 114.9 424.0 L 115.9 424.0 L 116.8 423.8 L 117.8 424.0 L 118.8 424.0 L 119.7 424.0 L 120.7 424.0 L 121.7 424.0 L 122.7 424.0 L 123.6 423.9 L 124.6 423.8 L 125.6 424.0 L 126.5 423.8 L 127.5 424.0 L 128.5 424.0 L 129.5 424.0 L 130.4 424.0 L 131.4 423.7 L 132.4 424.0 L 133.3 424.0 L 134.3 424.0 L 135.3 424.0 L 136.3 424.0 L 137.2 424.0 L 138.2 423.7 L 139.2 424.0 L 140.1 423.8 L 141.1 423.8 L 142.1 424.0 L 143.0 424.0 L 144.0 423.9 L 145.0 424.0 L 146.0 424.0 L 146.9 424.0 L 147.9 424.0 L 148.9 424.0 L 149.8 423.9 L 150.8 424.0 L 151.8 424.0 L 152.8 424.0 L 153.7 424.0 L 154.7 424.0 L 155.7 424.0 L 156.6 424.0 L 157.6 424.0 L 158.6 424.0 L 159.6 424.0 L 160.5 424.0 L 161.5 424.0 L 162.5 424.0 L 163.4 424.0 L 164.4 424.0 L 165.4 424.0 L 166.3 424.0 L 167.3 424.0 L 168.3 424.0 L 169.3 424.0 L 170.2 424.0 L 171.2 424.0 L 172.2 423.9 L 173.1 424.0 L 174.1 424.0 L 175.1 424.0 L 176.1 424.0 L 177.0 424.0 L 178.0 424.0 L 179.0 424.0 L 179.9 424.0 L 180.9 424.0 L 181.9 424.0 L 182.9 424.0 L 183.8 424.0 L 184.8 424.0 L 185.8 424.0 L 186.7 424.0 L 187.7 424.0 L 188.7 424.0 L 189.6 424.0 L 190.6 424.0 L 191.6 424.0 L 192.6 424.0 L 193.5 424.0 L 194.5 424.0 L 195.5 424.0 L 196.4 424.0 L 197.4 424.0 L 198.4 424.0 L 199.4 424.0 L 200.3 424.0 L 201.3 424.0 L 202.3 424.0 L 203.2 424.0 L 204.2 423.7 L 205.2 421.2 L 206.2 422.2 L 207.1 423.7 L 208.1 424.0 L 209.1 424.0 L 210.0 424.0 L 211.0 423.8 L 212.0 424.0 L 212.9 423.8 L 213.9 423.8 L 214.9 423.8 L 215.9 424.0 L 216.8 424.0 L 217.8 423.8 L 218.8 424.0 L 219.7 423.8 L 220.7 423.9 L 221.7 424.0 L 222.7 424.0 L 223.6 424.0 L 224.6 424.0 L 225.6 424.0 L 226.5 423.9 L 227.5 424.0 L 228.5 424.0 L 229.5 424.0 L 230.4 424.0 L 231.4 424.0 L 232.4 424.0 L 233.3 424.0 L 234.3 423.8 L 235.3 423.8 L 236.2 424.0 L 237.2 424.0 L 238.2 424.0 L 239.2 424.0 L 240.1 424.0 L 241.1 423.7 L 242.1 423.9 L 243.0 424.0 L 244.0 424.0 L 245.0 424.0 L 246.0 423.8 L 246.9 423.1 L 247.9 423.4 L 248.9 423.8 L 249.8 424.0 L 250.8 424.0 L 251.8 423.8 L 252.8 424.0 L 253.7 424.0 L 254.7 424.0 L 255.7 424.0 L 256.6 424.0 L 257.6 424.0 L 258.6 424.0 L 259.5 424.0 L 260.5 424.0 L 261.5 423.7 L 262.5 424.0 L 263.4 424.0 L 264.4 424.0 L 265.4 423.8 L 266.3 424.0 L 267.3 423.8 L 268.3 424.0 L 269.3 424.0 L 270.2 424.0 L 271.2 424.0 L 272.2 424.0 L 273.1 424.0 L 274.1 424.0 L 275.1 424.0 L 276.1 423.7 L 277.0 424.0 L 278.0 424.0 L 279.0 423.9 L 279.9 424.0 L 280.9 423.3 L 281.9 423.8 L 282.9 423.9 L 283.8 423.8 L 284.8 424.0 L 285.8 422.8 L 286.7 423.9 L 287.7 423.5 L 288.7 423.8 L 289.6 423.4 L 290.6 424.0 L 291.6 423.9 L 292.6 423.9 L 293.5 423.8 L 294.5 424.0 L 295.5 423.5 L 296.4 424.0 L 297.4 424.0 L 298.4 424.0 L 299.4 423.8 L 300.3 422.6 L 301.3 421.5 L 302.3 423.5 L 303.2 423.8 L 304.2 424.0 L 305.2 424.0 L 306.2 424.0 L 307.1 424.0 L 308.1 423.8 L 309.1 424.0 L 310.0 424.0 L 311.0 424.0 L 312.0 424.0 L 312.9 424.0 L 313.9 424.0 L 314.9 424.0 L 315.9 424.0 L 316.8 422.9 L 317.8 424.0 L 318.8 424.0 L 319.7 421.2 L 320.7 422.8 L 321.7 423.0 L 322.7 420.5 L 323.6 422.6 L 324.6 424.0 L 325.6 424.0 L 326.5 424.0 L 327.5 420.7 L 328.5 422.9 L 329.5 423.5 L 330.4 423.4 L 331.4 424.0 L 332.4 424.0 L 333.3 423.4 L 334.3 423.2 L 335.3 422.8 L 336.2 422.9 L 337.2 422.1 L 338.2 422.8 L 339.2 423.3 L 340.1 423.1 L 341.1 423.1 L 342.1 420.4 L 343.0 423.1 L 344.0 423.5 L 345.0 424.0 L 346.0 423.4 L 346.9 422.1 L 347.9 422.4 L 348.9 422.9 L 349.8 423.1 L 350.8 423.0 L 351.8 424.0 L 352.8 423.3 L 353.7 423.8 L 354.7 423.5 L 355.7 421.0 L 356.6 422.0 L 357.6 419.3 L 358.6 422.6 L 359.5 423.3 L 360.5 419.9 L 361.5 422.8 L 362.5 422.4 L 363.4 422.5 L 364.4 422.1 L 365.4 423.8 L 366.3 422.9 L 367.3 421.9 L 368.3 423.9 L 369.3 423.5 L 370.2 424.0 L 371.2 422.9 L 372.2 424.0 L 373.1 423.1 L 374.1 423.3 L 375.1 423.4 L 376.1 422.5 L 377.0 421.2 L 378.0 422.4 L 379.0 423.2 L 379.9 424.0 L 380.9 420.8 L 381.9 422.5 L 382.8 422.5 L 383.8 420.8 L 384.8 422.5 L 385.8 422.0 L 386.7 422.5 L 387.7 416.0 L 388.7 420.7 L 389.6 420.2 L 390.6 418.6 L 391.6 422.9 L 392.6 423.5 L 393.5 420.7 L 394.5 419.6 L 395.5 421.3 L 396.4 421.9 L 397.4 421.0 L 398.4 422.1 L 399.4 424.0 L 400.3 422.9 L 401.3 423.5 L 402.3 422.0 L 403.2 422.0 L 404.2 422.8 L 405.2 420.2 L 406.1 423.5 L 407.1 423.9 L 408.1 422.2 L 409.1 419.6 L 410.0 422.2 L 411.0 422.0 L 412.0 421.7 L 412.9 423.8 L 413.9 422.8 L 414.9 421.5 L 415.9 421.9 L 416.8 421.7 L 417.8 422.3 L 418.8 419.7 L 419.7 421.3 L 420.7 423.5 L 421.7 422.8 L 422.7 421.7 L 423.6 422.4 L 424.6 423.3 L 425.6 422.9 L 426.5 424.0 L 427.5 423.4 L 428.5 422.3 L 429.4 421.4 L 430.4 422.3 L 431.4 419.5 L 432.4 420.4 L 433.3 422.9 L 434.3 423.1 L 435.3 422.2 L 436.2 423.8 L 437.2 422.9 L 438.2 422.9 L 439.2 420.2 L 440.1 424.0 L 441.1 423.8 L 442.1 422.6 L 443.0 420.6 L 444.0 421.9 L 445.0 422.9 L 446.0 422.3 L 446.9 424.0 L 447.9 423.2 L 448.9 421.2 L 449.8 423.1 L 450.8 420.6 L 451.8 422.6 L 452.7 422.4 L 453.7 422.9 L 454.7 424.0 L 455.7 421.5 L 456.6 422.1 L 457.6 423.1 L 458.6 422.3 L 459.5 422.9 L 460.5 424.0 L 461.5 422.0 L 462.5 423.1 L 463.4 423.4 L 464.4 421.7 L 465.4 422.1 L 466.3 421.3 L 467.3 423.0 L 468.3 423.5 L 469.3 421.5 L 470.2 422.4 L 471.2 422.6 L 472.2 423.3 L 473.1 423.8 L 474.1 423.9 L 475.1 423.8 L 476.1 423.8 L 477.0 423.2 L 478.0 422.8 L 479.0 422.8 L 479.9 421.1 L 480.9 421.7 L 481.9 423.2 L 482.8 422.1 L 483.8 421.1 L 484.8 421.3 L 485.8 421.7 L 486.7 422.5 L 487.7 423.0 L 488.7 423.8 L 489.6 423.5 L 490.6 423.8 L 491.6 423.7 L 492.6 422.9 L 493.5 423.8 L 494.5 423.5 L 495.5 424.0 L 496.4 423.5 L 497.4 424.0 L 498.4 422.9 L 499.4 423.9 L 500.3 423.3 L 501.3 422.3 L 502.3 423.8 L 503.2 423.2 L 504.2 423.4 L 505.2 420.1 L 506.1 420.8 L 507.1 421.7 L 508.1 423.7 L 509.1 424.0 L 510.0 421.9 L 511.0 420.8 L 512.0 422.9 L 512.9 418.4 L 513.9 421.5 L 514.9 420.7 L 515.9 421.3 L 516.8 420.8 L 517.8 422.5 L 518.8 420.3 L 519.7 421.2 L 520.7 420.6 L 521.7 421.0 L 522.7 421.0 L 523.6 421.4 L 524.6 423.1 L 525.6 424.0 L 526.5 421.4 L 527.5 423.1 L 528.5 422.9 L 529.4 423.8 L 530.4 423.5 L 531.4 423.5 L 532.4 423.0 L 533.3 423.0 L 534.3 423.5 L 535.3 423.4 L 536.2 423.3 L 537.2 423.8 L 538.2 422.2 L 539.2 423.9 L 540.1 423.5 L 541.1 420.3 L 542.1 423.4 L 543.0 423.8 L 544.0 419.2 L 545.0 420.4 L 546.0 422.1 L 546.9 423.0 L 547.9 424.0 L 548.9 420.8 L 549.8 418.8 L 550.8 421.0 L 551.8 422.9 L 552.7 421.9 L 553.7 421.5 L 554.7 418.4 L 555.7 424.0 L 556.6 423.3 L 557.6 415.6 L 558.6 420.4 L 559.5 420.4 L 560.5 419.5 L 561.5 419.0 L 562.5 419.8 L 563.4 418.5 L 564.4 409.7 L 565.4 408.8 L 566.3 410.3 L 567.3 410.6 L 568.3 414.1 L 569.3 418.7 L 570.2 419.2 L 571.2 407.0 L 572.2 409.7 L 573.1 414.1 L 574.1 414.5 L 575.1 410.7 L 576.0 417.1 L 577.0 417.8 L 578.0 406.1 L 579.0 405.2 L 579.9 410.8 L 580.9 416.5 L 581.9 418.7 L 582.8 416.6 L 583.8 421.0 L 584.8 415.4 L 585.8 409.2 L 586.7 416.9 L 587.7 413.4 L 588.7 410.9 L 589.6 410.9 L 590.6 418.0 L 591.6 404.5 L 592.6 411.9 L 593.5 408.7 L 594.5 409.7 L 595.5 412.8 L 596.4 416.6 L 597.4 418.7 L 598.4 409.8 L 599.3 406.1 L 600.3 409.5 L 601.3 415.3 L 602.3 413.1 L 603.2 416.1 L 604.2 420.3 L 605.2 416.9 L 606.1 412.8 L 607.1 377.6 L 608.1 402.3 L 609.1 412.4 L 610.0 416.2 L 611.0 417.8 L 612.0 416.8 L 612.9 416.6 L 613.9 416.7 L 614.9 414.6 L 615.9 414.3 L 616.8 417.0 L 617.8 421.0 L 618.8 418.4 L 619.7 415.9 L 620.7 412.3 L 621.7 411.5 L 622.6 415.4 L 623.6 412.3 L 624.6 414.0 L 625.6 413.4 L 626.5 415.7 L 627.5 409.0 L 628.5 408.0 L 629.4 408.3 L 630.4 414.0 L 631.4 415.9 L 632.4 412.7 L 633.3 414.9 L 634.3 408.8 L 635.3 414.3 L 636.2 419.2 L 637.2 418.5 L 638.2 418.8 L 639.2 408.1 L 640.1 399.0 L 641.1 401.4 L 642.1 410.3 L 643.0 405.4 L 644.0 418.6 L 645.0 419.0 L 645.9 415.8 L 646.9 412.8 L 647.9 412.4 L 648.9 413.7 L 649.8 412.8 L 650.8 421.4 L 651.8 421.4 L 652.7 410.1 L 653.7 410.1 L 654.7 408.7 L 655.7 399.1 L 656.6 407.9 L 657.6 411.9 L 658.6 417.1 L 659.5 413.6 L 660.5 407.8 L 661.5 415.2 L 662.5 413.4 L 663.4 403.0 L 664.4 412.6 L 665.4 417.0 L 666.3 401.5 L 667.3 399.4 L 668.3 400.2 L 669.3 417.0 L 670.2 415.8 L 671.2 421.6 L 672.2 422.4 L 673.1 416.8 L 674.1 406.8 L 675.1 407.0 L 676.0 388.4 L 677.0 382.7 L 678.0 412.8 L 679.0 414.1 L 679.9 416.0 L 680.9 392.8 L 681.9 405.0 L 682.8 380.1 L 683.8 388.8 L 684.8 417.7 L 685.8 421.0 L 686.7 395.5 L 687.7 395.9 L 688.7 403.3 L 689.6 400.8 L 690.6 402.8 L 691.6 417.9 L 692.6 421.7 L 693.5 393.7 L 694.5 393.4 L 695.5 400.0 L 696.4 407.2 L 697.4 405.4 L 698.4 417.8 L 699.3 409.1 L 700.3 407.4 L 701.3 393.2 L 702.3 404.8 L 703.2 403.8 L 704.2 397.9 L 705.2 415.6 L 706.1 415.7 L 707.1 418.7 L 708.1 385.4 L 709.1 389.7 L 710.0 402.0 L 711.0 377.0 L 712.0 411.3 L 712.9 416.2 L 713.9 394.0 L 714.9 386.5 L 715.9 396.6 L 716.8 408.5 L 717.8 399.3 L 718.8 416.3 L 719.7 416.0 L 720.7 372.7 L 721.7 378.8 L 722.6 370.6 L 723.6 382.4 L 724.6 391.3 L 725.6 416.5 L 726.5 412.2 L 727.5 381.8 L 728.5 373.4 L 729.4 391.6 L 730.4 379.8 L 731.4 359.8 L 732.4 413.6 L 733.3 418.0 L 734.3 349.6 L 735.3 349.3 L 736.2 400.2 L 737.2 363.2 L 738.2 362.7 L 739.2 394.7 L 740.1 414.3 L 741.1 318.8 L 742.1 318.9 L 743.0 340.2 L 744.0 409.0 L 745.0 313.8 L 745.9 402.5 L 746.9 412.4 L 747.9 341.9 L 748.9 344.9 L 749.8 309.5 L 750.8 310.9 L 751.8 334.3 L 752.7 415.2 L 753.7 417.7 L 754.7 414.9 L 755.7 293.9 L 756.6 260.5 L 757.6 292.7 L 758.6 346.4 L 759.5 410.9 L 760.5 412.2 L 761.5 291.5 L 762.5 233.1 L 763.4 240.5 L 764.4 414.6 L 765.4 254.9 L 766.3 415.7 L 767.3 416.9 L 768.3 375.7 L 769.2 321.5 L 770.2 312.0 L 771.2 308.2 L 772.2 347.2 L 773.1 417.9 L 774.1 419.3 L 775.1 343.6 L 776.0 329.6 L 777.0 361.7 L 778.0 355.6 L 779.0 328.5 L 779.9 419.3 L 780.9 419.5 L 781.9 312.5 L 782.8 336.2 L 783.8 278.2 L 784.8 263.8 L 785.8 288.6 L 786.7 413.9 L 787.7 418.1 L 788.7 291.5 L 789.6 261.1 L 790.6 251.5 L 791.6 245.0 L 792.5 247.2 L 793.5 419.0 L 794.5 420.1 L 795.5 254.7 L 796.4 288.2 L 797.4 268.1 L 798.4 281.5 L 799.3 281.8 L 800.3 397.6 L 801.3 410.5 L 802.3 214.8 L 803.2 282.8 L 804.2 201.8 L 805.2 319.1 L 806.1 232.8 L 807.1 412.5 L 808.1 413.3 L 809.1 411.0 L 810.0 211.2 L 811.0 279.7 L 812.0 285.2 L 812.9 329.5 L 813.9 413.0 L 814.9 415.1 L 815.8 370.9 L 816.8 274.3 L 817.8 205.0 L 818.8 288.1 L 819.7 371.4 L 820.7 420.1 L 821.7 415.0 L 822.6 321.0 L 823.6 258.3 L 824.6 297.0 L 825.6 257.6 L 826.5 246.1 L 827.5 406.1 L 828.5 411.8 L 829.4 409.2 L 830.4 280.5 L 831.4 237.8 L 832.4 265.1 L 833.3 279.8 L 834.3 417.4 L 835.3 416.7 L 836.2 251.5 L 837.2 213.2 L 838.2 270.0 L 839.1 278.3 L 840.1 217.3 L 841.1 411.2 L 842.1 419.9 L 843.0 421.6 L 844.0 211.6 L 845.0 218.6 L 845.9 162.3 L 846.9 203.3 L 847.9 408.8 L 848.9 417.5 L 849.8 131.4 L 850.8 153.1 L 851.8 300.2 L 852.7 327.7 L 853.7 259.5 L 854.7 413.9 L 855.7 414.1 L 856.6 263.7 L 857.6 283.6 L 858.6 338.7 L 859.5 337.4 L 860.5 292.4 L 861.5 422.1 L 862.5 421.9 L 863.4 421.4 L 864.4 214.0 L 865.4 274.7 L 866.3 292.7 L 867.3 362.6 L 868.3 412.2 L 869.2 419.2 L 870.2 349.5 L 871.2 385.5 L 872.2 384.9 L 873.1 375.8 L 874.1 395.9 L 875.1 413.6 L 876.0 418.1 L 877.0 380.6 L 878.0 381.5 L 879.0 395.4 L 879.9 414.3 L 880.9 399.8 L 881.9 419.5 L 882.8 419.4 L 883.8 374.4 L 884.8 364.9 L 885.8 408.6 L 886.7 415.2 L 887.7 404.2 L 888.7 417.9 L 889.6 417.9 L 890.6 398.5 L 891.6 401.9 L 892.5 403.9 L 893.5 408.7 L 894.5 407.4 L 895.5 419.8 L 896.4 422.1 L 897.4 419.8 L 898.4 397.7 L 899.3 407.1 L 900.3 367.0 L 901.3 379.3 L 902.3 414.9 L 903.2 413.0 L 904.2 401.4 L 905.2 389.0 L 906.1 379.3 L 907.1 385.5 L 908.1 373.3 L 909.1 417.0 L 910.0 419.8 L 911.0 354.6 L 912.0 359.7 L 912.9 377.7 L 913.9 390.4 L 914.9 384.5 L 915.8 412.5 L 916.8 418.0 L 917.8 385.8 L 918.8 397.2 L 919.7 387.8 L 920.7 392.0 L 921.7 403.4 L 922.6 418.5 L 923.6 419.0 L 924.6 402.0 L 925.6 394.7 L 926.5 404.3 L 927.5 408.8 L 928.5 416.8 L 929.4 417.0 L 930.4 419.0 L 931.4 402.5 L 932.4 409.5 L 933.3 409.5 L 934.3 394.3 L 935.3 395.3 L 936.2 414.5 L 937.2 420.3 L 938.2 401.5 L 939.1 399.8 L 940.1 401.0 L 941.1 386.3 L 942.1 390.1 L 943.0 413.0 L 944.0 417.1 L 945.0 363.4 L 945.9 366.1 L 946.9 394.6 L 947.9 392.6 L 948.9 389.7 L 949.8 418.5 L 950.8 421.9 L 951.8 405.0 L 952.7 405.5 L 953.7 402.4 L 954.7 403.3 L 955.7 398.0 L 956.6 395.9 L 957.6 416.0 L 958.6 392.3 L 959.5 396.2 L 960.5 402.7 L 961.5 385.2 L 962.4 392.6 L 963.4 423.9 L 964.4 423.4 L 965.4 421.4 L 966.3 404.2 L 967.3 406.6 L 968.3 407.6 L 969.2 410.7 L 970.2 423.7 L 971.2 422.1 L 972.2 403.7 L 973.1 405.1 L 974.1 408.0 L 975.1 423.4 L 976.0 423.4 L 977.0 424.0 L 978.0 424.0 L 979.0 399.0 L 979.9 395.0 L 980.9 394.7 L 981.9 399.8 L 982.8 401.9 L 983.8 421.5 L 984.8 423.3 L 985.7 405.2 L 986.7 402.4 L 987.7 398.9 L 988.7 400.3 L 989.6 409.6 L 990.6 422.9 L 991.6 421.2 L 992.5 401.0 L 993.5 391.0 L 994.5 397.5 L 995.5 401.9 L 996.4 387.6 L 997.4 416.3 L 998.4 416.7 L 999.3 382.1 L 1000.3 375.6 L 1001.3 375.4 L 1002.3 378.1 L 1003.2 399.9 L 1004.2 396.7 L 1005.2 420.7 L 1006.1 337.2 L 1007.1 241.5 L 1008.1 272.2 L 1009.0 298.5 L 1010.0 284.5 L 1011.0 414.6 L 1012.0 418.6 L 1012.9 308.0 L 1013.9 282.0 L 1014.9 312.5 L 1015.8 313.4 L 1016.8 309.8 L 1017.8 398.9 L 1018.8 418.3 L 1019.7 416.8 L 1020.7 309.6 L 1021.7 331.1 L 1022.6 373.3 L 1023.6 354.0 L 1024.6 405.6 L 1025.6 411.7 L 1026.5 361.1 L 1027.5 347.0 L 1028.5 362.0 L 1029.4 375.0 L 1030.4 350.5 L 1031.4 393.4 L 1032.3 405.9 L 1033.3 369.9 L 1034.3 374.9 L 1035.3 371.6 L 1036.2 394.7 L 1037.2 372.1 L 1038.2 382.4 L 1039.1 408.3 L 1040.1 401.0 L 1041.1 354.0 L 1042.1 355.9 L 1043.0 365.3 L 1044.0 423.2 L 1044 424 Z" fill="url(#g0)"/><path d="M 78.0 421.1 L 79.0 421.4 L 79.9 423.8 L 80.9 423.9 L 81.9 424.0 L 82.9 424.0 L 83.8 424.0 L 84.8 424.0 L 85.8 424.0 L 86.7 424.0 L 87.7 424.0 L 88.7 424.0 L 89.7 424.0 L 90.6 424.0 L 91.6 424.0 L 92.6 423.8 L 93.5 424.0 L 94.5 424.0 L 95.5 424.0 L 96.4 424.0 L 97.4 424.0 L 98.4 424.0 L 99.4 424.0 L 100.3 424.0 L 101.3 424.0 L 102.3 424.0 L 103.2 423.8 L 104.2 423.8 L 105.2 424.0 L 106.2 424.0 L 107.1 424.0 L 108.1 424.0 L 109.1 424.0 L 110.0 424.0 L 111.0 423.9 L 112.0 423.8 L 113.0 424.0 L 113.9 424.0 L 114.9 424.0 L 115.9 424.0 L 116.8 423.8 L 117.8 424.0 L 118.8 424.0 L 119.7 424.0 L 120.7 424.0 L 121.7 424.0 L 122.7 424.0 L 123.6 423.9 L 124.6 423.8 L 125.6 424.0 L 126.5 423.8 L 127.5 424.0 L 128.5 424.0 L 129.5 424.0 L 130.4 424.0 L 131.4 423.7 L 132.4 424.0 L 133.3 424.0 L 134.3 424.0 L 135.3 424.0 L 136.3 424.0 L 137.2 424.0 L 138.2 423.7 L 139.2 424.0 L 140.1 423.8 L 141.1 423.8 L 142.1 424.0 L 143.0 424.0 L 144.0 423.9 L 145.0 424.0 L 146.0 424.0 L 146.9 424.0 L 147.9 424.0 L 148.9 424.0 L 149.8 423.9 L 150.8 424.0 L 151.8 424.0 L 152.8 424.0 L 153.7 424.0 L 154.7 424.0 L 155.7 424.0 L 156.6 424.0 L 157.6 424.0 L 158.6 424.0 L 159.6 424.0 L 160.5 424.0 L 161.5 424.0 L 162.5 424.0 L 163.4 424.0 L 164.4 424.0 L 165.4 424.0 L 166.3 424.0 L 167.3 424.0 L 168.3 424.0 L 169.3 424.0 L 170.2 424.0 L 171.2 424.0 L 172.2 423.9 L 173.1 424.0 L 174.1 424.0 L 175.1 424.0 L 176.1 424.0 L 177.0 424.0 L 178.0 424.0 L 179.0 424.0 L 179.9 424.0 L 180.9 424.0 L 181.9 424.0 L 182.9 424.0 L 183.8 424.0 L 184.8 424.0 L 185.8 424.0 L 186.7 424.0 L 187.7 424.0 L 188.7 424.0 L 189.6 424.0 L 190.6 424.0 L 191.6 424.0 L 192.6 424.0 L 193.5 424.0 L 194.5 424.0 L 195.5 424.0 L 196.4 424.0 L 197.4 424.0 L 198.4 424.0 L 199.4 424.0 L 200.3 424.0 L 201.3 424.0 L 202.3 424.0 L 203.2 424.0 L 204.2 423.7 L 205.2 421.2 L 206.2 422.2 L 207.1 423.7 L 208.1 424.0 L 209.1 424.0 L 210.0 424.0 L 211.0 423.8 L 212.0 424.0 L 212.9 423.8 L 213.9 423.8 L 214.9 423.8 L 215.9 424.0 L 216.8 424.0 L 217.8 423.8 L 218.8 424.0 L 219.7 423.8 L 220.7 423.9 L 221.7 424.0 L 222.7 424.0 L 223.6 424.0 L 224.6 424.0 L 225.6 424.0 L 226.5 423.9 L 227.5 424.0 L 228.5 424.0 L 229.5 424.0 L 230.4 424.0 L 231.4 424.0 L 232.4 424.0 L 233.3 424.0 L 234.3 423.8 L 235.3 423.8 L 236.2 424.0 L 237.2 424.0 L 238.2 424.0 L 239.2 424.0 L 240.1 424.0 L 241.1 423.7 L 242.1 423.9 L 243.0 424.0 L 244.0 424.0 L 245.0 424.0 L 246.0 423.8 L 246.9 423.1 L 247.9 423.4 L 248.9 423.8 L 249.8 424.0 L 250.8 424.0 L 251.8 423.8 L 252.8 424.0 L 253.7 424.0 L 254.7 424.0 L 255.7 424.0 L 256.6 424.0 L 257.6 424.0 L 258.6 424.0 L 259.5 424.0 L 260.5 424.0 L 261.5 423.7 L 262.5 424.0 L 263.4 424.0 L 264.4 424.0 L 265.4 423.8 L 266.3 424.0 L 267.3 423.8 L 268.3 424.0 L 269.3 424.0 L 270.2 424.0 L 271.2 424.0 L 272.2 424.0 L 273.1 424.0 L 274.1 424.0 L 275.1 424.0 L 276.1 423.7 L 277.0 424.0 L 278.0 424.0 L 279.0 423.9 L 279.9 424.0 L 280.9 423.3 L 281.9 423.8 L 282.9 423.9 L 283.8 423.8 L 284.8 424.0 L 285.8 422.8 L 286.7 423.9 L 287.7 423.5 L 288.7 423.8 L 289.6 423.4 L 290.6 424.0 L 291.6 423.9 L 292.6 423.9 L 293.5 423.8 L 294.5 424.0 L 295.5 423.5 L 296.4 424.0 L 297.4 424.0 L 298.4 424.0 L 299.4 423.8 L 300.3 422.6 L 301.3 421.5 L 302.3 423.5 L 303.2 423.8 L 304.2 424.0 L 305.2 424.0 L 306.2 424.0 L 307.1 424.0 L 308.1 423.8 L 309.1 424.0 L 310.0 424.0 L 311.0 424.0 L 312.0 424.0 L 312.9 424.0 L 313.9 424.0 L 314.9 424.0 L 315.9 424.0 L 316.8 422.9 L 317.8 424.0 L 318.8 424.0 L 319.7 421.2 L 320.7 422.8 L 321.7 423.0 L 322.7 420.5 L 323.6 422.6 L 324.6 424.0 L 325.6 424.0 L 326.5 424.0 L 327.5 420.7 L 328.5 422.9 L 329.5 423.5 L 330.4 423.4 L 331.4 424.0 L 332.4 424.0 L 333.3 423.4 L 334.3 423.2 L 335.3 422.8 L 336.2 422.9 L 337.2 422.1 L 338.2 422.8 L 339.2 423.3 L 340.1 423.1 L 341.1 423.1 L 342.1 420.4 L 343.0 423.1 L 344.0 423.5 L 345.0 424.0 L 346.0 423.4 L 346.9 422.1 L 347.9 422.4 L 348.9 422.9 L 349.8 423.1 L 350.8 423.0 L 351.8 424.0 L 352.8 423.3 L 353.7 423.8 L 354.7 423.5 L 355.7 421.0 L 356.6 422.0 L 357.6 419.3 L 358.6 422.6 L 359.5 423.3 L 360.5 419.9 L 361.5 422.8 L 362.5 422.4 L 363.4 422.5 L 364.4 422.1 L 365.4 423.8 L 366.3 422.9 L 367.3 421.9 L 368.3 423.9 L 369.3 423.5 L 370.2 424.0 L 371.2 422.9 L 372.2 424.0 L 373.1 423.1 L 374.1 423.3 L 375.1 423.4 L 376.1 422.5 L 377.0 421.2 L 378.0 422.4 L 379.0 423.2 L 379.9 424.0 L 380.9 420.8 L 381.9 422.5 L 382.8 422.5 L 383.8 420.8 L 384.8 422.5 L 385.8 422.0 L 386.7 422.5 L 387.7 416.0 L 388.7 420.7 L 389.6 420.2 L 390.6 418.6 L 391.6 422.9 L 392.6 423.5 L 393.5 420.7 L 394.5 419.6 L 395.5 421.3 L 396.4 421.9 L 397.4 421.0 L 398.4 422.1 L 399.4 424.0 L 400.3 422.9 L 401.3 423.5 L 402.3 422.0 L 403.2 422.0 L 404.2 422.8 L 405.2 420.2 L 406.1 423.5 L 407.1 423.9 L 408.1 422.2 L 409.1 419.6 L 410.0 422.2 L 411.0 422.0 L 412.0 421.7 L 412.9 423.8 L 413.9 422.8 L 414.9 421.5 L 415.9 421.9 L 416.8 421.7 L 417.8 422.3 L 418.8 419.7 L 419.7 421.3 L 420.7 423.5 L 421.7 422.8 L 422.7 421.7 L 423.6 422.4 L 424.6 423.3 L 425.6 422.9 L 426.5 424.0 L 427.5 423.4 L 428.5 422.3 L 429.4 421.4 L 430.4 422.3 L 431.4 419.5 L 432.4 420.4 L 433.3 422.9 L 434.3 423.1 L 435.3 422.2 L 436.2 423.8 L 437.2 422.9 L 438.2 422.9 L 439.2 420.2 L 440.1 424.0 L 441.1 423.8 L 442.1 422.6 L 443.0 420.6 L 444.0 421.9 L 445.0 422.9 L 446.0 422.3 L 446.9 424.0 L 447.9 423.2 L 448.9 421.2 L 449.8 423.1 L 450.8 420.6 L 451.8 422.6 L 452.7 422.4 L 453.7 422.9 L 454.7 424.0 L 455.7 421.5 L 456.6 422.1 L 457.6 423.1 L 458.6 422.3 L 459.5 422.9 L 460.5 424.0 L 461.5 422.0 L 462.5 423.1 L 463.4 423.4 L 464.4 421.7 L 465.4 422.1 L 466.3 421.3 L 467.3 423.0 L 468.3 423.5 L 469.3 421.5 L 470.2 422.4 L 471.2 422.6 L 472.2 423.3 L 473.1 423.8 L 474.1 423.9 L 475.1 423.8 L 476.1 423.8 L 477.0 423.2 L 478.0 422.8 L 479.0 422.8 L 479.9 421.1 L 480.9 421.7 L 481.9 423.2 L 482.8 422.1 L 483.8 421.1 L 484.8 421.3 L 485.8 421.7 L 486.7 422.5 L 487.7 423.0 L 488.7 423.8 L 489.6 423.5 L 490.6 423.8 L 491.6 423.7 L 492.6 422.9 L 493.5 423.8 L 494.5 423.5 L 495.5 424.0 L 496.4 423.5 L 497.4 424.0 L 498.4 422.9 L 499.4 423.9 L 500.3 423.3 L 501.3 422.3 L 502.3 423.8 L 503.2 423.2 L 504.2 423.4 L 505.2 420.1 L 506.1 420.8 L 507.1 421.7 L 508.1 423.7 L 509.1 424.0 L 510.0 421.9 L 511.0 420.8 L 512.0 422.9 L 512.9 418.4 L 513.9 421.5 L 514.9 420.7 L 515.9 421.3 L 516.8 420.8 L 517.8 422.5 L 518.8 420.3 L 519.7 421.2 L 520.7 420.6 L 521.7 421.0 L 522.7 421.0 L 523.6 421.4 L 524.6 423.1 L 525.6 424.0 L 526.5 421.4 L 527.5 423.1 L 528.5 422.9 L 529.4 423.8 L 530.4 423.5 L 531.4 423.5 L 532.4 423.0 L 533.3 423.0 L 534.3 423.5 L 535.3 423.4 L 536.2 423.3 L 537.2 423.8 L 538.2 422.2 L 539.2 423.9 L 540.1 423.5 L 541.1 420.3 L 542.1 423.4 L 543.0 423.8 L 544.0 419.2 L 545.0 420.4 L 546.0 422.1 L 546.9 423.0 L 547.9 424.0 L 548.9 420.8 L 549.8 418.8 L 550.8 421.0 L 551.8 422.9 L 552.7 421.9 L 553.7 421.5 L 554.7 418.4 L 555.7 424.0 L 556.6 423.3 L 557.6 415.6 L 558.6 420.4 L 559.5 420.4 L 560.5 419.5 L 561.5 419.0 L 562.5 419.8 L 563.4 418.5 L 564.4 409.7 L 565.4 408.8 L 566.3 410.3 L 567.3 410.6 L 568.3 414.1 L 569.3 418.7 L 570.2 419.2 L 571.2 407.0 L 572.2 409.7 L 573.1 414.1 L 574.1 414.5 L 575.1 410.7 L 576.0 417.1 L 577.0 417.8 L 578.0 406.1 L 579.0 405.2 L 579.9 410.8 L 580.9 416.5 L 581.9 418.7 L 582.8 416.6 L 583.8 421.0 L 584.8 415.4 L 585.8 409.2 L 586.7 416.9 L 587.7 413.4 L 588.7 410.9 L 589.6 410.9 L 590.6 418.0 L 591.6 404.5 L 592.6 411.9 L 593.5 408.7 L 594.5 409.7 L 595.5 412.8 L 596.4 416.6 L 597.4 418.7 L 598.4 409.8 L 599.3 406.1 L 600.3 409.5 L 601.3 415.3 L 602.3 413.1 L 603.2 416.1 L 604.2 420.3 L 605.2 416.9 L 606.1 412.8 L 607.1 377.6 L 608.1 402.3 L 609.1 412.4 L 610.0 416.2 L 611.0 417.8 L 612.0 416.8 L 612.9 416.6 L 613.9 416.7 L 614.9 414.6 L 615.9 414.3 L 616.8 417.0 L 617.8 421.0 L 618.8 418.4 L 619.7 415.9 L 620.7 412.3 L 621.7 411.5 L 622.6 415.4 L 623.6 412.3 L 624.6 414.0 L 625.6 413.4 L 626.5 415.7 L 627.5 409.0 L 628.5 408.0 L 629.4 408.3 L 630.4 414.0 L 631.4 415.9 L 632.4 412.7 L 633.3 414.9 L 634.3 408.8 L 635.3 414.3 L 636.2 419.2 L 637.2 418.5 L 638.2 418.8 L 639.2 408.1 L 640.1 399.0 L 641.1 401.4 L 642.1 410.3 L 643.0 405.4 L 644.0 418.6 L 645.0 419.0 L 645.9 415.8 L 646.9 412.8 L 647.9 412.4 L 648.9 413.7 L 649.8 412.8 L 650.8 421.4 L 651.8 421.4 L 652.7 410.1 L 653.7 410.1 L 654.7 408.7 L 655.7 399.1 L 656.6 407.9 L 657.6 411.9 L 658.6 417.1 L 659.5 413.6 L 660.5 407.8 L 661.5 415.2 L 662.5 413.4 L 663.4 403.0 L 664.4 412.6 L 665.4 417.0 L 666.3 401.5 L 667.3 399.4 L 668.3 400.2 L 669.3 417.0 L 670.2 415.8 L 671.2 421.6 L 672.2 422.4 L 673.1 416.8 L 674.1 406.8 L 675.1 407.0 L 676.0 388.4 L 677.0 382.7 L 678.0 412.8 L 679.0 414.1 L 679.9 416.0 L 680.9 392.8 L 681.9 405.0 L 682.8 380.1 L 683.8 388.8 L 684.8 417.7 L 685.8 421.0 L 686.7 395.5 L 687.7 395.9 L 688.7 403.3 L 689.6 400.8 L 690.6 402.8 L 691.6 417.9 L 692.6 421.7 L 693.5 393.7 L 694.5 393.4 L 695.5 400.0 L 696.4 407.2 L 697.4 405.4 L 698.4 417.8 L 699.3 409.1 L 700.3 407.4 L 701.3 393.2 L 702.3 404.8 L 703.2 403.8 L 704.2 397.9 L 705.2 415.6 L 706.1 415.7 L 707.1 418.7 L 708.1 385.4 L 709.1 389.7 L 710.0 402.0 L 711.0 377.0 L 712.0 411.3 L 712.9 416.2 L 713.9 394.0 L 714.9 386.5 L 715.9 396.6 L 716.8 408.5 L 717.8 399.3 L 718.8 416.3 L 719.7 416.0 L 720.7 372.7 L 721.7 378.8 L 722.6 370.6 L 723.6 382.4 L 724.6 391.3 L 725.6 416.5 L 726.5 412.2 L 727.5 381.8 L 728.5 373.4 L 729.4 391.6 L 730.4 379.8 L 731.4 359.8 L 732.4 413.6 L 733.3 418.0 L 734.3 349.6 L 735.3 349.3 L 736.2 400.2 L 737.2 363.2 L 738.2 362.7 L 739.2 394.7 L 740.1 414.3 L 741.1 318.8 L 742.1 318.9 L 743.0 340.2 L 744.0 409.0 L 745.0 313.8 L 745.9 402.5 L 746.9 412.4 L 747.9 341.9 L 748.9 344.9 L 749.8 309.5 L 750.8 310.9 L 751.8 334.3 L 752.7 415.2 L 753.7 417.7 L 754.7 414.9 L 755.7 293.9 L 756.6 260.5 L 757.6 292.7 L 758.6 346.4 L 759.5 410.9 L 760.5 412.2 L 761.5 291.5 L 762.5 233.1 L 763.4 240.5 L 764.4 414.6 L 765.4 254.9 L 766.3 415.7 L 767.3 416.9 L 768.3 375.7 L 769.2 321.5 L 770.2 312.0 L 771.2 308.2 L 772.2 347.2 L 773.1 417.9 L 774.1 419.3 L 775.1 343.6 L 776.0 329.6 L 777.0 361.7 L 778.0 355.6 L 779.0 328.5 L 779.9 419.3 L 780.9 419.5 L 781.9 312.5 L 782.8 336.2 L 783.8 278.2 L 784.8 263.8 L 785.8 288.6 L 786.7 413.9 L 787.7 418.1 L 788.7 291.5 L 789.6 261.1 L 790.6 251.5 L 791.6 245.0 L 792.5 247.2 L 793.5 419.0 L 794.5 420.1 L 795.5 254.7 L 796.4 288.2 L 797.4 268.1 L 798.4 281.5 L 799.3 281.8 L 800.3 397.6 L 801.3 410.5 L 802.3 214.8 L 803.2 282.8 L 804.2 201.8 L 805.2 319.1 L 806.1 232.8 L 807.1 412.5 L 808.1 413.3 L 809.1 411.0 L 810.0 211.2 L 811.0 279.7 L 812.0 285.2 L 812.9 329.5 L 813.9 413.0 L 814.9 415.1 L 815.8 370.9 L 816.8 274.3 L 817.8 205.0 L 818.8 288.1 L 819.7 371.4 L 820.7 420.1 L 821.7 415.0 L 822.6 321.0 L 823.6 258.3 L 824.6 297.0 L 825.6 257.6 L 826.5 246.1 L 827.5 406.1 L 828.5 411.8 L 829.4 409.2 L 830.4 280.5 L 831.4 237.8 L 832.4 265.1 L 833.3 279.8 L 834.3 417.4 L 835.3 416.7 L 836.2 251.5 L 837.2 213.2 L 838.2 270.0 L 839.1 278.3 L 840.1 217.3 L 841.1 411.2 L 842.1 419.9 L 843.0 421.6 L 844.0 211.6 L 845.0 218.6 L 845.9 162.3 L 846.9 203.3 L 847.9 408.8 L 848.9 417.5 L 849.8 131.4 L 850.8 153.1 L 851.8 300.2 L 852.7 327.7 L 853.7 259.5 L 854.7 413.9 L 855.7 414.1 L 856.6 263.7 L 857.6 283.6 L 858.6 338.7 L 859.5 337.4 L 860.5 292.4 L 861.5 422.1 L 862.5 421.9 L 863.4 421.4 L 864.4 214.0 L 865.4 274.7 L 866.3 292.7 L 867.3 362.6 L 868.3 412.2 L 869.2 419.2 L 870.2 349.5 L 871.2 385.5 L 872.2 384.9 L 873.1 375.8 L 874.1 395.9 L 875.1 413.6 L 876.0 418.1 L 877.0 380.6 L 878.0 381.5 L 879.0 395.4 L 879.9 414.3 L 880.9 399.8 L 881.9 419.5 L 882.8 419.4 L 883.8 374.4 L 884.8 364.9 L 885.8 408.6 L 886.7 415.2 L 887.7 404.2 L 888.7 417.9 L 889.6 417.9 L 890.6 398.5 L 891.6 401.9 L 892.5 403.9 L 893.5 408.7 L 894.5 407.4 L 895.5 419.8 L 896.4 422.1 L 897.4 419.8 L 898.4 397.7 L 899.3 407.1 L 900.3 367.0 L 901.3 379.3 L 902.3 414.9 L 903.2 413.0 L 904.2 401.4 L 905.2 389.0 L 906.1 379.3 L 907.1 385.5 L 908.1 373.3 L 909.1 417.0 L 910.0 419.8 L 911.0 354.6 L 912.0 359.7 L 912.9 377.7 L 913.9 390.4 L 914.9 384.5 L 915.8 412.5 L 916.8 418.0 L 917.8 385.8 L 918.8 397.2 L 919.7 387.8 L 920.7 392.0 L 921.7 403.4 L 922.6 418.5 L 923.6 419.0 L 924.6 402.0 L 925.6 394.7 L 926.5 404.3 L 927.5 408.8 L 928.5 416.8 L 929.4 417.0 L 930.4 419.0 L 931.4 402.5 L 932.4 409.5 L 933.3 409.5 L 934.3 394.3 L 935.3 395.3 L 936.2 414.5 L 937.2 420.3 L 938.2 401.5 L 939.1 399.8 L 940.1 401.0 L 941.1 386.3 L 942.1 390.1 L 943.0 413.0 L 944.0 417.1 L 945.0 363.4 L 945.9 366.1 L 946.9 394.6 L 947.9 392.6 L 948.9 389.7 L 949.8 418.5 L 950.8 421.9 L 951.8 405.0 L 952.7 405.5 L 953.7 402.4 L 954.7 403.3 L 955.7 398.0 L 956.6 395.9 L 957.6 416.0 L 958.6 392.3 L 959.5 396.2 L 960.5 402.7 L 961.5 385.2 L 962.4 392.6 L 963.4 423.9 L 964.4 423.4 L 965.4 421.4 L 966.3 404.2 L 967.3 406.6 L 968.3 407.6 L 969.2 410.7 L 970.2 423.7 L 971.2 422.1 L 972.2 403.7 L 973.1 405.1 L 974.1 408.0 L 975.1 423.4 L 976.0 423.4 L 977.0 424.0 L 978.0 424.0 L 979.0 399.0 L 979.9 395.0 L 980.9 394.7 L 981.9 399.8 L 982.8 401.9 L 983.8 421.5 L 984.8 423.3 L 985.7 405.2 L 986.7 402.4 L 987.7 398.9 L 988.7 400.3 L 989.6 409.6 L 990.6 422.9 L 991.6 421.2 L 992.5 401.0 L 993.5 391.0 L 994.5 397.5 L 995.5 401.9 L 996.4 387.6 L 997.4 416.3 L 998.4 416.7 L 999.3 382.1 L 1000.3 375.6 L 1001.3 375.4 L 1002.3 378.1 L 1003.2 399.9 L 1004.2 396.7 L 1005.2 420.7 L 1006.1 337.2 L 1007.1 241.5 L 1008.1 272.2 L 1009.0 298.5 L 1010.0 284.5 L 1011.0 414.6 L 1012.0 418.6 L 1012.9 308.0 L 1013.9 282.0 L 1014.9 312.5 L 1015.8 313.4 L 1016.8 309.8 L 1017.8 398.9 L 1018.8 418.3 L 1019.7 416.8 L 1020.7 309.6 L 1021.7 331.1 L 1022.6 373.3 L 1023.6 354.0 L 1024.6 405.6 L 1025.6 411.7 L 1026.5 361.1 L 1027.5 347.0 L 1028.5 362.0 L 1029.4 375.0 L 1030.4 350.5 L 1031.4 393.4 L 1032.3 405.9 L 1033.3 369.9 L 1034.3 374.9 L 1035.3 371.6 L 1036.2 394.7 L 1037.2 372.1 L 1038.2 382.4 L 1039.1 408.3 L 1040.1 401.0 L 1041.1 354.0 L 1042.1 355.9 L 1043.0 365.3 L 1044.0 423.2" stroke="#9a6bff" stroke-width="1.6" fill="none" stroke-linejoin="round"/><circle cx="849.8" cy="131.4" r="4.5" fill="#f0883e" stroke="#11151d" stroke-width="2"/><rect x="770.6291457286432" y="93.40466666666669" width="158.4" height="22" rx="6" fill="#0b0e14" stroke="#f0883e" stroke-width="1"/><text x="849.8291457286432" y="108.40466666666669" class="annot" fill="#f0883e" text-anchor="middle">2025-11-24 · 2,597</text><line x1="78" y1="424" x2="1044" y2="424" stroke="#8b949e" stroke-width="1.4"/>
  <text x="28" y="484" class="footer">COPM 0x1205…6C23 · Polygon · Transfer events up to 2026-06-12 · source: on-chain RPC scan</text>
</svg>