<svg xmlns="http://www.w3.org/2000/svg" width="1080" height="500" viewBox="0 0 1080 500" role="img" aria-label="COPM — Daily Gross Volume (USD)">
  <style>
    .title { font: 600 19px -apple-system, 'Segoe UI', system-ui, sans-serif; fill: #e6edf3; }
    .subtitle { font: 400 12.5px -apple-system, 'Segoe UI', system-ui, sans-serif; fill: #7d8590; }
    .axis { font: 400 11px -apple-system, 'Segoe UI', system-ui, sans-serif; fill: #8b949e; }
    .label { font: 500 12px -apple-system, 'Segoe UI', system-ui, sans-serif; fill: #e6edf3; }
    .annot { font: 600 11.5px -apple-system, 'Segoe UI', system-ui, sans-serif; }
    .badge { font: 600 11.5px -apple-system, 'Segoe UI', system-ui, sans-serif; }
    .footer { font: 400 10.5px ui-monospace, 'SF Mono', Menlo, monospace; fill: #7d8590; }
  </style>
  <defs><linearGradient id="g1" x1="0" y1="0" x2="0" y2="1">
      <stop offset="0%" stop-color="#9a6bff" stop-opacity="0.35"/>
      <stop offset="100%" stop-color="#9a6bff" stop-opacity="0.02"/>
    </linearGradient></defs>
  <rect width="1080" height="500" fill="#0b0e14"/>
  <rect x="8" y="8" width="1064" height="484" rx="10" fill="#11151d" stroke="#222938" stroke-width="1"/>
  <text x="28" y="40" class="title">COPM — Daily Gross Volume (USD)</text>
  <rect x="977.5" y="24" width="74.5" height="22" rx="11" fill="#9a6bff22" stroke="#9a6bff" stroke-width="1"/>
  <text x="1014.75" y="39" class="badge" fill="#9a6bff" text-anchor="middle">Polygon</text>
  <text x="28" y="59" class="subtitle">Conversion: 1 USD = 4000 COP · peak day: $38.6M</text>
  <line x1="78" y1="424" x2="1044" y2="424" stroke="#222938" stroke-width="1"/><text x="68" y="428" class="axis" text-anchor="end">$0</text><line x1="78" y1="339.5" x2="1044" y2="339.5" stroke="#222938" stroke-width="1"/><text x="68" y="343.5" class="axis" text-anchor="end">$10.0M</text><line x1="78" y1="255" x2="1044" y2="255" stroke="#222938" stroke-width="1"/><text x="68" y="259" class="axis" text-anchor="end">$20.0M</text><line x1="78" y1="170.5" x2="1044" y2="170.5" stroke="#222938" stroke-width="1"/><text x="68" y="174.5" class="axis" text-anchor="end">$30.0M</text><line x1="78" y1="86" x2="1044" y2="86" stroke="#222938" stroke-width="1"/><text x="68" y="90" class="axis" text-anchor="end">$40.0M</text><line x1="58.582914572864325" y1="86" x2="58.582914572864325" y2="424" stroke="#222938" stroke-width="1" stroke-dasharray="2,5"/><text x="58.582914572864325" y="444" class="axis" text-anchor="middle">Aug 23</text><line x1="146.93065326633166" y1="86" x2="146.93065326633166" y2="424" stroke="#222938" stroke-width="1" stroke-dasharray="2,5"/><text x="146.93065326633166" y="444" class="axis" text-anchor="middle">Nov 23</text><line x1="235.278391959799" y1="86" x2="235.278391959799" y2="424" stroke="#222938" stroke-width="1" stroke-dasharray="2,5"/><text x="235.278391959799" y="444" class="axis" text-anchor="middle">Feb 24</text><line x1="324.5969849246231" y1="86" x2="324.5969849246231" y2="424" stroke="#222938" stroke-width="1" stroke-dasharray="2,5"/><text x="324.5969849246231" y="444" class="axis" text-anchor="middle">May 24</text><line x1="413.9155778894472" y1="86" x2="413.9155778894472" y2="424" stroke="#222938" stroke-width="1" stroke-dasharray="2,5"/><text x="413.9155778894472" y="444" class="axis" text-anchor="middle">Aug 24</text><line x1="502.26331658291457" y1="86" x2="502.26331658291457" y2="424" stroke="#222938" stroke-width="1" stroke-dasharray="2,5"/><text x="502.26331658291457" y="444" class="axis" text-anchor="middle">Nov 24</text><line x1="589.6402010050251" y1="86" x2="589.6402010050251" y2="424" stroke="#222938" stroke-width="1" stroke-dasharray="2,5"/><text x="589.6402010050251" y="444" class="axis" text-anchor="middle">Feb 25</text><line x1="678.9587939698492" y1="86" x2="678.9587939698492" y2="424" stroke="#222938" stroke-width="1" stroke-dasharray="2,5"/><text x="678.9587939698492" y="444" class="axis" text-anchor="middle">May 25</text><line x1="768.2773869346734" y1="86" x2="768.2773869346734" y2="424" stroke="#222938" stroke-width="1" stroke-dasharray="2,5"/><text x="768.2773869346734" y="444" class="axis" text-anchor="middle">Aug 25</text><line x1="856.6251256281407" y1="86" x2="856.6251256281407" y2="424" stroke="#222938" stroke-width="1" stroke-dasharray="2,5"/><text x="856.6251256281407" y="444" class="axis" text-anchor="middle">Nov 25</text><line x1="944.0020100502513" y1="86" x2="944.0020100502513" y2="424" stroke="#222938" stroke-width="1" stroke-dasharray="2,5"/><text x="944.0020100502513" y="444" class="axis" text-anchor="middle">Feb 26</text><line x1="1033.3206030150754" y1="86" x2="1033.3206030150754" y2="424" stroke="#222938" stroke-width="1" stroke-dasharray="2,5"/><text x="1033.3206030150754" y="444" class="axis" text-anchor="middle">May 26</text><path d="M 78 424 L 78.0 424.0 L 79.0 424.0 L 79.9 424.0 L 80.9 424.0 L 81.9 424.0 L 82.9 424.0 L 83.8 424.0 L 84.8 424.0 L 85.8 424.0 L 86.7 424.0 L 87.7 424.0 L 88.7 424.0 L 89.7 424.0 L 90.6 424.0 L 91.6 424.0 L 92.6 424.0 L 93.5 424.0 L 94.5 424.0 L 95.5 424.0 L 96.4 424.0 L 97.4 424.0 L 98.4 424.0 L 99.4 424.0 L 100.3 424.0 L 101.3 424.0 L 102.3 424.0 L 103.2 424.0 L 104.2 424.0 L 105.2 424.0 L 106.2 424.0 L 107.1 424.0 L 108.1 424.0 L 109.1 424.0 L 110.0 424.0 L 111.0 424.0 L 112.0 424.0 L 113.0 424.0 L 113.9 424.0 L 114.9 424.0 L 115.9 424.0 L 116.8 423.6 L 117.8 424.0 L 118.8 424.0 L 119.7 424.0 L 120.7 424.0 L 121.7 424.0 L 122.7 424.0 L 123.6 423.6 L 124.6 423.6 L 125.6 424.0 L 126.5 424.0 L 127.5 424.0 L 128.5 424.0 L 129.5 424.0 L 130.4 424.0 L 131.4 423.0 L 132.4 424.0 L 133.3 424.0 L 134.3 424.0 L 135.3 424.0 L 136.3 424.0 L 137.2 424.0 L 138.2 422.3 L 139.2 424.0 L 140.1 423.2 L 141.1 423.9 L 142.1 424.0 L 143.0 424.0 L 144.0 424.0 L 145.0 424.0 L 146.0 424.0 L 146.9 424.0 L 147.9 424.0 L 148.9 424.0 L 149.8 424.0 L 150.8 424.0 L 151.8 424.0 L 152.8 424.0 L 153.7 424.0 L 154.7 424.0 L 155.7 424.0 L 156.6 424.0 L 157.6 424.0 L 158.6 424.0 L 159.6 424.0 L 160.5 424.0 L 161.5 424.0 L 162.5 424.0 L 163.4 424.0 L 164.4 424.0 L 165.4 424.0 L 166.3 424.0 L 167.3 424.0 L 168.3 424.0 L 169.3 424.0 L 170.2 424.0 L 171.2 424.0 L 172.2 424.0 L 173.1 424.0 L 174.1 424.0 L 175.1 424.0 L 176.1 424.0 L 177.0 424.0 L 178.0 424.0 L 179.0 424.0 L 179.9 424.0 L 180.9 424.0 L 181.9 424.0 L 182.9 424.0 L 183.8 424.0 L 184.8 424.0 L 185.8 424.0 L 186.7 424.0 L 187.7 424.0 L 188.7 424.0 L 189.6 424.0 L 190.6 424.0 L 191.6 424.0 L 192.6 424.0 L 193.5 424.0 L 194.5 424.0 L 195.5 424.0 L 196.4 424.0 L 197.4 424.0 L 198.4 424.0 L 199.4 424.0 L 200.3 424.0 L 201.3 424.0 L 202.3 424.0 L 203.2 424.0 L 204.2 424.0 L 205.2 424.0 L 206.2 424.0 L 207.1 424.0 L 208.1 424.0 L 209.1 424.0 L 210.0 424.0 L 211.0 423.9 L 212.0 424.0 L 212.9 424.0 L 213.9 423.9 L 214.9 423.8 L 215.9 424.0 L 216.8 424.0 L 217.8 423.9 L 218.8 424.0 L 219.7 424.0 L 220.7 424.0 L 221.7 424.0 L 222.7 424.0 L 223.6 424.0 L 224.6 424.0 L 225.6 424.0 L 226.5 424.0 L 227.5 424.0 L 228.5 424.0 L 229.5 424.0 L 230.4 424.0 L 231.4 424.0 L 232.4 424.0 L 233.3 424.0 L 234.3 424.0 L 235.3 424.0 L 236.2 424.0 L 237.2 424.0 L 238.2 424.0 L 239.2 424.0 L 240.1 424.0 L 241.1 424.0 L 242.1 424.0 L 243.0 424.0 L 244.0 424.0 L 245.0 424.0 L 246.0 423.6 L 246.9 423.8 L 247.9 424.0 L 248.9 424.0 L 249.8 424.0 L 250.8 424.0 L 251.8 423.2 L 252.8 424.0 L 253.7 424.0 L 254.7 424.0 L 255.7 424.0 L 256.6 424.0 L 257.6 424.0 L 258.6 424.0 L 259.5 424.0 L 260.5 424.0 L 261.5 423.2 L 262.5 424.0 L 263.4 424.0 L 264.4 424.0 L 265.4 424.0 L 266.3 424.0 L 267.3 424.0 L 268.3 424.0 L 269.3 424.0 L 270.2 424.0 L 271.2 424.0 L 272.2 424.0 L 273.1 424.0 L 274.1 424.0 L 275.1 424.0 L 276.1 424.0 L 277.0 424.0 L 278.0 424.0 L 279.0 424.0 L 279.9 424.0 L 280.9 424.0 L 281.9 424.0 L 282.9 424.0 L 283.8 424.0 L 284.8 424.0 L 285.8 423.8 L 286.7 424.0 L 287.7 424.0 L 288.7 424.0 L 289.6 423.8 L 290.6 424.0 L 291.6 424.0 L 292.6 424.0 L 293.5 423.4 L 294.5 424.0 L 295.5 423.6 L 296.4 424.0 L 297.4 424.0 L 298.4 424.0 L 299.4 423.7 L 300.3 421.3 L 301.3 423.9 L 302.3 424.0 L 303.2 422.4 L 304.2 424.0 L 305.2 424.0 L 306.2 424.0 L 307.1 424.0 L 308.1 424.0 L 309.1 424.0 L 310.0 424.0 L 311.0 424.0 L 312.0 424.0 L 312.9 424.0 L 313.9 424.0 L 314.9 424.0 L 315.9 424.0 L 316.8 423.9 L 317.8 424.0 L 318.8 424.0 L 319.7 424.0 L 320.7 424.0 L 321.7 424.0 L 322.7 424.0 L 323.6 424.0 L 324.6 424.0 L 325.6 424.0 L 326.5 424.0 L 327.5 423.8 L 328.5 424.0 L 329.5 424.0 L 330.4 424.0 L 331.4 424.0 L 332.4 424.0 L 333.3 424.0 L 334.3 424.0 L 335.3 424.0 L 336.2 424.0 L 337.2 423.8 L 338.2 423.9 L 339.2 424.0 L 340.1 424.0 L 341.1 423.7 L 342.1 423.8 L 343.0 423.9 L 344.0 424.0 L 345.0 424.0 L 346.0 424.0 L 346.9 424.0 L 347.9 423.2 L 348.9 424.0 L 349.8 424.0 L 350.8 424.0 L 351.8 424.0 L 352.8 424.0 L 353.7 424.0 L 354.7 424.0 L 355.7 424.0 L 356.6 424.0 L 357.6 423.6 L 358.6 424.0 L 359.5 424.0 L 360.5 424.0 L 361.5 424.0 L 362.5 424.0 L 363.4 424.0 L 364.4 422.4 L 365.4 424.0 L 366.3 424.0 L 367.3 424.0 L 368.3 424.0 L 369.3 424.0 L 370.2 424.0 L 371.2 424.0 L 372.2 424.0 L 373.1 424.0 L 374.1 424.0 L 375.1 424.0 L 376.1 423.7 L 377.0 424.0 L 378.0 424.0 L 379.0 424.0 L 379.9 424.0 L 380.9 424.0 L 381.9 424.0 L 382.8 424.0 L 383.8 424.0 L 384.8 424.0 L 385.8 424.0 L 386.7 424.0 L 387.7 424.0 L 388.7 424.0 L 389.6 424.0 L 390.6 424.0 L 391.6 424.0 L 392.6 424.0 L 393.5 424.0 L 394.5 423.1 L 395.5 423.5 L 396.4 422.1 L 397.4 421.6 L 398.4 423.4 L 399.4 424.0 L 400.3 424.0 L 401.3 424.0 L 402.3 424.0 L 403.2 423.9 L 404.2 421.7 L 405.2 422.0 L 406.1 424.0 L 407.1 424.0 L 408.1 422.7 L 409.1 422.1 L 410.0 424.0 L 411.0 424.0 L 412.0 424.0 L 412.9 424.0 L 413.9 424.0 L 414.9 423.4 L 415.9 423.2 L 416.8 423.3 L 417.8 423.8 L 418.8 422.2 L 419.7 424.0 L 420.7 424.0 L 421.7 423.8 L 422.7 422.2 L 423.6 423.8 L 424.6 424.0 L 425.6 424.0 L 426.5 424.0 L 427.5 424.0 L 428.5 422.8 L 429.4 419.2 L 430.4 423.8 L 431.4 422.3 L 432.4 423.9 L 433.3 424.0 L 434.3 424.0 L 435.3 424.0 L 436.2 424.0 L 437.2 424.0 L 438.2 424.0 L 439.2 423.0 L 440.1 424.0 L 441.1 424.0 L 442.1 423.3 L 443.0 423.9 L 444.0 423.9 L 445.0 424.0 L 446.0 424.0 L 446.9 424.0 L 447.9 424.0 L 448.9 423.5 L 449.8 424.0 L 450.8 422.5 L 451.8 424.0 L 452.7 424.0 L 453.7 424.0 L 454.7 424.0 L 455.7 424.0 L 456.6 424.0 L 457.6 424.0 L 458.6 424.0 L 459.5 424.0 L 460.5 424.0 L 461.5 424.0 L 462.5 423.3 L 463.4 423.6 L 464.4 424.0 L 465.4 424.0 L 466.3 423.6 L 467.3 424.0 L 468.3 424.0 L 469.3 424.0 L 470.2 424.0 L 471.2 423.5 L 472.2 421.9 L 473.1 424.0 L 474.1 424.0 L 475.1 424.0 L 476.1 424.0 L 477.0 423.9 L 478.0 424.0 L 479.0 424.0 L 479.9 422.4 L 480.9 424.0 L 481.9 424.0 L 482.8 424.0 L 483.8 424.0 L 484.8 424.0 L 485.8 423.9 L 486.7 424.0 L 487.7 424.0 L 488.7 424.0 L 489.6 424.0 L 490.6 424.0 L 491.6 424.0 L 492.6 424.0 L 493.5 424.0 L 494.5 424.0 L 495.5 424.0 L 496.4 424.0 L 497.4 424.0 L 498.4 423.9 L 499.4 424.0 L 500.3 423.9 L 501.3 424.0 L 502.3 424.0 L 503.2 424.0 L 504.2 424.0 L 505.2 424.0 L 506.1 423.8 L 507.1 423.9 L 508.1 424.0 L 509.1 424.0 L 510.0 423.8 L 511.0 424.0 L 512.0 424.0 L 512.9 423.1 L 513.9 424.0 L 514.9 424.0 L 515.9 424.0 L 516.8 424.0 L 517.8 424.0 L 518.8 424.0 L 519.7 424.0 L 520.7 423.8 L 521.7 424.0 L 522.7 424.0 L 523.6 424.0 L 524.6 424.0 L 525.6 424.0 L 526.5 424.0 L 527.5 424.0 L 528.5 424.0 L 529.4 424.0 L 530.4 424.0 L 531.4 424.0 L 532.4 424.0 L 533.3 424.0 L 534.3 423.9 L 535.3 424.0 L 536.2 424.0 L 537.2 424.0 L 538.2 423.9 L 539.2 424.0 L 540.1 424.0 L 541.1 424.0 L 542.1 424.0 L 543.0 424.0 L 544.0 424.0 L 545.0 424.0 L 546.0 424.0 L 546.9 424.0 L 547.9 424.0 L 548.9 424.0 L 549.8 424.0 L 550.8 424.0 L 551.8 424.0 L 552.7 415.9 L 553.7 424.0 L 554.7 424.0 L 555.7 424.0 L 556.6 424.0 L 557.6 424.0 L 558.6 424.0 L 559.5 423.9 L 560.5 424.0 L 561.5 424.0 L 562.5 424.0 L 563.4 424.0 L 564.4 423.9 L 565.4 423.9 L 566.3 423.0 L 567.3 424.0 L 568.3 423.8 L 569.3 424.0 L 570.2 424.0 L 571.2 421.7 L 572.2 423.9 L 573.1 423.9 L 574.1 424.0 L 575.1 423.9 L 576.0 424.0 L 577.0 424.0 L 578.0 423.9 L 579.0 423.9 L 579.9 424.0 L 580.9 423.9 L 581.9 424.0 L 582.8 424.0 L 583.8 424.0 L 584.8 424.0 L 585.8 423.9 L 586.7 424.0 L 587.7 423.9 L 588.7 423.7 L 589.6 423.9 L 590.6 424.0 L 591.6 423.7 L 592.6 424.0 L 593.5 423.9 L 594.5 424.0 L 595.5 424.0 L 596.4 424.0 L 597.4 424.0 L 598.4 423.8 L 599.3 423.9 L 600.3 423.9 L 601.3 424.0 L 602.3 423.9 L 603.2 423.9 L 604.2 424.0 L 605.2 423.6 L 606.1 423.6 L 607.1 423.3 L 608.1 424.0 L 609.1 424.0 L 610.0 424.0 L 611.0 424.0 L 612.0 424.0 L 612.9 423.1 L 613.9 424.0 L 614.9 423.9 L 615.9 423.9 L 616.8 424.0 L 617.8 424.0 L 618.8 424.0 L 619.7 424.0 L 620.7 424.0 L 621.7 424.0 L 622.6 423.9 L 623.6 424.0 L 624.6 424.0 L 625.6 423.9 L 626.5 424.0 L 627.5 423.5 L 628.5 423.4 L 629.4 424.0 L 630.4 423.9 L 631.4 423.9 L 632.4 424.0 L 633.3 422.8 L 634.3 420.8 L 635.3 424.0 L 636.2 424.0 L 637.2 424.0 L 638.2 424.0 L 639.2 418.3 L 640.1 418.2 L 641.1 424.0 L 642.1 419.2 L 643.0 417.6 L 644.0 424.0 L 645.0 424.0 L 645.9 424.0 L 646.9 424.0 L 647.9 417.5 L 648.9 424.0 L 649.8 423.9 L 650.8 424.0 L 651.8 424.0 L 652.7 418.7 L 653.7 409.4 L 654.7 412.3 L 655.7 414.2 L 656.6 423.8 L 657.6 424.0 L 658.6 424.0 L 659.5 424.0 L 660.5 423.9 L 661.5 424.0 L 662.5 424.0 L 663.4 424.0 L 664.4 424.0 L 665.4 424.0 L 666.3 423.9 L 667.3 423.8 L 668.3 423.9 L 669.3 423.9 L 670.2 424.0 L 671.2 423.9 L 672.2 424.0 L 673.1 423.5 L 674.1 420.1 L 675.1 419.7 L 676.0 418.3 L 677.0 419.6 L 678.0 424.0 L 679.0 424.0 L 679.9 424.0 L 680.9 420.6 L 681.9 417.7 L 682.8 410.2 L 683.8 413.0 L 684.8 424.0 L 685.8 424.0 L 686.7 409.5 L 687.7 415.1 L 688.7 420.5 L 689.6 416.1 L 690.6 411.7 L 691.6 424.0 L 692.6 424.0 L 693.5 409.3 L 694.5 416.6 L 695.5 415.1 L 696.4 418.1 L 697.4 410.7 L 698.4 424.0 L 699.3 424.0 L 700.3 424.0 L 701.3 350.4 L 702.3 377.2 L 703.2 401.4 L 704.2 385.9 L 705.2 420.1 L 706.1 424.0 L 707.1 424.0 L 708.1 383.7 L 709.1 376.9 L 710.0 381.1 L 711.0 351.9 L 712.0 423.8 L 712.9 424.0 L 713.9 361.2 L 714.9 374.5 L 715.9 384.6 L 716.8 407.4 L 717.8 395.2 L 718.8 424.0 L 719.7 424.0 L 720.7 347.5 L 721.7 379.9 L 722.6 360.1 L 723.6 365.8 L 724.6 382.3 L 725.6 423.9 L 726.5 424.0 L 727.5 309.0 L 728.5 302.8 L 729.4 339.1 L 730.4 334.0 L 731.4 297.9 L 732.4 416.9 L 733.3 423.5 L 734.3 282.0 L 735.3 288.6 L 736.2 327.6 L 737.2 292.6 L 738.2 322.4 L 739.2 422.3 L 740.1 424.0 L 741.1 309.9 L 742.1 324.2 L 743.0 331.8 L 744.0 423.9 L 745.0 297.9 L 745.9 421.7 L 746.9 423.3 L 747.9 325.0 L 748.9 234.2 L 749.8 319.3 L 750.8 250.4 L 751.8 238.8 L 752.7 423.4 L 753.7 423.3 L 754.7 423.6 L 755.7 189.0 L 756.6 259.9 L 757.6 272.8 L 758.6 367.9 L 759.5 423.4 L 760.5 424.0 L 761.5 316.2 L 762.5 295.0 L 763.4 230.0 L 764.4 420.0 L 765.4 286.3 L 766.3 423.6 L 767.3 424.0 L 768.3 401.8 L 769.2 311.8 L 770.2 290.3 L 771.2 348.1 L 772.2 385.3 L 773.1 423.9 L 774.1 424.0 L 775.1 364.5 L 776.0 357.2 L 777.0 366.3 L 778.0 356.0 L 779.0 320.5 L 779.9 424.0 L 780.9 424.0 L 781.9 299.2 L 782.8 349.4 L 783.8 308.0 L 784.8 215.0 L 785.8 189.8 L 786.7 423.9 L 787.7 423.6 L 788.7 280.1 L 789.6 320.3 L 790.6 300.4 L 791.6 328.4 L 792.5 334.6 L 793.5 423.9 L 794.5 416.4 L 795.5 260.9 L 796.4 310.1 L 797.4 373.9 L 798.4 354.2 L 799.3 371.3 L 800.3 418.1 L 801.3 424.0 L 802.3 316.2 L 803.2 290.0 L 804.2 237.0 L 805.2 287.5 L 806.1 265.2 L 807.1 419.9 L 808.1 424.0 L 809.1 410.2 L 810.0 278.2 L 811.0 330.6 L 812.0 346.0 L 812.9 343.3 L 813.9 424.0 L 814.9 423.9 L 815.8 357.9 L 816.8 241.8 L 817.8 315.5 L 818.8 354.2 L 819.7 380.5 L 820.7 424.0 L 821.7 423.9 L 822.6 317.4 L 823.6 302.2 L 824.6 315.4 L 825.6 327.0 L 826.5 302.1 L 827.5 420.1 L 828.5 423.1 L 829.4 419.8 L 830.4 283.0 L 831.4 311.8 L 832.4 297.7 L 833.3 287.0 L 834.3 414.0 L 835.3 420.0 L 836.2 264.4 L 837.2 244.4 L 838.2 265.2 L 839.1 251.7 L 840.1 287.5 L 841.1 418.3 L 842.1 423.4 L 843.0 423.7 L 844.0 300.6 L 845.0 306.3 L 845.9 242.3 L 846.9 208.6 L 847.9 423.9 L 848.9 422.7 L 849.8 97.7 L 850.8 239.8 L 851.8 352.1 L 852.7 377.7 L 853.7 355.1 L 854.7 423.8 L 855.7 424.0 L 856.6 318.2 L 857.6 343.5 L 858.6 384.7 L 859.5 404.5 L 860.5 388.9 L 861.5 423.9 L 862.5 424.0 L 863.4 423.5 L 864.4 330.8 L 865.4 354.5 L 866.3 394.6 L 867.3 402.7 L 868.3 423.6 L 869.2 424.0 L 870.2 378.2 L 871.2 402.6 L 872.2 396.7 L 873.1 374.6 L 874.1 411.3 L 875.1 423.8 L 876.0 424.0 L 877.0 408.0 L 878.0 408.5 L 879.0 414.1 L 879.9 423.7 L 880.9 409.9 L 881.9 423.9 L 882.8 424.0 L 883.8 409.2 L 884.8 401.9 L 885.8 422.5 L 886.7 424.0 L 887.7 409.6 L 888.7 424.0 L 889.6 424.0 L 890.6 413.3 L 891.6 400.4 L 892.5 410.4 L 893.5 406.1 L 894.5 417.2 L 895.5 423.8 L 896.4 424.0 L 897.4 424.0 L 898.4 397.3 L 899.3 421.6 L 900.3 412.4 L 901.3 409.9 L 902.3 424.0 L 903.2 424.0 L 904.2 415.9 L 905.2 409.4 L 906.1 399.6 L 907.1 402.2 L 908.1 398.0 L 909.1 422.4 L 910.0 424.0 L 911.0 308.9 L 912.0 319.0 L 912.9 337.9 L 913.9 353.0 L 914.9 346.5 L 915.8 424.0 L 916.8 424.0 L 917.8 382.9 L 918.8 372.9 L 919.7 342.4 L 920.7 339.9 L 921.7 406.4 L 922.6 423.9 L 923.6 424.0 L 924.6 358.5 L 925.6 404.0 L 926.5 413.1 L 927.5 423.1 L 928.5 423.6 L 929.4 424.0 L 930.4 424.0 L 931.4 417.8 L 932.4 416.6 L 933.3 410.3 L 934.3 414.8 L 935.3 410.1 L 936.2 423.7 L 937.2 424.0 L 938.2 401.9 L 939.1 402.2 L 940.1 406.0 L 941.1 364.2 L 942.1 398.3 L 943.0 423.7 L 944.0 424.0 L 945.0 373.0 L 945.9 368.7 L 946.9 405.1 L 947.9 390.8 L 948.9 396.9 L 949.8 423.8 L 950.8 424.0 L 951.8 403.7 L 952.7 417.1 L 953.7 412.9 L 954.7 398.0 L 955.7 399.4 L 956.6 423.9 L 957.6 424.0 L 958.6 394.0 L 959.5 389.5 L 960.5 404.4 L 961.5 407.3 L 962.4 402.5 L 963.4 424.0 L 964.4 424.0 L 965.4 424.0 L 966.3 405.9 L 967.3 413.9 L 968.3 404.2 L 969.2 411.8 L 970.2 424.0 L 971.2 424.0 L 972.2 387.2 L 973.1 396.8 L 974.1 400.4 L 975.1 424.0 L 976.0 424.0 L 977.0 424.0 L 978.0 424.0 L 979.0 383.6 L 979.9 354.2 L 980.9 401.2 L 981.9 391.2 L 982.8 397.9 L 983.8 423.8 L 984.8 424.0 L 985.7 412.6 L 986.7 407.4 L 987.7 374.8 L 988.7 405.6 L 989.6 407.6 L 990.6 424.0 L 991.6 421.1 L 992.5 396.5 L 993.5 395.8 L 994.5 384.8 L 995.5 404.8 L 996.4 387.9 L 997.4 423.5 L 998.4 423.7 L 999.3 297.3 L 1000.3 347.1 L 1001.3 347.6 L 1002.3 366.6 L 1003.2 421.5 L 1004.2 416.9 L 1005.2 423.8 L 1006.1 327.0 L 1007.1 157.5 L 1008.1 290.1 L 1009.0 241.5 L 1010.0 320.8 L 1011.0 423.7 L 1012.0 424.0 L 1012.9 266.9 L 1013.9 326.4 L 1014.9 337.6 L 1015.8 374.5 L 1016.8 338.4 L 1017.8 421.4 L 1018.8 423.6 L 1019.7 423.8 L 1020.7 339.7 L 1021.7 372.1 L 1022.6 391.1 L 1023.6 396.9 L 1024.6 422.3 L 1025.6 423.8 L 1026.5 408.6 L 1027.5 359.4 L 1028.5 411.6 L 1029.4 407.3 L 1030.4 401.3 L 1031.4 422.3 L 1032.3 423.4 L 1033.3 393.9 L 1034.3 394.6 L 1035.3 407.5 L 1036.2 411.4 L 1037.2 406.3 L 1038.2 418.9 L 1039.1 423.5 L 1040.1 423.6 L 1041.1 396.4 L 1042.1 405.9 L 1043.0 419.5 L 1044.0 424.0 L 1044 424 Z" fill="url(#g1)"/><path d="M 78.0 424.0 L 79.0 424.0 L 79.9 424.0 L 80.9 424.0 L 81.9 424.0 L 82.9 424.0 L 83.8 424.0 L 84.8 424.0 L 85.8 424.0 L 86.7 424.0 L 87.7 424.0 L 88.7 424.0 L 89.7 424.0 L 90.6 424.0 L 91.6 424.0 L 92.6 424.0 L 93.5 424.0 L 94.5 424.0 L 95.5 424.0 L 96.4 424.0 L 97.4 424.0 L 98.4 424.0 L 99.4 424.0 L 100.3 424.0 L 101.3 424.0 L 102.3 424.0 L 103.2 424.0 L 104.2 424.0 L 105.2 424.0 L 106.2 424.0 L 107.1 424.0 L 108.1 424.0 L 109.1 424.0 L 110.0 424.0 L 111.0 424.0 L 112.0 424.0 L 113.0 424.0 L 113.9 424.0 L 114.9 424.0 L 115.9 424.0 L 116.8 423.6 L 117.8 424.0 L 118.8 424.0 L 119.7 424.0 L 120.7 424.0 L 121.7 424.0 L 122.7 424.0 L 123.6 423.6 L 124.6 423.6 L 125.6 424.0 L 126.5 424.0 L 127.5 424.0 L 128.5 424.0 L 129.5 424.0 L 130.4 424.0 L 131.4 423.0 L 132.4 424.0 L 133.3 424.0 L 134.3 424.0 L 135.3 424.0 L 136.3 424.0 L 137.2 424.0 L 138.2 422.3 L 139.2 424.0 L 140.1 423.2 L 141.1 423.9 L 142.1 424.0 L 143.0 424.0 L 144.0 424.0 L 145.0 424.0 L 146.0 424.0 L 146.9 424.0 L 147.9 424.0 L 148.9 424.0 L 149.8 424.0 L 150.8 424.0 L 151.8 424.0 L 152.8 424.0 L 153.7 424.0 L 154.7 424.0 L 155.7 424.0 L 156.6 424.0 L 157.6 424.0 L 158.6 424.0 L 159.6 424.0 L 160.5 424.0 L 161.5 424.0 L 162.5 424.0 L 163.4 424.0 L 164.4 424.0 L 165.4 424.0 L 166.3 424.0 L 167.3 424.0 L 168.3 424.0 L 169.3 424.0 L 170.2 424.0 L 171.2 424.0 L 172.2 424.0 L 173.1 424.0 L 174.1 424.0 L 175.1 424.0 L 176.1 424.0 L 177.0 424.0 L 178.0 424.0 L 179.0 424.0 L 179.9 424.0 L 180.9 424.0 L 181.9 424.0 L 182.9 424.0 L 183.8 424.0 L 184.8 424.0 L 185.8 424.0 L 186.7 424.0 L 187.7 424.0 L 188.7 424.0 L 189.6 424.0 L 190.6 424.0 L 191.6 424.0 L 192.6 424.0 L 193.5 424.0 L 194.5 424.0 L 195.5 424.0 L 196.4 424.0 L 197.4 424.0 L 198.4 424.0 L 199.4 424.0 L 200.3 424.0 L 201.3 424.0 L 202.3 424.0 L 203.2 424.0 L 204.2 424.0 L 205.2 424.0 L 206.2 424.0 L 207.1 424.0 L 208.1 424.0 L 209.1 424.0 L 210.0 424.0 L 211.0 423.9 L 212.0 424.0 L 212.9 424.0 L 213.9 423.9 L 214.9 423.8 L 215.9 424.0 L 216.8 424.0 L 217.8 423.9 L 218.8 424.0 L 219.7 424.0 L 220.7 424.0 L 221.7 424.0 L 222.7 424.0 L 223.6 424.0 L 224.6 424.0 L 225.6 424.0 L 226.5 424.0 L 227.5 424.0 L 228.5 424.0 L 229.5 424.0 L 230.4 424.0 L 231.4 424.0 L 232.4 424.0 L 233.3 424.0 L 234.3 424.0 L 235.3 424.0 L 236.2 424.0 L 237.2 424.0 L 238.2 424.0 L 239.2 424.0 L 240.1 424.0 L 241.1 424.0 L 242.1 424.0 L 243.0 424.0 L 244.0 424.0 L 245.0 424.0 L 246.0 423.6 L 246.9 423.8 L 247.9 424.0 L 248.9 424.0 L 249.8 424.0 L 250.8 424.0 L 251.8 423.2 L 252.8 424.0 L 253.7 424.0 L 254.7 424.0 L 255.7 424.0 L 256.6 424.0 L 257.6 424.0 L 258.6 424.0 L 259.5 424.0 L 260.5 424.0 L 261.5 423.2 L 262.5 424.0 L 263.4 424.0 L 264.4 424.0 L 265.4 424.0 L 266.3 424.0 L 267.3 424.0 L 268.3 424.0 L 269.3 424.0 L 270.2 424.0 L 271.2 424.0 L 272.2 424.0 L 273.1 424.0 L 274.1 424.0 L 275.1 424.0 L 276.1 424.0 L 277.0 424.0 L 278.0 424.0 L 279.0 424.0 L 279.9 424.0 L 280.9 424.0 L 281.9 424.0 L 282.9 424.0 L 283.8 424.0 L 284.8 424.0 L 285.8 423.8 L 286.7 424.0 L 287.7 424.0 L 288.7 424.0 L 289.6 423.8 L 290.6 424.0 L 291.6 424.0 L 292.6 424.0 L 293.5 423.4 L 294.5 424.0 L 295.5 423.6 L 296.4 424.0 L 297.4 424.0 L 298.4 424.0 L 299.4 423.7 L 300.3 421.3 L 301.3 423.9 L 302.3 424.0 L 303.2 422.4 L 304.2 424.0 L 305.2 424.0 L 306.2 424.0 L 307.1 424.0 L 308.1 424.0 L 309.1 424.0 L 310.0 424.0 L 311.0 424.0 L 312.0 424.0 L 312.9 424.0 L 313.9 424.0 L 314.9 424.0 L 315.9 424.0 L 316.8 423.9 L 317.8 424.0 L 318.8 424.0 L 319.7 424.0 L 320.7 424.0 L 321.7 424.0 L 322.7 424.0 L 323.6 424.0 L 324.6 424.0 L 325.6 424.0 L 326.5 424.0 L 327.5 423.8 L 328.5 424.0 L 329.5 424.0 L 330.4 424.0 L 331.4 424.0 L 332.4 424.0 L 333.3 424.0 L 334.3 424.0 L 335.3 424.0 L 336.2 424.0 L 337.2 423.8 L 338.2 423.9 L 339.2 424.0 L 340.1 424.0 L 341.1 423.7 L 342.1 423.8 L 343.0 423.9 L 344.0 424.0 L 345.0 424.0 L 346.0 424.0 L 346.9 424.0 L 347.9 423.2 L 348.9 424.0 L 349.8 424.0 L 350.8 424.0 L 351.8 424.0 L 352.8 424.0 L 353.7 424.0 L 354.7 424.0 L 355.7 424.0 L 356.6 424.0 L 357.6 423.6 L 358.6 424.0 L 359.5 424.0 L 360.5 424.0 L 361.5 424.0 L 362.5 424.0 L 363.4 424.0 L 364.4 422.4 L 365.4 424.0 L 366.3 424.0 L 367.3 424.0 L 368.3 424.0 L 369.3 424.0 L 370.2 424.0 L 371.2 424.0 L 372.2 424.0 L 373.1 424.0 L 374.1 424.0 L 375.1 424.0 L 376.1 423.7 L 377.0 424.0 L 378.0 424.0 L 379.0 424.0 L 379.9 424.0 L 380.9 424.0 L 381.9 424.0 L 382.8 424.0 L 383.8 424.0 L 384.8 424.0 L 385.8 424.0 L 386.7 424.0 L 387.7 424.0 L 388.7 424.0 L 389.6 424.0 L 390.6 424.0 L 391.6 424.0 L 392.6 424.0 L 393.5 424.0 L 394.5 423.1 L 395.5 423.5 L 396.4 422.1 L 397.4 421.6 L 398.4 423.4 L 399.4 424.0 L 400.3 424.0 L 401.3 424.0 L 402.3 424.0 L 403.2 423.9 L 404.2 421.7 L 405.2 422.0 L 406.1 424.0 L 407.1 424.0 L 408.1 422.7 L 409.1 422.1 L 410.0 424.0 L 411.0 424.0 L 412.0 424.0 L 412.9 424.0 L 413.9 424.0 L 414.9 423.4 L 415.9 423.2 L 416.8 423.3 L 417.8 423.8 L 418.8 422.2 L 419.7 424.0 L 420.7 424.0 L 421.7 423.8 L 422.7 422.2 L 423.6 423.8 L 424.6 424.0 L 425.6 424.0 L 426.5 424.0 L 427.5 424.0 L 428.5 422.8 L 429.4 419.2 L 430.4 423.8 L 431.4 422.3 L 432.4 423.9 L 433.3 424.0 L 434.3 424.0 L 435.3 424.0 L 436.2 424.0 L 437.2 424.0 L 438.2 424.0 L 439.2 423.0 L 440.1 424.0 L 441.1 424.0 L 442.1 423.3 L 443.0 423.9 L 444.0 423.9 L 445.0 424.0 L 446.0 424.0 L 446.9 424.0 L 447.9 424.0 L 448.9 423.5 L 449.8 424.0 L 450.8 422.5 L 451.8 424.0 L 452.7 424.0 L 453.7 424.0 L 454.7 424.0 L 455.7 424.0 L 456.6 424.0 L 457.6 424.0 L 458.6 424.0 L 459.5 424.0 L 460.5 424.0 L 461.5 424.0 L 462.5 423.3 L 463.4 423.6 L 464.4 424.0 L 465.4 424.0 L 466.3 423.6 L 467.3 424.0 L 468.3 424.0 L 469.3 424.0 L 470.2 424.0 L 471.2 423.5 L 472.2 421.9 L 473.1 424.0 L 474.1 424.0 L 475.1 424.0 L 476.1 424.0 L 477.0 423.9 L 478.0 424.0 L 479.0 424.0 L 479.9 422.4 L 480.9 424.0 L 481.9 424.0 L 482.8 424.0 L 483.8 424.0 L 484.8 424.0 L 485.8 423.9 L 486.7 424.0 L 487.7 424.0 L 488.7 424.0 L 489.6 424.0 L 490.6 424.0 L 491.6 424.0 L 492.6 424.0 L 493.5 424.0 L 494.5 424.0 L 495.5 424.0 L 496.4 424.0 L 497.4 424.0 L 498.4 423.9 L 499.4 424.0 L 500.3 423.9 L 501.3 424.0 L 502.3 424.0 L 503.2 424.0 L 504.2 424.0 L 505.2 424.0 L 506.1 423.8 L 507.1 423.9 L 508.1 424.0 L 509.1 424.0 L 510.0 423.8 L 511.0 424.0 L 512.0 424.0 L 512.9 423.1 L 513.9 424.0 L 514.9 424.0 L 515.9 424.0 L 516.8 424.0 L 517.8 424.0 L 518.8 424.0 L 519.7 424.0 L 520.7 423.8 L 521.7 424.0 L 522.7 424.0 L 523.6 424.0 L 524.6 424.0 L 525.6 424.0 L 526.5 424.0 L 527.5 424.0 L 528.5 424.0 L 529.4 424.0 L 530.4 424.0 L 531.4 424.0 L 532.4 424.0 L 533.3 424.0 L 534.3 423.9 L 535.3 424.0 L 536.2 424.0 L 537.2 424.0 L 538.2 423.9 L 539.2 424.0 L 540.1 424.0 L 541.1 424.0 L 542.1 424.0 L 543.0 424.0 L 544.0 424.0 L 545.0 424.0 L 546.0 424.0 L 546.9 424.0 L 547.9 424.0 L 548.9 424.0 L 549.8 424.0 L 550.8 424.0 L 551.8 424.0 L 552.7 415.9 L 553.7 424.0 L 554.7 424.0 L 555.7 424.0 L 556.6 424.0 L 557.6 424.0 L 558.6 424.0 L 559.5 423.9 L 560.5 424.0 L 561.5 424.0 L 562.5 424.0 L 563.4 424.0 L 564.4 423.9 L 565.4 423.9 L 566.3 423.0 L 567.3 424.0 L 568.3 423.8 L 569.3 424.0 L 570.2 424.0 L 571.2 421.7 L 572.2 423.9 L 573.1 423.9 L 574.1 424.0 L 575.1 423.9 L 576.0 424.0 L 577.0 424.0 L 578.0 423.9 L 579.0 423.9 L 579.9 424.0 L 580.9 423.9 L 581.9 424.0 L 582.8 424.0 L 583.8 424.0 L 584.8 424.0 L 585.8 423.9 L 586.7 424.0 L 587.7 423.9 L 588.7 423.7 L 589.6 423.9 L 590.6 424.0 L 591.6 423.7 L 592.6 424.0 L 593.5 423.9 L 594.5 424.0 L 595.5 424.0 L 596.4 424.0 L 597.4 424.0 L 598.4 423.8 L 599.3 423.9 L 600.3 423.9 L 601.3 424.0 L 602.3 423.9 L 603.2 423.9 L 604.2 424.0 L 605.2 423.6 L 606.1 423.6 L 607.1 423.3 L 608.1 424.0 L 609.1 424.0 L 610.0 424.0 L 611.0 424.0 L 612.0 424.0 L 612.9 423.1 L 613.9 424.0 L 614.9 423.9 L 615.9 423.9 L 616.8 424.0 L 617.8 424.0 L 618.8 424.0 L 619.7 424.0 L 620.7 424.0 L 621.7 424.0 L 622.6 423.9 L 623.6 424.0 L 624.6 424.0 L 625.6 423.9 L 626.5 424.0 L 627.5 423.5 L 628.5 423.4 L 629.4 424.0 L 630.4 423.9 L 631.4 423.9 L 632.4 424.0 L 633.3 422.8 L 634.3 420.8 L 635.3 424.0 L 636.2 424.0 L 637.2 424.0 L 638.2 424.0 L 639.2 418.3 L 640.1 418.2 L 641.1 424.0 L 642.1 419.2 L 643.0 417.6 L 644.0 424.0 L 645.0 424.0 L 645.9 424.0 L 646.9 424.0 L 647.9 417.5 L 648.9 424.0 L 649.8 423.9 L 650.8 424.0 L 651.8 424.0 L 652.7 418.7 L 653.7 409.4 L 654.7 412.3 L 655.7 414.2 L 656.6 423.8 L 657.6 424.0 L 658.6 424.0 L 659.5 424.0 L 660.5 423.9 L 661.5 424.0 L 662.5 424.0 L 663.4 424.0 L 664.4 424.0 L 665.4 424.0 L 666.3 423.9 L 667.3 423.8 L 668.3 423.9 L 669.3 423.9 L 670.2 424.0 L 671.2 423.9 L 672.2 424.0 L 673.1 423.5 L 674.1 420.1 L 675.1 419.7 L 676.0 418.3 L 677.0 419.6 L 678.0 424.0 L 679.0 424.0 L 679.9 424.0 L 680.9 420.6 L 681.9 417.7 L 682.8 410.2 L 683.8 413.0 L 684.8 424.0 L 685.8 424.0 L 686.7 409.5 L 687.7 415.1 L 688.7 420.5 L 689.6 416.1 L 690.6 411.7 L 691.6 424.0 L 692.6 424.0 L 693.5 409.3 L 694.5 416.6 L 695.5 415.1 L 696.4 418.1 L 697.4 410.7 L 698.4 424.0 L 699.3 424.0 L 700.3 424.0 L 701.3 350.4 L 702.3 377.2 L 703.2 401.4 L 704.2 385.9 L 705.2 420.1 L 706.1 424.0 L 707.1 424.0 L 708.1 383.7 L 709.1 376.9 L 710.0 381.1 L 711.0 351.9 L 712.0 423.8 L 712.9 424.0 L 713.9 361.2 L 714.9 374.5 L 715.9 384.6 L 716.8 407.4 L 717.8 395.2 L 718.8 424.0 L 719.7 424.0 L 720.7 347.5 L 721.7 379.9 L 722.6 360.1 L 723.6 365.8 L 724.6 382.3 L 725.6 423.9 L 726.5 424.0 L 727.5 309.0 L 728.5 302.8 L 729.4 339.1 L 730.4 334.0 L 731.4 297.9 L 732.4 416.9 L 733.3 423.5 L 734.3 282.0 L 735.3 288.6 L 736.2 327.6 L 737.2 292.6 L 738.2 322.4 L 739.2 422.3 L 740.1 424.0 L 741.1 309.9 L 742.1 324.2 L 743.0 331.8 L 744.0 423.9 L 745.0 297.9 L 745.9 421.7 L 746.9 423.3 L 747.9 325.0 L 748.9 234.2 L 749.8 319.3 L 750.8 250.4 L 751.8 238.8 L 752.7 423.4 L 753.7 423.3 L 754.7 423.6 L 755.7 189.0 L 756.6 259.9 L 757.6 272.8 L 758.6 367.9 L 759.5 423.4 L 760.5 424.0 L 761.5 316.2 L 762.5 295.0 L 763.4 230.0 L 764.4 420.0 L 765.4 286.3 L 766.3 423.6 L 767.3 424.0 L 768.3 401.8 L 769.2 311.8 L 770.2 290.3 L 771.2 348.1 L 772.2 385.3 L 773.1 423.9 L 774.1 424.0 L 775.1 364.5 L 776.0 357.2 L 777.0 366.3 L 778.0 356.0 L 779.0 320.5 L 779.9 424.0 L 780.9 424.0 L 781.9 299.2 L 782.8 349.4 L 783.8 308.0 L 784.8 215.0 L 785.8 189.8 L 786.7 423.9 L 787.7 423.6 L 788.7 280.1 L 789.6 320.3 L 790.6 300.4 L 791.6 328.4 L 792.5 334.6 L 793.5 423.9 L 794.5 416.4 L 795.5 260.9 L 796.4 310.1 L 797.4 373.9 L 798.4 354.2 L 799.3 371.3 L 800.3 418.1 L 801.3 424.0 L 802.3 316.2 L 803.2 290.0 L 804.2 237.0 L 805.2 287.5 L 806.1 265.2 L 807.1 419.9 L 808.1 424.0 L 809.1 410.2 L 810.0 278.2 L 811.0 330.6 L 812.0 346.0 L 812.9 343.3 L 813.9 424.0 L 814.9 423.9 L 815.8 357.9 L 816.8 241.8 L 817.8 315.5 L 818.8 354.2 L 819.7 380.5 L 820.7 424.0 L 821.7 423.9 L 822.6 317.4 L 823.6 302.2 L 824.6 315.4 L 825.6 327.0 L 826.5 302.1 L 827.5 420.1 L 828.5 423.1 L 829.4 419.8 L 830.4 283.0 L 831.4 311.8 L 832.4 297.7 L 833.3 287.0 L 834.3 414.0 L 835.3 420.0 L 836.2 264.4 L 837.2 244.4 L 838.2 265.2 L 839.1 251.7 L 840.1 287.5 L 841.1 418.3 L 842.1 423.4 L 843.0 423.7 L 844.0 300.6 L 845.0 306.3 L 845.9 242.3 L 846.9 208.6 L 847.9 423.9 L 848.9 422.7 L 849.8 97.7 L 850.8 239.8 L 851.8 352.1 L 852.7 377.7 L 853.7 355.1 L 854.7 423.8 L 855.7 424.0 L 856.6 318.2 L 857.6 343.5 L 858.6 384.7 L 859.5 404.5 L 860.5 388.9 L 861.5 423.9 L 862.5 424.0 L 863.4 423.5 L 864.4 330.8 L 865.4 354.5 L 866.3 394.6 L 867.3 402.7 L 868.3 423.6 L 869.2 424.0 L 870.2 378.2 L 871.2 402.6 L 872.2 396.7 L 873.1 374.6 L 874.1 411.3 L 875.1 423.8 L 876.0 424.0 L 877.0 408.0 L 878.0 408.5 L 879.0 414.1 L 879.9 423.7 L 880.9 409.9 L 881.9 423.9 L 882.8 424.0 L 883.8 409.2 L 884.8 401.9 L 885.8 422.5 L 886.7 424.0 L 887.7 409.6 L 888.7 424.0 L 889.6 424.0 L 890.6 413.3 L 891.6 400.4 L 892.5 410.4 L 893.5 406.1 L 894.5 417.2 L 895.5 423.8 L 896.4 424.0 L 897.4 424.0 L 898.4 397.3 L 899.3 421.6 L 900.3 412.4 L 901.3 409.9 L 902.3 424.0 L 903.2 424.0 L 904.2 415.9 L 905.2 409.4 L 906.1 399.6 L 907.1 402.2 L 908.1 398.0 L 909.1 422.4 L 910.0 424.0 L 911.0 308.9 L 912.0 319.0 L 912.9 337.9 L 913.9 353.0 L 914.9 346.5 L 915.8 424.0 L 916.8 424.0 L 917.8 382.9 L 918.8 372.9 L 919.7 342.4 L 920.7 339.9 L 921.7 406.4 L 922.6 423.9 L 923.6 424.0 L 924.6 358.5 L 925.6 404.0 L 926.5 413.1 L 927.5 423.1 L 928.5 423.6 L 929.4 424.0 L 930.4 424.0 L 931.4 417.8 L 932.4 416.6 L 933.3 410.3 L 934.3 414.8 L 935.3 410.1 L 936.2 423.7 L 937.2 424.0 L 938.2 401.9 L 939.1 402.2 L 940.1 406.0 L 941.1 364.2 L 942.1 398.3 L 943.0 423.7 L 944.0 424.0 L 945.0 373.0 L 945.9 368.7 L 946.9 405.1 L 947.9 390.8 L 948.9 396.9 L 949.8 423.8 L 950.8 424.0 L 951.8 403.7 L 952.7 417.1 L 953.7 412.9 L 954.7 398.0 L 955.7 399.4 L 956.6 423.9 L 957.6 424.0 L 958.6 394.0 L 959.5 389.5 L 960.5 404.4 L 961.5 407.3 L 962.4 402.5 L 963.4 424.0 L 964.4 424.0 L 965.4 424.0 L 966.3 405.9 L 967.3 413.9 L 968.3 404.2 L 969.2 411.8 L 970.2 424.0 L 971.2 424.0 L 972.2 387.2 L 973.1 396.8 L 974.1 400.4 L 975.1 424.0 L 976.0 424.0 L 977.0 424.0 L 978.0 424.0 L 979.0 383.6 L 979.9 354.2 L 980.9 401.2 L 981.9 391.2 L 982.8 397.9 L 983.8 423.8 L 984.8 424.0 L 985.7 412.6 L 986.7 407.4 L 987.7 374.8 L 988.7 405.6 L 989.6 407.6 L 990.6 424.0 L 991.6 421.1 L 992.5 396.5 L 993.5 395.8 L 994.5 384.8 L 995.5 404.8 L 996.4 387.9 L 997.4 423.5 L 998.4 423.7 L 999.3 297.3 L 1000.3 347.1 L 1001.3 347.6 L 1002.3 366.6 L 1003.2 421.5 L 1004.2 416.9 L 1005.2 423.8 L 1006.1 327.0 L 1007.1 157.5 L 1008.1 290.1 L 1009.0 241.5 L 1010.0 320.8 L 1011.0 423.7 L 1012.0 424.0 L 1012.9 266.9 L 1013.9 326.4 L 1014.9 337.6 L 1015.8 374.5 L 1016.8 338.4 L 1017.8 421.4 L 1018.8 423.6 L 1019.7 423.8 L 1020.7 339.7 L 1021.7 372.1 L 1022.6 391.1 L 1023.6 396.9 L 1024.6 422.3 L 1025.6 423.8 L 1026.5 408.6 L 1027.5 359.4 L 1028.5 411.6 L 1029.4 407.3 L 1030.4 401.3 L 1031.4 422.3 L 1032.3 423.4 L 1033.3 393.9 L 1034.3 394.6 L 1035.3 407.5 L 1036.2 411.4 L 1037.2 406.3 L 1038.2 418.9 L 1039.1 423.5 L 1040.1 423.6 L 1041.1 396.4 L 1042.1 405.9 L 1043.0 419.5 L 1044.0 424.0" stroke="#9a6bff" stroke-width="1.6" fill="none" stroke-linejoin="round"/><circle cx="849.8" cy="97.7" r="4.5" fill="#f0883e" stroke="#11151d" stroke-width="2"/><rect x="777.2291457286432" y="90" width="145.2" height="22" rx="6" fill="#0b0e14" stroke="#f0883e" stroke-width="1"/><text x="849.8291457286432" y="105" class="annot" fill="#f0883e" text-anchor="middle">2025-11-24 · $38.6M</text><line x1="78" y1="424" x2="1044" y2="424" stroke="#8b949e" stroke-width="1.4"/>
  <text x="28" y="484" class="footer">COPM 0x1205…6C23 · Polygon · Transfer events up to 2026-06-12 · source: on-chain RPC scan</text>
</svg>