<svg xmlns="http://www.w3.org/2000/svg" width="1080" height="500" viewBox="0 0 1080 500" role="img" aria-label="COPM — Top 10 Days by Gross Volume">
  <style>
    .title { font: 600 19px -apple-system, 'Segoe UI', system-ui, sans-serif; fill: #e6edf3; }
    .subtitle { font: 400 12.5px -apple-system, 'Segoe UI', system-ui, sans-serif; fill: #7d8590; }
    .axis { font: 400 11px -apple-system, 'Segoe UI', system-ui, sans-serif; fill: #8b949e; }
    .label { font: 500 12px -apple-system, 'Segoe UI', system-ui, sans-serif; fill: #e6edf3; }
    .annot { font: 600 11.5px -apple-system, 'Segoe UI', system-ui, sans-serif; }
    .badge { font: 600 11.5px -apple-system, 'Segoe UI', system-ui, sans-serif; }
    .footer { font: 400 10.5px ui-monospace, 'SF Mono', Menlo, monospace; fill: #7d8590; }
  </style>
  <defs></defs>
  <rect width="1080" height="500" fill="#0b0e14"/>
  <rect x="8" y="8" width="1064" height="484" rx="10" fill="#11151d" stroke="#222938" stroke-width="1"/>
  <text x="28" y="40" class="title">COPM — Top 10 Days by Gross Volume</text>
  <rect x="977.5" y="24" width="74.5" height="22" rx="11" fill="#9a6bff22" stroke="#9a6bff" stroke-width="1"/>
  <text x="1014.75" y="39" class="badge" fill="#9a6bff" text-anchor="middle">Polygon</text>
  <text x="28" y="59" class="subtitle">Highest single-day volumes on Polygon</text>
  <text x="130" y="108.69999999999999" class="label" text-anchor="end">2025-11-24</text><rect x="140" y="92.0" width="830.0" height="25.4" fill="#f0883e" fill-opacity="0.9" rx="3"/><text x="978" y="108.69999999999999" class="label">$38.6M</text><text x="130" y="146.10000000000002" class="label" text-anchor="end">2026-05-05</text><rect x="140" y="129.4" width="677.8" height="25.4" fill="#9a6bff" fill-opacity="0.9" rx="3"/><text x="825.8408184980059" y="146.10000000000002" class="label">$31.5M</text><text x="130" y="183.50000000000003" class="label" text-anchor="end">2025-08-19</text><rect x="140" y="166.8" width="597.6" height="25.4" fill="#9a6bff" fill-opacity="0.9" rx="3"/><text x="745.6411085278473" y="183.50000000000003" class="label">$27.8M</text><text x="130" y="220.9" class="label" text-anchor="end">2025-09-19</text><rect x="140" y="204.2" width="595.6" height="25.4" fill="#9a6bff" fill-opacity="0.9" rx="3"/><text x="743.5569343408507" y="220.9" class="label">$27.7M</text><text x="130" y="258.3" class="label" text-anchor="end">2025-11-21</text><rect x="140" y="241.6" width="547.9" height="25.4" fill="#9a6bff" fill-opacity="0.9" rx="3"/><text x="695.9445206111925" y="258.3" class="label">$25.5M</text><text x="130" y="295.7" class="label" text-anchor="end">2025-09-18</text><rect x="140" y="279.0" width="531.5" height="25.4" fill="#9a6bff" fill-opacity="0.9" rx="3"/><text x="679.4917684140016" y="295.7" class="label">$24.7M</text><text x="130" y="333.09999999999997" class="label" text-anchor="end">2025-08-27</text><rect x="140" y="316.4" width="493.4" height="25.4" fill="#9a6bff" fill-opacity="0.9" rx="3"/><text x="641.3585344219373" y="333.09999999999997" class="label">$23.0M</text><text x="130" y="370.5" class="label" text-anchor="end">2025-08-12</text><rect x="140" y="353.8" width="482.8" height="25.4" fill="#9a6bff" fill-opacity="0.9" rx="3"/><text x="630.8425285798592" y="370.5" class="label">$22.5M</text><text x="130" y="407.9" class="label" text-anchor="end">2025-10-08</text><rect x="140" y="391.2" width="475.6" height="25.4" fill="#9a6bff" fill-opacity="0.9" rx="3"/><text x="623.5654134854096" y="407.9" class="label">$22.1M</text><text x="130" y="445.29999999999995" class="label" text-anchor="end">2025-08-15</text><rect x="140" y="428.6" width="471.0" height="25.4" fill="#9a6bff" fill-opacity="0.9" rx="3"/><text x="618.9959795684467" y="445.29999999999995" class="label">$21.9M</text>
  <text x="28" y="484" class="footer">COPM 0x1205…6C23 · Polygon · Transfer events up to 2026-06-12 · source: on-chain RPC scan</text>
</svg>