<svg xmlns="http://www.w3.org/2000/svg" width="1080" height="500" viewBox="0 0 1080 500" role="img" aria-label="COPM — Monthly Mints vs Burns (COPM)">
  <style>
    .title { font: 600 19px -apple-system, 'Segoe UI', system-ui, sans-serif; fill: #e6edf3; }
    .subtitle { font: 400 12.5px -apple-system, 'Segoe UI', system-ui, sans-serif; fill: #7d8590; }
    .axis { font: 400 11px -apple-system, 'Segoe UI', system-ui, sans-serif; fill: #8b949e; }
    .label { font: 500 12px -apple-system, 'Segoe UI', system-ui, sans-serif; fill: #e6edf3; }
    .annot { font: 600 11.5px -apple-system, 'Segoe UI', system-ui, sans-serif; }
    .badge { font: 600 11.5px -apple-system, 'Segoe UI', system-ui, sans-serif; }
    .footer { font: 400 10.5px ui-monospace, 'SF Mono', Menlo, monospace; fill: #7d8590; }
  </style>
  <defs></defs>
  <rect width="1080" height="500" fill="#0b0e14"/>
  <rect x="8" y="8" width="1064" height="484" rx="10" fill="#11151d" stroke="#222938" stroke-width="1"/>
  <text x="28" y="40" class="title">COPM — Monthly Mints vs Burns (COPM)</text>
  <rect x="977.5" y="24" width="74.5" height="22" rx="11" fill="#9a6bff22" stroke="#9a6bff" stroke-width="1"/>
  <text x="1014.75" y="39" class="badge" fill="#9a6bff" text-anchor="middle">Polygon</text>
  <text x="28" y="59" class="subtitle">Issuance vs redemption month by month — balance indicates bidirectional peg operation</text>
  <line x1="78" y1="404" x2="1044" y2="404" stroke="#222938" stroke-width="1"/><text x="68" y="408" class="axis" text-anchor="end">0</text><line x1="78" y1="329" x2="1044" y2="329" stroke="#222938" stroke-width="1"/><text x="68" y="333" class="axis" text-anchor="end">100.0B</text><line x1="78" y1="254" x2="1044" y2="254" stroke="#222938" stroke-width="1"/><text x="68" y="258" class="axis" text-anchor="end">200.0B</text><line x1="78" y1="179" x2="1044" y2="179" stroke="#222938" stroke-width="1"/><text x="68" y="183" class="axis" text-anchor="end">300.0B</text><line x1="78" y1="104" x2="1044" y2="104" stroke="#222938" stroke-width="1"/><text x="68" y="108" class="axis" text-anchor="end">400.0B</text><rect x="28" y="72" width="12" height="12" rx="3" fill="#3fb950"/><text x="46" y="82" class="label">Mints</text><rect x="107" y="72" width="12" height="12" rx="3" fill="#f85149"/><text x="125" y="82" class="label">Burns</text><rect x="82.0" y="404.0" width="20.5" height="0.0" fill="#3fb950" fill-opacity="0.9" rx="1.5"/><rect x="82.0" y="404.0" width="20.5" height="0.0" fill="#f85149" fill-opacity="0.9" rx="1.5"/><text x="92.20588235294119" y="424" class="axis" text-anchor="middle" transform="rotate(-45 92.20588235294119 424)">Sep 23</text><rect x="110.4" y="403.9" width="20.5" height="0.1" fill="#3fb950" fill-opacity="0.9" rx="1.5"/><rect x="110.4" y="403.9" width="20.5" height="0.0" fill="#f85149" fill-opacity="0.9" rx="1.5"/><rect x="138.8" y="403.5" width="20.5" height="0.5" fill="#3fb950" fill-opacity="0.9" rx="1.5"/><rect x="138.8" y="403.5" width="20.5" height="0.0" fill="#f85149" fill-opacity="0.9" rx="1.5"/><text x="149.02941176470586" y="424" class="axis" text-anchor="middle" transform="rotate(-45 149.02941176470586 424)">Nov 23</text><rect x="167.2" y="404.0" width="20.5" height="0.0" fill="#3fb950" fill-opacity="0.9" rx="1.5"/><rect x="167.2" y="404.0" width="20.5" height="0.0" fill="#f85149" fill-opacity="0.9" rx="1.5"/><rect x="195.6" y="404.0" width="20.5" height="0.0" fill="#3fb950" fill-opacity="0.9" rx="1.5"/><rect x="195.6" y="404.0" width="20.5" height="0.0" fill="#f85149" fill-opacity="0.9" rx="1.5"/><text x="205.85294117647055" y="424" class="axis" text-anchor="middle" transform="rotate(-45 205.85294117647055 424)">Jan 24</text><rect x="224.0" y="403.9" width="20.5" height="0.1" fill="#3fb950" fill-opacity="0.9" rx="1.5"/><rect x="224.0" y="403.9" width="20.5" height="0.0" fill="#f85149" fill-opacity="0.9" rx="1.5"/><rect x="252.4" y="403.9" width="20.5" height="0.1" fill="#3fb950" fill-opacity="0.9" rx="1.5"/><rect x="252.4" y="403.9" width="20.5" height="0.0" fill="#f85149" fill-opacity="0.9" rx="1.5"/><text x="262.6764705882353" y="424" class="axis" text-anchor="middle" transform="rotate(-45 262.6764705882353 424)">Mar 24</text><rect x="280.9" y="404.0" width="20.5" height="0.0" fill="#3fb950" fill-opacity="0.9" rx="1.5"/><rect x="280.9" y="404.0" width="20.5" height="0.0" fill="#f85149" fill-opacity="0.9" rx="1.5"/><rect x="309.3" y="403.6" width="20.5" height="0.4" fill="#3fb950" fill-opacity="0.9" rx="1.5"/><rect x="309.3" y="403.3" width="20.5" height="0.3" fill="#f85149" fill-opacity="0.9" rx="1.5"/><text x="319.5" y="424" class="axis" text-anchor="middle" transform="rotate(-45 319.5 424)">May 24</text><rect x="337.7" y="403.8" width="20.5" height="0.2" fill="#3fb950" fill-opacity="0.9" rx="1.5"/><rect x="337.7" y="403.8" width="20.5" height="0.1" fill="#f85149" fill-opacity="0.9" rx="1.5"/><rect x="366.1" y="403.7" width="20.5" height="0.3" fill="#3fb950" fill-opacity="0.9" rx="1.5"/><rect x="366.1" y="403.7" width="20.5" height="0.0" fill="#f85149" fill-opacity="0.9" rx="1.5"/><text x="376.32352941176475" y="424" class="axis" text-anchor="middle" transform="rotate(-45 376.32352941176475 424)">Jul 24</text><rect x="394.5" y="403.4" width="20.5" height="0.6" fill="#3fb950" fill-opacity="0.9" rx="1.5"/><rect x="394.5" y="402.8" width="20.5" height="0.6" fill="#f85149" fill-opacity="0.9" rx="1.5"/><rect x="422.9" y="402.8" width="20.5" height="1.2" fill="#3fb950" fill-opacity="0.9" rx="1.5"/><rect x="422.9" y="402.3" width="20.5" height="0.5" fill="#f85149" fill-opacity="0.9" rx="1.5"/><text x="433.14705882352945" y="424" class="axis" text-anchor="middle" transform="rotate(-45 433.14705882352945 424)">Sep 24</text><rect x="451.3" y="403.4" width="20.5" height="0.6" fill="#3fb950" fill-opacity="0.9" rx="1.5"/><rect x="451.3" y="403.2" width="20.5" height="0.2" fill="#f85149" fill-opacity="0.9" rx="1.5"/><rect x="479.7" y="403.8" width="20.5" height="0.2" fill="#3fb950" fill-opacity="0.9" rx="1.5"/><rect x="479.7" y="403.7" width="20.5" height="0.0" fill="#f85149" fill-opacity="0.9" rx="1.5"/><text x="489.97058823529414" y="424" class="axis" text-anchor="middle" transform="rotate(-45 489.97058823529414 424)">Nov 24</text><rect x="508.2" y="403.8" width="20.5" height="0.2" fill="#3fb950" fill-opacity="0.9" rx="1.5"/><rect x="508.2" y="403.8" width="20.5" height="0.0" fill="#f85149" fill-opacity="0.9" rx="1.5"/><rect x="536.6" y="404.0" width="20.5" height="0.0" fill="#3fb950" fill-opacity="0.9" rx="1.5"/><rect x="536.6" y="403.9" width="20.5" height="0.0" fill="#f85149" fill-opacity="0.9" rx="1.5"/><text x="546.7941176470588" y="424" class="axis" text-anchor="middle" transform="rotate(-45 546.7941176470588 424)">Jan 25</text><rect x="565.0" y="403.9" width="20.5" height="0.1" fill="#3fb950" fill-opacity="0.9" rx="1.5"/><rect x="565.0" y="403.4" width="20.5" height="0.6" fill="#f85149" fill-opacity="0.9" rx="1.5"/><rect x="593.4" y="403.8" width="20.5" height="0.2" fill="#3fb950" fill-opacity="0.9" rx="1.5"/><rect x="593.4" y="403.6" width="20.5" height="0.3" fill="#f85149" fill-opacity="0.9" rx="1.5"/><text x="603.6176470588235" y="424" class="axis" text-anchor="middle" transform="rotate(-45 603.6176470588235 424)">Mar 25</text><rect x="621.8" y="401.2" width="20.5" height="2.8" fill="#3fb950" fill-opacity="0.9" rx="1.5"/><rect x="621.8" y="398.9" width="20.5" height="2.3" fill="#f85149" fill-opacity="0.9" rx="1.5"/><rect x="650.2" y="400.0" width="20.5" height="4.0" fill="#3fb950" fill-opacity="0.9" rx="1.5"/><rect x="650.2" y="396.3" width="20.5" height="3.7" fill="#f85149" fill-opacity="0.9" rx="1.5"/><text x="660.4411764705883" y="424" class="axis" text-anchor="middle" transform="rotate(-45 660.4411764705883 424)">May 25</text><rect x="678.6" y="388.9" width="20.5" height="15.1" fill="#3fb950" fill-opacity="0.9" rx="1.5"/><rect x="678.6" y="373.8" width="20.5" height="15.1" fill="#f85149" fill-opacity="0.9" rx="1.5"/><rect x="707.0" y="301.7" width="20.5" height="102.3" fill="#3fb950" fill-opacity="0.9" rx="1.5"/><rect x="707.0" y="200.2" width="20.5" height="101.5" fill="#f85149" fill-opacity="0.9" rx="1.5"/><text x="717.2647058823529" y="424" class="axis" text-anchor="middle" transform="rotate(-45 717.2647058823529 424)">Jul 25</text><rect x="735.4" y="274.5" width="20.5" height="129.5" fill="#3fb950" fill-opacity="0.9" rx="1.5"/><rect x="735.4" y="144.8" width="20.5" height="129.7" fill="#f85149" fill-opacity="0.9" rx="1.5"/><rect x="763.9" y="297.3" width="20.5" height="106.7" fill="#3fb950" fill-opacity="0.9" rx="1.5"/><rect x="763.9" y="192.0" width="20.5" height="105.3" fill="#f85149" fill-opacity="0.9" rx="1.5"/><text x="774.0882352941177" y="424" class="axis" text-anchor="middle" transform="rotate(-45 774.0882352941177 424)">Sep 25</text><rect x="792.3" y="293.3" width="20.5" height="110.7" fill="#3fb950" fill-opacity="0.9" rx="1.5"/><rect x="792.3" y="183.0" width="20.5" height="110.3" fill="#f85149" fill-opacity="0.9" rx="1.5"/><rect x="820.7" y="264.2" width="20.5" height="139.8" fill="#3fb950" fill-opacity="0.9" rx="1.5"/><rect x="820.7" y="126.1" width="20.5" height="138.2" fill="#f85149" fill-opacity="0.9" rx="1.5"/><text x="830.9117647058823" y="424" class="axis" text-anchor="middle" transform="rotate(-45 830.9117647058823 424)">Nov 25</text><rect x="849.1" y="369.8" width="20.5" height="34.2" fill="#3fb950" fill-opacity="0.9" rx="1.5"/><rect x="849.1" y="333.9" width="20.5" height="35.8" fill="#f85149" fill-opacity="0.9" rx="1.5"/><rect x="877.5" y="366.2" width="20.5" height="37.8" fill="#3fb950" fill-opacity="0.9" rx="1.5"/><rect x="877.5" y="328.7" width="20.5" height="37.5" fill="#f85149" fill-opacity="0.9" rx="1.5"/><text x="887.7352941176471" y="424" class="axis" text-anchor="middle" transform="rotate(-45 887.7352941176471 424)">Jan 26</text><rect x="905.9" y="374.9" width="20.5" height="29.1" fill="#3fb950" fill-opacity="0.9" rx="1.5"/><rect x="905.9" y="343.7" width="20.5" height="31.2" fill="#f85149" fill-opacity="0.9" rx="1.5"/><rect x="934.3" y="376.3" width="20.5" height="27.7" fill="#3fb950" fill-opacity="0.9" rx="1.5"/><rect x="934.3" y="350.8" width="20.5" height="25.5" fill="#f85149" fill-opacity="0.9" rx="1.5"/><text x="944.5588235294117" y="424" class="axis" text-anchor="middle" transform="rotate(-45 944.5588235294117 424)">Mar 26</text><rect x="962.7" y="359.0" width="20.5" height="45.0" fill="#3fb950" fill-opacity="0.9" rx="1.5"/><rect x="962.7" y="316.7" width="20.5" height="42.3" fill="#f85149" fill-opacity="0.9" rx="1.5"/><rect x="991.2" y="318.3" width="20.5" height="85.7" fill="#3fb950" fill-opacity="0.9" rx="1.5"/><rect x="991.2" y="229.8" width="20.5" height="88.5" fill="#f85149" fill-opacity="0.9" rx="1.5"/><text x="1001.3823529411765" y="424" class="axis" text-anchor="middle" transform="rotate(-45 1001.3823529411765 424)">May 26</text><rect x="1019.6" y="395.7" width="20.5" height="8.3" fill="#3fb950" fill-opacity="0.9" rx="1.5"/><rect x="1019.6" y="387.4" width="20.5" height="8.3" fill="#f85149" fill-opacity="0.9" rx="1.5"/><line x1="78" y1="404" x2="1044" y2="404" stroke="#8b949e" stroke-width="1.4"/>
  <text x="28" y="484" class="footer">COPM 0x1205…6C23 · Polygon · Transfer events up to 2026-06-12 · source: on-chain RPC scan</text>
</svg>