<svg xmlns="http://www.w3.org/2000/svg" width="1080" height="500" viewBox="0 0 1080 500" role="img" aria-label="COPM — Daily Transfers">
  <style>
    .title { font: 600 22px -apple-system, 'Segoe UI', system-ui, sans-serif; fill: #151515; }
    .subtitle { font: 400 14px -apple-system, 'Segoe UI', system-ui, sans-serif; fill: #6e6e66; }
    .axis { font: 400 13px -apple-system, 'Segoe UI', system-ui, sans-serif; fill: #52524c; }
    .label { font: 500 14px -apple-system, 'Segoe UI', system-ui, sans-serif; fill: #151515; }
    .annot { font: 600 13px -apple-system, 'Segoe UI', system-ui, sans-serif; }
    .badge { font: 600 13px -apple-system, 'Segoe UI', system-ui, sans-serif; }
    .footer { font: 400 12px ui-monospace, 'SF Mono', Menlo, monospace; fill: #6e6e66; }
  </style>
  <defs><linearGradient id="g3" x1="0" y1="0" x2="0" y2="1">
      <stop offset="0%" stop-color="#1d9e5f" stop-opacity="0.35"/>
      <stop offset="100%" stop-color="#1d9e5f" stop-opacity="0.02"/>
    </linearGradient></defs>
  <rect width="1080" height="500" fill="#eeefe9"/>
  <rect x="8" y="8" width="1064" height="484" rx="10" fill="#ffffff" stroke="#d4d5cc" stroke-width="1"/>
  <text x="28" y="40" class="title">COPM — Daily Transfers</text>
  <rect x="994" y="24" width="58" height="22" rx="11" fill="#1d9e5f22" stroke="#1d9e5f" stroke-width="1"/>
  <text x="1023" y="39" class="badge" fill="#1d9e5f" text-anchor="middle">Celo</text>
  <text x="28" y="59" class="subtitle">2024-09-17 → 2026-06-12 · peak: 1,919 transfers in one day</text>
  <line x1="78" y1="424" x2="1044" y2="424" stroke="#d4d5cc" stroke-width="1"/><text x="68" y="428" class="axis" text-anchor="end">0</text><line x1="78" y1="339.5" x2="1044" y2="339.5" stroke="#d4d5cc" stroke-width="1"/><text x="68" y="343.5" class="axis" text-anchor="end">500</text><line x1="78" y1="255" x2="1044" y2="255" stroke="#d4d5cc" stroke-width="1"/><text x="68" y="259" class="axis" text-anchor="end">1,000</text><line x1="78" y1="170.5" x2="1044" y2="170.5" stroke="#d4d5cc" stroke-width="1"/><text x="68" y="174.5" class="axis" text-anchor="end">1,500</text><line x1="78" y1="86" x2="1044" y2="86" stroke="#d4d5cc" stroke-width="1"/><text x="68" y="90" class="axis" text-anchor="end">2,000</text><line x1="53.58293838862559" y1="86" x2="53.58293838862559" y2="424" stroke="#d4d5cc" stroke-width="1" stroke-dasharray="2,5"/><text x="53.58293838862559" y="444" class="axis" text-anchor="middle">Sep 24</text><line x1="192.45497630331755" y1="86" x2="192.45497630331755" y2="424" stroke="#d4d5cc" stroke-width="1" stroke-dasharray="2,5"/><text x="192.45497630331755" y="444" class="axis" text-anchor="middle">Dec 24</text><line x1="329.80094786729865" y1="86" x2="329.80094786729865" y2="424" stroke="#d4d5cc" stroke-width="1" stroke-dasharray="2,5"/><text x="329.80094786729865" y="444" class="axis" text-anchor="middle">Mar 25</text><line x1="470.1990521327014" y1="86" x2="470.1990521327014" y2="424" stroke="#d4d5cc" stroke-width="1" stroke-dasharray="2,5"/><text x="470.1990521327014" y="444" class="axis" text-anchor="middle">Jun 25</text><line x1="610.5971563981042" y1="86" x2="610.5971563981042" y2="424" stroke="#d4d5cc" stroke-width="1" stroke-dasharray="2,5"/><text x="610.5971563981042" y="444" class="axis" text-anchor="middle">Sep 25</text><line x1="749.4691943127963" y1="86" x2="749.4691943127963" y2="424" stroke="#d4d5cc" stroke-width="1" stroke-dasharray="2,5"/><text x="749.4691943127963" y="444" class="axis" text-anchor="middle">Dec 25</text><line x1="886.8151658767772" y1="86" x2="886.8151658767772" y2="424" stroke="#d4d5cc" stroke-width="1" stroke-dasharray="2,5"/><text x="886.8151658767772" y="444" class="axis" text-anchor="middle">Mar 26</text><line x1="1027.2132701421801" y1="86" x2="1027.2132701421801" y2="424" stroke="#d4d5cc" stroke-width="1" stroke-dasharray="2,5"/><text x="1027.2132701421801" y="444" class="axis" text-anchor="middle">Jun 26</text><path d="M 78 424 L 78.0 423.7 L 79.5 424.0 L 81.1 424.0 L 82.6 424.0 L 84.1 424.0 L 85.6 424.0 L 87.2 424.0 L 88.7 424.0 L 90.2 424.0 L 91.7 424.0 L 93.3 424.0 L 94.8 424.0 L 96.3 424.0 L 97.8 424.0 L 99.4 424.0 L 100.9 424.0 L 102.4 422.6 L 103.9 424.0 L 105.5 424.0 L 107.0 424.0 L 108.5 424.0 L 110.0 424.0 L 111.6 423.5 L 113.1 423.8 L 114.6 424.0 L 116.2 424.0 L 117.7 424.0 L 119.2 424.0 L 120.7 424.0 L 122.3 424.0 L 123.8 424.0 L 125.3 424.0 L 126.8 424.0 L 128.4 424.0 L 129.9 424.0 L 131.4 423.7 L 132.9 423.3 L 134.5 424.0 L 136.0 424.0 L 137.5 424.0 L 139.0 424.0 L 140.6 423.7 L 142.1 420.3 L 143.6 380.1 L 145.1 274.3 L 146.7 346.1 L 148.2 391.9 L 149.7 313.6 L 151.3 349.6 L 152.8 371.6 L 154.3 342.7 L 155.8 377.5 L 157.4 372.8 L 158.9 351.3 L 160.4 324.0 L 161.9 333.6 L 163.5 313.5 L 165.0 300.3 L 166.5 330.4 L 168.0 341.4 L 169.6 279.0 L 171.1 351.7 L 172.6 309.8 L 174.1 352.7 L 175.7 332.6 L 177.2 325.8 L 178.7 363.8 L 180.2 289.5 L 181.8 284.1 L 183.3 301.3 L 184.8 217.7 L 186.4 321.2 L 187.9 323.6 L 189.4 328.5 L 190.9 334.1 L 192.5 331.1 L 194.0 265.6 L 195.5 269.7 L 197.0 385.3 L 198.6 417.6 L 200.1 420.1 L 201.6 422.1 L 203.1 423.2 L 204.7 409.1 L 206.2 304.0 L 207.7 366.2 L 209.2 362.7 L 210.8 368.2 L 212.3 383.1 L 213.8 373.3 L 215.3 368.7 L 216.9 368.2 L 218.4 369.6 L 219.9 344.4 L 221.5 323.8 L 223.0 358.6 L 224.5 365.5 L 226.0 335.3 L 227.6 342.2 L 229.1 398.1 L 230.6 382.9 L 232.1 368.9 L 233.7 390.5 L 235.2 399.7 L 236.7 380.1 L 238.2 414.2 L 239.8 417.6 L 241.3 388.2 L 242.8 359.4 L 244.3 390.5 L 245.9 401.5 L 247.4 379.4 L 248.9 391.2 L 250.4 374.3 L 252.0 353.0 L 253.5 356.4 L 255.0 381.4 L 256.5 391.4 L 258.1 312.3 L 259.6 316.7 L 261.1 279.2 L 262.7 342.9 L 264.2 320.4 L 265.7 314.1 L 267.2 99.7 L 268.8 186.0 L 270.3 283.6 L 271.8 359.1 L 273.3 237.1 L 274.9 300.8 L 276.4 372.8 L 277.9 378.9 L 279.4 204.1 L 281.0 333.2 L 282.5 244.0 L 284.0 288.1 L 285.5 261.6 L 287.1 352.9 L 288.6 212.9 L 290.1 177.1 L 291.6 218.2 L 293.2 376.8 L 294.7 394.6 L 296.2 381.1 L 297.8 405.4 L 299.3 363.8 L 300.8 350.1 L 302.3 347.1 L 303.9 313.0 L 305.4 363.2 L 306.9 349.3 L 308.4 399.0 L 310.0 364.9 L 311.5 280.9 L 313.0 359.1 L 314.5 360.8 L 316.1 366.5 L 317.6 343.2 L 319.1 388.8 L 320.6 386.1 L 322.2 394.3 L 323.7 391.2 L 325.2 399.7 L 326.7 411.5 L 328.3 401.5 L 329.8 407.3 L 331.3 375.0 L 332.9 382.3 L 334.4 375.5 L 335.9 400.7 L 337.4 402.9 L 339.0 395.6 L 340.5 411.2 L 342.0 400.3 L 343.5 382.3 L 345.1 423.0 L 346.6 423.2 L 348.1 421.3 L 349.6 423.7 L 351.2 423.5 L 352.7 423.8 L 354.2 309.6 L 355.7 422.3 L 357.3 344.9 L 358.8 376.2 L 360.3 424.0 L 361.8 424.0 L 363.4 419.6 L 364.9 334.9 L 366.4 390.2 L 368.0 409.8 L 369.5 401.2 L 371.0 423.7 L 372.5 424.0 L 374.1 421.0 L 375.6 424.0 L 377.1 424.0 L 378.6 424.0 L 380.2 423.7 L 381.7 423.0 L 383.2 423.3 L 384.7 424.0 L 386.3 418.9 L 387.8 418.6 L 389.3 415.6 L 390.8 408.8 L 392.4 422.3 L 393.9 423.7 L 395.4 421.3 L 396.9 423.7 L 398.5 423.0 L 400.0 421.1 L 401.5 423.0 L 403.1 424.0 L 404.6 424.0 L 406.1 424.0 L 407.6 423.7 L 409.2 420.3 L 410.7 421.6 L 412.2 423.5 L 413.7 421.1 L 415.3 420.8 L 416.8 423.7 L 418.3 423.2 L 419.8 421.8 L 421.4 422.1 L 422.9 424.0 L 424.4 422.3 L 425.9 423.2 L 427.5 423.7 L 429.0 423.0 L 430.5 419.1 L 432.0 417.1 L 433.6 398.0 L 435.1 382.6 L 436.6 308.4 L 438.2 297.3 L 439.7 270.7 L 441.2 333.8 L 442.7 365.0 L 444.3 363.3 L 445.8 404.4 L 447.3 409.8 L 448.8 404.9 L 450.4 406.9 L 451.9 398.3 L 453.4 406.9 L 454.9 411.2 L 456.5 381.6 L 458.0 414.2 L 459.5 407.4 L 461.0 413.5 L 462.6 406.1 L 464.1 411.5 L 465.6 407.6 L 467.1 401.7 L 468.7 415.9 L 470.2 412.5 L 471.7 410.6 L 473.3 420.5 L 474.8 422.1 L 476.3 415.4 L 477.8 410.1 L 479.4 418.4 L 480.9 415.6 L 482.4 402.2 L 483.9 409.1 L 485.5 409.6 L 487.0 406.1 L 488.5 394.3 L 490.0 421.0 L 491.6 423.0 L 493.1 403.6 L 494.6 397.1 L 496.1 416.6 L 497.7 422.0 L 499.2 407.4 L 500.7 409.5 L 502.2 414.5 L 503.8 409.8 L 505.3 416.1 L 506.8 420.3 L 508.4 416.7 L 509.9 418.1 L 511.4 423.0 L 512.9 404.7 L 514.5 419.9 L 516.0 416.9 L 517.5 412.8 L 519.0 417.7 L 520.6 383.6 L 522.1 419.9 L 523.6 407.6 L 525.1 416.2 L 526.7 414.4 L 528.2 403.6 L 529.7 420.5 L 531.2 419.8 L 532.8 423.7 L 534.3 423.3 L 535.8 422.8 L 537.3 423.3 L 538.9 421.3 L 540.4 420.6 L 541.9 421.6 L 543.5 424.0 L 545.0 413.5 L 546.5 421.1 L 548.0 306.4 L 549.6 391.6 L 551.1 408.8 L 552.6 291.2 L 554.1 418.3 L 555.7 417.6 L 557.2 404.9 L 558.7 404.1 L 560.2 389.9 L 561.8 386.3 L 563.3 374.8 L 564.8 397.3 L 566.3 419.9 L 567.9 401.2 L 569.4 407.8 L 570.9 410.1 L 572.4 409.0 L 574.0 411.2 L 575.5 411.5 L 577.0 394.3 L 578.5 396.1 L 580.1 386.8 L 581.6 412.2 L 583.1 404.9 L 584.7 400.2 L 586.2 421.6 L 587.7 415.6 L 589.2 409.1 L 590.8 404.6 L 592.3 398.5 L 593.8 420.6 L 595.3 385.8 L 596.9 421.6 L 598.4 411.3 L 599.9 380.4 L 601.4 396.8 L 603.0 416.2 L 604.5 417.4 L 606.0 399.2 L 607.5 422.6 L 609.1 418.9 L 610.6 414.7 L 612.1 419.6 L 613.6 413.2 L 615.2 415.0 L 616.7 410.1 L 618.2 422.8 L 619.8 422.5 L 621.3 421.8 L 622.8 414.9 L 624.3 420.3 L 625.9 421.8 L 627.4 424.0 L 628.9 424.0 L 630.4 424.0 L 632.0 424.0 L 633.5 423.8 L 635.0 424.0 L 636.5 424.0 L 638.1 424.0 L 639.6 424.0 L 641.1 423.8 L 642.6 422.3 L 644.2 421.8 L 645.7 422.6 L 647.2 422.5 L 648.7 423.7 L 650.3 424.0 L 651.8 424.0 L 653.3 423.3 L 654.9 422.1 L 656.4 422.5 L 657.9 423.5 L 659.4 423.7 L 661.0 424.0 L 662.5 423.5 L 664.0 416.9 L 665.5 424.0 L 667.1 420.6 L 668.6 421.0 L 670.1 423.3 L 671.6 423.0 L 673.2 423.7 L 674.7 424.0 L 676.2 423.5 L 677.7 423.3 L 679.3 423.3 L 680.8 423.3 L 682.3 424.0 L 683.8 424.0 L 685.4 423.0 L 686.9 420.8 L 688.4 423.8 L 690.0 418.6 L 691.5 420.6 L 693.0 424.0 L 694.5 423.5 L 696.1 422.3 L 697.6 422.1 L 699.1 422.6 L 700.6 422.3 L 702.2 422.6 L 703.7 423.7 L 705.2 423.3 L 706.7 421.3 L 708.3 422.6 L 709.8 421.6 L 711.3 422.6 L 712.8 420.3 L 714.4 421.8 L 715.9 422.6 L 717.4 422.6 L 718.9 423.2 L 720.5 422.0 L 722.0 419.6 L 723.5 420.3 L 725.1 419.3 L 726.6 422.6 L 728.1 422.1 L 729.6 421.6 L 731.2 421.5 L 732.7 421.8 L 734.2 416.6 L 735.7 398.5 L 737.3 415.4 L 738.8 416.6 L 740.3 415.2 L 741.8 409.8 L 743.4 400.8 L 744.9 409.6 L 746.4 411.7 L 747.9 417.1 L 749.5 406.6 L 751.0 387.7 L 752.5 387.8 L 754.0 399.5 L 755.6 404.9 L 757.1 413.9 L 758.6 407.9 L 760.2 415.2 L 761.7 403.9 L 763.2 398.0 L 764.7 399.5 L 766.3 398.5 L 767.8 406.3 L 769.3 412.2 L 770.8 382.9 L 772.4 402.2 L 773.9 390.7 L 775.4 394.9 L 776.9 394.6 L 778.5 387.8 L 780.0 409.6 L 781.5 406.3 L 783.0 388.7 L 784.6 409.6 L 786.1 412.2 L 787.6 412.3 L 789.1 414.7 L 790.7 405.2 L 792.2 397.0 L 793.7 406.8 L 795.3 411.7 L 796.8 417.2 L 798.3 413.9 L 799.8 412.3 L 801.4 410.5 L 802.9 275.8 L 804.4 369.1 L 805.9 247.6 L 807.5 338.0 L 809.0 385.6 L 810.5 398.0 L 812.0 413.7 L 813.6 405.6 L 815.1 394.6 L 816.6 398.8 L 818.1 403.7 L 819.7 402.9 L 821.2 407.8 L 822.7 411.0 L 824.2 404.7 L 825.8 404.9 L 827.3 397.6 L 828.8 403.0 L 830.4 392.2 L 831.9 409.6 L 833.4 413.4 L 834.9 399.0 L 836.5 389.5 L 838.0 381.6 L 839.5 375.5 L 841.0 360.8 L 842.6 390.4 L 844.1 405.1 L 845.6 391.7 L 847.1 381.8 L 848.7 379.7 L 850.2 379.6 L 851.7 391.2 L 853.2 372.5 L 854.8 389.5 L 856.3 376.2 L 857.8 365.2 L 859.3 370.1 L 860.9 377.0 L 862.4 381.6 L 863.9 403.6 L 865.5 401.2 L 867.0 401.2 L 868.5 352.9 L 870.0 383.1 L 871.6 392.6 L 873.1 369.6 L 874.6 396.1 L 876.1 385.0 L 877.7 357.2 L 879.2 365.4 L 880.7 365.7 L 882.2 384.6 L 883.8 392.7 L 885.3 394.1 L 886.8 397.6 L 888.3 395.6 L 889.9 382.1 L 891.4 379.0 L 892.9 373.3 L 894.4 361.8 L 896.0 379.2 L 897.5 399.7 L 899.0 357.6 L 900.5 353.0 L 902.1 366.7 L 903.6 383.1 L 905.1 391.6 L 906.7 363.5 L 908.2 254.7 L 909.7 388.0 L 911.2 385.3 L 912.8 365.9 L 914.3 341.5 L 915.8 386.5 L 917.3 412.8 L 918.9 411.7 L 920.4 413.0 L 921.9 405.4 L 923.4 374.0 L 925.0 371.1 L 926.5 363.5 L 928.0 387.8 L 929.5 397.1 L 931.1 382.3 L 932.6 370.6 L 934.1 390.0 L 935.6 404.2 L 937.2 412.2 L 938.7 412.3 L 940.2 413.4 L 941.8 399.3 L 943.3 398.5 L 944.8 384.8 L 946.3 382.3 L 947.9 386.5 L 949.4 403.9 L 950.9 406.9 L 952.4 399.8 L 954.0 375.0 L 955.5 375.0 L 957.0 316.9 L 958.5 381.6 L 960.1 385.6 L 961.6 394.9 L 963.1 392.6 L 964.6 394.3 L 966.2 401.0 L 967.7 397.3 L 969.2 393.7 L 970.7 406.6 L 972.3 414.2 L 973.8 400.3 L 975.3 386.7 L 976.9 393.9 L 978.4 400.3 L 979.9 411.0 L 981.4 412.3 L 983.0 400.5 L 984.5 386.8 L 986.0 388.5 L 987.5 388.3 L 989.1 402.0 L 990.6 408.3 L 992.1 416.4 L 993.6 411.8 L 995.2 392.7 L 996.7 413.9 L 998.2 422.6 L 999.7 406.9 L 1001.3 381.6 L 1002.8 396.1 L 1004.3 400.8 L 1005.8 412.5 L 1007.4 359.3 L 1008.9 338.0 L 1010.4 346.1 L 1012.0 370.6 L 1013.5 341.4 L 1015.0 382.4 L 1016.5 385.8 L 1018.1 329.5 L 1019.6 357.1 L 1021.1 328.7 L 1022.6 398.3 L 1024.2 420.6 L 1025.7 423.0 L 1027.2 420.5 L 1028.7 392.6 L 1030.3 368.2 L 1031.8 337.1 L 1033.3 280.5 L 1034.8 380.2 L 1036.4 400.7 L 1037.9 394.3 L 1039.4 379.0 L 1040.9 377.9 L 1042.5 379.9 L 1044.0 422.3 L 1044 424 Z" fill="url(#g3)"/><path d="M 78.0 423.7 L 79.5 424.0 L 81.1 424.0 L 82.6 424.0 L 84.1 424.0 L 85.6 424.0 L 87.2 424.0 L 88.7 424.0 L 90.2 424.0 L 91.7 424.0 L 93.3 424.0 L 94.8 424.0 L 96.3 424.0 L 97.8 424.0 L 99.4 424.0 L 100.9 424.0 L 102.4 422.6 L 103.9 424.0 L 105.5 424.0 L 107.0 424.0 L 108.5 424.0 L 110.0 424.0 L 111.6 423.5 L 113.1 423.8 L 114.6 424.0 L 116.2 424.0 L 117.7 424.0 L 119.2 424.0 L 120.7 424.0 L 122.3 424.0 L 123.8 424.0 L 125.3 424.0 L 126.8 424.0 L 128.4 424.0 L 129.9 424.0 L 131.4 423.7 L 132.9 423.3 L 134.5 424.0 L 136.0 424.0 L 137.5 424.0 L 139.0 424.0 L 140.6 423.7 L 142.1 420.3 L 143.6 380.1 L 145.1 274.3 L 146.7 346.1 L 148.2 391.9 L 149.7 313.6 L 151.3 349.6 L 152.8 371.6 L 154.3 342.7 L 155.8 377.5 L 157.4 372.8 L 158.9 351.3 L 160.4 324.0 L 161.9 333.6 L 163.5 313.5 L 165.0 300.3 L 166.5 330.4 L 168.0 341.4 L 169.6 279.0 L 171.1 351.7 L 172.6 309.8 L 174.1 352.7 L 175.7 332.6 L 177.2 325.8 L 178.7 363.8 L 180.2 289.5 L 181.8 284.1 L 183.3 301.3 L 184.8 217.7 L 186.4 321.2 L 187.9 323.6 L 189.4 328.5 L 190.9 334.1 L 192.5 331.1 L 194.0 265.6 L 195.5 269.7 L 197.0 385.3 L 198.6 417.6 L 200.1 420.1 L 201.6 422.1 L 203.1 423.2 L 204.7 409.1 L 206.2 304.0 L 207.7 366.2 L 209.2 362.7 L 210.8 368.2 L 212.3 383.1 L 213.8 373.3 L 215.3 368.7 L 216.9 368.2 L 218.4 369.6 L 219.9 344.4 L 221.5 323.8 L 223.0 358.6 L 224.5 365.5 L 226.0 335.3 L 227.6 342.2 L 229.1 398.1 L 230.6 382.9 L 232.1 368.9 L 233.7 390.5 L 235.2 399.7 L 236.7 380.1 L 238.2 414.2 L 239.8 417.6 L 241.3 388.2 L 242.8 359.4 L 244.3 390.5 L 245.9 401.5 L 247.4 379.4 L 248.9 391.2 L 250.4 374.3 L 252.0 353.0 L 253.5 356.4 L 255.0 381.4 L 256.5 391.4 L 258.1 312.3 L 259.6 316.7 L 261.1 279.2 L 262.7 342.9 L 264.2 320.4 L 265.7 314.1 L 267.2 99.7 L 268.8 186.0 L 270.3 283.6 L 271.8 359.1 L 273.3 237.1 L 274.9 300.8 L 276.4 372.8 L 277.9 378.9 L 279.4 204.1 L 281.0 333.2 L 282.5 244.0 L 284.0 288.1 L 285.5 261.6 L 287.1 352.9 L 288.6 212.9 L 290.1 177.1 L 291.6 218.2 L 293.2 376.8 L 294.7 394.6 L 296.2 381.1 L 297.8 405.4 L 299.3 363.8 L 300.8 350.1 L 302.3 347.1 L 303.9 313.0 L 305.4 363.2 L 306.9 349.3 L 308.4 399.0 L 310.0 364.9 L 311.5 280.9 L 313.0 359.1 L 314.5 360.8 L 316.1 366.5 L 317.6 343.2 L 319.1 388.8 L 320.6 386.1 L 322.2 394.3 L 323.7 391.2 L 325.2 399.7 L 326.7 411.5 L 328.3 401.5 L 329.8 407.3 L 331.3 375.0 L 332.9 382.3 L 334.4 375.5 L 335.9 400.7 L 337.4 402.9 L 339.0 395.6 L 340.5 411.2 L 342.0 400.3 L 343.5 382.3 L 345.1 423.0 L 346.6 423.2 L 348.1 421.3 L 349.6 423.7 L 351.2 423.5 L 352.7 423.8 L 354.2 309.6 L 355.7 422.3 L 357.3 344.9 L 358.8 376.2 L 360.3 424.0 L 361.8 424.0 L 363.4 419.6 L 364.9 334.9 L 366.4 390.2 L 368.0 409.8 L 369.5 401.2 L 371.0 423.7 L 372.5 424.0 L 374.1 421.0 L 375.6 424.0 L 377.1 424.0 L 378.6 424.0 L 380.2 423.7 L 381.7 423.0 L 383.2 423.3 L 384.7 424.0 L 386.3 418.9 L 387.8 418.6 L 389.3 415.6 L 390.8 408.8 L 392.4 422.3 L 393.9 423.7 L 395.4 421.3 L 396.9 423.7 L 398.5 423.0 L 400.0 421.1 L 401.5 423.0 L 403.1 424.0 L 404.6 424.0 L 406.1 424.0 L 407.6 423.7 L 409.2 420.3 L 410.7 421.6 L 412.2 423.5 L 413.7 421.1 L 415.3 420.8 L 416.8 423.7 L 418.3 423.2 L 419.8 421.8 L 421.4 422.1 L 422.9 424.0 L 424.4 422.3 L 425.9 423.2 L 427.5 423.7 L 429.0 423.0 L 430.5 419.1 L 432.0 417.1 L 433.6 398.0 L 435.1 382.6 L 436.6 308.4 L 438.2 297.3 L 439.7 270.7 L 441.2 333.8 L 442.7 365.0 L 444.3 363.3 L 445.8 404.4 L 447.3 409.8 L 448.8 404.9 L 450.4 406.9 L 451.9 398.3 L 453.4 406.9 L 454.9 411.2 L 456.5 381.6 L 458.0 414.2 L 459.5 407.4 L 461.0 413.5 L 462.6 406.1 L 464.1 411.5 L 465.6 407.6 L 467.1 401.7 L 468.7 415.9 L 470.2 412.5 L 471.7 410.6 L 473.3 420.5 L 474.8 422.1 L 476.3 415.4 L 477.8 410.1 L 479.4 418.4 L 480.9 415.6 L 482.4 402.2 L 483.9 409.1 L 485.5 409.6 L 487.0 406.1 L 488.5 394.3 L 490.0 421.0 L 491.6 423.0 L 493.1 403.6 L 494.6 397.1 L 496.1 416.6 L 497.7 422.0 L 499.2 407.4 L 500.7 409.5 L 502.2 414.5 L 503.8 409.8 L 505.3 416.1 L 506.8 420.3 L 508.4 416.7 L 509.9 418.1 L 511.4 423.0 L 512.9 404.7 L 514.5 419.9 L 516.0 416.9 L 517.5 412.8 L 519.0 417.7 L 520.6 383.6 L 522.1 419.9 L 523.6 407.6 L 525.1 416.2 L 526.7 414.4 L 528.2 403.6 L 529.7 420.5 L 531.2 419.8 L 532.8 423.7 L 534.3 423.3 L 535.8 422.8 L 537.3 423.3 L 538.9 421.3 L 540.4 420.6 L 541.9 421.6 L 543.5 424.0 L 545.0 413.5 L 546.5 421.1 L 548.0 306.4 L 549.6 391.6 L 551.1 408.8 L 552.6 291.2 L 554.1 418.3 L 555.7 417.6 L 557.2 404.9 L 558.7 404.1 L 560.2 389.9 L 561.8 386.3 L 563.3 374.8 L 564.8 397.3 L 566.3 419.9 L 567.9 401.2 L 569.4 407.8 L 570.9 410.1 L 572.4 409.0 L 574.0 411.2 L 575.5 411.5 L 577.0 394.3 L 578.5 396.1 L 580.1 386.8 L 581.6 412.2 L 583.1 404.9 L 584.7 400.2 L 586.2 421.6 L 587.7 415.6 L 589.2 409.1 L 590.8 404.6 L 592.3 398.5 L 593.8 420.6 L 595.3 385.8 L 596.9 421.6 L 598.4 411.3 L 599.9 380.4 L 601.4 396.8 L 603.0 416.2 L 604.5 417.4 L 606.0 399.2 L 607.5 422.6 L 609.1 418.9 L 610.6 414.7 L 612.1 419.6 L 613.6 413.2 L 615.2 415.0 L 616.7 410.1 L 618.2 422.8 L 619.8 422.5 L 621.3 421.8 L 622.8 414.9 L 624.3 420.3 L 625.9 421.8 L 627.4 424.0 L 628.9 424.0 L 630.4 424.0 L 632.0 424.0 L 633.5 423.8 L 635.0 424.0 L 636.5 424.0 L 638.1 424.0 L 639.6 424.0 L 641.1 423.8 L 642.6 422.3 L 644.2 421.8 L 645.7 422.6 L 647.2 422.5 L 648.7 423.7 L 650.3 424.0 L 651.8 424.0 L 653.3 423.3 L 654.9 422.1 L 656.4 422.5 L 657.9 423.5 L 659.4 423.7 L 661.0 424.0 L 662.5 423.5 L 664.0 416.9 L 665.5 424.0 L 667.1 420.6 L 668.6 421.0 L 670.1 423.3 L 671.6 423.0 L 673.2 423.7 L 674.7 424.0 L 676.2 423.5 L 677.7 423.3 L 679.3 423.3 L 680.8 423.3 L 682.3 424.0 L 683.8 424.0 L 685.4 423.0 L 686.9 420.8 L 688.4 423.8 L 690.0 418.6 L 691.5 420.6 L 693.0 424.0 L 694.5 423.5 L 696.1 422.3 L 697.6 422.1 L 699.1 422.6 L 700.6 422.3 L 702.2 422.6 L 703.7 423.7 L 705.2 423.3 L 706.7 421.3 L 708.3 422.6 L 709.8 421.6 L 711.3 422.6 L 712.8 420.3 L 714.4 421.8 L 715.9 422.6 L 717.4 422.6 L 718.9 423.2 L 720.5 422.0 L 722.0 419.6 L 723.5 420.3 L 725.1 419.3 L 726.6 422.6 L 728.1 422.1 L 729.6 421.6 L 731.2 421.5 L 732.7 421.8 L 734.2 416.6 L 735.7 398.5 L 737.3 415.4 L 738.8 416.6 L 740.3 415.2 L 741.8 409.8 L 743.4 400.8 L 744.9 409.6 L 746.4 411.7 L 747.9 417.1 L 749.5 406.6 L 751.0 387.7 L 752.5 387.8 L 754.0 399.5 L 755.6 404.9 L 757.1 413.9 L 758.6 407.9 L 760.2 415.2 L 761.7 403.9 L 763.2 398.0 L 764.7 399.5 L 766.3 398.5 L 767.8 406.3 L 769.3 412.2 L 770.8 382.9 L 772.4 402.2 L 773.9 390.7 L 775.4 394.9 L 776.9 394.6 L 778.5 387.8 L 780.0 409.6 L 781.5 406.3 L 783.0 388.7 L 784.6 409.6 L 786.1 412.2 L 787.6 412.3 L 789.1 414.7 L 790.7 405.2 L 792.2 397.0 L 793.7 406.8 L 795.3 411.7 L 796.8 417.2 L 798.3 413.9 L 799.8 412.3 L 801.4 410.5 L 802.9 275.8 L 804.4 369.1 L 805.9 247.6 L 807.5 338.0 L 809.0 385.6 L 810.5 398.0 L 812.0 413.7 L 813.6 405.6 L 815.1 394.6 L 816.6 398.8 L 818.1 403.7 L 819.7 402.9 L 821.2 407.8 L 822.7 411.0 L 824.2 404.7 L 825.8 404.9 L 827.3 397.6 L 828.8 403.0 L 830.4 392.2 L 831.9 409.6 L 833.4 413.4 L 834.9 399.0 L 836.5 389.5 L 838.0 381.6 L 839.5 375.5 L 841.0 360.8 L 842.6 390.4 L 844.1 405.1 L 845.6 391.7 L 847.1 381.8 L 848.7 379.7 L 850.2 379.6 L 851.7 391.2 L 853.2 372.5 L 854.8 389.5 L 856.3 376.2 L 857.8 365.2 L 859.3 370.1 L 860.9 377.0 L 862.4 381.6 L 863.9 403.6 L 865.5 401.2 L 867.0 401.2 L 868.5 352.9 L 870.0 383.1 L 871.6 392.6 L 873.1 369.6 L 874.6 396.1 L 876.1 385.0 L 877.7 357.2 L 879.2 365.4 L 880.7 365.7 L 882.2 384.6 L 883.8 392.7 L 885.3 394.1 L 886.8 397.6 L 888.3 395.6 L 889.9 382.1 L 891.4 379.0 L 892.9 373.3 L 894.4 361.8 L 896.0 379.2 L 897.5 399.7 L 899.0 357.6 L 900.5 353.0 L 902.1 366.7 L 903.6 383.1 L 905.1 391.6 L 906.7 363.5 L 908.2 254.7 L 909.7 388.0 L 911.2 385.3 L 912.8 365.9 L 914.3 341.5 L 915.8 386.5 L 917.3 412.8 L 918.9 411.7 L 920.4 413.0 L 921.9 405.4 L 923.4 374.0 L 925.0 371.1 L 926.5 363.5 L 928.0 387.8 L 929.5 397.1 L 931.1 382.3 L 932.6 370.6 L 934.1 390.0 L 935.6 404.2 L 937.2 412.2 L 938.7 412.3 L 940.2 413.4 L 941.8 399.3 L 943.3 398.5 L 944.8 384.8 L 946.3 382.3 L 947.9 386.5 L 949.4 403.9 L 950.9 406.9 L 952.4 399.8 L 954.0 375.0 L 955.5 375.0 L 957.0 316.9 L 958.5 381.6 L 960.1 385.6 L 961.6 394.9 L 963.1 392.6 L 964.6 394.3 L 966.2 401.0 L 967.7 397.3 L 969.2 393.7 L 970.7 406.6 L 972.3 414.2 L 973.8 400.3 L 975.3 386.7 L 976.9 393.9 L 978.4 400.3 L 979.9 411.0 L 981.4 412.3 L 983.0 400.5 L 984.5 386.8 L 986.0 388.5 L 987.5 388.3 L 989.1 402.0 L 990.6 408.3 L 992.1 416.4 L 993.6 411.8 L 995.2 392.7 L 996.7 413.9 L 998.2 422.6 L 999.7 406.9 L 1001.3 381.6 L 1002.8 396.1 L 1004.3 400.8 L 1005.8 412.5 L 1007.4 359.3 L 1008.9 338.0 L 1010.4 346.1 L 1012.0 370.6 L 1013.5 341.4 L 1015.0 382.4 L 1016.5 385.8 L 1018.1 329.5 L 1019.6 357.1 L 1021.1 328.7 L 1022.6 398.3 L 1024.2 420.6 L 1025.7 423.0 L 1027.2 420.5 L 1028.7 392.6 L 1030.3 368.2 L 1031.8 337.1 L 1033.3 280.5 L 1034.8 380.2 L 1036.4 400.7 L 1037.9 394.3 L 1039.4 379.0 L 1040.9 377.9 L 1042.5 379.9 L 1044.0 422.3" stroke="#1d9e5f" stroke-width="1.6" fill="none" stroke-linejoin="round"/><circle cx="267.2" cy="99.7" r="4.5" fill="#f54e00" stroke="#ffffff" stroke-width="2"/><rect x="188.0322274881517" y="90" width="158.4" height="22" rx="6" fill="#eeefe9" stroke="#f54e00" stroke-width="1"/><text x="267.2322274881517" y="105" class="annot" fill="#f54e00" text-anchor="middle">2025-01-19 · 1,919</text><line x1="78" y1="424" x2="1044" y2="424" stroke="#52524c" stroke-width="1.4"/>
  <text x="28" y="484" class="footer">COPM 0xC92E…5606 · Celo · Transfer events up to 2026-06-12 · source: on-chain RPC scan</text>
</svg>