<svg xmlns="http://www.w3.org/2000/svg" width="1080" height="500" viewBox="0 0 1080 500" role="img" aria-label="COPM — Monthly Mints vs Burns (COPM)">
  <style>
    .title { font: 600 22px -apple-system, 'Segoe UI', system-ui, sans-serif; fill: #151515; }
    .subtitle { font: 400 14px -apple-system, 'Segoe UI', system-ui, sans-serif; fill: #6e6e66; }
    .axis { font: 400 13px -apple-system, 'Segoe UI', system-ui, sans-serif; fill: #52524c; }
    .label { font: 500 14px -apple-system, 'Segoe UI', system-ui, sans-serif; fill: #151515; }
    .annot { font: 600 13px -apple-system, 'Segoe UI', system-ui, sans-serif; }
    .badge { font: 600 13px -apple-system, 'Segoe UI', system-ui, sans-serif; }
    .footer { font: 400 12px ui-monospace, 'SF Mono', Menlo, monospace; fill: #6e6e66; }
  </style>
  <defs></defs>
  <rect width="1080" height="500" fill="#eeefe9"/>
  <rect x="8" y="8" width="1064" height="484" rx="10" fill="#ffffff" stroke="#d4d5cc" stroke-width="1"/>
  <text x="28" y="40" class="title">COPM — Monthly Mints vs Burns (COPM)</text>
  <rect x="994" y="24" width="58" height="22" rx="11" fill="#1d9e5f22" stroke="#1d9e5f" stroke-width="1"/>
  <text x="1023" y="39" class="badge" fill="#1d9e5f" text-anchor="middle">Celo</text>
  <text x="28" y="59" class="subtitle">Issuance vs redemption month by month — balance indicates bidirectional peg operation</text>
  <line x1="78" y1="404" x2="1044" y2="404" stroke="#d4d5cc" stroke-width="1"/><text x="68" y="408" class="axis" text-anchor="end">0</text><line x1="78" y1="304" x2="1044" y2="304" stroke="#d4d5cc" stroke-width="1"/><text x="68" y="308" class="axis" text-anchor="end">1.0B</text><line x1="78" y1="204" x2="1044" y2="204" stroke="#d4d5cc" stroke-width="1"/><text x="68" y="208" class="axis" text-anchor="end">2.0B</text><line x1="78" y1="104" x2="1044" y2="104" stroke="#d4d5cc" stroke-width="1"/><text x="68" y="108" class="axis" text-anchor="end">3.0B</text><rect x="28" y="72" width="12" height="12" rx="3" fill="#2da44e"/><text x="46" y="82" class="label">Mints</text><rect x="114" y="72" width="12" height="12" rx="3" fill="#c4302b"/><text x="132" y="82" class="label">Burns</text><rect x="84.1" y="403.9" width="31.6" height="0.1" fill="#2da44e" fill-opacity="0.9" rx="1.5"/><rect x="84.1" y="403.9" width="31.6" height="0.0" fill="#c4302b" fill-opacity="0.9" rx="1.5"/><text x="99.95454545454547" y="424" class="axis" text-anchor="middle" transform="rotate(-45 99.95454545454547 424)">Sep 24</text><rect x="128.1" y="374.1" width="31.6" height="29.9" fill="#2da44e" fill-opacity="0.9" rx="1.5"/><rect x="128.1" y="363.8" width="31.6" height="10.2" fill="#c4302b" fill-opacity="0.9" rx="1.5"/><text x="143.86363636363637" y="424" class="axis" text-anchor="middle" transform="rotate(-45 143.86363636363637 424)">Oct 24</text><rect x="172.0" y="399.7" width="31.6" height="4.3" fill="#2da44e" fill-opacity="0.9" rx="1.5"/><rect x="172.0" y="399.7" width="31.6" height="0.0" fill="#c4302b" fill-opacity="0.9" rx="1.5"/><text x="187.77272727272728" y="424" class="axis" text-anchor="middle" transform="rotate(-45 187.77272727272728 424)">Nov 24</text><rect x="215.9" y="390.6" width="31.6" height="13.4" fill="#2da44e" fill-opacity="0.9" rx="1.5"/><rect x="215.9" y="387.5" width="31.6" height="3.1" fill="#c4302b" fill-opacity="0.9" rx="1.5"/><text x="231.6818181818182" y="424" class="axis" text-anchor="middle" transform="rotate(-45 231.6818181818182 424)">Dec 24</text><rect x="259.8" y="402.7" width="31.6" height="1.3" fill="#2da44e" fill-opacity="0.9" rx="1.5"/><rect x="259.8" y="388.8" width="31.6" height="13.8" fill="#c4302b" fill-opacity="0.9" rx="1.5"/><text x="275.59090909090907" y="424" class="axis" text-anchor="middle" transform="rotate(-45 275.59090909090907 424)">Jan 25</text><rect x="303.7" y="397.6" width="31.6" height="6.4" fill="#2da44e" fill-opacity="0.9" rx="1.5"/><rect x="303.7" y="385.5" width="31.6" height="12.2" fill="#c4302b" fill-opacity="0.9" rx="1.5"/><text x="319.49999999999994" y="424" class="axis" text-anchor="middle" transform="rotate(-45 319.49999999999994 424)">Feb 25</text><rect x="347.6" y="401.0" width="31.6" height="3.0" fill="#2da44e" fill-opacity="0.9" rx="1.5"/><rect x="347.6" y="392.9" width="31.6" height="8.1" fill="#c4302b" fill-opacity="0.9" rx="1.5"/><text x="363.4090909090909" y="424" class="axis" text-anchor="middle" transform="rotate(-45 363.4090909090909 424)">Mar 25</text><rect x="391.5" y="386.5" width="31.6" height="17.5" fill="#2da44e" fill-opacity="0.9" rx="1.5"/><rect x="391.5" y="376.0" width="31.6" height="10.5" fill="#c4302b" fill-opacity="0.9" rx="1.5"/><text x="407.3181818181818" y="424" class="axis" text-anchor="middle" transform="rotate(-45 407.3181818181818 424)">Apr 25</text><rect x="435.4" y="385.8" width="31.6" height="18.2" fill="#2da44e" fill-opacity="0.9" rx="1.5"/><rect x="435.4" y="363.9" width="31.6" height="21.9" fill="#c4302b" fill-opacity="0.9" rx="1.5"/><text x="451.2272727272727" y="424" class="axis" text-anchor="middle" transform="rotate(-45 451.2272727272727 424)">May 25</text><rect x="479.3" y="369.8" width="31.6" height="34.2" fill="#2da44e" fill-opacity="0.9" rx="1.5"/><rect x="479.3" y="343.0" width="31.6" height="26.8" fill="#c4302b" fill-opacity="0.9" rx="1.5"/><text x="495.13636363636357" y="424" class="axis" text-anchor="middle" transform="rotate(-45 495.13636363636357 424)">Jun 25</text><rect x="523.2" y="233.9" width="31.6" height="170.1" fill="#2da44e" fill-opacity="0.9" rx="1.5"/><rect x="523.2" y="132.4" width="31.6" height="101.5" fill="#c4302b" fill-opacity="0.9" rx="1.5"/><text x="539.0454545454544" y="424" class="axis" text-anchor="middle" transform="rotate(-45 539.0454545454544 424)">Jul 25</text><rect x="567.1" y="370.8" width="31.6" height="33.2" fill="#2da44e" fill-opacity="0.9" rx="1.5"/><rect x="567.1" y="329.3" width="31.6" height="41.5" fill="#c4302b" fill-opacity="0.9" rx="1.5"/><text x="582.9545454545454" y="424" class="axis" text-anchor="middle" transform="rotate(-45 582.9545454545454 424)">Aug 25</text><rect x="611.1" y="394.9" width="31.6" height="9.1" fill="#2da44e" fill-opacity="0.9" rx="1.5"/><rect x="611.1" y="371.2" width="31.6" height="23.7" fill="#c4302b" fill-opacity="0.9" rx="1.5"/><text x="626.8636363636363" y="424" class="axis" text-anchor="middle" transform="rotate(-45 626.8636363636363 424)">Sep 25</text><rect x="655.0" y="400.4" width="31.6" height="3.6" fill="#2da44e" fill-opacity="0.9" rx="1.5"/><rect x="655.0" y="394.2" width="31.6" height="6.1" fill="#c4302b" fill-opacity="0.9" rx="1.5"/><text x="670.7727272727271" y="424" class="axis" text-anchor="middle" transform="rotate(-45 670.7727272727271 424)">Oct 25</text><rect x="698.9" y="360.3" width="31.6" height="43.7" fill="#2da44e" fill-opacity="0.9" rx="1.5"/><rect x="698.9" y="322.0" width="31.6" height="38.3" fill="#c4302b" fill-opacity="0.9" rx="1.5"/><text x="714.6818181818181" y="424" class="axis" text-anchor="middle" transform="rotate(-45 714.6818181818181 424)">Nov 25</text><rect x="742.8" y="375.7" width="31.6" height="28.3" fill="#2da44e" fill-opacity="0.9" rx="1.5"/><rect x="742.8" y="332.4" width="31.6" height="43.3" fill="#c4302b" fill-opacity="0.9" rx="1.5"/><text x="758.590909090909" y="424" class="axis" text-anchor="middle" transform="rotate(-45 758.590909090909 424)">Dec 25</text><rect x="786.7" y="357.8" width="31.6" height="46.2" fill="#2da44e" fill-opacity="0.9" rx="1.5"/><rect x="786.7" y="338.9" width="31.6" height="18.9" fill="#c4302b" fill-opacity="0.9" rx="1.5"/><text x="802.4999999999999" y="424" class="axis" text-anchor="middle" transform="rotate(-45 802.4999999999999 424)">Jan 26</text><rect x="830.6" y="393.7" width="31.6" height="10.3" fill="#2da44e" fill-opacity="0.9" rx="1.5"/><rect x="830.6" y="393.7" width="31.6" height="0.0" fill="#c4302b" fill-opacity="0.9" rx="1.5"/><text x="846.4090909090908" y="424" class="axis" text-anchor="middle" transform="rotate(-45 846.4090909090908 424)">Feb 26</text><rect x="874.5" y="382.5" width="31.6" height="21.5" fill="#2da44e" fill-opacity="0.9" rx="1.5"/><rect x="874.5" y="382.5" width="31.6" height="0.0" fill="#c4302b" fill-opacity="0.9" rx="1.5"/><text x="890.3181818181816" y="424" class="axis" text-anchor="middle" transform="rotate(-45 890.3181818181816 424)">Mar 26</text><rect x="918.4" y="403.8" width="31.6" height="0.2" fill="#2da44e" fill-opacity="0.9" rx="1.5"/><rect x="918.4" y="389.4" width="31.6" height="14.4" fill="#c4302b" fill-opacity="0.9" rx="1.5"/><text x="934.2272727272726" y="424" class="axis" text-anchor="middle" transform="rotate(-45 934.2272727272726 424)">Apr 26</text><rect x="962.3" y="389.3" width="31.6" height="14.7" fill="#2da44e" fill-opacity="0.9" rx="1.5"/><rect x="962.3" y="366.7" width="31.6" height="22.7" fill="#c4302b" fill-opacity="0.9" rx="1.5"/><text x="978.1363636363635" y="424" class="axis" text-anchor="middle" transform="rotate(-45 978.1363636363635 424)">May 26</text><rect x="1006.2" y="393.4" width="31.6" height="10.6" fill="#2da44e" fill-opacity="0.9" rx="1.5"/><rect x="1006.2" y="393.4" width="31.6" height="0.0" fill="#c4302b" fill-opacity="0.9" rx="1.5"/><text x="1022.0454545454544" y="424" class="axis" text-anchor="middle" transform="rotate(-45 1022.0454545454544 424)">Jun 26</text><line x1="78" y1="404" x2="1044" y2="404" stroke="#52524c" stroke-width="1.4"/>
  <text x="28" y="484" class="footer">COPM 0xC92E…5606 · Celo · Transfer events up to 2026-06-12 · source: on-chain RPC scan</text>
</svg>