<svg xmlns="http://www.w3.org/2000/svg" width="1000" height="480" viewBox="0 0 1000 480">
  <style>
    .title { font: 600 18px -apple-system, system-ui, sans-serif; fill: #e6edf3; }
    .subtitle { font: 400 12px -apple-system, system-ui, sans-serif; fill: #7d8590; }
    .axis { font: 400 11px -apple-system, system-ui, sans-serif; fill: #8b949e; }
    .label { font: 500 12px -apple-system, system-ui, sans-serif; fill: #e6edf3; }
    .annot { font: 600 11px -apple-system, system-ui, sans-serif; fill: #f0883e; }
  </style>
  <rect width="1000" height="480" fill="#0d1117"/>
  <text x="24" y="32" class="title">COPM — Daily Transfers (Polygon)</text>
  <text x="24" y="50" class="subtitle">2023-09-21 → 2026-05-03 · peak: 2,597 txns</text>
  <line x1="70" y1="420" x2="970" y2="420" stroke="#30363d" stroke-width="1"/><text x="62" y="424" class="axis" text-anchor="end">0</text><line x1="70" y1="350" x2="970" y2="350" stroke="#30363d" stroke-width="1"/><text x="62" y="354" class="axis" text-anchor="end">519.4</text><line x1="70" y1="280" x2="970" y2="280" stroke="#30363d" stroke-width="1"/><text x="62" y="284" class="axis" text-anchor="end">1,038.8</text><line x1="70" y1="210" x2="970" y2="210" stroke="#30363d" stroke-width="1"/><text x="62" y="214" class="axis" text-anchor="end">1,558.2</text><line x1="70" y1="140" x2="970" y2="140" stroke="#30363d" stroke-width="1"/><text x="62" y="144" class="axis" text-anchor="end">2,077.6</text><line x1="70" y1="70" x2="970" y2="70" stroke="#30363d" stroke-width="1"/><text x="62" y="74" class="axis" text-anchor="end">2,597</text><line x1="51.15183246073298" y1="70" x2="51.15183246073298" y2="420" stroke="#30363d" stroke-width="1" stroke-dasharray="2,4"/><text x="51.15183246073298" y="438" class="axis" text-anchor="middle">Aug 23</text><line x1="136.9109947643979" y1="70" x2="136.9109947643979" y2="420" stroke="#30363d" stroke-width="1" stroke-dasharray="2,4"/><text x="136.9109947643979" y="438" class="axis" text-anchor="middle">Nov 23</text><line x1="222.67015706806282" y1="70" x2="222.67015706806282" y2="420" stroke="#30363d" stroke-width="1" stroke-dasharray="2,4"/><text x="222.67015706806282" y="438" class="axis" text-anchor="middle">Feb 24</text><line x1="309.3717277486911" y1="70" x2="309.3717277486911" y2="420" stroke="#30363d" stroke-width="1" stroke-dasharray="2,4"/><text x="309.3717277486911" y="438" class="axis" text-anchor="middle">May 24</text><line x1="396.0732984293194" y1="70" x2="396.0732984293194" y2="420" stroke="#30363d" stroke-width="1" stroke-dasharray="2,4"/><text x="396.0732984293194" y="438" class="axis" text-anchor="middle">Aug 24</text><line x1="481.8324607329843" y1="70" x2="481.8324607329843" y2="420" stroke="#30363d" stroke-width="1" stroke-dasharray="2,4"/><text x="481.8324607329843" y="438" class="axis" text-anchor="middle">Nov 24</text><line x1="566.6492146596859" y1="70" x2="566.6492146596859" y2="420" stroke="#30363d" stroke-width="1" stroke-dasharray="2,4"/><text x="566.6492146596859" y="438" class="axis" text-anchor="middle">Feb 25</text><line x1="653.3507853403141" y1="70" x2="653.3507853403141" y2="420" stroke="#30363d" stroke-width="1" stroke-dasharray="2,4"/><text x="653.3507853403141" y="438" class="axis" text-anchor="middle">May 25</text><line x1="740.0523560209424" y1="70" x2="740.0523560209424" y2="420" stroke="#30363d" stroke-width="1" stroke-dasharray="2,4"/><text x="740.0523560209424" y="438" class="axis" text-anchor="middle">Aug 25</text><line x1="825.8115183246074" y1="70" x2="825.8115183246074" y2="420" stroke="#30363d" stroke-width="1" stroke-dasharray="2,4"/><text x="825.8115183246074" y="438" class="axis" text-anchor="middle">Nov 25</text><line x1="910.6282722513089" y1="70" x2="910.6282722513089" y2="420" stroke="#30363d" stroke-width="1" stroke-dasharray="2,4"/><text x="910.6282722513089" y="438" class="axis" text-anchor="middle">Feb 26</text><path d="M 70 420 L 70 416.4959568733154 L 70.94240837696336 416.900269541779 L 71.8848167539267 419.73045822102426 L 72.82722513089006 419.86522911051213 L 73.7696335078534 420 L 74.71204188481676 420 L 75.6544502617801 420 L 76.59685863874346 420 L 77.53926701570681 420 L 78.48167539267016 420 L 79.42408376963351 420 L 80.36649214659685 420 L 81.30890052356021 420 L 82.25130890052355 420 L 83.19371727748691 420 L 84.13612565445027 419.73045822102426 L 85.07853403141361 420 L 86.02094240837697 420 L 86.96335078534031 420 L 87.90575916230367 420 L 88.84816753926702 420 L 89.79057591623037 420 L 90.73298429319371 420 L 91.67539267015707 420 L 92.61780104712042 420 L 93.56020942408377 420 L 94.50261780104712 419.73045822102426 L 95.44502617801047 419.73045822102426 L 96.38743455497382 420 L 97.32984293193718 420 L 98.27225130890052 420 L 99.21465968586388 420 L 100.15706806282722 420 L 101.09947643979058 420 L 102.04188481675394 419.86522911051213 L 102.98429319371728 419.73045822102426 L 103.92670157068062 420 L 104.86910994764398 420 L 105.81151832460733 420 L 106.75392670157069 420 L 107.69633507853403 419.73045822102426 L 108.63874345549738 420 L 109.58115183246073 420 L 110.52356020942409 420 L 111.46596858638743 420 L 112.40837696335079 420 L 113.35078534031413 420 L 114.29319371727749 419.86522911051213 L 115.23560209424085 419.73045822102426 L 116.17801047120419 420 L 117.12041884816753 419.73045822102426 L 118.06282722513089 420 L 119.00523560209425 420 L 119.9476439790576 420 L 120.89005235602095 420 L 121.83246073298429 419.5956873315364 L 122.77486910994764 420 L 123.717277486911 420 L 124.65968586387434 420 L 125.6020942408377 420 L 126.54450261780104 420 L 127.4869109947644 420 L 128.42931937172776 419.5956873315364 L 129.37172774869111 420 L 130.31413612565444 419.73045822102426 L 131.2565445026178 419.73045822102426 L 132.19895287958116 420 L 133.14136125654449 420 L 134.08376963350787 419.86522911051213 L 135.0261780104712 420 L 135.96858638743456 420 L 136.9109947643979 420 L 137.85340314136124 420 L 138.7958115183246 420 L 139.73821989528795 419.86522911051213 L 140.6806282722513 420 L 141.62303664921467 420 L 142.565445026178 420 L 143.50785340314138 420 L 144.4502617801047 420 L 145.39267015706807 420 L 146.33507853403142 420 L 147.27748691099475 420 L 148.21989528795814 420 L 149.16230366492147 420 L 150.1047120418848 420 L 151.04712041884818 420 L 151.9895287958115 420 L 152.93193717277487 420 L 153.87434554973822 420 L 154.81675392670158 420 L 155.75916230366494 420 L 156.70157068062827 420 L 157.64397905759162 420 L 158.58638743455498 420 L 159.5287958115183 420 L 160.4712041884817 420 L 161.41361256544502 419.86522911051213 L 162.35602094240838 420 L 163.29842931937173 420 L 164.24083769633506 420 L 165.18324607329842 420 L 166.12565445026178 420 L 167.06806282722513 420 L 168.0104712041885 420 L 168.95287958115182 420 L 169.8952879581152 420 L 170.83769633507853 420 L 171.7801047120419 420 L 172.72251308900525 420 L 173.66492146596858 420 L 174.60732984293196 420 L 175.5497382198953 420 L 176.49214659685862 420 L 177.434554973822 420 L 178.37696335078533 420 L 179.3193717277487 420 L 180.26178010471205 420 L 181.2041884816754 420 L 182.14659685863876 420 L 183.0890052356021 420 L 184.03141361256542 420 L 184.9738219895288 420 L 185.91623036649216 420 L 186.85863874345551 420 L 187.80104712041884 420 L 188.7434554973822 420 L 189.68586387434556 420 L 190.6282722513089 420 L 191.57068062827227 420 L 192.5130890052356 419.5956873315364 L 193.45549738219896 416.63072776280325 L 194.3979057591623 417.84366576819406 L 195.34031413612564 419.5956873315364 L 196.282722513089 420 L 197.22513089005236 420 L 198.1675392670157 420 L 199.10994764397907 419.73045822102426 L 200.0523560209424 420 L 200.99476439790575 419.73045822102426 L 201.9371727748691 419.73045822102426 L 202.87958115183247 419.73045822102426 L 203.82198952879583 420 L 204.76439790575915 420 L 205.7068062827225 419.73045822102426 L 206.64921465968587 420 L 207.5916230366492 419.73045822102426 L 208.53403141361258 419.86522911051213 L 209.4764397905759 420 L 210.41884816753927 420 L 211.36125654450262 420 L 212.30366492146595 420 L 213.2460732984293 420 L 214.1884816753927 419.86522911051213 L 215.13089005235602 420 L 216.07329842931938 420 L 217.01570680628274 420 L 217.95811518324606 420 L 218.90052356020942 420 L 219.84293193717275 420 L 220.78534031413614 420 L 221.7277486910995 419.73045822102426 L 222.67015706806282 419.73045822102426 L 223.61256544502618 420 L 224.55497382198953 420 L 225.49738219895286 420 L 226.43979057591625 420 L 227.38219895287958 420 L 228.32460732984293 419.5956873315364 L 229.2670157068063 419.86522911051213 L 230.20942408376962 420 L 231.15183246073298 420 L 232.09424083769633 420 L 233.0366492146597 419.73045822102426 L 233.97905759162305 418.92183288409706 L 234.92146596858638 419.32614555256066 L 235.86387434554973 419.73045822102426 L 236.8062827225131 420 L 237.74869109947645 420 L 238.6910994764398 419.73045822102426 L 239.63350785340316 420 L 240.5759162303665 420 L 241.51832460732984 420 L 242.46073298429317 420 L 243.40314136125653 420 L 244.34554973821992 420 L 245.28795811518324 420 L 246.2303664921466 420 L 247.17277486910996 420 L 248.1151832460733 419.5956873315364 L 249.05759162303664 420 L 250 420 L 250.94240837696336 420 L 251.8848167539267 419.73045822102426 L 252.82722513089004 420 L 253.7696335078534 419.73045822102426 L 254.71204188481676 420 L 255.6544502617801 420 L 256.59685863874347 420 L 257.5392670157068 420 L 258.4816753926701 420 L 259.4240837696335 420 L 260.36649214659684 420 L 261.3089005235602 420 L 262.25130890052355 419.5956873315364 L 263.19371727748694 420 L 264.13612565445027 420 L 265.0785340314136 419.86522911051213 L 266.020942408377 420 L 266.9633507853403 419.1913746630728 L 267.90575916230364 419.73045822102426 L 268.848167539267 419.86522911051213 L 269.7905759162304 419.73045822102426 L 270.7329842931937 420 L 271.67539267015707 418.5175202156334 L 272.6178010471204 419.86522911051213 L 273.5602094240838 419.46091644204853 L 274.5026178010471 419.73045822102426 L 275.4450261780105 419.32614555256066 L 276.3874345549738 420 L 277.32984293193715 419.86522911051213 L 278.27225130890054 419.86522911051213 L 279.2146596858639 419.73045822102426 L 280.1570680628272 420 L 281.0994764397906 419.46091644204853 L 282.04188481675396 420 L 282.98429319371724 420 L 283.9267015706806 420 L 284.869109947644 419.73045822102426 L 285.81151832460733 418.38274932614553 L 286.75392670157066 417.03504043126685 L 287.69633507853405 419.46091644204853 L 288.6387434554974 419.73045822102426 L 289.5811518324607 420 L 290.5235602094241 420 L 291.4659685863875 420 L 292.4083769633508 420 L 293.35078534031413 419.73045822102426 L 294.2931937172775 420 L 295.23560209424085 420 L 296.1780104712042 420 L 297.12041884816756 420 L 298.06282722513083 420 L 299.0052356020942 420 L 299.9476439790576 420 L 300.89005235602093 420 L 301.8324607329843 418.6522911051213 L 302.77486910994764 420 L 303.71727748691103 420 L 304.6596858638743 416.63072776280325 L 305.6020942408377 418.5175202156334 L 306.5445026178011 418.7870619946092 L 307.4869109947644 415.822102425876 L 308.42931937172773 418.38274932614553 L 309.3717277486911 420 L 310.31413612565444 420 L 311.2565445026178 420 L 312.19895287958116 416.0916442048518 L 313.14136125654454 418.6522911051213 L 314.0837696335078 419.46091644204853 L 315.0261780104712 419.32614555256066 L 315.9685863874345 420 L 316.9109947643979 420 L 317.85340314136124 419.32614555256066 L 318.7958115183246 419.0566037735849 L 319.738219895288 418.5175202156334 L 320.6806282722513 418.6522911051213 L 321.62303664921467 417.7088948787062 L 322.565445026178 418.5175202156334 L 323.5078534031413 419.1913746630728 L 324.4502617801047 418.92183288409706 L 325.39267015706804 418.92183288409706 L 326.3350785340314 415.6873315363881 L 327.27748691099475 418.92183288409706 L 328.21989528795814 419.46091644204853 L 329.16230366492147 420 L 330.1047120418848 419.32614555256066 L 331.0471204188482 417.7088948787062 L 331.9895287958115 418.1132075471698 L 332.9319371727749 418.6522911051213 L 333.8743455497382 418.92183288409706 L 334.81675392670155 418.7870619946092 L 335.75916230366494 420 L 336.70157068062827 419.1913746630728 L 337.64397905759165 419.73045822102426 L 338.586387434555 419.46091644204853 L 339.5287958115183 416.3611859838275 L 340.47120418848164 417.5741239892183 L 341.413612565445 414.33962264150944 L 342.3560209424084 418.38274932614553 L 343.29842931937173 419.1913746630728 L 344.24083769633506 415.14824797843664 L 345.1832460732984 418.5175202156334 L 346.1256544502618 418.1132075471698 L 347.06806282722516 418.24797843665766 L 348.0104712041885 417.7088948787062 L 348.9528795811518 419.73045822102426 L 349.89528795811515 418.6522911051213 L 350.83769633507853 417.43935309973045 L 351.78010471204186 419.86522911051213 L 352.72251308900525 419.46091644204853 L 353.66492146596863 420 L 354.6073298429319 418.6522911051213 L 355.5497382198953 420 L 356.4921465968586 418.92183288409706 L 357.434554973822 419.1913746630728 L 358.3769633507854 419.32614555256066 L 359.31937172774866 418.24797843665766 L 360.26178010471205 416.63072776280325 L 361.2041884816754 418.1132075471698 L 362.14659685863876 419.0566037735849 L 363.0890052356021 420 L 364.0314136125655 416.22641509433964 L 364.9738219895288 418.24797843665766 L 365.91623036649213 418.24797843665766 L 366.8586387434555 416.22641509433964 L 367.80104712041884 418.24797843665766 L 368.74345549738223 417.5741239892183 L 369.6858638743455 418.24797843665766 L 370.6282722513089 410.4312668463612 L 371.57068062827227 416.0916442048518 L 372.5130890052356 415.4177897574124 L 373.455497382199 413.53099730458223 L 374.3979057591623 418.6522911051213 L 375.34031413612564 419.46091644204853 L 376.282722513089 416.0916442048518 L 377.22513089005236 414.74393530997304 L 378.16753926701574 416.7654986522911 L 379.10994764397907 417.43935309973045 L 380.0523560209424 416.3611859838275 L 380.9947643979057 417.7088948787062 L 381.9371727748691 420 L 382.8795811518325 418.6522911051213 L 383.8219895287958 419.46091644204853 L 384.76439790575915 417.5741239892183 L 385.7068062827225 417.5741239892183 L 386.64921465968587 418.5175202156334 L 387.5916230366492 415.4177897574124 L 388.5340314136126 419.46091644204853 L 389.4764397905759 419.86522911051213 L 390.41884816753924 417.84366576819406 L 391.3612565445026 414.74393530997304 L 392.30366492146595 417.84366576819406 L 393.24607329842934 417.5741239892183 L 394.18848167539267 417.3045822102426 L 395.130890052356 419.73045822102426 L 396.0732984293194 418.5175202156334 L 397.0157068062827 417.03504043126685 L 397.9581151832461 417.43935309973045 L 398.9005235602094 417.3045822102426 L 399.84293193717275 417.9784366576819 L 400.78534031413614 414.8787061994609 L 401.72774869109946 416.7654986522911 L 402.67015706806285 419.46091644204853 L 403.6125654450262 418.5175202156334 L 404.5549738219895 417.3045822102426 L 405.4973821989529 418.1132075471698 L 406.4397905759162 419.1913746630728 L 407.3821989528796 418.6522911051213 L 408.32460732984293 420 L 409.2670157068063 419.32614555256066 L 410.2094240837696 417.9784366576819 L 411.151832460733 416.900269541779 L 412.09424083769636 417.43935309973045 L 413.0366492146597 415.14824797843664 L 413.9790575916231 415.6873315363881 L 414.92146596858635 418.6522911051213 L 415.86387434554973 418.92183288409706 L 416.80628272251306 417.84366576819406 L 417.74869109947645 419.73045822102426 L 418.69109947643983 418.6522911051213 L 419.6335078534031 418.6522911051213 L 420.5759162303665 415.4177897574124 L 421.5183246073298 420 L 422.4607329842932 419.73045822102426 L 423.4031413612566 418.38274932614553 L 424.3455497382199 415.9568733153639 L 425.28795811518324 417.43935309973045 L 426.2303664921466 418.6522911051213 L 427.17277486910996 417.9784366576819 L 428.1151832460733 420 L 429.05759162303667 419.0566037735849 L 430 416.63072776280325 L 430.94240837696333 418.92183288409706 L 431.8848167539267 415.9568733153639 L 432.82722513089004 418.38274932614553 L 433.7696335078534 418.1132075471698 L 434.71204188481676 418.6522911051213 L 435.6544502617801 420 L 436.59685863874347 417.03504043126685 L 437.5392670157068 417.7088948787062 L 438.4816753926702 418.92183288409706 L 439.4240837696335 417.9784366576819 L 440.36649214659684 418.6522911051213 L 441.3089005235602 420 L 442.25130890052355 417.5741239892183 L 443.19371727748694 418.92183288409706 L 444.13612565445027 419.32614555256066 L 445.0785340314136 417.3045822102426 L 446.0209424083769 417.7088948787062 L 446.9633507853403 416.7654986522911 L 447.9057591623037 418.7870619946092 L 448.848167539267 419.46091644204853 L 449.79057591623035 417.03504043126685 L 450.7329842931937 418.1132075471698 L 451.67539267015707 418.38274932614553 L 452.61780104712045 419.1913746630728 L 453.5602094240838 419.73045822102426 L 454.5026178010471 419.86522911051213 L 455.44502617801044 419.73045822102426 L 456.3874345549738 419.73045822102426 L 457.32984293193715 419.0566037735849 L 458.27225130890054 418.5175202156334 L 459.2146596858639 418.5175202156334 L 460.1570680628272 416.4959568733154 L 461.0994764397906 417.3045822102426 L 462.0418848167539 419.0566037735849 L 462.9842931937173 417.7088948787062 L 463.9267015706806 416.4959568733154 L 464.86910994764395 416.7654986522911 L 465.81151832460733 417.3045822102426 L 466.75392670157066 418.24797843665766 L 467.69633507853405 418.7870619946092 L 468.6387434554974 419.73045822102426 L 469.58115183246076 419.46091644204853 L 470.5235602094241 419.73045822102426 L 471.4659685863874 419.5956873315364 L 472.4083769633508 418.6522911051213 L 473.35078534031413 419.73045822102426 L 474.2931937172775 419.46091644204853 L 475.2356020942408 420 L 476.1780104712042 419.46091644204853 L 477.12041884816756 420 L 478.0628272251309 418.6522911051213 L 479.0052356020943 419.86522911051213 L 479.9476439790576 419.1913746630728 L 480.89005235602093 417.9784366576819 L 481.8324607329843 419.73045822102426 L 482.77486910994764 419.0566037735849 L 483.71727748691103 419.32614555256066 L 484.65968586387436 415.2830188679245 L 485.6020942408377 416.22641509433964 L 486.544502617801 417.03504043126685 L 487.4869109947644 419.86522911051213 L 488.4293193717278 420 L 489.3717277486911 417.43935309973045 L 490.31413612565444 416.22641509433964 L 491.25654450261777 418.6522911051213 L 492.19895287958116 413.2614555256065 L 493.1413612565445 417.03504043126685 L 494.08376963350787 416.0916442048518 L 495.0261780104712 416.7654986522911 L 495.9685863874345 416.22641509433964 L 496.9109947643979 418.24797843665766 L 497.85340314136124 415.55256064690025 L 498.7958115183246 416.63072776280325 L 499.73821989528795 415.9568733153639 L 500.6806282722513 416.7654986522911 L 501.62303664921467 415.9568733153639 L 502.565445026178 416.900269541779 L 503.5078534031414 418.92183288409706 L 504.4502617801047 420 L 505.39267015706804 416.900269541779 L 506.3350785340314 418.92183288409706 L 507.27748691099475 418.6522911051213 L 508.21989528795814 419.73045822102426 L 509.16230366492147 419.46091644204853 L 510.1047120418848 419.46091644204853 L 511.0471204188481 418.7870619946092 L 511.9895287958115 418.7870619946092 L 512.931937172775 419.46091644204853 L 513.8743455497382 419.32614555256066 L 514.8167539267016 419.1913746630728 L 515.7591623036649 419.73045822102426 L 516.7015706806283 417.84366576819406 L 517.6439790575917 419.86522911051213 L 518.586387434555 419.46091644204853 L 519.5287958115184 415.55256064690025 L 520.4712041884817 419.32614555256066 L 521.413612565445 419.73045822102426 L 522.3560209424083 414.20485175202157 L 523.2984293193717 415.6873315363881 L 524.2408376963351 417.7088948787062 L 525.1832460732984 418.7870619946092 L 526.1256544502617 420 L 527.0680628272252 416.22641509433964 L 528.0104712041884 413.39622641509436 L 528.9528795811518 416.7654986522911 L 529.8952879581152 418.6522911051213 L 530.8376963350786 417.43935309973045 L 531.7801047120419 417.03504043126685 L 532.7225130890051 413.2614555256065 L 533.6649214659686 420 L 534.6073298429319 418.92183288409706 L 535.5497382198953 410.1617250673854 L 536.4921465968587 415.6873315363881 L 537.4345549738221 415.6873315363881 L 538.3769633507853 414.6091644204852 L 539.3193717277486 414.0700808625337 L 540.261780104712 415.0134770889488 L 541.2041884816754 413.39622641509436 L 542.1465968586388 402.88409703504044 L 543.0890052356021 401.80592991913744 L 544.0314136125655 403.5579514824798 L 544.9738219895288 403.9622641509434 L 545.9162303664921 408.1401617250674 L 546.8586387434555 413.6657681940701 L 547.8010471204188 414.20485175202157 L 548.7434554973822 399.64959568733155 L 549.6858638743456 402.88409703504044 L 550.6282722513089 408.1401617250674 L 551.5706806282722 408.6792452830189 L 552.5130890052357 404.09703504043125 L 553.4554973821989 411.7789757412399 L 554.3979057591623 412.5876010781671 L 555.3403141361257 398.57142857142856 L 556.2827225130891 397.4932614555256 L 557.2251308900524 404.2318059299191 L 558.1675392670156 410.9703504043127 L 559.1099476439791 413.6657681940701 L 560.0523560209424 411.10512129380055 L 560.9947643979058 416.3611859838275 L 561.937172774869 409.7574123989218 L 562.8795811518326 402.34501347708897 L 563.8219895287958 411.50943396226415 L 564.7643979057591 407.33153638814014 L 565.7068062827225 404.366576819407 L 566.6492146596859 404.366576819407 L 567.5916230366493 412.85714285714283 L 568.5340314136125 396.6846361185984 L 569.476439790576 405.57951482479785 L 570.4188481675392 401.6711590296496 L 571.3612565445026 402.34501347708897 L 572.303664921466 407.19676549865227 L 573.2460732984293 411.10512129380055 L 574.1884816753927 413.6657681940701 L 575.130890052356 403.0188679245283 L 576.0732984293194 398.57142857142856 L 577.0157068062827 402.6145552560647 L 577.958115183246 409.62264150943395 L 578.9005235602094 406.92722371967653 L 579.8429319371728 410.5660377358491 L 580.7853403141361 415.55256064690025 L 581.7277486910994 411.50943396226415 L 582.6701570680628 406.6576819407008 L 583.6125654450261 364.4743935309973 L 584.5549738219895 393.989218328841 L 585.4973821989529 406.1185983827493 L 586.4397905759163 410.70080862533695 L 587.3821989528795 412.5876010781671 L 588.3246073298429 411.3746630727763 L 589.2670157068063 411.10512129380055 L 590.2094240837696 411.2398921832884 L 591.151832460733 408.81401617250674 L 592.0942408376964 408.40970350404314 L 593.0366492146596 411.644204851752 L 593.979057591623 416.3611859838275 L 594.9214659685864 413.2614555256065 L 595.8638743455498 410.2964959568733 L 596.8062827225131 405.98382749326146 L 597.7486910994764 405.0404312668464 L 598.6910994764398 409.7574123989218 L 599.6335078534031 405.98382749326146 L 600.5759162303665 408.00539083557953 L 601.5183246073299 407.33153638814014 L 602.4607329842933 410.02695417789755 L 603.4031413612565 402.07547169811323 L 604.3455497382198 400.86253369272237 L 605.2879581151833 401.26684636118597 L 606.2303664921466 408.00539083557953 L 607.17277486911 410.2964959568733 L 608.1151832460733 406.52291105121293 L 609.0575916230366 409.0835579514825 L 610 401.80592991913744 L 610.9424083769633 408.40970350404314 L 611.8848167539268 414.20485175202157 L 612.82722513089 413.39622641509436 L 613.7696335078533 413.80053908355796 L 614.7120418848168 400.99730458221023 L 615.6544502617801 390.0808625336927 L 616.5968586387435 392.911051212938 L 617.5392670157069 403.5579514824798 L 618.4816753926701 397.76280323450135 L 619.4240837696335 413.53099730458223 L 620.3664921465968 414.0700808625337 L 621.3089005235603 410.1617250673854 L 622.2513089005236 406.6576819407008 L 623.1937172774869 406.1185983827493 L 624.1361256544503 407.7358490566038 L 625.0785340314136 406.6576819407008 L 626.020942408377 416.900269541779 L 626.9633507853403 416.900269541779 L 627.9057591623036 403.4231805929919 L 628.848167539267 403.4231805929919 L 629.7905759162303 401.6711590296496 L 630.7329842931938 390.2156334231806 L 631.6753926701571 400.7277628032345 L 632.6178010471205 405.57951482479785 L 633.5602094240837 411.7789757412399 L 634.5026178010471 407.60107816711593 L 635.4450261780105 400.59299191374663 L 636.3874345549738 409.4878706199461 L 637.3298429319373 407.33153638814014 L 638.2722513089005 394.93261455525607 L 639.2146596858638 406.38814016172506 L 640.1570680628272 411.644204851752 L 641.0994764397906 393.04582210242586 L 642.041884816754 391.42857142857144 L 642.9842931937172 390.7547169811321 L 643.9267015706806 411.644204851752 L 644.869109947644 410.1617250673854 L 645.8115183246073 417.1698113207547 L 646.7539267015708 418.1132075471698 L 647.696335078534 411.3746630727763 L 648.6387434554973 399.3800539083558 L 649.5811518324607 399.64959568733155 L 650.5235602094241 377.4123989218329 L 651.4659685863875 370.53908355795147 L 652.4083769633507 406.6576819407008 L 653.3507853403141 408.1401617250674 L 654.2931937172775 410.2964959568733 L 655.2356020942408 381.18598382749326 L 656.1780104712042 398.3018867924528 L 657.1204188481676 367.9784366576819 L 658.062827225131 378.49056603773585 L 659.0052356020942 411.91374663072776 L 659.9476439790576 416.3611859838275 L 660.890052356021 385.90296495956875 L 661.8324607329843 386.4420485175202 L 662.7748691099476 395.2021563342318 L 663.717277486911 392.23719676549865 L 664.6596858638743 394.66307277628033 L 665.6020942408377 412.72237196765496 L 666.5445026178011 417.3045822102426 L 667.4869109947645 383.7466307277628 L 668.4293193717277 383.3423180592992 L 669.371727748691 391.2938005390836 L 670.3141361256545 399.9191374663073 L 671.2565445026178 397.76280323450135 L 672.1989528795812 412.0485175202156 L 673.1413612565445 402.7493261455526 L 674.0837696335078 400.188679245283 L 675.0261780104712 383.20754716981133 L 675.9685863874346 397.088948787062 L 676.910994764398 395.87601078167114 L 677.8534031413612 388.73315363881403 L 678.7958115183246 409.8921832884097 L 679.738219895288 410.02695417789755 L 680.6806282722513 413.6657681940701 L 681.6230366492147 373.77358490566036 L 682.565445026178 379.0296495956873 L 683.5078534031413 393.7196765498652 L 684.4502617801047 363.80053908355796 L 685.392670157068 404.7708894878706 L 686.3350785340315 410.70080862533695 L 687.2774869109948 384.1509433962264 L 688.2198952879581 375.1212938005391 L 689.1623036649215 388.59838274932616 L 690.1047120418848 403.69272237196765 L 691.0471204188482 388.4636118598383 L 691.9895287958115 409.21832884097034 L 692.931937172775 410.4312668463612 L 693.8743455497382 360.70080862533695 L 694.8167539267015 363.93530997304583 L 695.759162303665 356.1185983827493 L 696.7015706806283 370.26954177897574 L 697.6439790575917 380.9164420485175 L 698.5863874345549 410.9703504043127 L 699.5287958115183 405.8490566037736 L 700.4712041884817 369.32614555256066 L 701.413612565445 359.62264150943395 L 702.3560209424085 381.18598382749326 L 703.2984293193717 367.1698113207547 L 704.240837696335 343.1805929919137 L 705.1832460732984 407.60107816711593 L 706.1256544502618 412.85714285714283 L 707.0680628272252 330.78167115902966 L 708.0104712041884 330.1078167115903 L 708.9528795811518 392.3719676549865 L 709.8952879581152 347.2237196765499 L 710.8376963350785 347.2237196765499 L 711.780104712042 384.42048517520215 L 712.7225130890052 408.40970350404314 L 713.6649214659686 294.12398921832886 L 714.6073298429319 294.2587601078167 L 715.5497382198953 319.73045822102426 L 716.4921465968587 402.07547169811323 L 717.434554973822 288.1940700808625 L 718.3769633507853 394.2587601078167 L 719.3193717277487 406.1185983827493 L 720.261780104712 321.7520215633423 L 721.2041884816754 325.3908355795148 L 722.1465968586388 283.07277628032347 L 723.0890052356021 284.6900269541779 L 724.0314136125654 312.72237196765496 L 724.9738219895288 409.4878706199461 L 725.9162303664922 412.45283018867923 L 726.8586387434555 409.0835579514825 L 727.8010471204188 264.33962264150944 L 728.7434554973822 224.44743935309975 L 729.6858638743455 262.99191374663076 L 730.6282722513089 327.1428571428571 L 731.5706806282723 404.366576819407 L 732.5130890052357 405.8490566037736 L 733.4554973821989 261.50943396226415 L 734.3979057591622 191.69811320754715 L 735.3403141361257 200.45822102425873 L 736.282722513089 408.81401617250674 L 737.2251308900524 217.70889487870622 L 738.1675392670157 410.02695417789755 L 739.109947643979 411.50943396226415 L 740.0523560209424 362.1832884097035 L 740.9947643979058 297.35849056603774 L 741.9371727748692 286.0377358490566 L 742.8795811518324 281.455525606469 L 743.8219895287958 328.08625336927224 L 744.7643979057592 412.72237196765496 L 745.7068062827225 414.33962264150944 L 746.6492146596859 323.77358490566036 L 747.5916230366493 307.60107816711593 L 748.5340314136126 344.93261455525607 L 749.4764397905759 338.1940700808625 L 750.4188481675392 305.7142857142857 L 751.3612565445027 414.33962264150944 L 752.303664921466 414.6091644204852 L 753.2460732984293 286.5768194070081 L 754.1884816753927 315.0134770889488 L 755.130890052356 245.6064690026954 L 756.0732984293194 228.35579514824798 L 757.0157068062827 258.00539083557953 L 757.9581151832462 407.87061994609167 L 758.9005235602094 412.9919137466307 L 759.8429319371727 261.50943396226415 L 760.7853403141362 225.12129380053906 L 761.7277486910995 213.6657681940701 L 762.6701570680628 205.8490566037736 L 763.6125654450261 208.544474393531 L 764.5549738219895 414.0700808625337 L 765.4973821989529 415.2830188679245 L 766.4397905759162 217.43935309973045 L 767.3821989528797 257.60107816711593 L 768.3246073298429 233.47708894878707 L 769.2670157068062 249.51482479784366 L 770.2094240837697 249.9191374663073 L 771.151832460733 388.4636118598383 L 772.0942408376964 403.8274932614555 L 773.0366492146596 169.73045822102424 L 773.979057591623 251.1320754716981 L 774.9214659685864 154.23180592991912 L 775.8638743455497 294.52830188679246 L 776.8062827225132 191.29380053908358 L 777.7486910994764 406.2533692722372 L 778.6910994764398 407.19676549865227 L 779.6335078534031 404.50134770889485 L 780.5759162303665 165.41778975741238 L 781.5183246073299 247.35849056603774 L 782.4607329842931 253.96226415094338 L 783.4031413612566 306.92722371967653 L 784.3455497382199 406.79245283018867 L 785.2879581151832 409.3530997304582 L 786.2303664921466 356.52291105121293 L 787.17277486911 240.88948787061994 L 788.1151832460733 158.00539083557953 L 789.0575916230366 257.46630727762806 L 790 357.0619946091644 L 790.9424083769634 415.2830188679245 L 791.8848167539267 409.21832884097034 L 792.82722513089 296.8194070080863 L 793.7696335078534 221.7520215633423 L 794.7120418848167 268.1132075471698 L 795.6544502617801 220.94339622641508 L 796.5968586387435 207.19676549865227 L 797.5392670157069 398.57142857142856 L 798.4816753926701 405.44474393531 L 799.4240837696335 402.34501347708897 L 800.3664921465969 248.30188679245282 L 801.3089005235602 197.22371967654988 L 802.2513089005236 229.97304582210242 L 803.1937172774869 247.4932614555256 L 804.1361256544502 412.0485175202156 L 805.0785340314136 411.2398921832884 L 806.020942408377 213.6657681940701 L 806.9633507853404 167.84366576819406 L 807.9057591623036 235.76819407008088 L 808.848167539267 245.74123989218327 L 809.7905759162304 172.6954177897574 L 810.7329842931937 404.6361185983827 L 811.6753926701571 415.14824797843664 L 812.6178010471205 417.1698113207547 L 813.5602094240838 165.95687331536388 L 814.5026178010471 174.31266846361186 L 815.4450261780104 106.92722371967653 L 816.3874345549739 155.98382749326146 L 817.3298429319372 401.80592991913744 L 818.2722513089005 412.1832884097035 L 819.2146596858639 70 L 820.1570680628272 96.01078167115901 L 821.0994764397906 271.88679245283015 L 822.0418848167538 304.7708894878706 L 822.9842931937173 223.23450134770889 L 823.9267015706806 407.87061994609167 L 824.8691099476439 408.1401617250674 L 825.8115183246074 228.2210242587601 L 826.7539267015707 252.0754716981132 L 827.696335078534 317.978436657682 L 828.6387434554973 316.3611859838275 L 829.5811518324607 262.58760107816715 L 830.5235602094241 417.7088948787062 L 831.4659685863874 417.43935309973045 L 832.4083769633509 416.900269541779 L 833.3507853403141 168.7870619946092 L 834.2931937172775 241.42857142857142 L 835.2356020942409 262.99191374663076 L 836.1780104712042 346.54986522911054 L 837.1204188481676 405.8490566037736 L 838.0628272251308 414.20485175202157 L 839.0052356020942 330.78167115902966 L 839.9476439790576 374.0431266846361 L 840.8900523560209 373.2345013477089 L 841.8324607329844 362.31805929919136 L 842.7748691099476 386.4420485175202 L 843.717277486911 407.60107816711593 L 844.6596858638743 412.9919137466307 L 845.6020942408377 368.1132075471698 L 846.5445026178011 369.1913746630728 L 847.4869109947643 385.7681940700809 L 848.4293193717278 408.40970350404314 L 849.3717277486911 391.02425876010784 L 850.3141361256544 414.6091644204852 L 851.2565445026178 414.4743935309973 L 852.1989528795812 360.70080862533695 L 853.1413612565445 349.2452830188679 L 854.0837696335078 401.5363881401617 L 855.0261780104712 409.4878706199461 L 855.9685863874346 396.28032345013474 L 856.9109947643979 412.72237196765496 L 857.8534031413612 412.72237196765496 L 858.7958115183246 389.54177897574124 L 859.7382198952879 393.58490566037733 L 860.6806282722513 396.010781671159 L 861.6230366492147 401.6711590296496 L 862.565445026178 400.188679245283 L 863.5078534031413 415.0134770889488 L 864.4502617801047 417.7088948787062 L 865.3926701570681 415.0134770889488 L 866.3350785340314 388.59838274932616 L 867.2774869109948 399.7843665768194 L 868.2198952879581 351.8059299191375 L 869.1623036649215 366.4959568733154 L 870.1047120418848 409.0835579514825 L 871.0471204188482 406.79245283018867 L 871.9895287958116 392.911051212938 L 872.9319371727748 378.08625336927224 L 873.8743455497382 366.4959568733154 L 874.8167539267016 373.9083557951483 L 875.7591623036649 359.3530997304582 L 876.7015706806283 411.644204851752 L 877.6439790575917 415.0134770889488 L 878.586387434555 336.9811320754717 L 879.5287958115183 343.04582210242586 L 880.4712041884816 364.6091644204852 L 881.4136125654451 379.8382749326146 L 882.3560209424083 372.6954177897574 L 883.2984293193717 406.2533692722372 L 884.2408376963351 412.85714285714283 L 885.1832460732984 374.3126684636119 L 886.1256544502618 387.92452830188677 L 887.068062827225 376.7385444743935 L 888.0104712041885 381.72506738544473 L 888.9528795811518 395.33692722371967 L 889.8952879581152 413.39622641509436 L 890.8376963350786 414.0700808625337 L 891.7801047120419 393.7196765498652 L 892.7225130890052 384.9595687331536 L 893.6649214659686 396.41509433962267 L 894.6073298429319 401.80592991913744 L 895.5497382198953 411.3746630727763 L 896.4921465968586 411.644204851752 L 897.4345549738221 414.0700808625337 L 898.3769633507853 394.2587601078167 L 899.3193717277487 402.6145552560647 L 900.2617801047121 402.6145552560647 L 901.2041884816754 384.42048517520215 L 902.1465968586388 385.633423180593 L 903.089005235602 408.6792452830189 L 904.0314136125655 415.55256064690025 L 904.9738219895288 393.04582210242586 L 905.9162303664921 391.02425876010784 L 906.8586387434556 392.5067385444744 L 907.8010471204188 374.85175202156336 L 908.7434554973822 379.4339622641509 L 909.6858638743455 406.79245283018867 L 910.6282722513089 411.7789757412399 L 911.5706806282723 347.4932614555256 L 912.5130890052355 350.7277628032345 L 913.455497382199 384.82479784366575 L 914.3979057591623 382.39892183288407 L 915.3403141361256 379.0296495956873 L 916.282722513089 413.39622641509436 L 917.2251308900524 417.43935309973045 L 918.1675392670157 397.2237196765499 L 919.109947643979 397.8975741239892 L 920.0523560209424 394.12398921832886 L 920.9947643979058 395.2021563342318 L 921.937172774869 388.8679245283019 L 922.8795811518324 386.4420485175202 L 923.8219895287958 410.4312668463612 L 924.7643979057592 382.12938005390833 L 925.7068062827225 386.71159029649596 L 926.6492146596859 394.52830188679246 L 927.5916230366493 373.6388140161725 L 928.5340314136125 382.39892183288407 L 929.4764397905759 419.86522911051213 L 930.4188481675393 419.32614555256066 L 931.3612565445026 416.900269541779 L 932.303664921466 396.28032345013474 L 933.2460732984293 399.2452830188679 L 934.1884816753927 400.3234501347709 L 935.130890052356 404.09703504043125 L 936.0732984293194 419.5956873315364 L 937.0157068062828 417.7088948787062 L 937.958115183246 395.7412398921833 L 938.9005235602094 397.35849056603774 L 939.8429319371728 400.86253369272237 L 940.7853403141361 419.32614555256066 L 941.7277486910995 419.32614555256066 L 942.6701570680628 420 L 943.6125654450262 420 L 944.5549738219895 390.0808625336927 L 945.4973821989528 385.3638814016173 L 946.4397905759163 384.9595687331536 L 947.3821989528795 391.02425876010784 L 948.3246073298429 393.58490566037733 L 949.2670157068063 417.03504043126685 L 950.2094240837696 419.1913746630728 L 951.151832460733 397.4932614555256 L 952.0942408376962 394.12398921832886 L 953.0366492146597 389.94609164420484 L 953.979057591623 391.6981132075472 L 954.9214659685864 402.7493261455526 L 955.8638743455498 418.6522911051213 L 956.8062827225131 416.63072776280325 L 957.7486910994764 392.5067385444744 L 958.6910994764398 380.5121293800539 L 959.6335078534032 388.3288409703504 L 960.5759162303665 393.58490566037733 L 961.5183246073298 376.46900269541777 L 962.4607329842933 410.8355795148248 L 963.4031413612565 411.2398921832884 L 964.3455497382199 369.86522911051213 L 965.2879581151833 362.0485175202156 L 966.2303664921466 361.91374663072776 L 967.17277486911 365.14824797843664 L 968.1151832460732 391.1590296495957 L 969.0575916230367 387.3854447439353 L 970 416.0916442048518 L 970 420 Z" fill="#58a6ff" fill-opacity="0.18"/><path d="M 70 416.4959568733154 L 70.94240837696336 416.900269541779 L 71.8848167539267 419.73045822102426 L 72.82722513089006 419.86522911051213 L 73.7696335078534 420 L 74.71204188481676 420 L 75.6544502617801 420 L 76.59685863874346 420 L 77.53926701570681 420 L 78.48167539267016 420 L 79.42408376963351 420 L 80.36649214659685 420 L 81.30890052356021 420 L 82.25130890052355 420 L 83.19371727748691 420 L 84.13612565445027 419.73045822102426 L 85.07853403141361 420 L 86.02094240837697 420 L 86.96335078534031 420 L 87.90575916230367 420 L 88.84816753926702 420 L 89.79057591623037 420 L 90.73298429319371 420 L 91.67539267015707 420 L 92.61780104712042 420 L 93.56020942408377 420 L 94.50261780104712 419.73045822102426 L 95.44502617801047 419.73045822102426 L 96.38743455497382 420 L 97.32984293193718 420 L 98.27225130890052 420 L 99.21465968586388 420 L 100.15706806282722 420 L 101.09947643979058 420 L 102.04188481675394 419.86522911051213 L 102.98429319371728 419.73045822102426 L 103.92670157068062 420 L 104.86910994764398 420 L 105.81151832460733 420 L 106.75392670157069 420 L 107.69633507853403 419.73045822102426 L 108.63874345549738 420 L 109.58115183246073 420 L 110.52356020942409 420 L 111.46596858638743 420 L 112.40837696335079 420 L 113.35078534031413 420 L 114.29319371727749 419.86522911051213 L 115.23560209424085 419.73045822102426 L 116.17801047120419 420 L 117.12041884816753 419.73045822102426 L 118.06282722513089 420 L 119.00523560209425 420 L 119.9476439790576 420 L 120.89005235602095 420 L 121.83246073298429 419.5956873315364 L 122.77486910994764 420 L 123.717277486911 420 L 124.65968586387434 420 L 125.6020942408377 420 L 126.54450261780104 420 L 127.4869109947644 420 L 128.42931937172776 419.5956873315364 L 129.37172774869111 420 L 130.31413612565444 419.73045822102426 L 131.2565445026178 419.73045822102426 L 132.19895287958116 420 L 133.14136125654449 420 L 134.08376963350787 419.86522911051213 L 135.0261780104712 420 L 135.96858638743456 420 L 136.9109947643979 420 L 137.85340314136124 420 L 138.7958115183246 420 L 139.73821989528795 419.86522911051213 L 140.6806282722513 420 L 141.62303664921467 420 L 142.565445026178 420 L 143.50785340314138 420 L 144.4502617801047 420 L 145.39267015706807 420 L 146.33507853403142 420 L 147.27748691099475 420 L 148.21989528795814 420 L 149.16230366492147 420 L 150.1047120418848 420 L 151.04712041884818 420 L 151.9895287958115 420 L 152.93193717277487 420 L 153.87434554973822 420 L 154.81675392670158 420 L 155.75916230366494 420 L 156.70157068062827 420 L 157.64397905759162 420 L 158.58638743455498 420 L 159.5287958115183 420 L 160.4712041884817 420 L 161.41361256544502 419.86522911051213 L 162.35602094240838 420 L 163.29842931937173 420 L 164.24083769633506 420 L 165.18324607329842 420 L 166.12565445026178 420 L 167.06806282722513 420 L 168.0104712041885 420 L 168.95287958115182 420 L 169.8952879581152 420 L 170.83769633507853 420 L 171.7801047120419 420 L 172.72251308900525 420 L 173.66492146596858 420 L 174.60732984293196 420 L 175.5497382198953 420 L 176.49214659685862 420 L 177.434554973822 420 L 178.37696335078533 420 L 179.3193717277487 420 L 180.26178010471205 420 L 181.2041884816754 420 L 182.14659685863876 420 L 183.0890052356021 420 L 184.03141361256542 420 L 184.9738219895288 420 L 185.91623036649216 420 L 186.85863874345551 420 L 187.80104712041884 420 L 188.7434554973822 420 L 189.68586387434556 420 L 190.6282722513089 420 L 191.57068062827227 420 L 192.5130890052356 419.5956873315364 L 193.45549738219896 416.63072776280325 L 194.3979057591623 417.84366576819406 L 195.34031413612564 419.5956873315364 L 196.282722513089 420 L 197.22513089005236 420 L 198.1675392670157 420 L 199.10994764397907 419.73045822102426 L 200.0523560209424 420 L 200.99476439790575 419.73045822102426 L 201.9371727748691 419.73045822102426 L 202.87958115183247 419.73045822102426 L 203.82198952879583 420 L 204.76439790575915 420 L 205.7068062827225 419.73045822102426 L 206.64921465968587 420 L 207.5916230366492 419.73045822102426 L 208.53403141361258 419.86522911051213 L 209.4764397905759 420 L 210.41884816753927 420 L 211.36125654450262 420 L 212.30366492146595 420 L 213.2460732984293 420 L 214.1884816753927 419.86522911051213 L 215.13089005235602 420 L 216.07329842931938 420 L 217.01570680628274 420 L 217.95811518324606 420 L 218.90052356020942 420 L 219.84293193717275 420 L 220.78534031413614 420 L 221.7277486910995 419.73045822102426 L 222.67015706806282 419.73045822102426 L 223.61256544502618 420 L 224.55497382198953 420 L 225.49738219895286 420 L 226.43979057591625 420 L 227.38219895287958 420 L 228.32460732984293 419.5956873315364 L 229.2670157068063 419.86522911051213 L 230.20942408376962 420 L 231.15183246073298 420 L 232.09424083769633 420 L 233.0366492146597 419.73045822102426 L 233.97905759162305 418.92183288409706 L 234.92146596858638 419.32614555256066 L 235.86387434554973 419.73045822102426 L 236.8062827225131 420 L 237.74869109947645 420 L 238.6910994764398 419.73045822102426 L 239.63350785340316 420 L 240.5759162303665 420 L 241.51832460732984 420 L 242.46073298429317 420 L 243.40314136125653 420 L 244.34554973821992 420 L 245.28795811518324 420 L 246.2303664921466 420 L 247.17277486910996 420 L 248.1151832460733 419.5956873315364 L 249.05759162303664 420 L 250 420 L 250.94240837696336 420 L 251.8848167539267 419.73045822102426 L 252.82722513089004 420 L 253.7696335078534 419.73045822102426 L 254.71204188481676 420 L 255.6544502617801 420 L 256.59685863874347 420 L 257.5392670157068 420 L 258.4816753926701 420 L 259.4240837696335 420 L 260.36649214659684 420 L 261.3089005235602 420 L 262.25130890052355 419.5956873315364 L 263.19371727748694 420 L 264.13612565445027 420 L 265.0785340314136 419.86522911051213 L 266.020942408377 420 L 266.9633507853403 419.1913746630728 L 267.90575916230364 419.73045822102426 L 268.848167539267 419.86522911051213 L 269.7905759162304 419.73045822102426 L 270.7329842931937 420 L 271.67539267015707 418.5175202156334 L 272.6178010471204 419.86522911051213 L 273.5602094240838 419.46091644204853 L 274.5026178010471 419.73045822102426 L 275.4450261780105 419.32614555256066 L 276.3874345549738 420 L 277.32984293193715 419.86522911051213 L 278.27225130890054 419.86522911051213 L 279.2146596858639 419.73045822102426 L 280.1570680628272 420 L 281.0994764397906 419.46091644204853 L 282.04188481675396 420 L 282.98429319371724 420 L 283.9267015706806 420 L 284.869109947644 419.73045822102426 L 285.81151832460733 418.38274932614553 L 286.75392670157066 417.03504043126685 L 287.69633507853405 419.46091644204853 L 288.6387434554974 419.73045822102426 L 289.5811518324607 420 L 290.5235602094241 420 L 291.4659685863875 420 L 292.4083769633508 420 L 293.35078534031413 419.73045822102426 L 294.2931937172775 420 L 295.23560209424085 420 L 296.1780104712042 420 L 297.12041884816756 420 L 298.06282722513083 420 L 299.0052356020942 420 L 299.9476439790576 420 L 300.89005235602093 420 L 301.8324607329843 418.6522911051213 L 302.77486910994764 420 L 303.71727748691103 420 L 304.6596858638743 416.63072776280325 L 305.6020942408377 418.5175202156334 L 306.5445026178011 418.7870619946092 L 307.4869109947644 415.822102425876 L 308.42931937172773 418.38274932614553 L 309.3717277486911 420 L 310.31413612565444 420 L 311.2565445026178 420 L 312.19895287958116 416.0916442048518 L 313.14136125654454 418.6522911051213 L 314.0837696335078 419.46091644204853 L 315.0261780104712 419.32614555256066 L 315.9685863874345 420 L 316.9109947643979 420 L 317.85340314136124 419.32614555256066 L 318.7958115183246 419.0566037735849 L 319.738219895288 418.5175202156334 L 320.6806282722513 418.6522911051213 L 321.62303664921467 417.7088948787062 L 322.565445026178 418.5175202156334 L 323.5078534031413 419.1913746630728 L 324.4502617801047 418.92183288409706 L 325.39267015706804 418.92183288409706 L 326.3350785340314 415.6873315363881 L 327.27748691099475 418.92183288409706 L 328.21989528795814 419.46091644204853 L 329.16230366492147 420 L 330.1047120418848 419.32614555256066 L 331.0471204188482 417.7088948787062 L 331.9895287958115 418.1132075471698 L 332.9319371727749 418.6522911051213 L 333.8743455497382 418.92183288409706 L 334.81675392670155 418.7870619946092 L 335.75916230366494 420 L 336.70157068062827 419.1913746630728 L 337.64397905759165 419.73045822102426 L 338.586387434555 419.46091644204853 L 339.5287958115183 416.3611859838275 L 340.47120418848164 417.5741239892183 L 341.413612565445 414.33962264150944 L 342.3560209424084 418.38274932614553 L 343.29842931937173 419.1913746630728 L 344.24083769633506 415.14824797843664 L 345.1832460732984 418.5175202156334 L 346.1256544502618 418.1132075471698 L 347.06806282722516 418.24797843665766 L 348.0104712041885 417.7088948787062 L 348.9528795811518 419.73045822102426 L 349.89528795811515 418.6522911051213 L 350.83769633507853 417.43935309973045 L 351.78010471204186 419.86522911051213 L 352.72251308900525 419.46091644204853 L 353.66492146596863 420 L 354.6073298429319 418.6522911051213 L 355.5497382198953 420 L 356.4921465968586 418.92183288409706 L 357.434554973822 419.1913746630728 L 358.3769633507854 419.32614555256066 L 359.31937172774866 418.24797843665766 L 360.26178010471205 416.63072776280325 L 361.2041884816754 418.1132075471698 L 362.14659685863876 419.0566037735849 L 363.0890052356021 420 L 364.0314136125655 416.22641509433964 L 364.9738219895288 418.24797843665766 L 365.91623036649213 418.24797843665766 L 366.8586387434555 416.22641509433964 L 367.80104712041884 418.24797843665766 L 368.74345549738223 417.5741239892183 L 369.6858638743455 418.24797843665766 L 370.6282722513089 410.4312668463612 L 371.57068062827227 416.0916442048518 L 372.5130890052356 415.4177897574124 L 373.455497382199 413.53099730458223 L 374.3979057591623 418.6522911051213 L 375.34031413612564 419.46091644204853 L 376.282722513089 416.0916442048518 L 377.22513089005236 414.74393530997304 L 378.16753926701574 416.7654986522911 L 379.10994764397907 417.43935309973045 L 380.0523560209424 416.3611859838275 L 380.9947643979057 417.7088948787062 L 381.9371727748691 420 L 382.8795811518325 418.6522911051213 L 383.8219895287958 419.46091644204853 L 384.76439790575915 417.5741239892183 L 385.7068062827225 417.5741239892183 L 386.64921465968587 418.5175202156334 L 387.5916230366492 415.4177897574124 L 388.5340314136126 419.46091644204853 L 389.4764397905759 419.86522911051213 L 390.41884816753924 417.84366576819406 L 391.3612565445026 414.74393530997304 L 392.30366492146595 417.84366576819406 L 393.24607329842934 417.5741239892183 L 394.18848167539267 417.3045822102426 L 395.130890052356 419.73045822102426 L 396.0732984293194 418.5175202156334 L 397.0157068062827 417.03504043126685 L 397.9581151832461 417.43935309973045 L 398.9005235602094 417.3045822102426 L 399.84293193717275 417.9784366576819 L 400.78534031413614 414.8787061994609 L 401.72774869109946 416.7654986522911 L 402.67015706806285 419.46091644204853 L 403.6125654450262 418.5175202156334 L 404.5549738219895 417.3045822102426 L 405.4973821989529 418.1132075471698 L 406.4397905759162 419.1913746630728 L 407.3821989528796 418.6522911051213 L 408.32460732984293 420 L 409.2670157068063 419.32614555256066 L 410.2094240837696 417.9784366576819 L 411.151832460733 416.900269541779 L 412.09424083769636 417.43935309973045 L 413.0366492146597 415.14824797843664 L 413.9790575916231 415.6873315363881 L 414.92146596858635 418.6522911051213 L 415.86387434554973 418.92183288409706 L 416.80628272251306 417.84366576819406 L 417.74869109947645 419.73045822102426 L 418.69109947643983 418.6522911051213 L 419.6335078534031 418.6522911051213 L 420.5759162303665 415.4177897574124 L 421.5183246073298 420 L 422.4607329842932 419.73045822102426 L 423.4031413612566 418.38274932614553 L 424.3455497382199 415.9568733153639 L 425.28795811518324 417.43935309973045 L 426.2303664921466 418.6522911051213 L 427.17277486910996 417.9784366576819 L 428.1151832460733 420 L 429.05759162303667 419.0566037735849 L 430 416.63072776280325 L 430.94240837696333 418.92183288409706 L 431.8848167539267 415.9568733153639 L 432.82722513089004 418.38274932614553 L 433.7696335078534 418.1132075471698 L 434.71204188481676 418.6522911051213 L 435.6544502617801 420 L 436.59685863874347 417.03504043126685 L 437.5392670157068 417.7088948787062 L 438.4816753926702 418.92183288409706 L 439.4240837696335 417.9784366576819 L 440.36649214659684 418.6522911051213 L 441.3089005235602 420 L 442.25130890052355 417.5741239892183 L 443.19371727748694 418.92183288409706 L 444.13612565445027 419.32614555256066 L 445.0785340314136 417.3045822102426 L 446.0209424083769 417.7088948787062 L 446.9633507853403 416.7654986522911 L 447.9057591623037 418.7870619946092 L 448.848167539267 419.46091644204853 L 449.79057591623035 417.03504043126685 L 450.7329842931937 418.1132075471698 L 451.67539267015707 418.38274932614553 L 452.61780104712045 419.1913746630728 L 453.5602094240838 419.73045822102426 L 454.5026178010471 419.86522911051213 L 455.44502617801044 419.73045822102426 L 456.3874345549738 419.73045822102426 L 457.32984293193715 419.0566037735849 L 458.27225130890054 418.5175202156334 L 459.2146596858639 418.5175202156334 L 460.1570680628272 416.4959568733154 L 461.0994764397906 417.3045822102426 L 462.0418848167539 419.0566037735849 L 462.9842931937173 417.7088948787062 L 463.9267015706806 416.4959568733154 L 464.86910994764395 416.7654986522911 L 465.81151832460733 417.3045822102426 L 466.75392670157066 418.24797843665766 L 467.69633507853405 418.7870619946092 L 468.6387434554974 419.73045822102426 L 469.58115183246076 419.46091644204853 L 470.5235602094241 419.73045822102426 L 471.4659685863874 419.5956873315364 L 472.4083769633508 418.6522911051213 L 473.35078534031413 419.73045822102426 L 474.2931937172775 419.46091644204853 L 475.2356020942408 420 L 476.1780104712042 419.46091644204853 L 477.12041884816756 420 L 478.0628272251309 418.6522911051213 L 479.0052356020943 419.86522911051213 L 479.9476439790576 419.1913746630728 L 480.89005235602093 417.9784366576819 L 481.8324607329843 419.73045822102426 L 482.77486910994764 419.0566037735849 L 483.71727748691103 419.32614555256066 L 484.65968586387436 415.2830188679245 L 485.6020942408377 416.22641509433964 L 486.544502617801 417.03504043126685 L 487.4869109947644 419.86522911051213 L 488.4293193717278 420 L 489.3717277486911 417.43935309973045 L 490.31413612565444 416.22641509433964 L 491.25654450261777 418.6522911051213 L 492.19895287958116 413.2614555256065 L 493.1413612565445 417.03504043126685 L 494.08376963350787 416.0916442048518 L 495.0261780104712 416.7654986522911 L 495.9685863874345 416.22641509433964 L 496.9109947643979 418.24797843665766 L 497.85340314136124 415.55256064690025 L 498.7958115183246 416.63072776280325 L 499.73821989528795 415.9568733153639 L 500.6806282722513 416.7654986522911 L 501.62303664921467 415.9568733153639 L 502.565445026178 416.900269541779 L 503.5078534031414 418.92183288409706 L 504.4502617801047 420 L 505.39267015706804 416.900269541779 L 506.3350785340314 418.92183288409706 L 507.27748691099475 418.6522911051213 L 508.21989528795814 419.73045822102426 L 509.16230366492147 419.46091644204853 L 510.1047120418848 419.46091644204853 L 511.0471204188481 418.7870619946092 L 511.9895287958115 418.7870619946092 L 512.931937172775 419.46091644204853 L 513.8743455497382 419.32614555256066 L 514.8167539267016 419.1913746630728 L 515.7591623036649 419.73045822102426 L 516.7015706806283 417.84366576819406 L 517.6439790575917 419.86522911051213 L 518.586387434555 419.46091644204853 L 519.5287958115184 415.55256064690025 L 520.4712041884817 419.32614555256066 L 521.413612565445 419.73045822102426 L 522.3560209424083 414.20485175202157 L 523.2984293193717 415.6873315363881 L 524.2408376963351 417.7088948787062 L 525.1832460732984 418.7870619946092 L 526.1256544502617 420 L 527.0680628272252 416.22641509433964 L 528.0104712041884 413.39622641509436 L 528.9528795811518 416.7654986522911 L 529.8952879581152 418.6522911051213 L 530.8376963350786 417.43935309973045 L 531.7801047120419 417.03504043126685 L 532.7225130890051 413.2614555256065 L 533.6649214659686 420 L 534.6073298429319 418.92183288409706 L 535.5497382198953 410.1617250673854 L 536.4921465968587 415.6873315363881 L 537.4345549738221 415.6873315363881 L 538.3769633507853 414.6091644204852 L 539.3193717277486 414.0700808625337 L 540.261780104712 415.0134770889488 L 541.2041884816754 413.39622641509436 L 542.1465968586388 402.88409703504044 L 543.0890052356021 401.80592991913744 L 544.0314136125655 403.5579514824798 L 544.9738219895288 403.9622641509434 L 545.9162303664921 408.1401617250674 L 546.8586387434555 413.6657681940701 L 547.8010471204188 414.20485175202157 L 548.7434554973822 399.64959568733155 L 549.6858638743456 402.88409703504044 L 550.6282722513089 408.1401617250674 L 551.5706806282722 408.6792452830189 L 552.5130890052357 404.09703504043125 L 553.4554973821989 411.7789757412399 L 554.3979057591623 412.5876010781671 L 555.3403141361257 398.57142857142856 L 556.2827225130891 397.4932614555256 L 557.2251308900524 404.2318059299191 L 558.1675392670156 410.9703504043127 L 559.1099476439791 413.6657681940701 L 560.0523560209424 411.10512129380055 L 560.9947643979058 416.3611859838275 L 561.937172774869 409.7574123989218 L 562.8795811518326 402.34501347708897 L 563.8219895287958 411.50943396226415 L 564.7643979057591 407.33153638814014 L 565.7068062827225 404.366576819407 L 566.6492146596859 404.366576819407 L 567.5916230366493 412.85714285714283 L 568.5340314136125 396.6846361185984 L 569.476439790576 405.57951482479785 L 570.4188481675392 401.6711590296496 L 571.3612565445026 402.34501347708897 L 572.303664921466 407.19676549865227 L 573.2460732984293 411.10512129380055 L 574.1884816753927 413.6657681940701 L 575.130890052356 403.0188679245283 L 576.0732984293194 398.57142857142856 L 577.0157068062827 402.6145552560647 L 577.958115183246 409.62264150943395 L 578.9005235602094 406.92722371967653 L 579.8429319371728 410.5660377358491 L 580.7853403141361 415.55256064690025 L 581.7277486910994 411.50943396226415 L 582.6701570680628 406.6576819407008 L 583.6125654450261 364.4743935309973 L 584.5549738219895 393.989218328841 L 585.4973821989529 406.1185983827493 L 586.4397905759163 410.70080862533695 L 587.3821989528795 412.5876010781671 L 588.3246073298429 411.3746630727763 L 589.2670157068063 411.10512129380055 L 590.2094240837696 411.2398921832884 L 591.151832460733 408.81401617250674 L 592.0942408376964 408.40970350404314 L 593.0366492146596 411.644204851752 L 593.979057591623 416.3611859838275 L 594.9214659685864 413.2614555256065 L 595.8638743455498 410.2964959568733 L 596.8062827225131 405.98382749326146 L 597.7486910994764 405.0404312668464 L 598.6910994764398 409.7574123989218 L 599.6335078534031 405.98382749326146 L 600.5759162303665 408.00539083557953 L 601.5183246073299 407.33153638814014 L 602.4607329842933 410.02695417789755 L 603.4031413612565 402.07547169811323 L 604.3455497382198 400.86253369272237 L 605.2879581151833 401.26684636118597 L 606.2303664921466 408.00539083557953 L 607.17277486911 410.2964959568733 L 608.1151832460733 406.52291105121293 L 609.0575916230366 409.0835579514825 L 610 401.80592991913744 L 610.9424083769633 408.40970350404314 L 611.8848167539268 414.20485175202157 L 612.82722513089 413.39622641509436 L 613.7696335078533 413.80053908355796 L 614.7120418848168 400.99730458221023 L 615.6544502617801 390.0808625336927 L 616.5968586387435 392.911051212938 L 617.5392670157069 403.5579514824798 L 618.4816753926701 397.76280323450135 L 619.4240837696335 413.53099730458223 L 620.3664921465968 414.0700808625337 L 621.3089005235603 410.1617250673854 L 622.2513089005236 406.6576819407008 L 623.1937172774869 406.1185983827493 L 624.1361256544503 407.7358490566038 L 625.0785340314136 406.6576819407008 L 626.020942408377 416.900269541779 L 626.9633507853403 416.900269541779 L 627.9057591623036 403.4231805929919 L 628.848167539267 403.4231805929919 L 629.7905759162303 401.6711590296496 L 630.7329842931938 390.2156334231806 L 631.6753926701571 400.7277628032345 L 632.6178010471205 405.57951482479785 L 633.5602094240837 411.7789757412399 L 634.5026178010471 407.60107816711593 L 635.4450261780105 400.59299191374663 L 636.3874345549738 409.4878706199461 L 637.3298429319373 407.33153638814014 L 638.2722513089005 394.93261455525607 L 639.2146596858638 406.38814016172506 L 640.1570680628272 411.644204851752 L 641.0994764397906 393.04582210242586 L 642.041884816754 391.42857142857144 L 642.9842931937172 390.7547169811321 L 643.9267015706806 411.644204851752 L 644.869109947644 410.1617250673854 L 645.8115183246073 417.1698113207547 L 646.7539267015708 418.1132075471698 L 647.696335078534 411.3746630727763 L 648.6387434554973 399.3800539083558 L 649.5811518324607 399.64959568733155 L 650.5235602094241 377.4123989218329 L 651.4659685863875 370.53908355795147 L 652.4083769633507 406.6576819407008 L 653.3507853403141 408.1401617250674 L 654.2931937172775 410.2964959568733 L 655.2356020942408 381.18598382749326 L 656.1780104712042 398.3018867924528 L 657.1204188481676 367.9784366576819 L 658.062827225131 378.49056603773585 L 659.0052356020942 411.91374663072776 L 659.9476439790576 416.3611859838275 L 660.890052356021 385.90296495956875 L 661.8324607329843 386.4420485175202 L 662.7748691099476 395.2021563342318 L 663.717277486911 392.23719676549865 L 664.6596858638743 394.66307277628033 L 665.6020942408377 412.72237196765496 L 666.5445026178011 417.3045822102426 L 667.4869109947645 383.7466307277628 L 668.4293193717277 383.3423180592992 L 669.371727748691 391.2938005390836 L 670.3141361256545 399.9191374663073 L 671.2565445026178 397.76280323450135 L 672.1989528795812 412.0485175202156 L 673.1413612565445 402.7493261455526 L 674.0837696335078 400.188679245283 L 675.0261780104712 383.20754716981133 L 675.9685863874346 397.088948787062 L 676.910994764398 395.87601078167114 L 677.8534031413612 388.73315363881403 L 678.7958115183246 409.8921832884097 L 679.738219895288 410.02695417789755 L 680.6806282722513 413.6657681940701 L 681.6230366492147 373.77358490566036 L 682.565445026178 379.0296495956873 L 683.5078534031413 393.7196765498652 L 684.4502617801047 363.80053908355796 L 685.392670157068 404.7708894878706 L 686.3350785340315 410.70080862533695 L 687.2774869109948 384.1509433962264 L 688.2198952879581 375.1212938005391 L 689.1623036649215 388.59838274932616 L 690.1047120418848 403.69272237196765 L 691.0471204188482 388.4636118598383 L 691.9895287958115 409.21832884097034 L 692.931937172775 410.4312668463612 L 693.8743455497382 360.70080862533695 L 694.8167539267015 363.93530997304583 L 695.759162303665 356.1185983827493 L 696.7015706806283 370.26954177897574 L 697.6439790575917 380.9164420485175 L 698.5863874345549 410.9703504043127 L 699.5287958115183 405.8490566037736 L 700.4712041884817 369.32614555256066 L 701.413612565445 359.62264150943395 L 702.3560209424085 381.18598382749326 L 703.2984293193717 367.1698113207547 L 704.240837696335 343.1805929919137 L 705.1832460732984 407.60107816711593 L 706.1256544502618 412.85714285714283 L 707.0680628272252 330.78167115902966 L 708.0104712041884 330.1078167115903 L 708.9528795811518 392.3719676549865 L 709.8952879581152 347.2237196765499 L 710.8376963350785 347.2237196765499 L 711.780104712042 384.42048517520215 L 712.7225130890052 408.40970350404314 L 713.6649214659686 294.12398921832886 L 714.6073298429319 294.2587601078167 L 715.5497382198953 319.73045822102426 L 716.4921465968587 402.07547169811323 L 717.434554973822 288.1940700808625 L 718.3769633507853 394.2587601078167 L 719.3193717277487 406.1185983827493 L 720.261780104712 321.7520215633423 L 721.2041884816754 325.3908355795148 L 722.1465968586388 283.07277628032347 L 723.0890052356021 284.6900269541779 L 724.0314136125654 312.72237196765496 L 724.9738219895288 409.4878706199461 L 725.9162303664922 412.45283018867923 L 726.8586387434555 409.0835579514825 L 727.8010471204188 264.33962264150944 L 728.7434554973822 224.44743935309975 L 729.6858638743455 262.99191374663076 L 730.6282722513089 327.1428571428571 L 731.5706806282723 404.366576819407 L 732.5130890052357 405.8490566037736 L 733.4554973821989 261.50943396226415 L 734.3979057591622 191.69811320754715 L 735.3403141361257 200.45822102425873 L 736.282722513089 408.81401617250674 L 737.2251308900524 217.70889487870622 L 738.1675392670157 410.02695417789755 L 739.109947643979 411.50943396226415 L 740.0523560209424 362.1832884097035 L 740.9947643979058 297.35849056603774 L 741.9371727748692 286.0377358490566 L 742.8795811518324 281.455525606469 L 743.8219895287958 328.08625336927224 L 744.7643979057592 412.72237196765496 L 745.7068062827225 414.33962264150944 L 746.6492146596859 323.77358490566036 L 747.5916230366493 307.60107816711593 L 748.5340314136126 344.93261455525607 L 749.4764397905759 338.1940700808625 L 750.4188481675392 305.7142857142857 L 751.3612565445027 414.33962264150944 L 752.303664921466 414.6091644204852 L 753.2460732984293 286.5768194070081 L 754.1884816753927 315.0134770889488 L 755.130890052356 245.6064690026954 L 756.0732984293194 228.35579514824798 L 757.0157068062827 258.00539083557953 L 757.9581151832462 407.87061994609167 L 758.9005235602094 412.9919137466307 L 759.8429319371727 261.50943396226415 L 760.7853403141362 225.12129380053906 L 761.7277486910995 213.6657681940701 L 762.6701570680628 205.8490566037736 L 763.6125654450261 208.544474393531 L 764.5549738219895 414.0700808625337 L 765.4973821989529 415.2830188679245 L 766.4397905759162 217.43935309973045 L 767.3821989528797 257.60107816711593 L 768.3246073298429 233.47708894878707 L 769.2670157068062 249.51482479784366 L 770.2094240837697 249.9191374663073 L 771.151832460733 388.4636118598383 L 772.0942408376964 403.8274932614555 L 773.0366492146596 169.73045822102424 L 773.979057591623 251.1320754716981 L 774.9214659685864 154.23180592991912 L 775.8638743455497 294.52830188679246 L 776.8062827225132 191.29380053908358 L 777.7486910994764 406.2533692722372 L 778.6910994764398 407.19676549865227 L 779.6335078534031 404.50134770889485 L 780.5759162303665 165.41778975741238 L 781.5183246073299 247.35849056603774 L 782.4607329842931 253.96226415094338 L 783.4031413612566 306.92722371967653 L 784.3455497382199 406.79245283018867 L 785.2879581151832 409.3530997304582 L 786.2303664921466 356.52291105121293 L 787.17277486911 240.88948787061994 L 788.1151832460733 158.00539083557953 L 789.0575916230366 257.46630727762806 L 790 357.0619946091644 L 790.9424083769634 415.2830188679245 L 791.8848167539267 409.21832884097034 L 792.82722513089 296.8194070080863 L 793.7696335078534 221.7520215633423 L 794.7120418848167 268.1132075471698 L 795.6544502617801 220.94339622641508 L 796.5968586387435 207.19676549865227 L 797.5392670157069 398.57142857142856 L 798.4816753926701 405.44474393531 L 799.4240837696335 402.34501347708897 L 800.3664921465969 248.30188679245282 L 801.3089005235602 197.22371967654988 L 802.2513089005236 229.97304582210242 L 803.1937172774869 247.4932614555256 L 804.1361256544502 412.0485175202156 L 805.0785340314136 411.2398921832884 L 806.020942408377 213.6657681940701 L 806.9633507853404 167.84366576819406 L 807.9057591623036 235.76819407008088 L 808.848167539267 245.74123989218327 L 809.7905759162304 172.6954177897574 L 810.7329842931937 404.6361185983827 L 811.6753926701571 415.14824797843664 L 812.6178010471205 417.1698113207547 L 813.5602094240838 165.95687331536388 L 814.5026178010471 174.31266846361186 L 815.4450261780104 106.92722371967653 L 816.3874345549739 155.98382749326146 L 817.3298429319372 401.80592991913744 L 818.2722513089005 412.1832884097035 L 819.2146596858639 70 L 820.1570680628272 96.01078167115901 L 821.0994764397906 271.88679245283015 L 822.0418848167538 304.7708894878706 L 822.9842931937173 223.23450134770889 L 823.9267015706806 407.87061994609167 L 824.8691099476439 408.1401617250674 L 825.8115183246074 228.2210242587601 L 826.7539267015707 252.0754716981132 L 827.696335078534 317.978436657682 L 828.6387434554973 316.3611859838275 L 829.5811518324607 262.58760107816715 L 830.5235602094241 417.7088948787062 L 831.4659685863874 417.43935309973045 L 832.4083769633509 416.900269541779 L 833.3507853403141 168.7870619946092 L 834.2931937172775 241.42857142857142 L 835.2356020942409 262.99191374663076 L 836.1780104712042 346.54986522911054 L 837.1204188481676 405.8490566037736 L 838.0628272251308 414.20485175202157 L 839.0052356020942 330.78167115902966 L 839.9476439790576 374.0431266846361 L 840.8900523560209 373.2345013477089 L 841.8324607329844 362.31805929919136 L 842.7748691099476 386.4420485175202 L 843.717277486911 407.60107816711593 L 844.6596858638743 412.9919137466307 L 845.6020942408377 368.1132075471698 L 846.5445026178011 369.1913746630728 L 847.4869109947643 385.7681940700809 L 848.4293193717278 408.40970350404314 L 849.3717277486911 391.02425876010784 L 850.3141361256544 414.6091644204852 L 851.2565445026178 414.4743935309973 L 852.1989528795812 360.70080862533695 L 853.1413612565445 349.2452830188679 L 854.0837696335078 401.5363881401617 L 855.0261780104712 409.4878706199461 L 855.9685863874346 396.28032345013474 L 856.9109947643979 412.72237196765496 L 857.8534031413612 412.72237196765496 L 858.7958115183246 389.54177897574124 L 859.7382198952879 393.58490566037733 L 860.6806282722513 396.010781671159 L 861.6230366492147 401.6711590296496 L 862.565445026178 400.188679245283 L 863.5078534031413 415.0134770889488 L 864.4502617801047 417.7088948787062 L 865.3926701570681 415.0134770889488 L 866.3350785340314 388.59838274932616 L 867.2774869109948 399.7843665768194 L 868.2198952879581 351.8059299191375 L 869.1623036649215 366.4959568733154 L 870.1047120418848 409.0835579514825 L 871.0471204188482 406.79245283018867 L 871.9895287958116 392.911051212938 L 872.9319371727748 378.08625336927224 L 873.8743455497382 366.4959568733154 L 874.8167539267016 373.9083557951483 L 875.7591623036649 359.3530997304582 L 876.7015706806283 411.644204851752 L 877.6439790575917 415.0134770889488 L 878.586387434555 336.9811320754717 L 879.5287958115183 343.04582210242586 L 880.4712041884816 364.6091644204852 L 881.4136125654451 379.8382749326146 L 882.3560209424083 372.6954177897574 L 883.2984293193717 406.2533692722372 L 884.2408376963351 412.85714285714283 L 885.1832460732984 374.3126684636119 L 886.1256544502618 387.92452830188677 L 887.068062827225 376.7385444743935 L 888.0104712041885 381.72506738544473 L 888.9528795811518 395.33692722371967 L 889.8952879581152 413.39622641509436 L 890.8376963350786 414.0700808625337 L 891.7801047120419 393.7196765498652 L 892.7225130890052 384.9595687331536 L 893.6649214659686 396.41509433962267 L 894.6073298429319 401.80592991913744 L 895.5497382198953 411.3746630727763 L 896.4921465968586 411.644204851752 L 897.4345549738221 414.0700808625337 L 898.3769633507853 394.2587601078167 L 899.3193717277487 402.6145552560647 L 900.2617801047121 402.6145552560647 L 901.2041884816754 384.42048517520215 L 902.1465968586388 385.633423180593 L 903.089005235602 408.6792452830189 L 904.0314136125655 415.55256064690025 L 904.9738219895288 393.04582210242586 L 905.9162303664921 391.02425876010784 L 906.8586387434556 392.5067385444744 L 907.8010471204188 374.85175202156336 L 908.7434554973822 379.4339622641509 L 909.6858638743455 406.79245283018867 L 910.6282722513089 411.7789757412399 L 911.5706806282723 347.4932614555256 L 912.5130890052355 350.7277628032345 L 913.455497382199 384.82479784366575 L 914.3979057591623 382.39892183288407 L 915.3403141361256 379.0296495956873 L 916.282722513089 413.39622641509436 L 917.2251308900524 417.43935309973045 L 918.1675392670157 397.2237196765499 L 919.109947643979 397.8975741239892 L 920.0523560209424 394.12398921832886 L 920.9947643979058 395.2021563342318 L 921.937172774869 388.8679245283019 L 922.8795811518324 386.4420485175202 L 923.8219895287958 410.4312668463612 L 924.7643979057592 382.12938005390833 L 925.7068062827225 386.71159029649596 L 926.6492146596859 394.52830188679246 L 927.5916230366493 373.6388140161725 L 928.5340314136125 382.39892183288407 L 929.4764397905759 419.86522911051213 L 930.4188481675393 419.32614555256066 L 931.3612565445026 416.900269541779 L 932.303664921466 396.28032345013474 L 933.2460732984293 399.2452830188679 L 934.1884816753927 400.3234501347709 L 935.130890052356 404.09703504043125 L 936.0732984293194 419.5956873315364 L 937.0157068062828 417.7088948787062 L 937.958115183246 395.7412398921833 L 938.9005235602094 397.35849056603774 L 939.8429319371728 400.86253369272237 L 940.7853403141361 419.32614555256066 L 941.7277486910995 419.32614555256066 L 942.6701570680628 420 L 943.6125654450262 420 L 944.5549738219895 390.0808625336927 L 945.4973821989528 385.3638814016173 L 946.4397905759163 384.9595687331536 L 947.3821989528795 391.02425876010784 L 948.3246073298429 393.58490566037733 L 949.2670157068063 417.03504043126685 L 950.2094240837696 419.1913746630728 L 951.151832460733 397.4932614555256 L 952.0942408376962 394.12398921832886 L 953.0366492146597 389.94609164420484 L 953.979057591623 391.6981132075472 L 954.9214659685864 402.7493261455526 L 955.8638743455498 418.6522911051213 L 956.8062827225131 416.63072776280325 L 957.7486910994764 392.5067385444744 L 958.6910994764398 380.5121293800539 L 959.6335078534032 388.3288409703504 L 960.5759162303665 393.58490566037733 L 961.5183246073298 376.46900269541777 L 962.4607329842933 410.8355795148248 L 963.4031413612565 411.2398921832884 L 964.3455497382199 369.86522911051213 L 965.2879581151833 362.0485175202156 L 966.2303664921466 361.91374663072776 L 967.17277486911 365.14824797843664 L 968.1151832460732 391.1590296495957 L 969.0575916230367 387.3854447439353 L 970 416.0916442048518" stroke="#58a6ff" stroke-width="1.5" fill="none"/><circle cx="819.2146596858639" cy="70" r="4" fill="#f0883e" stroke="#0d1117" stroke-width="2"/><text x="790" y="90" class="annot">2025-11-24: 2,597</text><line x1="70" y1="420" x2="970" y2="420" stroke="#8b949e" stroke-width="1.5"/>
</svg>