<svg xmlns="http://www.w3.org/2000/svg" width="1000" height="480" viewBox="0 0 1000 480">
  <style>
    .title { font: 600 18px -apple-system, system-ui, sans-serif; fill: #e6edf3; }
    .subtitle { font: 400 12px -apple-system, system-ui, sans-serif; fill: #7d8590; }
    .axis { font: 400 11px -apple-system, system-ui, sans-serif; fill: #8b949e; }
    .label { font: 500 12px -apple-system, system-ui, sans-serif; fill: #e6edf3; }
    .annot { font: 600 11px -apple-system, system-ui, sans-serif; fill: #f0883e; }
  </style>
  <rect width="1000" height="480" fill="#0d1117"/>
  <text x="24" y="32" class="title">COPM — Daily Gross Volume (USD)</text>
  <text x="24" y="50" class="subtitle">Conversion: 1 USD = 4000 COP · peak day: $38.6M</text>
  <line x1="70" y1="420" x2="970" y2="420" stroke="#30363d" stroke-width="1"/><text x="62" y="424" class="axis" text-anchor="end">$0</text><line x1="70" y1="350" x2="970" y2="350" stroke="#30363d" stroke-width="1"/><text x="62" y="354" class="axis" text-anchor="end">$7.7M</text><line x1="70" y1="280" x2="970" y2="280" stroke="#30363d" stroke-width="1"/><text x="62" y="284" class="axis" text-anchor="end">$15.4M</text><line x1="70" y1="210" x2="970" y2="210" stroke="#30363d" stroke-width="1"/><text x="62" y="214" class="axis" text-anchor="end">$23.2M</text><line x1="70" y1="140" x2="970" y2="140" stroke="#30363d" stroke-width="1"/><text x="62" y="144" class="axis" text-anchor="end">$30.9M</text><line x1="70" y1="70" x2="970" y2="70" stroke="#30363d" stroke-width="1"/><text x="62" y="74" class="axis" text-anchor="end">$38.6M</text><line x1="51.15183246073298" y1="70" x2="51.15183246073298" y2="420" stroke="#30363d" stroke-width="1" stroke-dasharray="2,4"/><text x="51.15183246073298" y="438" class="axis" text-anchor="middle">Aug 23</text><line x1="136.9109947643979" y1="70" x2="136.9109947643979" y2="420" stroke="#30363d" stroke-width="1" stroke-dasharray="2,4"/><text x="136.9109947643979" y="438" class="axis" text-anchor="middle">Nov 23</text><line x1="222.67015706806282" y1="70" x2="222.67015706806282" y2="420" stroke="#30363d" stroke-width="1" stroke-dasharray="2,4"/><text x="222.67015706806282" y="438" class="axis" text-anchor="middle">Feb 24</text><line x1="309.3717277486911" y1="70" x2="309.3717277486911" y2="420" stroke="#30363d" stroke-width="1" stroke-dasharray="2,4"/><text x="309.3717277486911" y="438" class="axis" text-anchor="middle">May 24</text><line x1="396.0732984293194" y1="70" x2="396.0732984293194" y2="420" stroke="#30363d" stroke-width="1" stroke-dasharray="2,4"/><text x="396.0732984293194" y="438" class="axis" text-anchor="middle">Aug 24</text><line x1="481.8324607329843" y1="70" x2="481.8324607329843" y2="420" stroke="#30363d" stroke-width="1" stroke-dasharray="2,4"/><text x="481.8324607329843" y="438" class="axis" text-anchor="middle">Nov 24</text><line x1="566.6492146596859" y1="70" x2="566.6492146596859" y2="420" stroke="#30363d" stroke-width="1" stroke-dasharray="2,4"/><text x="566.6492146596859" y="438" class="axis" text-anchor="middle">Feb 25</text><line x1="653.3507853403141" y1="70" x2="653.3507853403141" y2="420" stroke="#30363d" stroke-width="1" stroke-dasharray="2,4"/><text x="653.3507853403141" y="438" class="axis" text-anchor="middle">May 25</text><line x1="740.0523560209424" y1="70" x2="740.0523560209424" y2="420" stroke="#30363d" stroke-width="1" stroke-dasharray="2,4"/><text x="740.0523560209424" y="438" class="axis" text-anchor="middle">Aug 25</text><line x1="825.8115183246074" y1="70" x2="825.8115183246074" y2="420" stroke="#30363d" stroke-width="1" stroke-dasharray="2,4"/><text x="825.8115183246074" y="438" class="axis" text-anchor="middle">Nov 25</text><line x1="910.6282722513089" y1="70" x2="910.6282722513089" y2="420" stroke="#30363d" stroke-width="1" stroke-dasharray="2,4"/><text x="910.6282722513089" y="438" class="axis" text-anchor="middle">Feb 26</text><path d="M 70 420 L 70 419.9786196404617 L 70.94240837696336 419.999724650937 L 71.8848167539267 419.9999660135341 L 72.82722513089006 419.99999644776545 L 73.7696335078534 420 L 74.71204188481676 420 L 75.6544502617801 420 L 76.59685863874346 420 L 77.53926701570681 420 L 78.48167539267016 420 L 79.42408376963351 420 L 80.36649214659685 420 L 81.30890052356021 420 L 82.25130890052355 420 L 83.19371727748691 420 L 84.13612565445027 419.9999967810512 L 85.07853403141361 420 L 86.02094240837697 420 L 86.96335078534031 420 L 87.90575916230367 420 L 88.84816753926702 420 L 89.79057591623037 420 L 90.73298429319371 420 L 91.67539267015707 420 L 92.61780104712042 420 L 93.56020942408377 420 L 94.50261780104712 419.9530576848863 L 95.44502617801047 419.99999320270683 L 96.38743455497382 420 L 97.32984293193718 420 L 98.27225130890052 420 L 99.21465968586388 420 L 100.15706806282722 420 L 101.09947643979058 420 L 102.04188481675394 419.99999320270683 L 102.98429319371728 419.9999692105547 L 103.92670157068062 420 L 104.86910994764398 420 L 105.81151832460733 420 L 106.75392670157069 420 L 107.69633507853403 419.5468471216972 L 108.63874345549738 420 L 109.58115183246073 420 L 110.52356020942409 420 L 111.46596858638743 420 L 112.40837696335079 420 L 113.35078534031413 420 L 114.29319371727749 419.5468471216972 L 115.23560209424085 419.5468471216972 L 116.17801047120419 420 L 117.12041884816753 419.99530576667604 L 118.06282722513089 420 L 119.00523560209425 420 L 119.9476439790576 420 L 120.89005235602095 420 L 121.83246073298429 418.9124330920734 L 122.77486910994764 420 L 123.717277486911 420 L 124.65968586387434 420 L 125.6020942408377 420 L 126.54450261780104 420 L 127.4869109947644 420 L 128.42931937172776 418.1420731989587 L 129.37172774869111 420 L 130.31413612565444 419.18432481905506 L 131.2565445026178 419.8867117804243 L 132.19895287958116 420 L 133.14136125654449 420 L 134.08376963350787 419.9999773423561 L 135.0261780104712 420 L 135.96858638743456 420 L 136.9109947643979 420 L 137.85340314136124 420 L 138.7958115183246 420 L 139.73821989528795 419.999988671178 L 140.6806282722513 420 L 141.62303664921467 420 L 142.565445026178 420 L 143.50785340314138 420 L 144.4502617801047 420 L 145.39267015706807 420 L 146.33507853403142 420 L 147.27748691099475 420 L 148.21989528795814 420 L 149.16230366492147 420 L 150.1047120418848 420 L 151.04712041884818 420 L 151.9895287958115 420 L 152.93193717277487 420 L 153.87434554973822 420 L 154.81675392670158 420 L 155.75916230366494 420 L 156.70157068062827 420 L 157.64397905759162 420 L 158.58638743455498 420 L 159.5287958115183 420 L 160.4712041884817 420 L 161.41361256544502 419.9999773423561 L 162.35602094240838 420 L 163.29842931937173 420 L 164.24083769633506 420 L 165.18324607329842 420 L 166.12565445026178 420 L 167.06806282722513 420 L 168.0104712041885 420 L 168.95287958115182 420 L 169.8952879581152 420 L 170.83769633507853 420 L 171.7801047120419 420 L 172.72251308900525 420 L 173.66492146596858 420 L 174.60732984293196 420 L 175.5497382198953 420 L 176.49214659685862 420 L 177.434554973822 420 L 178.37696335078533 420 L 179.3193717277487 420 L 180.26178010471205 420 L 181.2041884816754 420 L 182.14659685863876 420 L 183.0890052356021 420 L 184.03141361256542 420 L 184.9738219895288 420 L 185.91623036649216 420 L 186.85863874345551 420 L 187.80104712041884 420 L 188.7434554973822 420 L 189.68586387434556 420 L 190.6282722513089 420 L 191.57068062827227 420 L 192.5130890052356 419.9977328761498 L 193.45549738219896 419.99960239991594 L 194.3979057591623 419.9995091648819 L 195.34031413612564 419.9913626418155 L 196.282722513089 420 L 197.22513089005236 420 L 198.1675392670157 420 L 199.10994764397907 419.90936942433945 L 200.0523560209424 420 L 200.99476439790575 419.999991310938 L 201.9371727748691 419.8867117804243 L 202.87958115183247 419.77342356084864 L 203.82198952879583 420 L 204.76439790575915 420 L 205.7068062827225 419.8867117804243 L 206.64921465968587 420 L 207.5916230366492 419.9999999992371 L 208.53403141361258 419.9999913452135 L 209.4764397905759 420 L 210.41884816753927 420 L 211.36125654450262 420 L 212.30366492146595 420 L 213.2460732984293 420 L 214.1884816753927 419.9999546847122 L 215.13089005235602 420 L 216.07329842931938 420 L 217.01570680628274 420 L 217.95811518324606 420 L 218.90052356020942 420 L 219.84293193717275 420 L 220.78534031413614 420 L 221.7277486910995 419.9999830067671 L 222.67015706806282 419.95468471216975 L 223.61256544502618 420 L 224.55497382198953 420 L 225.49738219895286 420 L 226.43979057591625 420 L 227.38219895287958 420 L 228.32460732984293 419.9999501787697 L 229.2670157068063 419.9999808570035 L 230.20942408376962 420 L 231.15183246073298 420 L 232.09424083769633 420 L 233.0366492146597 419.59216240952753 L 233.97905759162305 419.7805023262836 L 234.92146596858638 419.9999286136708 L 235.86387434554973 419.9999826191407 L 236.8062827225131 420 L 237.74869109947645 420 L 238.6910994764398 419.15346882180427 L 239.63350785340316 420 L 240.5759162303665 420 L 241.51832460732984 420 L 242.46073298429317 420 L 243.40314136125653 420 L 244.34554973821992 420 L 245.28795811518324 420 L 246.2303664921466 420 L 247.17277486910996 420 L 248.1151832460733 419.1541833480505 L 249.05759162303664 420 L 250 420 L 250.94240837696336 420 L 251.8848167539267 419.999968651983 L 252.82722513089004 420 L 253.7696335078534 419.95468471216975 L 254.71204188481676 420 L 255.6544502617801 420 L 256.59685863874347 420 L 257.5392670157068 420 L 258.4816753926701 420 L 259.4240837696335 420 L 260.36649214659684 420 L 261.3089005235602 420 L 262.25130890052355 419.99999771712413 L 263.19371727748694 420 L 264.13612565445027 420 L 265.0785340314136 419.9999909369424 L 266.020942408377 420 L 266.9633507853403 419.9997390578264 L 267.90575916230364 419.97759369561186 L 268.848167539267 419.9999977342356 L 269.7905759162304 419.9999919307153 L 270.7329842931937 420 L 271.67539267015707 419.8184228719742 L 272.6178010471204 419.9999988671178 L 273.5602094240838 419.9996857938995 L 274.5026178010471 419.99987538295846 L 275.4450261780105 419.8143788980193 L 276.3874345549738 420 L 277.32984293193715 419.999988671178 L 278.27225130890054 419.9999999773424 L 279.2146596858639 419.3089954674409 L 280.1570680628272 420 L 281.0994764397906 419.5465072570385 L 282.04188481675396 420 L 282.98429319371724 420 L 283.9267015706806 420 L 284.869109947644 419.72810827301834 L 285.81151832460733 417.1098357763212 L 286.75392670157066 419.88256713538544 L 287.69633507853405 419.9998187512021 L 288.6387434554974 418.2580445140692 L 289.5811518324607 420 L 290.5235602094241 420 L 291.4659685863875 420 L 292.4083769633508 420 L 293.35078534031413 419.99999546847124 L 294.2931937172775 420 L 295.23560209424085 420 L 296.1780104712042 420 L 297.12041884816756 420 L 298.06282722513083 420 L 299.0052356020942 420 L 299.9476439790576 420 L 300.89005235602093 420 L 301.8324607329843 419.9099232188412 L 302.77486910994764 420 L 303.71727748691103 420 L 304.6596858638743 419.99964312784687 L 305.6020942408377 419.9655107043615 L 306.5445026178011 419.985455378507 L 307.4869109947644 419.99969858335254 L 308.42931937172773 419.99997458714125 L 309.3717277486911 420 L 310.31413612565444 420 L 311.2565445026178 420 L 312.19895287958116 419.8050549227539 L 313.14136125654454 419.9992464536294 L 314.0837696335078 419.9999052664199 L 315.0261780104712 419.99988721293323 L 315.9685863874345 420 L 316.9109947643979 420 L 317.85340314136124 419.9836460542759 L 318.7958115183246 419.9997823207206 L 319.738219895288 419.99328439138463 L 320.6806282722513 419.9645147628214 L 321.62303664921467 419.8259594324594 L 322.565445026178 419.94465941822153 L 323.5078534031413 419.9998362298536 L 324.4502617801047 419.99885563387613 L 325.39267015706804 419.6327520765869 L 326.3350785340314 419.83534699583873 L 327.27748691099475 419.9314539458199 L 328.21989528795814 419.9995599696796 L 329.16230366492147 420 L 330.1047120418848 419.9996474564606 L 331.0471204188482 419.99213991341315 L 331.9895287958115 419.09107871912494 L 332.9319371727749 419.99602259434937 L 333.8743455497382 419.9969896238619 L 334.81675392670155 419.95809457358683 L 335.75916230366494 420 L 336.70157068062827 419.9992296717818 L 337.64397905759165 419.9996234237374 L 338.586387434555 419.99963163695804 L 339.5287958115183 419.99503513047614 L 340.47120418848164 419.99839398025864 L 341.413612565445 419.55594466176285 L 342.3560209424084 419.99914374564787 L 343.29842931937173 419.9996110828532 L 344.24083769633506 419.9951599662504 L 345.1832460732984 419.99598550441607 L 346.1256544502618 419.96072837377284 L 347.06806282722516 419.96489207207526 L 348.0104712041885 418.2615066194224 L 348.9528795811518 419.9997684257168 L 349.89528795811515 419.9988700671894 L 350.83769633507853 419.997917054809 L 351.78010471204186 419.99998127768913 L 352.72251308900525 419.99960094049544 L 353.66492146596863 420 L 354.6073298429319 419.99891647992655 L 355.5497382198953 420 L 356.4921465968586 419.99923936915445 L 357.434554973822 419.9996166285421 L 358.3769633507854 419.999638695327 L 359.31937172774866 419.68678626889 L 360.26178010471205 419.9976932798244 L 361.2041884816754 419.99898684200184 L 362.14659685863876 419.9995375290947 L 363.0890052356021 420 L 364.0314136125655 419.96148182297895 L 364.9738219895288 419.987824742091 L 365.91623036649213 419.9987317993319 L 366.8586387434555 419.9907154459626 L 367.80104712041884 419.99862862958537 L 368.74345549738223 419.9985972036526 L 369.6858638743455 419.99871967211214 L 370.6282722513089 419.98152543937346 L 371.57068062827227 419.9976229219363 L 372.5130890052356 419.99700149119593 L 373.455497382199 419.94696167514684 L 374.3979057591623 419.99916556954184 L 375.34031413612564 419.94872859128947 L 376.282722513089 419.9981881252528 L 377.22513089005236 419.0831876448956 L 378.16753926701574 419.4473181630289 L 379.10994764397907 417.95005911080534 L 380.0523560209424 417.47508710324183 L 380.9947643979057 419.35743962657983 L 381.9371727748691 420 L 382.8795811518325 419.9993553979949 L 383.8219895287958 419.9995106321669 L 384.76439790575915 419.9986040808672 L 385.7068062827225 419.93770005892685 L 386.64921465968587 417.56943913923385 L 387.5916230366492 417.9046049293154 L 388.5340314136126 419.9997110918021 L 389.4764397905759 419.9999909868244 L 390.41884816753924 418.6548209039275 L 391.3612565445026 417.9228466287427 L 392.30366492146595 419.99897153349383 L 393.24607329842934 419.99617025429643 L 394.18848167539267 419.97561889254416 L 395.130890052356 419.99956954986993 L 396.0732984293194 419.99923913776365 L 397.0157068062827 419.39829714631884 L 397.9581151832461 419.16991018518013 L 398.9005235602094 419.2705990946028 L 399.84293193717275 419.7916494835892 L 400.78534031413614 418.0227622892633 L 401.72774869109946 419.9988282203062 L 402.67015706806285 419.9997412214227 L 403.6125654450262 419.8082064780235 L 404.5549738219895 418.01647935929105 L 405.4973821989529 419.8205426867495 L 406.4397905759162 419.9995222040007 L 407.3821989528796 419.99902882047763 L 408.32460732984293 420 L 409.2670157068063 419.999488823525 L 410.2094240837696 418.74986582291933 L 411.151832460733 414.84584812411606 L 412.09424083769636 419.809828151348 L 413.0366492146597 418.14768464780815 L 413.9790575916231 419.8598925262197 L 414.92146596858635 419.999243407601 L 415.86387434554973 419.99005215537323 L 416.80628272251306 419.99881244958857 L 417.74869109947645 419.9998033268919 L 418.69109947643983 419.9996142402384 L 419.6335078534031 419.99942223185104 L 420.5759162303665 418.91016004891304 L 421.5183246073298 420 L 422.4607329842932 419.99989620042174 L 423.4031413612566 419.2965218199187 L 424.3455497382199 419.842873024112 L 425.28795811518324 419.9048936979872 L 426.2303664921466 419.9649906524023 L 427.17277486910996 419.9732101572948 L 428.1151832460733 420 L 429.05759162303667 419.9996195162532 L 430 419.4507852192354 L 430.94240837696333 419.99955838338394 L 431.8848167539267 418.4260795076344 L 432.82722513089004 419.97183671021975 L 433.7696335078534 419.99905281531346 L 434.71204188481676 419.9991220742799 L 435.6544502617801 420 L 436.59685863874347 419.99691750834415 L 437.5392670157068 419.98464512193084 L 438.4816753926702 419.99927875858214 L 439.4240837696335 419.9970158634867 L 440.36649214659684 419.9994463588434 L 441.3089005235602 420 L 442.25130890052355 419.99727405879946 L 443.19371727748694 419.1962538774188 L 444.13612565445027 419.5942795073069 L 445.0785340314136 419.9983025974338 L 446.0209424083769 419.99832862081513 L 446.9633507853403 419.54420760056485 L 447.9057591623037 419.9995514163805 L 448.848167539267 419.99973198664867 L 449.79057591623035 419.9953228616997 L 450.7329842931937 419.99826922787787 L 451.67539267015707 419.46819886368314 L 452.61780104712045 417.73422243009753 L 453.5602094240838 419.99977342356084 L 454.5026178010471 419.99988671178045 L 455.44502617801044 419.99991294259655 L 456.3874345549738 419.99960712163767 L 457.32984293193715 419.9125732850321 L 458.27225130890054 419.98545790773386 L 459.2146596858639 419.99804870388135 L 460.1570680628272 418.3108614078324 L 461.0994764397906 419.99761161154413 L 462.0418848167539 419.9986317808138 L 462.9842931937173 419.9973229801986 L 463.9267015706806 419.9981398286314 L 464.86910994764395 419.99900169976024 L 465.81151832460733 419.91848075465464 L 466.75392670157066 419.9990666305093 L 467.69633507853405 419.99781564169024 L 468.6387434554974 419.99999546847124 L 469.58115183246076 419.96305431024047 L 470.5235602094241 419.9999984953457 L 471.4659685863874 419.99849580859666 L 472.4083769633508 419.99649729128737 L 473.35078534031413 419.9990149210121 L 474.2931937172775 419.99822477063225 L 475.2356020942408 420 L 476.1780104712042 419.9651080028767 L 477.12041884816756 420 L 478.0628272251309 419.92884665485144 L 479.0052356020943 419.9659999407218 L 479.9476439790576 419.89716933016996 L 480.89005235602093 419.99908600865115 L 481.8324607329843 419.9997524613744 L 482.77486910994764 419.9993825578849 L 483.71727748691103 419.99972723201 L 484.65968586387436 419.99370922312403 L 485.6020942408377 419.7820175983809 L 486.544502617801 419.924566326059 L 487.4869109947644 419.9677850263433 L 488.4293193717278 420 L 489.3717277486911 419.78844293800125 L 490.31413612565444 419.9615807817406 L 491.25654450261777 419.9972160607409 L 492.19895287958116 419.04329414539137 L 493.1413612565445 419.98077825607197 L 494.08376963350787 419.9969306224027 L 495.0261780104712 419.9975805158311 L 495.9685863874345 419.9971630376517 L 496.9109947643979 419.9955622726537 L 497.85340314136124 419.9970535451252 L 498.7958115183246 419.99589418569553 L 499.73821989528795 419.8236513686149 L 500.6806282722513 419.99812274769255 L 501.62303664921467 419.9983447208682 L 502.565445026178 419.9977714846705 L 503.5078534031414 419.9999049339152 L 504.4502617801047 420 L 505.39267015706804 419.99594514853516 L 506.3350785340314 419.9999420382992 L 507.27748691099475 419.9982199354096 L 508.21989528795814 419.99997880377504 L 509.16230366492147 419.99843938469894 L 510.1047120418848 419.968708137235 L 511.0471204188481 419.9972511825924 L 511.9895287958115 419.99653561743645 L 512.931937172775 419.93885590733714 L 513.8743455497382 419.9982336548082 L 514.8167539267016 419.99897215101913 L 515.7591623036649 419.9996757628967 L 516.7015706806283 419.88716531140767 L 517.6439790575917 419.94830965039415 L 518.586387434555 419.9994479549506 L 519.5287958115184 419.9779697730828 L 520.4712041884817 419.9997454354593 L 521.413612565445 419.9998550172495 L 522.3560209424083 419.9575629656004 L 523.2984293193717 419.9969162673911 L 524.2408376963351 419.99541502251276 L 525.1832460732984 419.99910142648395 L 526.1256544502617 420 L 527.0680628272252 419.99727509365914 L 528.0104712041884 419.99167769247407 L 528.9528795811518 419.98969805256417 L 529.8952879581152 419.9993128560195 L 530.8376963350786 411.3025543258549 L 531.7801047120419 419.99633255437726 L 532.7225130890051 419.99343285641913 L 533.6649214659686 420 L 534.6073298429319 419.99928765925296 L 535.5497382198953 419.9915868428205 L 536.4921465968587 419.99735688385465 L 537.4345549738221 419.88309860731994 L 538.3769633507853 419.9980642122833 L 539.3193717277486 419.968671374631 L 540.261780104712 419.99821269298144 L 541.2041884816754 419.94664058568446 L 542.1465968586388 419.93680079079047 L 543.0890052356021 419.94569427033537 L 544.0314136125655 418.89129609341643 L 544.9738219895288 419.9652494632378 L 545.9162303664921 419.81269732039976 L 546.8586387434555 419.98398723889335 L 547.8010471204188 419.99411526737356 L 548.7434554973822 417.54391676051137 L 549.6858638743456 419.881104037814 L 550.6282722513089 419.9351079594744 L 551.5706806282722 419.9845438426557 L 552.5130890052357 419.9124567517809 L 553.4554973821989 419.97405561826815 L 554.3979057591623 419.98817765035665 L 555.3403141361257 419.94420682614043 L 556.2827225130891 419.9260600197832 L 557.2251308900524 419.9662915520697 L 558.1675392670156 419.93580158747693 L 559.1099476439791 419.98294919699487 L 560.0523560209424 419.99584511107514 L 560.9947643979058 419.99713461058235 L 561.937172774869 419.9753850537436 L 562.8795811518326 419.9356056819237 L 563.8219895287958 419.96120084184554 L 564.7643979057591 419.8931109178716 L 565.7068062827225 419.67853453476783 L 566.6492146596859 419.8819232225623 L 567.5916230366493 419.9856125386823 L 568.5340314136125 419.7020089798955 L 569.476439790576 419.94729857408515 L 570.4188481675392 419.92702188017006 L 571.3612565445026 419.9837745805792 L 572.303664921466 419.97071788957135 L 573.2460732984293 419.98660877649195 L 574.1884816753927 419.9963952183457 L 575.130890052356 419.8335835181603 L 576.0732984293194 419.8967968886699 L 577.0157068062827 419.8937459405619 L 577.958115183246 419.95848534070154 L 578.9005235602094 419.862007091637 L 579.8429319371728 419.9379727289568 L 580.7853403141361 419.959488346271 L 581.7277486910994 419.5217460367194 L 582.6701570680628 419.52075043143407 L 583.6125654450261 419.2625445348313 L 584.5549738219895 419.9745474855959 L 585.4973821989529 419.98760647315726 L 586.4397905759163 419.9612683066238 L 587.3821989528795 419.99462133809453 L 588.3246073298429 419.99706666274614 L 589.2670157068063 419.0804495522608 L 590.2094240837696 419.98625683385046 L 591.151832460733 419.8681549603799 L 592.0942408376964 419.9389666465882 L 593.0366492146596 419.9912847857577 L 593.979057591623 419.99772581321173 L 594.9214659685864 419.98923533251445 L 595.8638743455498 419.9807626444308 L 596.8062827225131 419.97006549157305 L 597.7486910994764 419.98546665577373 L 598.6910994764398 419.85005418053566 L 599.6335078534031 419.9797711323914 L 600.5759162303665 419.96656781448735 L 601.5183246073299 419.86657328838174 L 602.4607329842933 419.995333394328 L 603.4031413612565 419.44355548717067 L 604.3455497382198 419.35173491859325 L 605.2879581151833 419.9641037033364 L 606.2303664921466 419.90693383769684 L 607.17277486911 419.933953630873 L 608.1151832460733 419.9500968261295 L 609.0575916230366 418.6766593128456 L 610 416.5942022403116 L 610.9424083769633 419.95820085746846 L 611.8848167539268 419.99289388386444 L 612.82722513089 419.99029604637053 L 613.7696335078533 419.9882343149107 L 614.7120418848168 413.8941237157404 L 615.6544502617801 413.8010917087089 L 616.5968586387435 419.96619977990133 L 617.5392670157069 414.8399513513719 L 618.4816753926701 413.1439267485206 L 619.4240837696335 419.9883206572572 L 620.3664921465968 419.99466359568146 L 621.3089005235603 419.95118109643295 L 622.2513089005236 419.9842692482238 L 623.1937172774869 412.9846857196199 L 624.1361256544503 419.9896086338361 L 625.0785340314136 419.8795106950601 L 626.020942408377 419.9908266879589 L 626.9633507853403 419.99668776377484 L 627.9057591623036 414.29466401927533 L 628.848167539267 404.3390353633488 L 629.7905759162303 407.4750401913891 L 630.7329842931938 409.5195800181714 L 631.6753926701571 419.8218724573107 L 632.6178010471205 419.9780877364071 L 633.5602094240837 419.9888484719141 L 634.5026178010471 419.94779203770076 L 635.4450261780105 419.89155606545944 L 636.3874345549738 419.986717639227 L 637.3298429319373 419.97817109573964 L 638.2722513089005 419.96733543766106 L 639.2146596858638 419.9729636677519 L 640.1570680628272 419.9933879946988 L 641.0994764397906 419.93986588978714 L 642.041884816754 419.82798895330313 L 642.9842931937172 419.9384247252081 L 643.9267015706806 419.8573760251946 L 644.869109947644 419.98122269783033 L 645.8115183246073 419.94191407991366 L 646.7539267015708 419.99940920449365 L 647.696335078534 419.50230447586057 L 648.6387434554973 415.85797812048804 L 649.5811518324607 415.39120599491986 L 650.5235602094241 413.90991588758845 L 651.4659685863875 415.2935977663672 L 652.4083769633507 419.96854251606067 L 653.3507853403141 419.9748769144371 L 654.2931937172775 419.99178150722156 L 655.2356020942408 416.3221948433424 L 656.1780104712042 413.28819761483993 L 657.1204188481676 405.17792454887064 L 658.062827225131 408.1506193114608 L 659.0052356020942 419.98983633427247 L 659.9476439790576 419.9965648389256 L 660.890052356021 404.47792202219676 L 661.8324607329843 410.50745971019177 L 662.7748691099476 416.26080460499566 L 663.717277486911 411.4925997254066 L 664.6596858638743 406.82444388057445 L 665.6020942408377 419.9712682423662 L 666.5445026178011 419.99663180936454 L 667.4869109947645 404.222940103752 L 668.4293193717277 412.044654202052 L 669.371727748691 410.43632093377704 L 670.3141361256545 413.6476053744866 L 671.2565445026178 405.7802215016216 L 672.1989528795812 419.9618417900259 L 673.1413612565445 419.9633962357828 L 674.0837696335078 419.95067207183547 L 675.0261780104712 341.01333175960286 L 675.9685863874346 369.8113001238113 L 676.910994764398 395.72697148770857 L 677.8534031413612 379.1012390328181 L 678.7958115183246 415.8581291861961 L 679.738219895288 419.9598862133674 L 680.6806282722513 419.9737287800384 L 681.6230366492147 376.7470186734637 L 682.565445026178 369.52801100268437 L 683.5078534031413 373.9694034005478 L 684.4502617801047 342.71443164791697 L 685.392670157068 419.77013366159446 L 686.3350785340315 419.99305194517353 L 687.2774869109948 352.64138358825323 L 688.2198952879581 366.9097013916911 L 689.1623036649215 377.8318631627104 L 690.1047120418848 403.4429939631947 L 691.0471204188482 387.7075074188106 L 691.9895287958115 419.9794339945082 L 692.931937172775 419.9795398575989 L 693.8743455497382 338.1750636052967 L 694.8167539267015 372.41640148804925 L 695.759162303665 351.41734829906613 L 696.7015706806283 357.6255739622386 L 697.6439790575917 375.3005457943749 L 698.5863874345549 419.9432116128585 L 699.5287958115183 419.98022777490974 L 700.4712041884817 296.6182214968982 L 701.413612565445 290.0210612196198 L 702.3560209424085 328.939984153739 L 703.2984293193717 323.4297580716859 L 704.240837696335 284.7731247677147 L 705.1832460732984 412.36537016679404 L 706.1256544502618 419.43125901466954 L 707.0680628272252 267.7410846618971 L 708.0104712041884 264.77111595316023 L 708.9528795811518 326.58921932358777 L 709.8952879581152 279.0304791665068 L 710.8376963350785 311.0778082844016 L 711.780104712042 418.1649675103396 L 712.7225130890052 419.97614052536795 L 713.6649214659686 297.6194564990393 L 714.6073298429319 312.92818059969807 L 715.5497382198953 321.12803447876945 L 716.4921465968587 419.9429296995017 L 717.434554973822 284.72847130533694 L 718.3769633507853 417.4826384300813 L 719.3193717277487 419.2203259382202 L 720.261780104712 313.7881809964074 L 721.2041884816754 216.39170481572202 L 722.1465968586388 307.69406661358727 L 723.0890052356021 233.84988975791882 L 724.0314136125654 221.3872375313779 L 724.9738219895288 419.3848755759463 L 725.9162303664922 419.29582687217084 L 726.8586387434555 419.54922424387314 L 727.8010471204188 167.9826650786186 L 728.7434554973822 244.03958903850304 L 729.6858638743455 257.81721676808445 L 730.6282722513089 359.85015520425117 L 731.5706806282723 419.37186647007326 L 732.5130890052357 419.99179087896744 L 733.4554973821989 304.42295739431904 L 734.3979057591622 281.60842184196724 L 735.3403141361257 211.9572445208698 L 736.282722513089 415.67665981591574 L 737.2251308900524 272.3234200447713 L 738.1675392670157 419.54461679255115 L 739.109947643979 419.98523145992607 L 740.0523560209424 396.21317444143483 L 740.9947643979058 299.63579928124966 L 741.9371727748692 276.63593265511867 L 742.8795811518324 338.59435411914507 L 743.8219895287958 378.4817075655643 L 744.7643979057592 419.9314858582539 L 745.7068062827225 419.9709705770244 L 746.6492146596859 356.15242823294074 L 747.5916230366493 349.0236054067164 L 748.5340314136126 357.45473372558064 L 749.4764397905759 347.08986823783846 L 750.4188481675392 308.9661882241724 L 751.3612565445027 419.9916304667371 L 752.303664921466 419.9908767065068 L 753.2460732984293 286.10252444923844 L 754.1884816753927 339.9530117353663 L 755.130890052356 295.5623885031225 L 756.0732984293194 195.87696512662583 L 757.0157068062827 168.86153371168948 L 757.9581151832462 419.87661031093484 L 758.9005235602094 419.57214621558995 L 759.8429319371727 265.66876094317524 L 760.7853403141362 308.77047676068725 L 761.7277486910995 287.484395257483 L 762.6701570680628 317.49214205017995 L 763.6125654450261 324.1664110576577 L 764.5549738219895 419.9216746960534 L 765.4973821989529 411.8401441425113 L 766.4397905759162 245.06772871610963 L 767.3821989528797 297.8445407853969 L 768.3246073298429 366.244879038995 L 769.2670157068062 345.08614714824785 L 770.2094240837697 363.4431215740459 L 771.151832460733 413.631524321034 L 772.0942408376964 419.9872312214784 L 773.0366492146596 304.3919619289692 L 773.979057591623 276.29916988181714 L 774.9214659685864 219.46036780735741 L 775.8638743455497 273.55085749916157 L 776.8062827225132 249.64700739024283 L 777.7486910994764 415.61594725116584 L 778.6910994764398 419.9743337340931 L 779.6335078534031 405.2008148420667 L 780.5759162303665 263.5958883954018 L 781.5183246073299 319.86220264807775 L 782.4607329842931 336.337881508652 L 783.4031413612566 333.4929938895696 L 784.3455497382199 419.9701741832429 L 785.2879581151832 419.8855443001338 L 786.2303664921466 349.1013848387881 L 787.17277486911 224.55953491427815 L 788.1151832460733 303.6196376189301 L 789.0575916230366 345.1431811298511 L 790 373.33051345317847 L 790.9424083769634 419.9890730510055 L 791.8848167539267 419.9119672538067 L 792.82722513089 305.6225964182195 L 793.7696335078534 289.3554013505925 L 794.7120418848167 303.56085982707395 L 795.6544502617801 315.9530573912549 L 796.5968586387435 289.2929855566693 L 797.5392670157069 415.7923707255194 L 798.4816753926701 419.07601545680876 L 799.4240837696335 415.49894623904527 L 800.3664921465969 268.7548812856695 L 801.3089005235602 299.6142538757539 L 802.2513089005236 284.5576414010867 L 803.1937172774869 273.07742819042505 L 804.1361256544502 409.26842765035923 L 805.0785340314136 415.6870274766383 L 806.020942408377 248.85591871070383 L 806.9633507853404 227.37401411814463 L 807.9057591623036 249.6649764972599 L 808.848167539267 235.24571564788286 L 809.7905759162304 273.64506611810316 L 810.7329842931937 413.8425331481517 L 811.6753926701571 419.4006603919655 L 812.6178010471205 419.7160757159696 L 813.5602094240838 287.61149029182866 L 814.5026178010471 293.7344478922291 L 815.4450261780104 225.13782168548542 L 816.3874345549739 188.93905757359352 L 817.3298429319372 419.92760430374386 L 818.2722513089005 418.59125882654223 L 819.2146596858639 70 L 820.1570680628272 222.48760972401013 L 821.0994764397906 342.88261374629275 L 822.0418848167538 370.3354317098692 L 822.9842931937173 346.0777140041174 L 823.9267015706806 419.8272359342874 L 824.8691099476439 419.96857090516374 L 825.8115183246074 306.55089187903747 L 826.7539267015707 333.66641880578 L 827.696335078534 377.845815139035 L 828.6387434554973 399.07696994899834 L 829.5811518324607 382.3863696621224 L 830.5235602094241 419.89268141356655 L 831.4659685863874 419.9792403342731 L 832.4083769633509 419.4537056621878 L 833.3507853403141 319.99730977325265 L 834.2931937172775 345.43565098315435 L 835.2356020942409 388.46734621073045 L 836.1780104712042 397.19306335893936 L 837.1204188481676 419.5728999376626 L 838.0628272251308 419.965781275117 L 839.0052356020942 370.8701246542803 L 839.9476439790576 397.0385031576464 L 840.8900523560209 390.67657711558127 L 841.8324607329844 367.04059249569616 L 842.7748691099476 406.3725230670318 L 843.717277486911 419.83905522516477 L 844.6596858638743 419.9872672636372 L 845.6020942408377 402.8097177224832 L 846.5445026178011 403.3652247165714 L 847.4869109947643 409.38136590899285 L 848.4293193717278 419.7119222279918 L 849.3717277486911 404.86226480996567 L 850.3141361256544 419.9301477338309 L 851.2565445026178 419.9528445037924 L 852.1989528795812 404.1255004672267 L 853.1413612565445 396.3473361228229 L 854.0837696335078 418.33858832152185 L 855.0261780104712 419.95823683914386 L 855.9685863874346 404.52292170980195 L 856.9109947643979 419.9885943188196 L 857.8534031413612 419.9887857425168 L 858.7958115183246 408.4882347731682 L 859.7382198952879 394.65195569879796 L 860.6806282722513 405.3714731059061 L 861.6230366492147 400.74962841669554 L 862.565445026178 412.7364765690055 L 863.5078534031413 419.78766691414415 L 864.4502617801047 419.9907960268914 L 865.3926701570681 419.9722195221362 L 866.3350785340314 391.3776326005157 L 867.2774869109948 417.4227173487758 L 868.2198952879581 407.50793260721855 L 869.1623036649215 404.91861449264553 L 870.1047120418848 419.9698121332764 L 871.0471204188482 419.9590616205846 L 871.9895287958116 411.33654964857516 L 872.9319371727748 404.2931358059766 L 873.8743455497382 393.81075643390614 L 874.8167539267016 396.5683402013204 L 875.7591623036649 392.1007757125375 L 876.7015706806283 418.2827754091659 L 877.6439790575917 419.9957854971916 L 878.586387434555 296.49579572890207 L 879.5287958115183 307.3378993875492 L 880.4712041884816 327.6369254381487 L 881.4136125654451 343.86351298802003 L 882.3560209424083 336.8868382966397 L 883.2984293193717 419.99005414989125 L 884.2408376963351 419.9810956918114 L 885.1832460732984 375.95571182580306 L 886.1256544502618 365.14450933235827 L 887.068062827225 332.42840748016476 L 888.0104712041885 329.77533389451185 L 888.9528795811518 401.0780687193208 L 889.8952879581152 419.874826626995 L 890.8376963350786 419.9689291305313 L 891.7801047120419 349.7735557043724 L 892.7225130890052 398.5482422103406 L 893.6649214659686 408.29407864769973 L 894.6073298429319 419.0449215736479 L 895.5497382198953 419.5304223138527 L 896.4921465968586 419.98114714408433 L 897.4345549738221 419.9878185608419 L 898.3769633507853 413.37847191490334 L 899.3193717277487 412.0800274727861 L 900.2617801047121 405.25790059751614 L 901.2041884816754 410.12070251269864 L 902.1465968586388 405.0576216265662 L 903.089005235602 419.64829663394283 L 904.0314136125655 419.9967705349584 L 904.9738219895288 396.34525215402454 L 905.9162303664921 396.59302174422896 L 906.8586387434556 400.70315588283415 L 907.8010471204188 355.85920343824546 L 908.7434554973822 392.4704468146361 L 909.6858638743455 419.72244005070695 L 910.6282722513089 419.95578337329624 L 911.5706806282723 365.2765261242918 L 912.5130890052355 360.70595609998895 L 913.455497382199 399.76190427491787 L 914.3979057591623 384.4394159718063 L 915.3403141361256 390.8991167262029 L 916.282722513089 419.76626545186065 L 917.2251308900524 419.9982532836595 L 918.1675392670157 398.26878674484294 L 919.109947643979 412.62751103724264 L 920.0523560209424 408.11512785485377 L 920.9947643979058 392.0690474195209 L 921.937172774869 393.60515213438754 L 922.8795811518324 419.94583462714064 L 923.8219895287958 419.97858438780247 L 924.7643979057592 387.788306302835 L 925.7068062827225 383.01151925175844 L 926.6492146596859 399.0127298443535 L 927.5916230366493 402.10946754666077 L 928.5340314136125 396.94764550401516 L 929.4764397905759 419.9749043935996 L 930.4188481675393 419.9998578143641 L 931.3612565445026 419.992275359306 L 932.303664921466 400.56696114308295 L 933.2460732984293 409.2011402707313 L 934.1884816753927 398.7814704757935 L 935.130890052356 406.91884383664734 L 936.0732984293194 419.9999750611777 L 937.0157068062828 419.9938329991132 L 937.958115183246 380.58362096122625 L 938.9005235602094 390.8449509740834 L 939.8429319371728 394.66977413622027 L 940.7853403141361 419.99079285667403 L 941.7277486910995 419.9995445751076 L 942.6701570680628 420 L 943.6125654450262 420 L 944.5549738219895 376.66410051425015 L 945.4973821989528 345.179671075316 L 946.4397905759163 395.5596620898612 L 947.3821989528795 384.8461098528619 L 948.3246073298429 392.03653317943053 L 949.2670157068063 419.74497579782303 L 950.2094240837696 419.99962490761993 L 951.151832460733 407.78213356450306 L 952.0942408376962 402.1899920682939 L 953.0366492146597 367.2584421351191 L 953.979057591623 400.2714782299287 L 954.9214659685864 402.368957968676 L 955.8638743455498 419.9941820304175 L 956.8062827225131 416.89726232795374 L 957.7486910994764 390.5255529150772 L 958.6910994764398 389.7770851613447 L 959.6335078534032 377.96873886918735 L 960.5759162303665 399.45835606063554 L 961.5183246073298 381.30822778206766 L 962.4607329842933 419.42415270347976 L 963.4031413612565 419.64235820682677 L 964.3455497382199 284.0811011216956 L 965.2879581151833 337.51784558196715 L 966.2303664921466 338.09581615573643 L 967.17277486911 358.3973670077769 L 968.1151832460732 417.3480478060055 L 969.0575916230367 412.3579025287017 L 970 419.7812045080709 L 970 420 Z" fill="#3fb950" fill-opacity="0.18"/><path d="M 70 419.9786196404617 L 70.94240837696336 419.999724650937 L 71.8848167539267 419.9999660135341 L 72.82722513089006 419.99999644776545 L 73.7696335078534 420 L 74.71204188481676 420 L 75.6544502617801 420 L 76.59685863874346 420 L 77.53926701570681 420 L 78.48167539267016 420 L 79.42408376963351 420 L 80.36649214659685 420 L 81.30890052356021 420 L 82.25130890052355 420 L 83.19371727748691 420 L 84.13612565445027 419.9999967810512 L 85.07853403141361 420 L 86.02094240837697 420 L 86.96335078534031 420 L 87.90575916230367 420 L 88.84816753926702 420 L 89.79057591623037 420 L 90.73298429319371 420 L 91.67539267015707 420 L 92.61780104712042 420 L 93.56020942408377 420 L 94.50261780104712 419.9530576848863 L 95.44502617801047 419.99999320270683 L 96.38743455497382 420 L 97.32984293193718 420 L 98.27225130890052 420 L 99.21465968586388 420 L 100.15706806282722 420 L 101.09947643979058 420 L 102.04188481675394 419.99999320270683 L 102.98429319371728 419.9999692105547 L 103.92670157068062 420 L 104.86910994764398 420 L 105.81151832460733 420 L 106.75392670157069 420 L 107.69633507853403 419.5468471216972 L 108.63874345549738 420 L 109.58115183246073 420 L 110.52356020942409 420 L 111.46596858638743 420 L 112.40837696335079 420 L 113.35078534031413 420 L 114.29319371727749 419.5468471216972 L 115.23560209424085 419.5468471216972 L 116.17801047120419 420 L 117.12041884816753 419.99530576667604 L 118.06282722513089 420 L 119.00523560209425 420 L 119.9476439790576 420 L 120.89005235602095 420 L 121.83246073298429 418.9124330920734 L 122.77486910994764 420 L 123.717277486911 420 L 124.65968586387434 420 L 125.6020942408377 420 L 126.54450261780104 420 L 127.4869109947644 420 L 128.42931937172776 418.1420731989587 L 129.37172774869111 420 L 130.31413612565444 419.18432481905506 L 131.2565445026178 419.8867117804243 L 132.19895287958116 420 L 133.14136125654449 420 L 134.08376963350787 419.9999773423561 L 135.0261780104712 420 L 135.96858638743456 420 L 136.9109947643979 420 L 137.85340314136124 420 L 138.7958115183246 420 L 139.73821989528795 419.999988671178 L 140.6806282722513 420 L 141.62303664921467 420 L 142.565445026178 420 L 143.50785340314138 420 L 144.4502617801047 420 L 145.39267015706807 420 L 146.33507853403142 420 L 147.27748691099475 420 L 148.21989528795814 420 L 149.16230366492147 420 L 150.1047120418848 420 L 151.04712041884818 420 L 151.9895287958115 420 L 152.93193717277487 420 L 153.87434554973822 420 L 154.81675392670158 420 L 155.75916230366494 420 L 156.70157068062827 420 L 157.64397905759162 420 L 158.58638743455498 420 L 159.5287958115183 420 L 160.4712041884817 420 L 161.41361256544502 419.9999773423561 L 162.35602094240838 420 L 163.29842931937173 420 L 164.24083769633506 420 L 165.18324607329842 420 L 166.12565445026178 420 L 167.06806282722513 420 L 168.0104712041885 420 L 168.95287958115182 420 L 169.8952879581152 420 L 170.83769633507853 420 L 171.7801047120419 420 L 172.72251308900525 420 L 173.66492146596858 420 L 174.60732984293196 420 L 175.5497382198953 420 L 176.49214659685862 420 L 177.434554973822 420 L 178.37696335078533 420 L 179.3193717277487 420 L 180.26178010471205 420 L 181.2041884816754 420 L 182.14659685863876 420 L 183.0890052356021 420 L 184.03141361256542 420 L 184.9738219895288 420 L 185.91623036649216 420 L 186.85863874345551 420 L 187.80104712041884 420 L 188.7434554973822 420 L 189.68586387434556 420 L 190.6282722513089 420 L 191.57068062827227 420 L 192.5130890052356 419.9977328761498 L 193.45549738219896 419.99960239991594 L 194.3979057591623 419.9995091648819 L 195.34031413612564 419.9913626418155 L 196.282722513089 420 L 197.22513089005236 420 L 198.1675392670157 420 L 199.10994764397907 419.90936942433945 L 200.0523560209424 420 L 200.99476439790575 419.999991310938 L 201.9371727748691 419.8867117804243 L 202.87958115183247 419.77342356084864 L 203.82198952879583 420 L 204.76439790575915 420 L 205.7068062827225 419.8867117804243 L 206.64921465968587 420 L 207.5916230366492 419.9999999992371 L 208.53403141361258 419.9999913452135 L 209.4764397905759 420 L 210.41884816753927 420 L 211.36125654450262 420 L 212.30366492146595 420 L 213.2460732984293 420 L 214.1884816753927 419.9999546847122 L 215.13089005235602 420 L 216.07329842931938 420 L 217.01570680628274 420 L 217.95811518324606 420 L 218.90052356020942 420 L 219.84293193717275 420 L 220.78534031413614 420 L 221.7277486910995 419.9999830067671 L 222.67015706806282 419.95468471216975 L 223.61256544502618 420 L 224.55497382198953 420 L 225.49738219895286 420 L 226.43979057591625 420 L 227.38219895287958 420 L 228.32460732984293 419.9999501787697 L 229.2670157068063 419.9999808570035 L 230.20942408376962 420 L 231.15183246073298 420 L 232.09424083769633 420 L 233.0366492146597 419.59216240952753 L 233.97905759162305 419.7805023262836 L 234.92146596858638 419.9999286136708 L 235.86387434554973 419.9999826191407 L 236.8062827225131 420 L 237.74869109947645 420 L 238.6910994764398 419.15346882180427 L 239.63350785340316 420 L 240.5759162303665 420 L 241.51832460732984 420 L 242.46073298429317 420 L 243.40314136125653 420 L 244.34554973821992 420 L 245.28795811518324 420 L 246.2303664921466 420 L 247.17277486910996 420 L 248.1151832460733 419.1541833480505 L 249.05759162303664 420 L 250 420 L 250.94240837696336 420 L 251.8848167539267 419.999968651983 L 252.82722513089004 420 L 253.7696335078534 419.95468471216975 L 254.71204188481676 420 L 255.6544502617801 420 L 256.59685863874347 420 L 257.5392670157068 420 L 258.4816753926701 420 L 259.4240837696335 420 L 260.36649214659684 420 L 261.3089005235602 420 L 262.25130890052355 419.99999771712413 L 263.19371727748694 420 L 264.13612565445027 420 L 265.0785340314136 419.9999909369424 L 266.020942408377 420 L 266.9633507853403 419.9997390578264 L 267.90575916230364 419.97759369561186 L 268.848167539267 419.9999977342356 L 269.7905759162304 419.9999919307153 L 270.7329842931937 420 L 271.67539267015707 419.8184228719742 L 272.6178010471204 419.9999988671178 L 273.5602094240838 419.9996857938995 L 274.5026178010471 419.99987538295846 L 275.4450261780105 419.8143788980193 L 276.3874345549738 420 L 277.32984293193715 419.999988671178 L 278.27225130890054 419.9999999773424 L 279.2146596858639 419.3089954674409 L 280.1570680628272 420 L 281.0994764397906 419.5465072570385 L 282.04188481675396 420 L 282.98429319371724 420 L 283.9267015706806 420 L 284.869109947644 419.72810827301834 L 285.81151832460733 417.1098357763212 L 286.75392670157066 419.88256713538544 L 287.69633507853405 419.9998187512021 L 288.6387434554974 418.2580445140692 L 289.5811518324607 420 L 290.5235602094241 420 L 291.4659685863875 420 L 292.4083769633508 420 L 293.35078534031413 419.99999546847124 L 294.2931937172775 420 L 295.23560209424085 420 L 296.1780104712042 420 L 297.12041884816756 420 L 298.06282722513083 420 L 299.0052356020942 420 L 299.9476439790576 420 L 300.89005235602093 420 L 301.8324607329843 419.9099232188412 L 302.77486910994764 420 L 303.71727748691103 420 L 304.6596858638743 419.99964312784687 L 305.6020942408377 419.9655107043615 L 306.5445026178011 419.985455378507 L 307.4869109947644 419.99969858335254 L 308.42931937172773 419.99997458714125 L 309.3717277486911 420 L 310.31413612565444 420 L 311.2565445026178 420 L 312.19895287958116 419.8050549227539 L 313.14136125654454 419.9992464536294 L 314.0837696335078 419.9999052664199 L 315.0261780104712 419.99988721293323 L 315.9685863874345 420 L 316.9109947643979 420 L 317.85340314136124 419.9836460542759 L 318.7958115183246 419.9997823207206 L 319.738219895288 419.99328439138463 L 320.6806282722513 419.9645147628214 L 321.62303664921467 419.8259594324594 L 322.565445026178 419.94465941822153 L 323.5078534031413 419.9998362298536 L 324.4502617801047 419.99885563387613 L 325.39267015706804 419.6327520765869 L 326.3350785340314 419.83534699583873 L 327.27748691099475 419.9314539458199 L 328.21989528795814 419.9995599696796 L 329.16230366492147 420 L 330.1047120418848 419.9996474564606 L 331.0471204188482 419.99213991341315 L 331.9895287958115 419.09107871912494 L 332.9319371727749 419.99602259434937 L 333.8743455497382 419.9969896238619 L 334.81675392670155 419.95809457358683 L 335.75916230366494 420 L 336.70157068062827 419.9992296717818 L 337.64397905759165 419.9996234237374 L 338.586387434555 419.99963163695804 L 339.5287958115183 419.99503513047614 L 340.47120418848164 419.99839398025864 L 341.413612565445 419.55594466176285 L 342.3560209424084 419.99914374564787 L 343.29842931937173 419.9996110828532 L 344.24083769633506 419.9951599662504 L 345.1832460732984 419.99598550441607 L 346.1256544502618 419.96072837377284 L 347.06806282722516 419.96489207207526 L 348.0104712041885 418.2615066194224 L 348.9528795811518 419.9997684257168 L 349.89528795811515 419.9988700671894 L 350.83769633507853 419.997917054809 L 351.78010471204186 419.99998127768913 L 352.72251308900525 419.99960094049544 L 353.66492146596863 420 L 354.6073298429319 419.99891647992655 L 355.5497382198953 420 L 356.4921465968586 419.99923936915445 L 357.434554973822 419.9996166285421 L 358.3769633507854 419.999638695327 L 359.31937172774866 419.68678626889 L 360.26178010471205 419.9976932798244 L 361.2041884816754 419.99898684200184 L 362.14659685863876 419.9995375290947 L 363.0890052356021 420 L 364.0314136125655 419.96148182297895 L 364.9738219895288 419.987824742091 L 365.91623036649213 419.9987317993319 L 366.8586387434555 419.9907154459626 L 367.80104712041884 419.99862862958537 L 368.74345549738223 419.9985972036526 L 369.6858638743455 419.99871967211214 L 370.6282722513089 419.98152543937346 L 371.57068062827227 419.9976229219363 L 372.5130890052356 419.99700149119593 L 373.455497382199 419.94696167514684 L 374.3979057591623 419.99916556954184 L 375.34031413612564 419.94872859128947 L 376.282722513089 419.9981881252528 L 377.22513089005236 419.0831876448956 L 378.16753926701574 419.4473181630289 L 379.10994764397907 417.95005911080534 L 380.0523560209424 417.47508710324183 L 380.9947643979057 419.35743962657983 L 381.9371727748691 420 L 382.8795811518325 419.9993553979949 L 383.8219895287958 419.9995106321669 L 384.76439790575915 419.9986040808672 L 385.7068062827225 419.93770005892685 L 386.64921465968587 417.56943913923385 L 387.5916230366492 417.9046049293154 L 388.5340314136126 419.9997110918021 L 389.4764397905759 419.9999909868244 L 390.41884816753924 418.6548209039275 L 391.3612565445026 417.9228466287427 L 392.30366492146595 419.99897153349383 L 393.24607329842934 419.99617025429643 L 394.18848167539267 419.97561889254416 L 395.130890052356 419.99956954986993 L 396.0732984293194 419.99923913776365 L 397.0157068062827 419.39829714631884 L 397.9581151832461 419.16991018518013 L 398.9005235602094 419.2705990946028 L 399.84293193717275 419.7916494835892 L 400.78534031413614 418.0227622892633 L 401.72774869109946 419.9988282203062 L 402.67015706806285 419.9997412214227 L 403.6125654450262 419.8082064780235 L 404.5549738219895 418.01647935929105 L 405.4973821989529 419.8205426867495 L 406.4397905759162 419.9995222040007 L 407.3821989528796 419.99902882047763 L 408.32460732984293 420 L 409.2670157068063 419.999488823525 L 410.2094240837696 418.74986582291933 L 411.151832460733 414.84584812411606 L 412.09424083769636 419.809828151348 L 413.0366492146597 418.14768464780815 L 413.9790575916231 419.8598925262197 L 414.92146596858635 419.999243407601 L 415.86387434554973 419.99005215537323 L 416.80628272251306 419.99881244958857 L 417.74869109947645 419.9998033268919 L 418.69109947643983 419.9996142402384 L 419.6335078534031 419.99942223185104 L 420.5759162303665 418.91016004891304 L 421.5183246073298 420 L 422.4607329842932 419.99989620042174 L 423.4031413612566 419.2965218199187 L 424.3455497382199 419.842873024112 L 425.28795811518324 419.9048936979872 L 426.2303664921466 419.9649906524023 L 427.17277486910996 419.9732101572948 L 428.1151832460733 420 L 429.05759162303667 419.9996195162532 L 430 419.4507852192354 L 430.94240837696333 419.99955838338394 L 431.8848167539267 418.4260795076344 L 432.82722513089004 419.97183671021975 L 433.7696335078534 419.99905281531346 L 434.71204188481676 419.9991220742799 L 435.6544502617801 420 L 436.59685863874347 419.99691750834415 L 437.5392670157068 419.98464512193084 L 438.4816753926702 419.99927875858214 L 439.4240837696335 419.9970158634867 L 440.36649214659684 419.9994463588434 L 441.3089005235602 420 L 442.25130890052355 419.99727405879946 L 443.19371727748694 419.1962538774188 L 444.13612565445027 419.5942795073069 L 445.0785340314136 419.9983025974338 L 446.0209424083769 419.99832862081513 L 446.9633507853403 419.54420760056485 L 447.9057591623037 419.9995514163805 L 448.848167539267 419.99973198664867 L 449.79057591623035 419.9953228616997 L 450.7329842931937 419.99826922787787 L 451.67539267015707 419.46819886368314 L 452.61780104712045 417.73422243009753 L 453.5602094240838 419.99977342356084 L 454.5026178010471 419.99988671178045 L 455.44502617801044 419.99991294259655 L 456.3874345549738 419.99960712163767 L 457.32984293193715 419.9125732850321 L 458.27225130890054 419.98545790773386 L 459.2146596858639 419.99804870388135 L 460.1570680628272 418.3108614078324 L 461.0994764397906 419.99761161154413 L 462.0418848167539 419.9986317808138 L 462.9842931937173 419.9973229801986 L 463.9267015706806 419.9981398286314 L 464.86910994764395 419.99900169976024 L 465.81151832460733 419.91848075465464 L 466.75392670157066 419.9990666305093 L 467.69633507853405 419.99781564169024 L 468.6387434554974 419.99999546847124 L 469.58115183246076 419.96305431024047 L 470.5235602094241 419.9999984953457 L 471.4659685863874 419.99849580859666 L 472.4083769633508 419.99649729128737 L 473.35078534031413 419.9990149210121 L 474.2931937172775 419.99822477063225 L 475.2356020942408 420 L 476.1780104712042 419.9651080028767 L 477.12041884816756 420 L 478.0628272251309 419.92884665485144 L 479.0052356020943 419.9659999407218 L 479.9476439790576 419.89716933016996 L 480.89005235602093 419.99908600865115 L 481.8324607329843 419.9997524613744 L 482.77486910994764 419.9993825578849 L 483.71727748691103 419.99972723201 L 484.65968586387436 419.99370922312403 L 485.6020942408377 419.7820175983809 L 486.544502617801 419.924566326059 L 487.4869109947644 419.9677850263433 L 488.4293193717278 420 L 489.3717277486911 419.78844293800125 L 490.31413612565444 419.9615807817406 L 491.25654450261777 419.9972160607409 L 492.19895287958116 419.04329414539137 L 493.1413612565445 419.98077825607197 L 494.08376963350787 419.9969306224027 L 495.0261780104712 419.9975805158311 L 495.9685863874345 419.9971630376517 L 496.9109947643979 419.9955622726537 L 497.85340314136124 419.9970535451252 L 498.7958115183246 419.99589418569553 L 499.73821989528795 419.8236513686149 L 500.6806282722513 419.99812274769255 L 501.62303664921467 419.9983447208682 L 502.565445026178 419.9977714846705 L 503.5078534031414 419.9999049339152 L 504.4502617801047 420 L 505.39267015706804 419.99594514853516 L 506.3350785340314 419.9999420382992 L 507.27748691099475 419.9982199354096 L 508.21989528795814 419.99997880377504 L 509.16230366492147 419.99843938469894 L 510.1047120418848 419.968708137235 L 511.0471204188481 419.9972511825924 L 511.9895287958115 419.99653561743645 L 512.931937172775 419.93885590733714 L 513.8743455497382 419.9982336548082 L 514.8167539267016 419.99897215101913 L 515.7591623036649 419.9996757628967 L 516.7015706806283 419.88716531140767 L 517.6439790575917 419.94830965039415 L 518.586387434555 419.9994479549506 L 519.5287958115184 419.9779697730828 L 520.4712041884817 419.9997454354593 L 521.413612565445 419.9998550172495 L 522.3560209424083 419.9575629656004 L 523.2984293193717 419.9969162673911 L 524.2408376963351 419.99541502251276 L 525.1832460732984 419.99910142648395 L 526.1256544502617 420 L 527.0680628272252 419.99727509365914 L 528.0104712041884 419.99167769247407 L 528.9528795811518 419.98969805256417 L 529.8952879581152 419.9993128560195 L 530.8376963350786 411.3025543258549 L 531.7801047120419 419.99633255437726 L 532.7225130890051 419.99343285641913 L 533.6649214659686 420 L 534.6073298429319 419.99928765925296 L 535.5497382198953 419.9915868428205 L 536.4921465968587 419.99735688385465 L 537.4345549738221 419.88309860731994 L 538.3769633507853 419.9980642122833 L 539.3193717277486 419.968671374631 L 540.261780104712 419.99821269298144 L 541.2041884816754 419.94664058568446 L 542.1465968586388 419.93680079079047 L 543.0890052356021 419.94569427033537 L 544.0314136125655 418.89129609341643 L 544.9738219895288 419.9652494632378 L 545.9162303664921 419.81269732039976 L 546.8586387434555 419.98398723889335 L 547.8010471204188 419.99411526737356 L 548.7434554973822 417.54391676051137 L 549.6858638743456 419.881104037814 L 550.6282722513089 419.9351079594744 L 551.5706806282722 419.9845438426557 L 552.5130890052357 419.9124567517809 L 553.4554973821989 419.97405561826815 L 554.3979057591623 419.98817765035665 L 555.3403141361257 419.94420682614043 L 556.2827225130891 419.9260600197832 L 557.2251308900524 419.9662915520697 L 558.1675392670156 419.93580158747693 L 559.1099476439791 419.98294919699487 L 560.0523560209424 419.99584511107514 L 560.9947643979058 419.99713461058235 L 561.937172774869 419.9753850537436 L 562.8795811518326 419.9356056819237 L 563.8219895287958 419.96120084184554 L 564.7643979057591 419.8931109178716 L 565.7068062827225 419.67853453476783 L 566.6492146596859 419.8819232225623 L 567.5916230366493 419.9856125386823 L 568.5340314136125 419.7020089798955 L 569.476439790576 419.94729857408515 L 570.4188481675392 419.92702188017006 L 571.3612565445026 419.9837745805792 L 572.303664921466 419.97071788957135 L 573.2460732984293 419.98660877649195 L 574.1884816753927 419.9963952183457 L 575.130890052356 419.8335835181603 L 576.0732984293194 419.8967968886699 L 577.0157068062827 419.8937459405619 L 577.958115183246 419.95848534070154 L 578.9005235602094 419.862007091637 L 579.8429319371728 419.9379727289568 L 580.7853403141361 419.959488346271 L 581.7277486910994 419.5217460367194 L 582.6701570680628 419.52075043143407 L 583.6125654450261 419.2625445348313 L 584.5549738219895 419.9745474855959 L 585.4973821989529 419.98760647315726 L 586.4397905759163 419.9612683066238 L 587.3821989528795 419.99462133809453 L 588.3246073298429 419.99706666274614 L 589.2670157068063 419.0804495522608 L 590.2094240837696 419.98625683385046 L 591.151832460733 419.8681549603799 L 592.0942408376964 419.9389666465882 L 593.0366492146596 419.9912847857577 L 593.979057591623 419.99772581321173 L 594.9214659685864 419.98923533251445 L 595.8638743455498 419.9807626444308 L 596.8062827225131 419.97006549157305 L 597.7486910994764 419.98546665577373 L 598.6910994764398 419.85005418053566 L 599.6335078534031 419.9797711323914 L 600.5759162303665 419.96656781448735 L 601.5183246073299 419.86657328838174 L 602.4607329842933 419.995333394328 L 603.4031413612565 419.44355548717067 L 604.3455497382198 419.35173491859325 L 605.2879581151833 419.9641037033364 L 606.2303664921466 419.90693383769684 L 607.17277486911 419.933953630873 L 608.1151832460733 419.9500968261295 L 609.0575916230366 418.6766593128456 L 610 416.5942022403116 L 610.9424083769633 419.95820085746846 L 611.8848167539268 419.99289388386444 L 612.82722513089 419.99029604637053 L 613.7696335078533 419.9882343149107 L 614.7120418848168 413.8941237157404 L 615.6544502617801 413.8010917087089 L 616.5968586387435 419.96619977990133 L 617.5392670157069 414.8399513513719 L 618.4816753926701 413.1439267485206 L 619.4240837696335 419.9883206572572 L 620.3664921465968 419.99466359568146 L 621.3089005235603 419.95118109643295 L 622.2513089005236 419.9842692482238 L 623.1937172774869 412.9846857196199 L 624.1361256544503 419.9896086338361 L 625.0785340314136 419.8795106950601 L 626.020942408377 419.9908266879589 L 626.9633507853403 419.99668776377484 L 627.9057591623036 414.29466401927533 L 628.848167539267 404.3390353633488 L 629.7905759162303 407.4750401913891 L 630.7329842931938 409.5195800181714 L 631.6753926701571 419.8218724573107 L 632.6178010471205 419.9780877364071 L 633.5602094240837 419.9888484719141 L 634.5026178010471 419.94779203770076 L 635.4450261780105 419.89155606545944 L 636.3874345549738 419.986717639227 L 637.3298429319373 419.97817109573964 L 638.2722513089005 419.96733543766106 L 639.2146596858638 419.9729636677519 L 640.1570680628272 419.9933879946988 L 641.0994764397906 419.93986588978714 L 642.041884816754 419.82798895330313 L 642.9842931937172 419.9384247252081 L 643.9267015706806 419.8573760251946 L 644.869109947644 419.98122269783033 L 645.8115183246073 419.94191407991366 L 646.7539267015708 419.99940920449365 L 647.696335078534 419.50230447586057 L 648.6387434554973 415.85797812048804 L 649.5811518324607 415.39120599491986 L 650.5235602094241 413.90991588758845 L 651.4659685863875 415.2935977663672 L 652.4083769633507 419.96854251606067 L 653.3507853403141 419.9748769144371 L 654.2931937172775 419.99178150722156 L 655.2356020942408 416.3221948433424 L 656.1780104712042 413.28819761483993 L 657.1204188481676 405.17792454887064 L 658.062827225131 408.1506193114608 L 659.0052356020942 419.98983633427247 L 659.9476439790576 419.9965648389256 L 660.890052356021 404.47792202219676 L 661.8324607329843 410.50745971019177 L 662.7748691099476 416.26080460499566 L 663.717277486911 411.4925997254066 L 664.6596858638743 406.82444388057445 L 665.6020942408377 419.9712682423662 L 666.5445026178011 419.99663180936454 L 667.4869109947645 404.222940103752 L 668.4293193717277 412.044654202052 L 669.371727748691 410.43632093377704 L 670.3141361256545 413.6476053744866 L 671.2565445026178 405.7802215016216 L 672.1989528795812 419.9618417900259 L 673.1413612565445 419.9633962357828 L 674.0837696335078 419.95067207183547 L 675.0261780104712 341.01333175960286 L 675.9685863874346 369.8113001238113 L 676.910994764398 395.72697148770857 L 677.8534031413612 379.1012390328181 L 678.7958115183246 415.8581291861961 L 679.738219895288 419.9598862133674 L 680.6806282722513 419.9737287800384 L 681.6230366492147 376.7470186734637 L 682.565445026178 369.52801100268437 L 683.5078534031413 373.9694034005478 L 684.4502617801047 342.71443164791697 L 685.392670157068 419.77013366159446 L 686.3350785340315 419.99305194517353 L 687.2774869109948 352.64138358825323 L 688.2198952879581 366.9097013916911 L 689.1623036649215 377.8318631627104 L 690.1047120418848 403.4429939631947 L 691.0471204188482 387.7075074188106 L 691.9895287958115 419.9794339945082 L 692.931937172775 419.9795398575989 L 693.8743455497382 338.1750636052967 L 694.8167539267015 372.41640148804925 L 695.759162303665 351.41734829906613 L 696.7015706806283 357.6255739622386 L 697.6439790575917 375.3005457943749 L 698.5863874345549 419.9432116128585 L 699.5287958115183 419.98022777490974 L 700.4712041884817 296.6182214968982 L 701.413612565445 290.0210612196198 L 702.3560209424085 328.939984153739 L 703.2984293193717 323.4297580716859 L 704.240837696335 284.7731247677147 L 705.1832460732984 412.36537016679404 L 706.1256544502618 419.43125901466954 L 707.0680628272252 267.7410846618971 L 708.0104712041884 264.77111595316023 L 708.9528795811518 326.58921932358777 L 709.8952879581152 279.0304791665068 L 710.8376963350785 311.0778082844016 L 711.780104712042 418.1649675103396 L 712.7225130890052 419.97614052536795 L 713.6649214659686 297.6194564990393 L 714.6073298429319 312.92818059969807 L 715.5497382198953 321.12803447876945 L 716.4921465968587 419.9429296995017 L 717.434554973822 284.72847130533694 L 718.3769633507853 417.4826384300813 L 719.3193717277487 419.2203259382202 L 720.261780104712 313.7881809964074 L 721.2041884816754 216.39170481572202 L 722.1465968586388 307.69406661358727 L 723.0890052356021 233.84988975791882 L 724.0314136125654 221.3872375313779 L 724.9738219895288 419.3848755759463 L 725.9162303664922 419.29582687217084 L 726.8586387434555 419.54922424387314 L 727.8010471204188 167.9826650786186 L 728.7434554973822 244.03958903850304 L 729.6858638743455 257.81721676808445 L 730.6282722513089 359.85015520425117 L 731.5706806282723 419.37186647007326 L 732.5130890052357 419.99179087896744 L 733.4554973821989 304.42295739431904 L 734.3979057591622 281.60842184196724 L 735.3403141361257 211.9572445208698 L 736.282722513089 415.67665981591574 L 737.2251308900524 272.3234200447713 L 738.1675392670157 419.54461679255115 L 739.109947643979 419.98523145992607 L 740.0523560209424 396.21317444143483 L 740.9947643979058 299.63579928124966 L 741.9371727748692 276.63593265511867 L 742.8795811518324 338.59435411914507 L 743.8219895287958 378.4817075655643 L 744.7643979057592 419.9314858582539 L 745.7068062827225 419.9709705770244 L 746.6492146596859 356.15242823294074 L 747.5916230366493 349.0236054067164 L 748.5340314136126 357.45473372558064 L 749.4764397905759 347.08986823783846 L 750.4188481675392 308.9661882241724 L 751.3612565445027 419.9916304667371 L 752.303664921466 419.9908767065068 L 753.2460732984293 286.10252444923844 L 754.1884816753927 339.9530117353663 L 755.130890052356 295.5623885031225 L 756.0732984293194 195.87696512662583 L 757.0157068062827 168.86153371168948 L 757.9581151832462 419.87661031093484 L 758.9005235602094 419.57214621558995 L 759.8429319371727 265.66876094317524 L 760.7853403141362 308.77047676068725 L 761.7277486910995 287.484395257483 L 762.6701570680628 317.49214205017995 L 763.6125654450261 324.1664110576577 L 764.5549738219895 419.9216746960534 L 765.4973821989529 411.8401441425113 L 766.4397905759162 245.06772871610963 L 767.3821989528797 297.8445407853969 L 768.3246073298429 366.244879038995 L 769.2670157068062 345.08614714824785 L 770.2094240837697 363.4431215740459 L 771.151832460733 413.631524321034 L 772.0942408376964 419.9872312214784 L 773.0366492146596 304.3919619289692 L 773.979057591623 276.29916988181714 L 774.9214659685864 219.46036780735741 L 775.8638743455497 273.55085749916157 L 776.8062827225132 249.64700739024283 L 777.7486910994764 415.61594725116584 L 778.6910994764398 419.9743337340931 L 779.6335078534031 405.2008148420667 L 780.5759162303665 263.5958883954018 L 781.5183246073299 319.86220264807775 L 782.4607329842931 336.337881508652 L 783.4031413612566 333.4929938895696 L 784.3455497382199 419.9701741832429 L 785.2879581151832 419.8855443001338 L 786.2303664921466 349.1013848387881 L 787.17277486911 224.55953491427815 L 788.1151832460733 303.6196376189301 L 789.0575916230366 345.1431811298511 L 790 373.33051345317847 L 790.9424083769634 419.9890730510055 L 791.8848167539267 419.9119672538067 L 792.82722513089 305.6225964182195 L 793.7696335078534 289.3554013505925 L 794.7120418848167 303.56085982707395 L 795.6544502617801 315.9530573912549 L 796.5968586387435 289.2929855566693 L 797.5392670157069 415.7923707255194 L 798.4816753926701 419.07601545680876 L 799.4240837696335 415.49894623904527 L 800.3664921465969 268.7548812856695 L 801.3089005235602 299.6142538757539 L 802.2513089005236 284.5576414010867 L 803.1937172774869 273.07742819042505 L 804.1361256544502 409.26842765035923 L 805.0785340314136 415.6870274766383 L 806.020942408377 248.85591871070383 L 806.9633507853404 227.37401411814463 L 807.9057591623036 249.6649764972599 L 808.848167539267 235.24571564788286 L 809.7905759162304 273.64506611810316 L 810.7329842931937 413.8425331481517 L 811.6753926701571 419.4006603919655 L 812.6178010471205 419.7160757159696 L 813.5602094240838 287.61149029182866 L 814.5026178010471 293.7344478922291 L 815.4450261780104 225.13782168548542 L 816.3874345549739 188.93905757359352 L 817.3298429319372 419.92760430374386 L 818.2722513089005 418.59125882654223 L 819.2146596858639 70 L 820.1570680628272 222.48760972401013 L 821.0994764397906 342.88261374629275 L 822.0418848167538 370.3354317098692 L 822.9842931937173 346.0777140041174 L 823.9267015706806 419.8272359342874 L 824.8691099476439 419.96857090516374 L 825.8115183246074 306.55089187903747 L 826.7539267015707 333.66641880578 L 827.696335078534 377.845815139035 L 828.6387434554973 399.07696994899834 L 829.5811518324607 382.3863696621224 L 830.5235602094241 419.89268141356655 L 831.4659685863874 419.9792403342731 L 832.4083769633509 419.4537056621878 L 833.3507853403141 319.99730977325265 L 834.2931937172775 345.43565098315435 L 835.2356020942409 388.46734621073045 L 836.1780104712042 397.19306335893936 L 837.1204188481676 419.5728999376626 L 838.0628272251308 419.965781275117 L 839.0052356020942 370.8701246542803 L 839.9476439790576 397.0385031576464 L 840.8900523560209 390.67657711558127 L 841.8324607329844 367.04059249569616 L 842.7748691099476 406.3725230670318 L 843.717277486911 419.83905522516477 L 844.6596858638743 419.9872672636372 L 845.6020942408377 402.8097177224832 L 846.5445026178011 403.3652247165714 L 847.4869109947643 409.38136590899285 L 848.4293193717278 419.7119222279918 L 849.3717277486911 404.86226480996567 L 850.3141361256544 419.9301477338309 L 851.2565445026178 419.9528445037924 L 852.1989528795812 404.1255004672267 L 853.1413612565445 396.3473361228229 L 854.0837696335078 418.33858832152185 L 855.0261780104712 419.95823683914386 L 855.9685863874346 404.52292170980195 L 856.9109947643979 419.9885943188196 L 857.8534031413612 419.9887857425168 L 858.7958115183246 408.4882347731682 L 859.7382198952879 394.65195569879796 L 860.6806282722513 405.3714731059061 L 861.6230366492147 400.74962841669554 L 862.565445026178 412.7364765690055 L 863.5078534031413 419.78766691414415 L 864.4502617801047 419.9907960268914 L 865.3926701570681 419.9722195221362 L 866.3350785340314 391.3776326005157 L 867.2774869109948 417.4227173487758 L 868.2198952879581 407.50793260721855 L 869.1623036649215 404.91861449264553 L 870.1047120418848 419.9698121332764 L 871.0471204188482 419.9590616205846 L 871.9895287958116 411.33654964857516 L 872.9319371727748 404.2931358059766 L 873.8743455497382 393.81075643390614 L 874.8167539267016 396.5683402013204 L 875.7591623036649 392.1007757125375 L 876.7015706806283 418.2827754091659 L 877.6439790575917 419.9957854971916 L 878.586387434555 296.49579572890207 L 879.5287958115183 307.3378993875492 L 880.4712041884816 327.6369254381487 L 881.4136125654451 343.86351298802003 L 882.3560209424083 336.8868382966397 L 883.2984293193717 419.99005414989125 L 884.2408376963351 419.9810956918114 L 885.1832460732984 375.95571182580306 L 886.1256544502618 365.14450933235827 L 887.068062827225 332.42840748016476 L 888.0104712041885 329.77533389451185 L 888.9528795811518 401.0780687193208 L 889.8952879581152 419.874826626995 L 890.8376963350786 419.9689291305313 L 891.7801047120419 349.7735557043724 L 892.7225130890052 398.5482422103406 L 893.6649214659686 408.29407864769973 L 894.6073298429319 419.0449215736479 L 895.5497382198953 419.5304223138527 L 896.4921465968586 419.98114714408433 L 897.4345549738221 419.9878185608419 L 898.3769633507853 413.37847191490334 L 899.3193717277487 412.0800274727861 L 900.2617801047121 405.25790059751614 L 901.2041884816754 410.12070251269864 L 902.1465968586388 405.0576216265662 L 903.089005235602 419.64829663394283 L 904.0314136125655 419.9967705349584 L 904.9738219895288 396.34525215402454 L 905.9162303664921 396.59302174422896 L 906.8586387434556 400.70315588283415 L 907.8010471204188 355.85920343824546 L 908.7434554973822 392.4704468146361 L 909.6858638743455 419.72244005070695 L 910.6282722513089 419.95578337329624 L 911.5706806282723 365.2765261242918 L 912.5130890052355 360.70595609998895 L 913.455497382199 399.76190427491787 L 914.3979057591623 384.4394159718063 L 915.3403141361256 390.8991167262029 L 916.282722513089 419.76626545186065 L 917.2251308900524 419.9982532836595 L 918.1675392670157 398.26878674484294 L 919.109947643979 412.62751103724264 L 920.0523560209424 408.11512785485377 L 920.9947643979058 392.0690474195209 L 921.937172774869 393.60515213438754 L 922.8795811518324 419.94583462714064 L 923.8219895287958 419.97858438780247 L 924.7643979057592 387.788306302835 L 925.7068062827225 383.01151925175844 L 926.6492146596859 399.0127298443535 L 927.5916230366493 402.10946754666077 L 928.5340314136125 396.94764550401516 L 929.4764397905759 419.9749043935996 L 930.4188481675393 419.9998578143641 L 931.3612565445026 419.992275359306 L 932.303664921466 400.56696114308295 L 933.2460732984293 409.2011402707313 L 934.1884816753927 398.7814704757935 L 935.130890052356 406.91884383664734 L 936.0732984293194 419.9999750611777 L 937.0157068062828 419.9938329991132 L 937.958115183246 380.58362096122625 L 938.9005235602094 390.8449509740834 L 939.8429319371728 394.66977413622027 L 940.7853403141361 419.99079285667403 L 941.7277486910995 419.9995445751076 L 942.6701570680628 420 L 943.6125654450262 420 L 944.5549738219895 376.66410051425015 L 945.4973821989528 345.179671075316 L 946.4397905759163 395.5596620898612 L 947.3821989528795 384.8461098528619 L 948.3246073298429 392.03653317943053 L 949.2670157068063 419.74497579782303 L 950.2094240837696 419.99962490761993 L 951.151832460733 407.78213356450306 L 952.0942408376962 402.1899920682939 L 953.0366492146597 367.2584421351191 L 953.979057591623 400.2714782299287 L 954.9214659685864 402.368957968676 L 955.8638743455498 419.9941820304175 L 956.8062827225131 416.89726232795374 L 957.7486910994764 390.5255529150772 L 958.6910994764398 389.7770851613447 L 959.6335078534032 377.96873886918735 L 960.5759162303665 399.45835606063554 L 961.5183246073298 381.30822778206766 L 962.4607329842933 419.42415270347976 L 963.4031413612565 419.64235820682677 L 964.3455497382199 284.0811011216956 L 965.2879581151833 337.51784558196715 L 966.2303664921466 338.09581615573643 L 967.17277486911 358.3973670077769 L 968.1151832460732 417.3480478060055 L 969.0575916230367 412.3579025287017 L 970 419.7812045080709" stroke="#3fb950" stroke-width="1.5" fill="none"/><circle cx="819.2146596858639" cy="70" r="4" fill="#f0883e" stroke="#0d1117" stroke-width="2"/><text x="790" y="90" class="annot">2025-11-24: $38.6M</text><line x1="70" y1="420" x2="970" y2="420" stroke="#8b949e" stroke-width="1.5"/>
</svg>