<svg xmlns="http://www.w3.org/2000/svg" width="1000" height="480" viewBox="0 0 1000 480">
  <style>
    .title { font: 600 18px -apple-system, system-ui, sans-serif; fill: #e6edf3; }
    .subtitle { font: 400 12px -apple-system, system-ui, sans-serif; fill: #7d8590; }
    .axis { font: 400 11px -apple-system, system-ui, sans-serif; fill: #8b949e; }
    .label { font: 500 12px -apple-system, system-ui, sans-serif; fill: #e6edf3; }
    .annot { font: 600 11px -apple-system, system-ui, sans-serif; fill: #f0883e; }
  </style>
  <rect width="1000" height="480" fill="#0d1117"/>
  <text x="24" y="32" class="title">COPM — Circulating Supply Over Time</text>
  <text x="24" y="50" class="subtitle">End-of-day supply on Polygon · peak: 12.1B COPM</text>
  <line x1="70" y1="420" x2="970" y2="420" stroke="#30363d" stroke-width="1"/><text x="62" y="424" class="axis" text-anchor="end">0</text><line x1="70" y1="350" x2="970" y2="350" stroke="#30363d" stroke-width="1"/><text x="62" y="354" class="axis" text-anchor="end">2.4B</text><line x1="70" y1="280" x2="970" y2="280" stroke="#30363d" stroke-width="1"/><text x="62" y="284" class="axis" text-anchor="end">4.9B</text><line x1="70" y1="210" x2="970" y2="210" stroke="#30363d" stroke-width="1"/><text x="62" y="214" class="axis" text-anchor="end">7.3B</text><line x1="70" y1="140" x2="970" y2="140" stroke="#30363d" stroke-width="1"/><text x="62" y="144" class="axis" text-anchor="end">9.7B</text><line x1="70" y1="70" x2="970" y2="70" stroke="#30363d" stroke-width="1"/><text x="62" y="74" class="axis" text-anchor="end">12.1B</text><line x1="51.15183246073298" y1="70" x2="51.15183246073298" y2="420" stroke="#30363d" stroke-width="1" stroke-dasharray="2,4"/><text x="51.15183246073298" y="438" class="axis" text-anchor="middle">Aug 23</text><line x1="136.9109947643979" y1="70" x2="136.9109947643979" y2="420" stroke="#30363d" stroke-width="1" stroke-dasharray="2,4"/><text x="136.9109947643979" y="438" class="axis" text-anchor="middle">Nov 23</text><line x1="222.67015706806282" y1="70" x2="222.67015706806282" y2="420" stroke="#30363d" stroke-width="1" stroke-dasharray="2,4"/><text x="222.67015706806282" y="438" class="axis" text-anchor="middle">Feb 24</text><line x1="309.3717277486911" y1="70" x2="309.3717277486911" y2="420" stroke="#30363d" stroke-width="1" stroke-dasharray="2,4"/><text x="309.3717277486911" y="438" class="axis" text-anchor="middle">May 24</text><line x1="396.0732984293194" y1="70" x2="396.0732984293194" y2="420" stroke="#30363d" stroke-width="1" stroke-dasharray="2,4"/><text x="396.0732984293194" y="438" class="axis" text-anchor="middle">Aug 24</text><line x1="481.8324607329843" y1="70" x2="481.8324607329843" y2="420" stroke="#30363d" stroke-width="1" stroke-dasharray="2,4"/><text x="481.8324607329843" y="438" class="axis" text-anchor="middle">Nov 24</text><line x1="566.6492146596859" y1="70" x2="566.6492146596859" y2="420" stroke="#30363d" stroke-width="1" stroke-dasharray="2,4"/><text x="566.6492146596859" y="438" class="axis" text-anchor="middle">Feb 25</text><line x1="653.3507853403141" y1="70" x2="653.3507853403141" y2="420" stroke="#30363d" stroke-width="1" stroke-dasharray="2,4"/><text x="653.3507853403141" y="438" class="axis" text-anchor="middle">May 25</text><line x1="740.0523560209424" y1="70" x2="740.0523560209424" y2="420" stroke="#30363d" stroke-width="1" stroke-dasharray="2,4"/><text x="740.0523560209424" y="438" class="axis" text-anchor="middle">Aug 25</text><line x1="825.8115183246074" y1="70" x2="825.8115183246074" y2="420" stroke="#30363d" stroke-width="1" stroke-dasharray="2,4"/><text x="825.8115183246074" y="438" class="axis" text-anchor="middle">Nov 25</text><line x1="910.6282722513089" y1="70" x2="910.6282722513089" y2="420" stroke="#30363d" stroke-width="1" stroke-dasharray="2,4"/><text x="910.6282722513089" y="438" class="axis" text-anchor="middle">Feb 26</text><path d="M 70 420 L 70 419.8846062778197 L 70.94240837696336 419.8846062778197 L 71.8848167539267 419.8846062778197 L 72.82722513089006 419.8846062778197 L 73.7696335078534 419.8846062778197 L 74.71204188481676 419.8846062778197 L 75.6544502617801 419.8846062778197 L 76.59685863874346 419.8846062778197 L 77.53926701570681 419.8846062778197 L 78.48167539267016 419.8846062778197 L 79.42408376963351 419.8846062778197 L 80.36649214659685 419.8846062778197 L 81.30890052356021 419.8846062778197 L 82.25130890052355 419.8846062778197 L 83.19371727748691 419.8846062778197 L 84.13612565445027 419.8846062778197 L 85.07853403141361 419.8846062778197 L 86.02094240837697 419.8846062778197 L 86.96335078534031 419.8846062778197 L 87.90575916230367 419.8846062778197 L 88.84816753926702 419.8846062778197 L 89.79057591623037 419.8846062778197 L 90.73298429319371 419.8846062778197 L 91.67539267015707 419.8846062778197 L 92.61780104712042 419.8846062778197 L 93.56020942408377 419.8846062778197 L 94.50261780104712 419.5857640587756 L 95.44502617801047 419.5857640587756 L 96.38743455497382 419.5857640587756 L 97.32984293193718 419.5857640587756 L 98.27225130890052 419.5857640587756 L 99.21465968586388 419.5857640587756 L 100.15706806282722 419.5857640587756 L 101.09947643979058 419.5857640587756 L 102.04188481675394 419.5857640587756 L 102.98429319371728 419.5857640587756 L 103.92670157068062 419.5857640587756 L 104.86910994764398 419.5857640587756 L 105.81151832460733 419.5857640587756 L 106.75392670157069 419.5857640587756 L 107.69633507853403 416.70092100426945 L 108.63874345549738 416.70092100426945 L 109.58115183246073 416.70092100426945 L 110.52356020942409 416.70092100426945 L 111.46596858638743 416.70092100426945 L 112.40837696335079 416.70092100426945 L 113.35078534031413 416.70092100426945 L 114.29319371727749 410.9312348952571 L 115.23560209424085 410.9312348952571 L 116.17801047120419 410.9312348952571 L 117.12041884816753 410.9013506618133 L 118.06282722513089 410.9013506618133 L 119.00523560209425 410.9013506618133 L 119.9476439790576 410.9013506618133 L 120.89005235602095 410.9013506618133 L 121.83246073298429 409.1704448291096 L 122.77486910994764 409.1704448291096 L 123.717277486911 409.1704448291096 L 124.65968586387434 409.1704448291096 L 125.6020942408377 409.1704448291096 L 126.54450261780104 409.1704448291096 L 127.4869109947644 409.1704448291096 L 128.42931937172776 397.34258830563425 L 129.37172774869111 397.34258830563425 L 130.31413612565444 397.34258830563425 L 131.2565445026178 396.6213775420077 L 132.19895287958116 396.6213775420077 L 133.14136125654449 396.6213775420077 L 134.08376963350787 396.6213775420077 L 135.0261780104712 396.6213775420077 L 135.96858638743456 396.6213775420077 L 136.9109947643979 396.6213775420077 L 137.85340314136124 396.6213775420077 L 138.7958115183246 396.6213775420077 L 139.73821989528795 396.6213775420077 L 140.6806282722513 396.6213775420077 L 141.62303664921467 396.6213775420077 L 142.565445026178 396.6213775420077 L 143.50785340314138 396.6213775420077 L 144.4502617801047 396.6213775420077 L 145.39267015706807 396.6213775420077 L 146.33507853403142 396.6213775420077 L 147.27748691099475 396.6213775420077 L 148.21989528795814 396.6213775420077 L 149.16230366492147 396.6213775420077 L 150.1047120418848 396.6213775420077 L 151.04712041884818 396.6213775420077 L 151.9895287958115 396.6213775420077 L 152.93193717277487 396.6213775420077 L 153.87434554973822 396.6213775420077 L 154.81675392670158 396.6213775420077 L 155.75916230366494 396.6213775420077 L 156.70157068062827 396.6213775420077 L 157.64397905759162 396.6213775420077 L 158.58638743455498 396.6213775420077 L 159.5287958115183 396.6213775420077 L 160.4712041884817 396.6213775420077 L 161.41361256544502 396.6213775420077 L 162.35602094240838 396.6213775420077 L 163.29842931937173 396.6213775420077 L 164.24083769633506 396.6213775420077 L 165.18324607329842 396.6213775420077 L 166.12565445026178 396.6213775420077 L 167.06806282722513 396.6213775420077 L 168.0104712041885 396.6213775420077 L 168.95287958115182 396.6213775420077 L 169.8952879581152 396.6213775420077 L 170.83769633507853 396.6213775420077 L 171.7801047120419 396.6213775420077 L 172.72251308900525 396.6213775420077 L 173.66492146596858 396.6213775420077 L 174.60732984293196 396.6213775420077 L 175.5497382198953 396.6213775420077 L 176.49214659685862 396.6213775420077 L 177.434554973822 396.6213775420077 L 178.37696335078533 396.6213775420077 L 179.3193717277487 396.6213775420077 L 180.26178010471205 396.6213775420077 L 181.2041884816754 396.6213775420077 L 182.14659685863876 396.6213775420077 L 183.0890052356021 396.6213775420077 L 184.03141361256542 396.6213775420077 L 184.9738219895288 396.6213775420077 L 185.91623036649216 396.6213775420077 L 186.85863874345551 396.6213775420077 L 187.80104712041884 396.6213775420077 L 188.7434554973822 396.6213775420077 L 189.68586387434556 396.6213775420077 L 190.6282722513089 396.6213775420077 L 191.57068062827227 396.6213775420077 L 192.5130890052356 396.6213775420077 L 193.45549738219896 396.6213775420077 L 194.3979057591623 396.6213775420077 L 195.34031413612564 396.6213775420077 L 196.282722513089 396.6213775420077 L 197.22513089005236 396.6213775420077 L 198.1675392670157 396.6213775420077 L 199.10994764397907 396.0444089311065 L 200.0523560209424 396.0444089311065 L 200.99476439790575 396.0444089311065 L 201.9371727748691 395.3231981674799 L 202.87958115183247 393.8807766402268 L 203.82198952879583 393.8807766402268 L 204.76439790575915 393.8807766402268 L 205.7068062827225 393.15956587660025 L 206.64921465968587 393.15956587660025 L 207.5916230366492 393.15956587660025 L 208.53403141361258 393.15956587660025 L 209.4764397905759 393.15956587660025 L 210.41884816753927 393.15956587660025 L 211.36125654450262 393.15956587660025 L 212.30366492146595 393.15956587660025 L 213.2460732984293 393.15956587660025 L 214.1884816753927 393.16014284521117 L 215.13089005235602 393.16014284521117 L 216.07329842931938 393.16014284521117 L 217.01570680628274 393.16014284521117 L 217.95811518324606 393.16014284521117 L 218.90052356020942 393.16014284521117 L 219.84293193717275 393.16014284521117 L 220.78534031413614 393.16014284521117 L 221.7277486910995 393.16014284521117 L 222.67015706806282 392.8716585397606 L 223.61256544502618 392.8716585397606 L 224.55497382198953 392.8716585397606 L 225.49738219895286 392.8716585397606 L 226.43979057591625 392.8716585397606 L 227.38219895287958 392.8716585397606 L 228.32460732984293 392.8716585397606 L 229.2670157068063 392.8716585397606 L 230.20942408376962 392.8716585397606 L 231.15183246073298 392.8716585397606 L 232.09424083769633 392.8716585397606 L 233.0366492146597 390.275299790705 L 233.97905759162305 390.275299790705 L 234.92146596858638 390.275299790705 L 235.86387434554973 390.275299790705 L 236.8062827225131 390.275299790705 L 237.74869109947645 390.275299790705 L 238.6910994764398 390.275299790705 L 239.63350785340316 390.275299790705 L 240.5759162303665 390.275299790705 L 241.51832460732984 390.275299790705 L 242.46073298429317 390.275299790705 L 243.40314136125653 390.275299790705 L 244.34554973821992 390.275299790705 L 245.28795811518324 390.275299790705 L 246.2303664921466 390.275299790705 L 247.17277486910996 390.275299790705 L 248.1151832460733 390.275299790705 L 249.05759162303664 390.275299790705 L 250 390.275299790705 L 250.94240837696336 390.275299790705 L 251.8848167539267 390.275299790705 L 252.82722513089004 390.275299790705 L 253.7696335078534 389.9868154852544 L 254.71204188481676 389.9868154852544 L 255.6544502617801 389.9868154852544 L 256.59685863874347 389.9868154852544 L 257.5392670157068 389.9868154852544 L 258.4816753926701 389.9868154852544 L 259.4240837696335 389.9868154852544 L 260.36649214659684 389.9868154852544 L 261.3089005235602 389.9868154852544 L 262.25130890052355 389.9868154852544 L 263.19371727748694 389.9868154852544 L 264.13612565445027 389.9868154852544 L 265.0785340314136 389.9868154852544 L 266.020942408377 389.9868154852544 L 266.9633507853403 389.9868154852544 L 267.90575916230364 389.9868154852544 L 268.848167539267 389.9868154852544 L 269.7905759162304 389.9868154852544 L 270.7329842931937 389.9868154852544 L 271.67539267015707 388.8328782634519 L 272.6178010471204 388.8328782634519 L 273.5602094240838 388.8328782634519 L 274.5026178010471 388.8328782634519 L 275.4450261780105 388.8328782634519 L 276.3874345549738 388.8328782634519 L 277.32984293193715 388.8328782634519 L 278.27225130890054 388.8328782634519 L 279.2146596858639 388.8328782634519 L 280.1570680628272 388.8328782634519 L 281.0994764397906 385.9501988412366 L 282.04188481675396 385.9501988412366 L 282.98429319371724 385.9501988412366 L 283.9267015706806 385.9501988412366 L 284.869109947644 384.2192930085329 L 285.81151832460733 395.21759144845265 L 286.75392670157066 394.7258876915969 L 287.69633507853405 394.7258876915969 L 288.6387434554974 383.6363229432316 L 289.5811518324607 383.6363229432316 L 290.5235602094241 383.6363229432316 L 291.4659685863875 383.6363229432316 L 292.4083769633508 383.6363229432316 L 293.35078534031413 383.6363229432316 L 294.2931937172775 383.6363229432316 L 295.23560209424085 383.6363229432316 L 296.1780104712042 383.6363229432316 L 297.12041884816756 383.6363229432316 L 298.06282722513083 383.6363229432316 L 299.0052356020942 383.6363229432316 L 299.9476439790576 383.6363229432316 L 300.89005235602093 383.6363229432316 L 301.8324607329843 383.6363229432316 L 302.77486910994764 383.6363229432316 L 303.71727748691103 383.6363229432316 L 304.6596858638743 383.6363229432316 L 305.6020942408377 383.6363229432316 L 306.5445026178011 383.6363229432316 L 307.4869109947644 383.6363229432316 L 308.42931937172773 383.6363229432316 L 309.3717277486911 383.6363229432316 L 310.31413612565444 383.6363229432316 L 311.2565445026178 383.6363229432316 L 312.19895287958116 383.6363229432316 L 313.14136125654454 383.6363229432316 L 314.0837696335078 383.6363229432316 L 315.0261780104712 383.6363229432316 L 315.9685863874345 383.6363229432316 L 316.9109947643979 383.6363229432316 L 317.85340314136124 383.6363229432316 L 318.7958115183246 383.6363229432316 L 319.738219895288 383.6363229432316 L 320.6806282722513 383.4162094181728 L 321.62303664921467 383.4162094181728 L 322.565445026178 383.4162094181728 L 323.5078534031413 383.4162094181728 L 324.4502617801047 383.4162094181728 L 325.39267015706804 385.74768709952957 L 326.3350785340314 385.74768709952957 L 327.27748691099475 385.74768709952957 L 328.21989528795814 385.74768709952957 L 329.16230366492147 385.74768709952957 L 330.1047120418848 385.74768709952957 L 331.0471204188482 385.74768709952957 L 331.9895287958115 379.9780009905172 L 332.9319371727749 379.9780009905172 L 333.8743455497382 379.9780009905172 L 334.81675392670155 379.9780009905172 L 335.75916230366494 379.9780009905172 L 336.70157068062827 379.9780009905172 L 337.64397905759165 379.9780009905172 L 338.586387434555 379.9780009905172 L 339.5287958115183 379.9780009905172 L 340.47120418848164 379.9780009905172 L 341.413612565445 379.33802838815217 L 342.3560209424084 379.33802838815217 L 343.29842931937173 379.33802838815217 L 344.24083769633506 379.33802838815217 L 345.1832460732984 379.33802838815217 L 346.1256544502618 379.2729445402398 L 347.06806282722516 379.2729445402398 L 348.0104712041885 368.21578402227175 L 348.9528795811518 368.21578402227175 L 349.89528795811515 368.21578402227175 L 350.83769633507853 368.21578402227175 L 351.78010471204186 368.21578402227175 L 352.72251308900525 368.21578402227175 L 353.66492146596863 368.21578402227175 L 354.6073298429319 368.21578402227175 L 355.5497382198953 368.21578402227175 L 356.4921465968586 368.21578402227175 L 357.434554973822 368.21578402227175 L 358.3769633507854 368.21578402227175 L 359.31937172774866 367.7914974609361 L 360.26178010471205 367.7914974609361 L 361.2041884816754 367.7914974609361 L 362.14659685863876 367.7914974609361 L 363.0890052356021 367.7914974609361 L 364.0314136125655 367.7914974609361 L 364.9738219895288 367.7914974609361 L 365.91623036649213 367.7914974609361 L 366.8586387434555 367.7914974609361 L 367.80104712041884 367.7914974609361 L 368.74345549738223 367.7914974609361 L 369.6858638743455 367.7914974609361 L 370.6282722513089 367.7914974609361 L 371.57068062827227 367.7914974609361 L 372.5130890052356 367.7914974609361 L 373.455497382199 367.51371528855225 L 374.3979057591623 367.51371528855225 L 375.34031413612564 367.51371528855225 L 376.282722513089 367.51371528855225 L 377.22513089005236 361.7440291795399 L 378.16753926701574 364.14836137975743 L 379.10994764397907 364.738240096054 L 380.0523560209424 364.752628625818 L 380.9947643979057 367.03081468797416 L 381.9371727748691 367.03081468797416 L 382.8795811518325 367.03081468797416 L 383.8219895287958 367.03081468797416 L 384.76439790575915 367.03081468797416 L 385.7068062827225 367.03081468797416 L 386.64921465968587 364.19943469889125 L 387.5916230366492 364.2062377357824 L 388.5340314136126 364.2062377357824 L 389.4764397905759 364.2062377357824 L 390.41884816753924 367.0809625783045 L 391.3612565445026 365.65729463684113 L 392.30366492146595 365.65729463684113 L 393.24607329842934 365.65729463684113 L 394.18848167539267 365.65729463684113 L 395.130890052356 365.65729463684113 L 396.0732984293194 365.65729463684113 L 397.0157068062827 362.72170194259184 L 397.9581151832461 362.72170194259184 L 398.9005235602094 365.7099613124908 L 399.84293193717275 365.57034474596753 L 400.78534031413614 365.5795711952666 L 401.72774869109946 365.5795711952666 L 402.67015706806285 365.5795711952666 L 403.6125654450262 365.5795711952666 L 404.5549738219895 365.64895896938043 L 405.4973821989529 365.64895896938043 L 406.4397905759162 365.64895896938043 L 407.3821989528796 365.64895896938043 L 408.32460732984293 365.64895896938043 L 409.2670157068063 365.64895896938043 L 410.2094240837696 362.7106006337916 L 411.151832460733 337.45067803176914 L 412.09424083769636 337.45067803176914 L 413.0366492146597 337.46288616830407 L 413.9790575916231 337.46288616830407 L 414.92146596858635 337.46288616830407 L 415.86387434554973 337.46288616830407 L 416.80628272251306 337.46288616830407 L 417.74869109947645 337.46288616830407 L 418.69109947643983 337.46288616830407 L 419.6335078534031 337.46288616830407 L 420.5759162303665 334.51220084064647 L 421.5183246073298 334.51220084064647 L 422.4607329842932 334.51220084064647 L 423.4031413612566 337.49612426258614 L 424.3455497382199 337.49612426258614 L 425.28795811518324 337.0410401553441 L 426.2303664921466 337.0410401553441 L 427.17277486910996 337.0410401553441 L 428.1151832460733 337.0410401553441 L 429.05759162303667 337.0410401553441 L 430 333.55343398309753 L 430.94240837696333 333.55343398309753 L 431.8848167539267 335.9317897005761 L 432.82722513089004 335.9317897005761 L 433.7696335078534 335.9317897005761 L 434.71204188481676 335.9317897005761 L 435.6544502617801 335.9317897005761 L 436.59685863874347 335.9317897005761 L 437.5392670157068 335.9317897005761 L 438.4816753926702 335.9317897005761 L 439.4240837696335 335.9317897005761 L 440.36649214659684 335.9317897005761 L 441.3089005235602 335.9317897005761 L 442.25130890052355 335.9317897005761 L 443.19371727748694 335.9317897005761 L 444.13612565445027 341.09565876814213 L 445.0785340314136 341.09565876814213 L 446.0209424083769 341.09565876814213 L 446.9633507853403 338.21081571363595 L 447.9057591623037 338.21081571363595 L 448.848167539267 338.21081571363595 L 449.79057591623035 338.21081571363595 L 450.7329842931937 338.21081571363595 L 451.67539267015707 335.8207232429776 L 452.61780104712045 321.3965079704467 L 453.5602094240838 321.3965079704467 L 454.5026178010471 321.3965079704467 L 455.44502617801044 321.3965079704467 L 456.3874345549738 321.3965079704467 L 457.32984293193715 320.84019169133677 L 458.27225130890054 320.84019169133677 L 459.2146596858639 320.84019169133677 L 460.1570680628272 312.4856285086258 L 461.0994764397906 312.4856285086258 L 462.0418848167539 312.4856285086258 L 462.9842931937173 312.4856285086258 L 463.9267015706806 312.4856285086258 L 464.86910994764395 312.4856285086258 L 465.81151832460733 311.97377565200105 L 466.75392670157066 311.97377565200105 L 467.69633507853405 311.97377565200105 L 468.6387434554974 311.97377565200105 L 469.58115183246076 311.97377565200105 L 470.5235602094241 311.97377565200105 L 471.4659685863874 311.97377565200105 L 472.4083769633508 311.97377565200105 L 473.35078534031413 311.97377565200105 L 474.2931937172775 311.97377565200105 L 475.2356020942408 311.97377565200105 L 476.1780104712042 311.97377565200105 L 477.12041884816756 311.97377565200105 L 478.0628272251309 311.97377565200105 L 479.0052356020943 312.40667518572513 L 479.9476439790576 312.83970303129536 L 480.89005235602093 312.83970303129536 L 481.8324607329843 312.83970303129536 L 482.77486910994764 312.83970303129536 L 483.71727748691103 312.83970303129536 L 484.65968586387436 312.83970303129536 L 485.6020942408377 311.9177565218914 L 486.544502617801 311.9177565218914 L 487.4869109947644 312.3279277795596 L 488.4293193717278 312.3279277795596 L 489.3717277486911 312.1733842417706 L 490.31413612565444 312.1733842417706 L 491.25654450261777 312.18356772757863 L 492.19895287958116 306.4138816185663 L 493.1413612565445 306.4138816185663 L 494.08376963350787 306.4138816185663 L 495.0261780104712 306.4138816185663 L 495.9685863874345 306.4138816185663 L 496.9109947643979 306.4138816185663 L 497.85340314136124 306.4138816185663 L 498.7958115183246 306.4138816185663 L 499.73821989528795 305.3221925593473 L 500.6806282722513 305.3221925593473 L 501.62303664921467 305.3221925593473 L 502.565445026178 305.3221925593473 L 503.5078534031414 305.3221925593473 L 504.4502617801047 305.3221925593473 L 505.39267015706804 305.3221925593473 L 506.3350785340314 305.3221925593473 L 507.27748691099475 305.3221925593473 L 508.21989528795814 305.3221925593473 L 509.16230366492147 305.3319870022607 L 510.1047120418848 305.3319870022607 L 511.0471204188481 305.3319870022607 L 511.9895287958115 305.3319870022607 L 512.931937172775 304.94857203186837 L 513.8743455497382 304.94857203186837 L 514.8167539267016 304.94857203186837 L 515.7591623036649 304.94857203186837 L 516.7015706806283 304.24484829253686 L 517.6439790575917 304.24484829253686 L 518.586387434555 304.24484829253686 L 519.5287958115184 304.37450141890594 L 520.4712041884817 304.37450141890594 L 521.413612565445 304.37450141890594 L 522.3560209424083 304.63085962167827 L 523.2984293193717 304.63085962167827 L 524.2408376963351 304.6417856926808 L 525.1832460732984 304.6417856926808 L 526.1256544502617 304.6417856926808 L 527.0680628272252 304.6417856926808 L 528.0104712041884 304.6417856926808 L 528.9528795811518 304.6417856926808 L 529.8952879581152 304.6417856926808 L 530.8376963350786 304.6417856926808 L 531.7801047120419 304.6417856926808 L 532.7225130890051 304.6417856926808 L 533.6649214659686 304.6417856926808 L 534.6073298429319 304.6417856926808 L 535.5497382198953 304.6417856926808 L 536.4921465968587 304.6417856926808 L 537.4345549738221 303.9205749290543 L 538.3769633507853 303.9215822874005 L 539.3193717277486 303.9215822874005 L 540.261780104712 303.9215822874005 L 541.2041884816754 303.9215822874005 L 542.1465968586388 303.94904237817576 L 543.0890052356021 304.001059307726 L 544.0314136125655 310.2301488099236 L 544.9738219895288 310.29570597136865 L 545.9162303664921 309.9439265914955 L 546.8586387434555 309.9439265914955 L 547.8010471204188 309.9439265914955 L 548.7434554973822 324.1227872970111 L 549.6858638743456 323.5125713771548 L 550.6282722513089 323.52799360137965 L 551.5706806282722 323.52909488444607 L 552.5130890052357 323.5302078854158 L 553.4554973821989 323.5302078854158 L 554.3979057591623 323.5302078854158 L 555.3403141361257 323.68336197310714 L 556.2827225130891 323.7737087580115 L 557.2251308900524 323.8264747846014 L 558.1675392670156 323.83352880283826 L 559.1099476439791 323.83352880283826 L 560.0523560209424 323.83352880283826 L 560.9947643979058 323.83352880283826 L 561.937172774869 323.83352880283826 L 562.8795811518326 323.8600770903191 L 563.8219895287958 323.8856708697785 L 564.7643979057591 323.9021850672988 L 565.7068062827225 323.56879823740155 L 566.6492146596859 323.56879823740155 L 567.5916230366493 323.56879823740155 L 568.5340314136125 323.3419607489998 L 569.476439790576 323.3510827381318 L 570.4188481675392 323.37368779133834 L 571.3612565445026 323.37972928735996 L 572.303664921466 323.3521745646827 L 573.2460732984293 323.3521745646827 L 574.1884816753927 323.3521745646827 L 575.130890052356 322.4677376501263 L 576.0732984293194 322.47042923754464 L 577.0157068062827 322.33697856147546 L 577.958115183246 322.4626328626445 L 578.9005235602094 321.92397860240936 L 579.8429319371728 321.92397860240936 L 580.7853403141361 322.16563198122526 L 581.7277486910994 323.33326392803707 L 582.6701570680628 320.4646012081644 L 583.6125654450261 322.2908335062769 L 584.5549738219895 322.3033430800626 L 585.4973821989529 322.3126250048936 L 586.4397905759163 322.3126250048936 L 587.3821989528795 322.3126250048936 L 588.3246073298429 322.3126250048936 L 589.2670157068063 328.11119892255874 L 590.2094240837696 328.1533232277501 L 591.151832460733 327.90360645296096 L 592.0942408376964 328.16690183782646 L 593.0366492146596 328.16690183782646 L 593.979057591623 328.16690183782646 L 594.9214659685864 328.18157458232815 L 595.8638743455498 328.21281275916266 L 596.8062827225131 328.26558856842513 L 597.7486910994764 328.2422833926577 L 598.6910994764398 327.6837386299851 L 599.6335078534031 327.6837386299851 L 600.5759162303665 327.7379087992895 L 601.5183246073299 327.1001187537858 L 602.4607329842933 327.1012651904157 L 603.4031413612565 323.9344499886248 L 604.3455497382198 327.7147723002955 L 605.2879581151833 327.76169060882637 L 606.2303664921466 327.76169060882637 L 607.17277486911 328.15622918785573 L 608.1151832460733 328.0351061385208 L 609.0575916230366 328.7877154474073 L 610 328.7877154474073 L 610.9424083769633 328.7877154474073 L 611.8848167539268 328.7877154474073 L 612.82722513089 328.7877154474073 L 613.7696335078533 328.83135100648116 L 614.7120418848168 328.28486537819964 L 615.6544502617801 310.92816026206356 L 616.5968586387435 310.9407086081399 L 617.5392670157069 327.94966418396024 L 618.4816753926701 327.9701646864616 L 619.4240837696335 327.9701646864616 L 620.3664921465968 327.9701646864616 L 621.3089005235603 328.0596393919765 L 622.2513089005236 328.0642119836116 L 623.1937172774869 311.08941869039427 L 624.1361256544503 311.08941869039427 L 625.0785340314136 310.5485367543525 L 626.020942408377 310.5485367543525 L 626.9633507853403 310.5485367543525 L 627.9057591623036 310.5979493847335 L 628.848167539267 310.08965567437895 L 629.7905759162303 266.8516163763711 L 630.7329842931938 309.83922614141636 L 631.6753926701571 310.00196279217664 L 632.6178010471205 310.00196279217664 L 633.5602094240837 310.00196279217664 L 634.5026178010471 310.00196279217664 L 635.4450261780105 310.2199279746128 L 636.3874345549738 310.30571654306635 L 637.3298429319373 310.3124532285672 L 638.2722513089005 310.3124532285672 L 639.2146596858638 310.3124532285672 L 640.1570680628272 310.3124532285672 L 641.0994764397906 310.3962946722011 L 642.041884816754 309.6447865944538 L 642.9842931937172 309.6933453978361 L 643.9267015706806 308.84127645119975 L 644.869109947644 308.85343667049153 L 645.8115183246073 308.85343667049153 L 646.7539267015708 308.85343667049153 L 647.696335078534 305.9326397016033 L 648.6387434554973 307.9965768072977 L 649.5811518324607 306.5645405996471 L 650.5235602094241 302.15634431350395 L 651.4659685863875 302.99376884479744 L 652.4083769633507 302.99376884479744 L 653.3507853403141 302.99376884479744 L 654.2931937172775 302.99376884479744 L 655.2356020942408 307.5670878930881 L 656.1780104712042 291.3395927973002 L 657.1204188481676 296.625936578566 L 658.062827225131 304.2901984177705 L 659.0052356020942 304.2901984177705 L 659.9476439790576 304.2901984177705 L 660.890052356021 297.16300455015073 L 661.8324607329843 315.1275287888129 L 662.7748691099476 312.5862361836177 L 663.717277486911 329.74578547111645 L 664.6596858638743 326.46485389795305 L 665.6020942408377 326.46485389795305 L 666.5445026178011 326.46485389795305 L 667.4869109947645 322.2541425721913 L 668.4293193717277 313.1213406444743 L 669.371727748691 311.3088347757963 L 670.3141361256545 290.79293805951886 L 671.2565445026178 297.87339392129866 L 672.1989528795812 297.87339392129866 L 673.1413612565445 297.87339392129866 L 674.0837696335078 297.87339392129866 L 675.0261780104712 318.2979053293546 L 675.9685863874346 304.1335171102785 L 676.910994764398 307.58413042076535 L 677.8534031413612 327.1337214056847 L 678.7958115183246 303.36497443817234 L 679.738219895288 303.36497443817234 L 680.6806282722513 303.36497443817234 L 681.6230366492147 304.6443024884277 L 682.565445026178 286.32993950610967 L 683.5078534031413 278.24904851757964 L 684.4502617801047 257.9942776111002 L 685.392670157068 257.2038348837332 L 686.3350785340315 257.2050382671649 L 687.2774869109948 285.4905856494782 L 688.2198952879581 255.98095484600964 L 689.1623036649215 273.4766763082231 L 690.1047120418848 257.74857702826625 L 691.0471204188482 294.9062758063919 L 691.9895287958115 294.9218491411983 L 692.931937172775 294.9218491411983 L 693.8743455497382 250.5392220226981 L 694.8167539267015 259.85981774212985 L 695.759162303665 240.6149791830688 L 696.7015706806283 256.8422563001154 L 697.6439790575917 262.6795616302071 L 698.5863874345549 262.6806643037678 L 699.5287958115183 262.6806643037678 L 700.4712041884817 266.4553442951503 L 701.413612565445 248.3732030434626 L 702.3560209424085 214.55845641581536 L 703.2984293193717 184.79523965720458 L 704.240837696335 140.96554204091677 L 705.1832460732984 141.558401290512 L 706.1256544502618 141.558401290512 L 707.0680628272252 134.32426885837202 L 708.0104712041884 138.23056571763925 L 708.9528795811518 157.68326385391657 L 709.8952879581152 274.6217726688492 L 710.8376963350785 255.31846607245262 L 711.780104712042 255.31846607245262 L 712.7225130890052 255.36173589112403 L 713.6649214659686 196.61172839892677 L 714.6073298429319 280.9793430579124 L 715.5497382198953 214.76101916154758 L 716.4921465968587 214.76101916154758 L 717.434554973822 251.90699777434097 L 718.3769633507853 251.92118430739424 L 719.3193717277487 251.95594920486292 L 720.261780104712 288.39071061194545 L 721.2041884816754 165.96134733743907 L 722.1465968586388 183.24329021685082 L 723.0890052356021 148.3496780612399 L 724.0314136125654 296.89485631114735 L 724.9738219895288 296.95620561433196 L 725.9162303664922 296.9573111438873 L 726.8586387434555 297.0084987893514 L 727.8010471204188 175.2485896265634 L 728.7434554973822 141.36782235591875 L 729.6858638743455 223.64451260631307 L 730.6282722513089 310.9952454121481 L 731.5706806282723 310.9952454121481 L 732.5130890052357 310.9952454121481 L 733.4554973821989 302.1362094071629 L 734.3979057591622 283.0590809971365 L 735.3403141361257 262.4758467935526 L 736.282722513089 268.5796268363432 L 737.2251308900524 283.14424283343646 L 738.1675392670157 283.15700044602795 L 739.109947643979 283.16100821424146 L 740.0523560209424 289.0584241536069 L 740.9947643979058 240.72261432179295 L 741.9371727748692 224.0115187913504 L 742.8795811518324 216.56418973579807 L 743.8219895287958 279.6602951037579 L 744.7643979057592 279.6817900982055 L 745.7068062827225 279.7274498651054 L 746.6492146596859 227.8082218477016 L 747.5916230366493 223.50159978926726 L 748.5340314136126 226.5223089412353 L 749.4764397905759 250.60875421205523 L 750.4188481675392 208.6421047128213 L 751.3612565445027 208.65042471558422 L 752.303664921466 208.65203344831355 L 753.2460732984293 261.22495028517244 L 754.1884816753927 163.30771992454794 L 755.130890052356 274.80386863589536 L 756.0732984293194 280.1350001537025 L 757.0157068062827 234.45976758133384 L 757.9581151832462 234.46439585043993 L 758.9005235602094 234.46439585043993 L 759.8429319371727 294.98996579576544 L 760.7853403141362 294.25840170544586 L 761.7277486910995 328.9587802361879 L 762.6701570680628 268.91295397883755 L 763.6125654450261 278.3594313539195 L 764.5549738219895 278.36048596599494 L 765.4973821989529 278.36048596599494 L 766.4397905759162 245.04181931557184 L 767.3821989528797 230.6014725776487 L 768.3246073298429 222.10946583644525 L 769.2670157068062 190.18082544366015 L 770.2094240837697 177.87300367626304 L 771.151832460733 177.87300367626304 L 772.0942408376964 177.87300367626304 L 773.0366492146596 275.69671408904793 L 773.979057591623 214.12637278721724 L 774.9214659685864 212.45044877441137 L 775.8638743455497 170.43295945524042 L 776.8062827225132 166.1498102973487 L 777.7486910994764 166.61323148562457 L 778.6910994764398 166.61323148562457 L 779.6335078534031 166.6221157059921 L 780.5759162303665 227.00917089290215 L 781.5183246073299 200.76225226319568 L 782.4607329842931 112.0934323001855 L 783.4031413612566 215.05740909090477 L 784.3455497382199 215.05740909090477 L 785.2879581151832 215.16524429349477 L 786.2303664921466 163.026967777391 L 787.17277486911 143.0123991448226 L 788.1151832460733 137.11085724522383 L 789.0575916230366 124.23106742502773 L 790 92.48294565365188 L 790.9424083769634 92.48823593654208 L 791.8848167539267 92.55024935944624 L 792.82722513089 162.7317918119632 L 793.7696335078534 188.21145836180082 L 794.7120418848167 70 L 795.6544502617801 201.34004350906594 L 796.5968586387435 215.10312403797593 L 797.5392670157069 215.11511910000283 L 798.4816753926701 215.13087562234324 L 799.4240837696335 215.13087562234324 L 800.3664921465969 183.7782651125294 L 801.3089005235602 203.12496032543433 L 802.2513089005236 116.06956967395905 L 803.1937172774869 116.35241572675022 L 804.1361256544502 116.35241572675022 L 805.0785340314136 116.35241572675022 L 806.020942408377 200.65209781300405 L 806.9633507853404 222.59583349222675 L 807.9057591623036 203.51726618018165 L 808.848167539267 134.65300245839427 L 809.7905759162304 172.96355773841722 L 810.7329842931937 172.98539294240618 L 811.6753926701571 173.0106195967385 L 812.6178010471205 173.0106195967385 L 813.5602094240838 191.86184382278802 L 814.5026178010471 133.88339761592385 L 815.4450261780104 223.41253827294668 L 816.3874345549739 252.6747354818132 L 817.3298429319372 252.6988463653973 L 818.2722513089005 254.33782459708215 L 819.2146596858639 180.81125947765332 L 820.1570680628272 158.63062253503313 L 821.0994764397906 141.59614322374279 L 822.0418848167538 104.17302763371464 L 822.9842931937173 153.80676294501916 L 823.9267015706806 154.08701682208368 L 824.8691099476439 154.09683558735873 L 825.8115183246074 223.31288099459914 L 826.7539267015707 203.84966619181515 L 827.696335078534 231.50177984357597 L 828.6387434554973 216.23959134260267 L 829.5811518324607 192.66320187312348 L 830.5235602094241 192.66320187312348 L 831.4659685863874 192.66320187312348 L 832.4083769633509 192.66320187312348 L 833.3507853403141 203.99489562437898 L 834.2931937172775 225.95691976614572 L 835.2356020942409 235.70602860162384 L 836.1780104712042 206.75085551712735 L 837.1204188481676 206.75085551712735 L 838.0628272251308 206.75184256617842 L 839.0052356020942 258.45717727057223 L 839.9476439790576 248.89436917628592 L 840.8900523560209 246.7421575174842 L 841.8324607329844 235.4350156269221 L 842.7748691099476 238.09971826963218 L 843.717277486911 238.1177310277255 L 844.6596858638743 238.14603883868216 L 845.6020942408377 247.32717755225997 L 846.5445026178011 256.06528410972766 L 847.4869109947643 212.0847139616802 L 848.4293193717278 212.0847139616802 L 849.3717277486911 220.6458079917449 L 850.3141361256544 220.6458079917449 L 851.2565445026178 220.6467873671135 L 852.1989528795812 228.3641560224725 L 853.1413612565445 207.7948249449602 L 854.0837696335078 215.66592933881046 L 855.0261780104712 215.66592933881046 L 855.9685863874346 208.82375369540821 L 856.9109947643979 208.82806373747692 L 857.8534031413612 208.82806373747692 L 858.7958115183246 212.0942984776992 L 859.7382198952879 213.80379666900305 L 860.6806282722513 178.9782112474012 L 861.6230366492147 199.6397831621912 L 862.565445026178 190.38972638464577 L 863.5078534031413 191.71961941584033 L 864.4502617801047 191.7205943485506 L 865.3926701570681 191.75397206923654 L 866.3350785340314 230.72746171567474 L 867.2774869109948 230.01426706544373 L 868.2198952879581 225.2119538489321 L 869.1623036649215 225.16283469363495 L 870.1047120418848 225.20313321050554 L 871.0471204188482 225.2319416282774 L 871.9895287958116 243.77208088063128 L 872.9319371727748 244.6285848695859 L 873.8743455497382 263.6512377496705 L 874.8167539267016 237.0952102349123 L 875.7591623036649 253.16583171957015 L 876.7015706806283 242.6773194924077 L 877.6439790575917 242.6773194924077 L 878.586387434555 275.84616366509454 L 879.5287958115183 183.44645306075887 L 880.4712041884816 220.27794215232575 L 881.4136125654451 207.69187421438792 L 882.3560209424083 202.87601011114165 L 883.2984293193717 202.8817465638587 L 884.2408376963351 202.88614398782352 L 885.1832460732984 230.90061836185106 L 886.1256544502618 205.40474072495294 L 887.068062827225 224.41966219680307 L 888.0104712041885 215.8294426470179 L 888.9528795811518 219.8567196693436 L 889.8952879581152 219.85767582172556 L 890.8376963350786 219.85767582172556 L 891.7801047120419 222.94439427925786 L 892.7225130890052 234.57381173820835 L 893.6649214659686 238.44294590500527 L 894.6073298429319 237.6279918489898 L 895.5497382198953 237.0510232380886 L 896.4921465968586 237.0510232380886 L 897.4345549738221 237.0510232380886 L 898.3769633507853 240.55879316510678 L 899.3193717277487 254.36577330277538 L 900.2617801047121 247.66987982886442 L 901.2041884816754 210.47691361361004 L 902.1465968586388 216.4550882244729 L 903.089005235602 216.48157627643076 L 904.0314136125655 216.48157627643076 L 904.9738219895288 218.03460109972997 L 905.9162303664921 221.91028833176733 L 906.8586387434556 216.82819674687184 L 907.8010471204188 221.6144820350085 L 908.7434554973822 281.0443320164603 L 909.6858638743455 281.0775765727908 L 910.6282722513089 281.0775765727908 L 911.5706806282723 204.4902932785239 L 912.5130890052355 189.43690510208683 L 913.455497382199 182.37793586870973 L 914.3979057591623 205.40775786690992 L 915.3403141361256 227.2739010475844 L 916.282722513089 227.74221605476947 L 917.2251308900524 227.74221605476947 L 918.1675392670157 190.55908914487264 L 919.109947643979 201.89135798959106 L 920.0523560209424 171.75426098421582 L 920.9947643979058 180.63208242365812 L 921.937172774869 168.7601816742418 L 922.8795811518324 168.77604911879763 L 923.8219895287958 168.7908901650431 L 924.7643979057592 181.1142245989972 L 925.7068062827225 175.35493526241424 L 926.6492146596859 158.54007703347332 L 927.5916230366493 163.94636413635527 L 928.5340314136125 180.24105951631398 L 929.4764397905759 180.24105951631398 L 930.4188481675393 180.2416364849249 L 931.3612565445026 180.2445338193498 L 932.303664921466 180.09205171825636 L 933.2460732984293 193.17552314171493 L 934.1884816753927 196.94113656180048 L 935.130890052356 189.12519925246895 L 936.0732984293194 189.12519925246895 L 937.0157068062828 189.1389431063555 L 937.958115183246 160.53119550775443 L 938.9005235602094 195.7403551142368 L 939.8429319371728 178.56343061895976 L 940.7853403141361 178.56343061895976 L 941.7277486910995 178.56343061895976 L 942.6701570680628 178.56343061895976 L 943.6125654450262 178.56343061895976 L 944.5549738219895 171.96638095535178 L 945.4973821989528 188.32502825735355 L 946.4397905759163 177.0360132204276 L 947.3821989528795 158.62048663896115 L 948.3246073298429 169.7464484712984 L 949.2670157068063 170.81697313908387 L 950.2094240837696 170.81792066578515 L 951.151832460733 194.9671040897814 L 952.0942408376962 186.39863934340923 L 953.0366492146597 108.69799501035442 L 953.979057591623 143.40656268737843 L 954.9214659685864 165.04752540465313 L 955.8638743455498 165.06234063155327 L 956.8062827225131 169.50086642666562 L 957.7486910994764 123.25581766362922 L 958.6910994764398 128.7401726583464 L 959.6335078534032 130.4158326791644 L 960.5759162303665 161.1153378578793 L 961.5183246073298 170.85000917895846 L 962.4607329842933 173.19664284487692 L 963.4031413612565 174.49438101150795 L 964.3455497382199 114.62531353076548 L 965.2879581151833 85.01117775868062 L 966.2303664921466 89.71247934957591 L 967.17277486911 92.28515763363112 L 968.1151832460732 99.26931353971338 L 969.0575916230367 123.06130331268633 L 970 123.41258277581198 L 970 420 Z" fill="#f0883e" fill-opacity="0.18"/><path d="M 70 419.8846062778197 L 70.94240837696336 419.8846062778197 L 71.8848167539267 419.8846062778197 L 72.82722513089006 419.8846062778197 L 73.7696335078534 419.8846062778197 L 74.71204188481676 419.8846062778197 L 75.6544502617801 419.8846062778197 L 76.59685863874346 419.8846062778197 L 77.53926701570681 419.8846062778197 L 78.48167539267016 419.8846062778197 L 79.42408376963351 419.8846062778197 L 80.36649214659685 419.8846062778197 L 81.30890052356021 419.8846062778197 L 82.25130890052355 419.8846062778197 L 83.19371727748691 419.8846062778197 L 84.13612565445027 419.8846062778197 L 85.07853403141361 419.8846062778197 L 86.02094240837697 419.8846062778197 L 86.96335078534031 419.8846062778197 L 87.90575916230367 419.8846062778197 L 88.84816753926702 419.8846062778197 L 89.79057591623037 419.8846062778197 L 90.73298429319371 419.8846062778197 L 91.67539267015707 419.8846062778197 L 92.61780104712042 419.8846062778197 L 93.56020942408377 419.8846062778197 L 94.50261780104712 419.5857640587756 L 95.44502617801047 419.5857640587756 L 96.38743455497382 419.5857640587756 L 97.32984293193718 419.5857640587756 L 98.27225130890052 419.5857640587756 L 99.21465968586388 419.5857640587756 L 100.15706806282722 419.5857640587756 L 101.09947643979058 419.5857640587756 L 102.04188481675394 419.5857640587756 L 102.98429319371728 419.5857640587756 L 103.92670157068062 419.5857640587756 L 104.86910994764398 419.5857640587756 L 105.81151832460733 419.5857640587756 L 106.75392670157069 419.5857640587756 L 107.69633507853403 416.70092100426945 L 108.63874345549738 416.70092100426945 L 109.58115183246073 416.70092100426945 L 110.52356020942409 416.70092100426945 L 111.46596858638743 416.70092100426945 L 112.40837696335079 416.70092100426945 L 113.35078534031413 416.70092100426945 L 114.29319371727749 410.9312348952571 L 115.23560209424085 410.9312348952571 L 116.17801047120419 410.9312348952571 L 117.12041884816753 410.9013506618133 L 118.06282722513089 410.9013506618133 L 119.00523560209425 410.9013506618133 L 119.9476439790576 410.9013506618133 L 120.89005235602095 410.9013506618133 L 121.83246073298429 409.1704448291096 L 122.77486910994764 409.1704448291096 L 123.717277486911 409.1704448291096 L 124.65968586387434 409.1704448291096 L 125.6020942408377 409.1704448291096 L 126.54450261780104 409.1704448291096 L 127.4869109947644 409.1704448291096 L 128.42931937172776 397.34258830563425 L 129.37172774869111 397.34258830563425 L 130.31413612565444 397.34258830563425 L 131.2565445026178 396.6213775420077 L 132.19895287958116 396.6213775420077 L 133.14136125654449 396.6213775420077 L 134.08376963350787 396.6213775420077 L 135.0261780104712 396.6213775420077 L 135.96858638743456 396.6213775420077 L 136.9109947643979 396.6213775420077 L 137.85340314136124 396.6213775420077 L 138.7958115183246 396.6213775420077 L 139.73821989528795 396.6213775420077 L 140.6806282722513 396.6213775420077 L 141.62303664921467 396.6213775420077 L 142.565445026178 396.6213775420077 L 143.50785340314138 396.6213775420077 L 144.4502617801047 396.6213775420077 L 145.39267015706807 396.6213775420077 L 146.33507853403142 396.6213775420077 L 147.27748691099475 396.6213775420077 L 148.21989528795814 396.6213775420077 L 149.16230366492147 396.6213775420077 L 150.1047120418848 396.6213775420077 L 151.04712041884818 396.6213775420077 L 151.9895287958115 396.6213775420077 L 152.93193717277487 396.6213775420077 L 153.87434554973822 396.6213775420077 L 154.81675392670158 396.6213775420077 L 155.75916230366494 396.6213775420077 L 156.70157068062827 396.6213775420077 L 157.64397905759162 396.6213775420077 L 158.58638743455498 396.6213775420077 L 159.5287958115183 396.6213775420077 L 160.4712041884817 396.6213775420077 L 161.41361256544502 396.6213775420077 L 162.35602094240838 396.6213775420077 L 163.29842931937173 396.6213775420077 L 164.24083769633506 396.6213775420077 L 165.18324607329842 396.6213775420077 L 166.12565445026178 396.6213775420077 L 167.06806282722513 396.6213775420077 L 168.0104712041885 396.6213775420077 L 168.95287958115182 396.6213775420077 L 169.8952879581152 396.6213775420077 L 170.83769633507853 396.6213775420077 L 171.7801047120419 396.6213775420077 L 172.72251308900525 396.6213775420077 L 173.66492146596858 396.6213775420077 L 174.60732984293196 396.6213775420077 L 175.5497382198953 396.6213775420077 L 176.49214659685862 396.6213775420077 L 177.434554973822 396.6213775420077 L 178.37696335078533 396.6213775420077 L 179.3193717277487 396.6213775420077 L 180.26178010471205 396.6213775420077 L 181.2041884816754 396.6213775420077 L 182.14659685863876 396.6213775420077 L 183.0890052356021 396.6213775420077 L 184.03141361256542 396.6213775420077 L 184.9738219895288 396.6213775420077 L 185.91623036649216 396.6213775420077 L 186.85863874345551 396.6213775420077 L 187.80104712041884 396.6213775420077 L 188.7434554973822 396.6213775420077 L 189.68586387434556 396.6213775420077 L 190.6282722513089 396.6213775420077 L 191.57068062827227 396.6213775420077 L 192.5130890052356 396.6213775420077 L 193.45549738219896 396.6213775420077 L 194.3979057591623 396.6213775420077 L 195.34031413612564 396.6213775420077 L 196.282722513089 396.6213775420077 L 197.22513089005236 396.6213775420077 L 198.1675392670157 396.6213775420077 L 199.10994764397907 396.0444089311065 L 200.0523560209424 396.0444089311065 L 200.99476439790575 396.0444089311065 L 201.9371727748691 395.3231981674799 L 202.87958115183247 393.8807766402268 L 203.82198952879583 393.8807766402268 L 204.76439790575915 393.8807766402268 L 205.7068062827225 393.15956587660025 L 206.64921465968587 393.15956587660025 L 207.5916230366492 393.15956587660025 L 208.53403141361258 393.15956587660025 L 209.4764397905759 393.15956587660025 L 210.41884816753927 393.15956587660025 L 211.36125654450262 393.15956587660025 L 212.30366492146595 393.15956587660025 L 213.2460732984293 393.15956587660025 L 214.1884816753927 393.16014284521117 L 215.13089005235602 393.16014284521117 L 216.07329842931938 393.16014284521117 L 217.01570680628274 393.16014284521117 L 217.95811518324606 393.16014284521117 L 218.90052356020942 393.16014284521117 L 219.84293193717275 393.16014284521117 L 220.78534031413614 393.16014284521117 L 221.7277486910995 393.16014284521117 L 222.67015706806282 392.8716585397606 L 223.61256544502618 392.8716585397606 L 224.55497382198953 392.8716585397606 L 225.49738219895286 392.8716585397606 L 226.43979057591625 392.8716585397606 L 227.38219895287958 392.8716585397606 L 228.32460732984293 392.8716585397606 L 229.2670157068063 392.8716585397606 L 230.20942408376962 392.8716585397606 L 231.15183246073298 392.8716585397606 L 232.09424083769633 392.8716585397606 L 233.0366492146597 390.275299790705 L 233.97905759162305 390.275299790705 L 234.92146596858638 390.275299790705 L 235.86387434554973 390.275299790705 L 236.8062827225131 390.275299790705 L 237.74869109947645 390.275299790705 L 238.6910994764398 390.275299790705 L 239.63350785340316 390.275299790705 L 240.5759162303665 390.275299790705 L 241.51832460732984 390.275299790705 L 242.46073298429317 390.275299790705 L 243.40314136125653 390.275299790705 L 244.34554973821992 390.275299790705 L 245.28795811518324 390.275299790705 L 246.2303664921466 390.275299790705 L 247.17277486910996 390.275299790705 L 248.1151832460733 390.275299790705 L 249.05759162303664 390.275299790705 L 250 390.275299790705 L 250.94240837696336 390.275299790705 L 251.8848167539267 390.275299790705 L 252.82722513089004 390.275299790705 L 253.7696335078534 389.9868154852544 L 254.71204188481676 389.9868154852544 L 255.6544502617801 389.9868154852544 L 256.59685863874347 389.9868154852544 L 257.5392670157068 389.9868154852544 L 258.4816753926701 389.9868154852544 L 259.4240837696335 389.9868154852544 L 260.36649214659684 389.9868154852544 L 261.3089005235602 389.9868154852544 L 262.25130890052355 389.9868154852544 L 263.19371727748694 389.9868154852544 L 264.13612565445027 389.9868154852544 L 265.0785340314136 389.9868154852544 L 266.020942408377 389.9868154852544 L 266.9633507853403 389.9868154852544 L 267.90575916230364 389.9868154852544 L 268.848167539267 389.9868154852544 L 269.7905759162304 389.9868154852544 L 270.7329842931937 389.9868154852544 L 271.67539267015707 388.8328782634519 L 272.6178010471204 388.8328782634519 L 273.5602094240838 388.8328782634519 L 274.5026178010471 388.8328782634519 L 275.4450261780105 388.8328782634519 L 276.3874345549738 388.8328782634519 L 277.32984293193715 388.8328782634519 L 278.27225130890054 388.8328782634519 L 279.2146596858639 388.8328782634519 L 280.1570680628272 388.8328782634519 L 281.0994764397906 385.9501988412366 L 282.04188481675396 385.9501988412366 L 282.98429319371724 385.9501988412366 L 283.9267015706806 385.9501988412366 L 284.869109947644 384.2192930085329 L 285.81151832460733 395.21759144845265 L 286.75392670157066 394.7258876915969 L 287.69633507853405 394.7258876915969 L 288.6387434554974 383.6363229432316 L 289.5811518324607 383.6363229432316 L 290.5235602094241 383.6363229432316 L 291.4659685863875 383.6363229432316 L 292.4083769633508 383.6363229432316 L 293.35078534031413 383.6363229432316 L 294.2931937172775 383.6363229432316 L 295.23560209424085 383.6363229432316 L 296.1780104712042 383.6363229432316 L 297.12041884816756 383.6363229432316 L 298.06282722513083 383.6363229432316 L 299.0052356020942 383.6363229432316 L 299.9476439790576 383.6363229432316 L 300.89005235602093 383.6363229432316 L 301.8324607329843 383.6363229432316 L 302.77486910994764 383.6363229432316 L 303.71727748691103 383.6363229432316 L 304.6596858638743 383.6363229432316 L 305.6020942408377 383.6363229432316 L 306.5445026178011 383.6363229432316 L 307.4869109947644 383.6363229432316 L 308.42931937172773 383.6363229432316 L 309.3717277486911 383.6363229432316 L 310.31413612565444 383.6363229432316 L 311.2565445026178 383.6363229432316 L 312.19895287958116 383.6363229432316 L 313.14136125654454 383.6363229432316 L 314.0837696335078 383.6363229432316 L 315.0261780104712 383.6363229432316 L 315.9685863874345 383.6363229432316 L 316.9109947643979 383.6363229432316 L 317.85340314136124 383.6363229432316 L 318.7958115183246 383.6363229432316 L 319.738219895288 383.6363229432316 L 320.6806282722513 383.4162094181728 L 321.62303664921467 383.4162094181728 L 322.565445026178 383.4162094181728 L 323.5078534031413 383.4162094181728 L 324.4502617801047 383.4162094181728 L 325.39267015706804 385.74768709952957 L 326.3350785340314 385.74768709952957 L 327.27748691099475 385.74768709952957 L 328.21989528795814 385.74768709952957 L 329.16230366492147 385.74768709952957 L 330.1047120418848 385.74768709952957 L 331.0471204188482 385.74768709952957 L 331.9895287958115 379.9780009905172 L 332.9319371727749 379.9780009905172 L 333.8743455497382 379.9780009905172 L 334.81675392670155 379.9780009905172 L 335.75916230366494 379.9780009905172 L 336.70157068062827 379.9780009905172 L 337.64397905759165 379.9780009905172 L 338.586387434555 379.9780009905172 L 339.5287958115183 379.9780009905172 L 340.47120418848164 379.9780009905172 L 341.413612565445 379.33802838815217 L 342.3560209424084 379.33802838815217 L 343.29842931937173 379.33802838815217 L 344.24083769633506 379.33802838815217 L 345.1832460732984 379.33802838815217 L 346.1256544502618 379.2729445402398 L 347.06806282722516 379.2729445402398 L 348.0104712041885 368.21578402227175 L 348.9528795811518 368.21578402227175 L 349.89528795811515 368.21578402227175 L 350.83769633507853 368.21578402227175 L 351.78010471204186 368.21578402227175 L 352.72251308900525 368.21578402227175 L 353.66492146596863 368.21578402227175 L 354.6073298429319 368.21578402227175 L 355.5497382198953 368.21578402227175 L 356.4921465968586 368.21578402227175 L 357.434554973822 368.21578402227175 L 358.3769633507854 368.21578402227175 L 359.31937172774866 367.7914974609361 L 360.26178010471205 367.7914974609361 L 361.2041884816754 367.7914974609361 L 362.14659685863876 367.7914974609361 L 363.0890052356021 367.7914974609361 L 364.0314136125655 367.7914974609361 L 364.9738219895288 367.7914974609361 L 365.91623036649213 367.7914974609361 L 366.8586387434555 367.7914974609361 L 367.80104712041884 367.7914974609361 L 368.74345549738223 367.7914974609361 L 369.6858638743455 367.7914974609361 L 370.6282722513089 367.7914974609361 L 371.57068062827227 367.7914974609361 L 372.5130890052356 367.7914974609361 L 373.455497382199 367.51371528855225 L 374.3979057591623 367.51371528855225 L 375.34031413612564 367.51371528855225 L 376.282722513089 367.51371528855225 L 377.22513089005236 361.7440291795399 L 378.16753926701574 364.14836137975743 L 379.10994764397907 364.738240096054 L 380.0523560209424 364.752628625818 L 380.9947643979057 367.03081468797416 L 381.9371727748691 367.03081468797416 L 382.8795811518325 367.03081468797416 L 383.8219895287958 367.03081468797416 L 384.76439790575915 367.03081468797416 L 385.7068062827225 367.03081468797416 L 386.64921465968587 364.19943469889125 L 387.5916230366492 364.2062377357824 L 388.5340314136126 364.2062377357824 L 389.4764397905759 364.2062377357824 L 390.41884816753924 367.0809625783045 L 391.3612565445026 365.65729463684113 L 392.30366492146595 365.65729463684113 L 393.24607329842934 365.65729463684113 L 394.18848167539267 365.65729463684113 L 395.130890052356 365.65729463684113 L 396.0732984293194 365.65729463684113 L 397.0157068062827 362.72170194259184 L 397.9581151832461 362.72170194259184 L 398.9005235602094 365.7099613124908 L 399.84293193717275 365.57034474596753 L 400.78534031413614 365.5795711952666 L 401.72774869109946 365.5795711952666 L 402.67015706806285 365.5795711952666 L 403.6125654450262 365.5795711952666 L 404.5549738219895 365.64895896938043 L 405.4973821989529 365.64895896938043 L 406.4397905759162 365.64895896938043 L 407.3821989528796 365.64895896938043 L 408.32460732984293 365.64895896938043 L 409.2670157068063 365.64895896938043 L 410.2094240837696 362.7106006337916 L 411.151832460733 337.45067803176914 L 412.09424083769636 337.45067803176914 L 413.0366492146597 337.46288616830407 L 413.9790575916231 337.46288616830407 L 414.92146596858635 337.46288616830407 L 415.86387434554973 337.46288616830407 L 416.80628272251306 337.46288616830407 L 417.74869109947645 337.46288616830407 L 418.69109947643983 337.46288616830407 L 419.6335078534031 337.46288616830407 L 420.5759162303665 334.51220084064647 L 421.5183246073298 334.51220084064647 L 422.4607329842932 334.51220084064647 L 423.4031413612566 337.49612426258614 L 424.3455497382199 337.49612426258614 L 425.28795811518324 337.0410401553441 L 426.2303664921466 337.0410401553441 L 427.17277486910996 337.0410401553441 L 428.1151832460733 337.0410401553441 L 429.05759162303667 337.0410401553441 L 430 333.55343398309753 L 430.94240837696333 333.55343398309753 L 431.8848167539267 335.9317897005761 L 432.82722513089004 335.9317897005761 L 433.7696335078534 335.9317897005761 L 434.71204188481676 335.9317897005761 L 435.6544502617801 335.9317897005761 L 436.59685863874347 335.9317897005761 L 437.5392670157068 335.9317897005761 L 438.4816753926702 335.9317897005761 L 439.4240837696335 335.9317897005761 L 440.36649214659684 335.9317897005761 L 441.3089005235602 335.9317897005761 L 442.25130890052355 335.9317897005761 L 443.19371727748694 335.9317897005761 L 444.13612565445027 341.09565876814213 L 445.0785340314136 341.09565876814213 L 446.0209424083769 341.09565876814213 L 446.9633507853403 338.21081571363595 L 447.9057591623037 338.21081571363595 L 448.848167539267 338.21081571363595 L 449.79057591623035 338.21081571363595 L 450.7329842931937 338.21081571363595 L 451.67539267015707 335.8207232429776 L 452.61780104712045 321.3965079704467 L 453.5602094240838 321.3965079704467 L 454.5026178010471 321.3965079704467 L 455.44502617801044 321.3965079704467 L 456.3874345549738 321.3965079704467 L 457.32984293193715 320.84019169133677 L 458.27225130890054 320.84019169133677 L 459.2146596858639 320.84019169133677 L 460.1570680628272 312.4856285086258 L 461.0994764397906 312.4856285086258 L 462.0418848167539 312.4856285086258 L 462.9842931937173 312.4856285086258 L 463.9267015706806 312.4856285086258 L 464.86910994764395 312.4856285086258 L 465.81151832460733 311.97377565200105 L 466.75392670157066 311.97377565200105 L 467.69633507853405 311.97377565200105 L 468.6387434554974 311.97377565200105 L 469.58115183246076 311.97377565200105 L 470.5235602094241 311.97377565200105 L 471.4659685863874 311.97377565200105 L 472.4083769633508 311.97377565200105 L 473.35078534031413 311.97377565200105 L 474.2931937172775 311.97377565200105 L 475.2356020942408 311.97377565200105 L 476.1780104712042 311.97377565200105 L 477.12041884816756 311.97377565200105 L 478.0628272251309 311.97377565200105 L 479.0052356020943 312.40667518572513 L 479.9476439790576 312.83970303129536 L 480.89005235602093 312.83970303129536 L 481.8324607329843 312.83970303129536 L 482.77486910994764 312.83970303129536 L 483.71727748691103 312.83970303129536 L 484.65968586387436 312.83970303129536 L 485.6020942408377 311.9177565218914 L 486.544502617801 311.9177565218914 L 487.4869109947644 312.3279277795596 L 488.4293193717278 312.3279277795596 L 489.3717277486911 312.1733842417706 L 490.31413612565444 312.1733842417706 L 491.25654450261777 312.18356772757863 L 492.19895287958116 306.4138816185663 L 493.1413612565445 306.4138816185663 L 494.08376963350787 306.4138816185663 L 495.0261780104712 306.4138816185663 L 495.9685863874345 306.4138816185663 L 496.9109947643979 306.4138816185663 L 497.85340314136124 306.4138816185663 L 498.7958115183246 306.4138816185663 L 499.73821989528795 305.3221925593473 L 500.6806282722513 305.3221925593473 L 501.62303664921467 305.3221925593473 L 502.565445026178 305.3221925593473 L 503.5078534031414 305.3221925593473 L 504.4502617801047 305.3221925593473 L 505.39267015706804 305.3221925593473 L 506.3350785340314 305.3221925593473 L 507.27748691099475 305.3221925593473 L 508.21989528795814 305.3221925593473 L 509.16230366492147 305.3319870022607 L 510.1047120418848 305.3319870022607 L 511.0471204188481 305.3319870022607 L 511.9895287958115 305.3319870022607 L 512.931937172775 304.94857203186837 L 513.8743455497382 304.94857203186837 L 514.8167539267016 304.94857203186837 L 515.7591623036649 304.94857203186837 L 516.7015706806283 304.24484829253686 L 517.6439790575917 304.24484829253686 L 518.586387434555 304.24484829253686 L 519.5287958115184 304.37450141890594 L 520.4712041884817 304.37450141890594 L 521.413612565445 304.37450141890594 L 522.3560209424083 304.63085962167827 L 523.2984293193717 304.63085962167827 L 524.2408376963351 304.6417856926808 L 525.1832460732984 304.6417856926808 L 526.1256544502617 304.6417856926808 L 527.0680628272252 304.6417856926808 L 528.0104712041884 304.6417856926808 L 528.9528795811518 304.6417856926808 L 529.8952879581152 304.6417856926808 L 530.8376963350786 304.6417856926808 L 531.7801047120419 304.6417856926808 L 532.7225130890051 304.6417856926808 L 533.6649214659686 304.6417856926808 L 534.6073298429319 304.6417856926808 L 535.5497382198953 304.6417856926808 L 536.4921465968587 304.6417856926808 L 537.4345549738221 303.9205749290543 L 538.3769633507853 303.9215822874005 L 539.3193717277486 303.9215822874005 L 540.261780104712 303.9215822874005 L 541.2041884816754 303.9215822874005 L 542.1465968586388 303.94904237817576 L 543.0890052356021 304.001059307726 L 544.0314136125655 310.2301488099236 L 544.9738219895288 310.29570597136865 L 545.9162303664921 309.9439265914955 L 546.8586387434555 309.9439265914955 L 547.8010471204188 309.9439265914955 L 548.7434554973822 324.1227872970111 L 549.6858638743456 323.5125713771548 L 550.6282722513089 323.52799360137965 L 551.5706806282722 323.52909488444607 L 552.5130890052357 323.5302078854158 L 553.4554973821989 323.5302078854158 L 554.3979057591623 323.5302078854158 L 555.3403141361257 323.68336197310714 L 556.2827225130891 323.7737087580115 L 557.2251308900524 323.8264747846014 L 558.1675392670156 323.83352880283826 L 559.1099476439791 323.83352880283826 L 560.0523560209424 323.83352880283826 L 560.9947643979058 323.83352880283826 L 561.937172774869 323.83352880283826 L 562.8795811518326 323.8600770903191 L 563.8219895287958 323.8856708697785 L 564.7643979057591 323.9021850672988 L 565.7068062827225 323.56879823740155 L 566.6492146596859 323.56879823740155 L 567.5916230366493 323.56879823740155 L 568.5340314136125 323.3419607489998 L 569.476439790576 323.3510827381318 L 570.4188481675392 323.37368779133834 L 571.3612565445026 323.37972928735996 L 572.303664921466 323.3521745646827 L 573.2460732984293 323.3521745646827 L 574.1884816753927 323.3521745646827 L 575.130890052356 322.4677376501263 L 576.0732984293194 322.47042923754464 L 577.0157068062827 322.33697856147546 L 577.958115183246 322.4626328626445 L 578.9005235602094 321.92397860240936 L 579.8429319371728 321.92397860240936 L 580.7853403141361 322.16563198122526 L 581.7277486910994 323.33326392803707 L 582.6701570680628 320.4646012081644 L 583.6125654450261 322.2908335062769 L 584.5549738219895 322.3033430800626 L 585.4973821989529 322.3126250048936 L 586.4397905759163 322.3126250048936 L 587.3821989528795 322.3126250048936 L 588.3246073298429 322.3126250048936 L 589.2670157068063 328.11119892255874 L 590.2094240837696 328.1533232277501 L 591.151832460733 327.90360645296096 L 592.0942408376964 328.16690183782646 L 593.0366492146596 328.16690183782646 L 593.979057591623 328.16690183782646 L 594.9214659685864 328.18157458232815 L 595.8638743455498 328.21281275916266 L 596.8062827225131 328.26558856842513 L 597.7486910994764 328.2422833926577 L 598.6910994764398 327.6837386299851 L 599.6335078534031 327.6837386299851 L 600.5759162303665 327.7379087992895 L 601.5183246073299 327.1001187537858 L 602.4607329842933 327.1012651904157 L 603.4031413612565 323.9344499886248 L 604.3455497382198 327.7147723002955 L 605.2879581151833 327.76169060882637 L 606.2303664921466 327.76169060882637 L 607.17277486911 328.15622918785573 L 608.1151832460733 328.0351061385208 L 609.0575916230366 328.7877154474073 L 610 328.7877154474073 L 610.9424083769633 328.7877154474073 L 611.8848167539268 328.7877154474073 L 612.82722513089 328.7877154474073 L 613.7696335078533 328.83135100648116 L 614.7120418848168 328.28486537819964 L 615.6544502617801 310.92816026206356 L 616.5968586387435 310.9407086081399 L 617.5392670157069 327.94966418396024 L 618.4816753926701 327.9701646864616 L 619.4240837696335 327.9701646864616 L 620.3664921465968 327.9701646864616 L 621.3089005235603 328.0596393919765 L 622.2513089005236 328.0642119836116 L 623.1937172774869 311.08941869039427 L 624.1361256544503 311.08941869039427 L 625.0785340314136 310.5485367543525 L 626.020942408377 310.5485367543525 L 626.9633507853403 310.5485367543525 L 627.9057591623036 310.5979493847335 L 628.848167539267 310.08965567437895 L 629.7905759162303 266.8516163763711 L 630.7329842931938 309.83922614141636 L 631.6753926701571 310.00196279217664 L 632.6178010471205 310.00196279217664 L 633.5602094240837 310.00196279217664 L 634.5026178010471 310.00196279217664 L 635.4450261780105 310.2199279746128 L 636.3874345549738 310.30571654306635 L 637.3298429319373 310.3124532285672 L 638.2722513089005 310.3124532285672 L 639.2146596858638 310.3124532285672 L 640.1570680628272 310.3124532285672 L 641.0994764397906 310.3962946722011 L 642.041884816754 309.6447865944538 L 642.9842931937172 309.6933453978361 L 643.9267015706806 308.84127645119975 L 644.869109947644 308.85343667049153 L 645.8115183246073 308.85343667049153 L 646.7539267015708 308.85343667049153 L 647.696335078534 305.9326397016033 L 648.6387434554973 307.9965768072977 L 649.5811518324607 306.5645405996471 L 650.5235602094241 302.15634431350395 L 651.4659685863875 302.99376884479744 L 652.4083769633507 302.99376884479744 L 653.3507853403141 302.99376884479744 L 654.2931937172775 302.99376884479744 L 655.2356020942408 307.5670878930881 L 656.1780104712042 291.3395927973002 L 657.1204188481676 296.625936578566 L 658.062827225131 304.2901984177705 L 659.0052356020942 304.2901984177705 L 659.9476439790576 304.2901984177705 L 660.890052356021 297.16300455015073 L 661.8324607329843 315.1275287888129 L 662.7748691099476 312.5862361836177 L 663.717277486911 329.74578547111645 L 664.6596858638743 326.46485389795305 L 665.6020942408377 326.46485389795305 L 666.5445026178011 326.46485389795305 L 667.4869109947645 322.2541425721913 L 668.4293193717277 313.1213406444743 L 669.371727748691 311.3088347757963 L 670.3141361256545 290.79293805951886 L 671.2565445026178 297.87339392129866 L 672.1989528795812 297.87339392129866 L 673.1413612565445 297.87339392129866 L 674.0837696335078 297.87339392129866 L 675.0261780104712 318.2979053293546 L 675.9685863874346 304.1335171102785 L 676.910994764398 307.58413042076535 L 677.8534031413612 327.1337214056847 L 678.7958115183246 303.36497443817234 L 679.738219895288 303.36497443817234 L 680.6806282722513 303.36497443817234 L 681.6230366492147 304.6443024884277 L 682.565445026178 286.32993950610967 L 683.5078534031413 278.24904851757964 L 684.4502617801047 257.9942776111002 L 685.392670157068 257.2038348837332 L 686.3350785340315 257.2050382671649 L 687.2774869109948 285.4905856494782 L 688.2198952879581 255.98095484600964 L 689.1623036649215 273.4766763082231 L 690.1047120418848 257.74857702826625 L 691.0471204188482 294.9062758063919 L 691.9895287958115 294.9218491411983 L 692.931937172775 294.9218491411983 L 693.8743455497382 250.5392220226981 L 694.8167539267015 259.85981774212985 L 695.759162303665 240.6149791830688 L 696.7015706806283 256.8422563001154 L 697.6439790575917 262.6795616302071 L 698.5863874345549 262.6806643037678 L 699.5287958115183 262.6806643037678 L 700.4712041884817 266.4553442951503 L 701.413612565445 248.3732030434626 L 702.3560209424085 214.55845641581536 L 703.2984293193717 184.79523965720458 L 704.240837696335 140.96554204091677 L 705.1832460732984 141.558401290512 L 706.1256544502618 141.558401290512 L 707.0680628272252 134.32426885837202 L 708.0104712041884 138.23056571763925 L 708.9528795811518 157.68326385391657 L 709.8952879581152 274.6217726688492 L 710.8376963350785 255.31846607245262 L 711.780104712042 255.31846607245262 L 712.7225130890052 255.36173589112403 L 713.6649214659686 196.61172839892677 L 714.6073298429319 280.9793430579124 L 715.5497382198953 214.76101916154758 L 716.4921465968587 214.76101916154758 L 717.434554973822 251.90699777434097 L 718.3769633507853 251.92118430739424 L 719.3193717277487 251.95594920486292 L 720.261780104712 288.39071061194545 L 721.2041884816754 165.96134733743907 L 722.1465968586388 183.24329021685082 L 723.0890052356021 148.3496780612399 L 724.0314136125654 296.89485631114735 L 724.9738219895288 296.95620561433196 L 725.9162303664922 296.9573111438873 L 726.8586387434555 297.0084987893514 L 727.8010471204188 175.2485896265634 L 728.7434554973822 141.36782235591875 L 729.6858638743455 223.64451260631307 L 730.6282722513089 310.9952454121481 L 731.5706806282723 310.9952454121481 L 732.5130890052357 310.9952454121481 L 733.4554973821989 302.1362094071629 L 734.3979057591622 283.0590809971365 L 735.3403141361257 262.4758467935526 L 736.282722513089 268.5796268363432 L 737.2251308900524 283.14424283343646 L 738.1675392670157 283.15700044602795 L 739.109947643979 283.16100821424146 L 740.0523560209424 289.0584241536069 L 740.9947643979058 240.72261432179295 L 741.9371727748692 224.0115187913504 L 742.8795811518324 216.56418973579807 L 743.8219895287958 279.6602951037579 L 744.7643979057592 279.6817900982055 L 745.7068062827225 279.7274498651054 L 746.6492146596859 227.8082218477016 L 747.5916230366493 223.50159978926726 L 748.5340314136126 226.5223089412353 L 749.4764397905759 250.60875421205523 L 750.4188481675392 208.6421047128213 L 751.3612565445027 208.65042471558422 L 752.303664921466 208.65203344831355 L 753.2460732984293 261.22495028517244 L 754.1884816753927 163.30771992454794 L 755.130890052356 274.80386863589536 L 756.0732984293194 280.1350001537025 L 757.0157068062827 234.45976758133384 L 757.9581151832462 234.46439585043993 L 758.9005235602094 234.46439585043993 L 759.8429319371727 294.98996579576544 L 760.7853403141362 294.25840170544586 L 761.7277486910995 328.9587802361879 L 762.6701570680628 268.91295397883755 L 763.6125654450261 278.3594313539195 L 764.5549738219895 278.36048596599494 L 765.4973821989529 278.36048596599494 L 766.4397905759162 245.04181931557184 L 767.3821989528797 230.6014725776487 L 768.3246073298429 222.10946583644525 L 769.2670157068062 190.18082544366015 L 770.2094240837697 177.87300367626304 L 771.151832460733 177.87300367626304 L 772.0942408376964 177.87300367626304 L 773.0366492146596 275.69671408904793 L 773.979057591623 214.12637278721724 L 774.9214659685864 212.45044877441137 L 775.8638743455497 170.43295945524042 L 776.8062827225132 166.1498102973487 L 777.7486910994764 166.61323148562457 L 778.6910994764398 166.61323148562457 L 779.6335078534031 166.6221157059921 L 780.5759162303665 227.00917089290215 L 781.5183246073299 200.76225226319568 L 782.4607329842931 112.0934323001855 L 783.4031413612566 215.05740909090477 L 784.3455497382199 215.05740909090477 L 785.2879581151832 215.16524429349477 L 786.2303664921466 163.026967777391 L 787.17277486911 143.0123991448226 L 788.1151832460733 137.11085724522383 L 789.0575916230366 124.23106742502773 L 790 92.48294565365188 L 790.9424083769634 92.48823593654208 L 791.8848167539267 92.55024935944624 L 792.82722513089 162.7317918119632 L 793.7696335078534 188.21145836180082 L 794.7120418848167 70 L 795.6544502617801 201.34004350906594 L 796.5968586387435 215.10312403797593 L 797.5392670157069 215.11511910000283 L 798.4816753926701 215.13087562234324 L 799.4240837696335 215.13087562234324 L 800.3664921465969 183.7782651125294 L 801.3089005235602 203.12496032543433 L 802.2513089005236 116.06956967395905 L 803.1937172774869 116.35241572675022 L 804.1361256544502 116.35241572675022 L 805.0785340314136 116.35241572675022 L 806.020942408377 200.65209781300405 L 806.9633507853404 222.59583349222675 L 807.9057591623036 203.51726618018165 L 808.848167539267 134.65300245839427 L 809.7905759162304 172.96355773841722 L 810.7329842931937 172.98539294240618 L 811.6753926701571 173.0106195967385 L 812.6178010471205 173.0106195967385 L 813.5602094240838 191.86184382278802 L 814.5026178010471 133.88339761592385 L 815.4450261780104 223.41253827294668 L 816.3874345549739 252.6747354818132 L 817.3298429319372 252.6988463653973 L 818.2722513089005 254.33782459708215 L 819.2146596858639 180.81125947765332 L 820.1570680628272 158.63062253503313 L 821.0994764397906 141.59614322374279 L 822.0418848167538 104.17302763371464 L 822.9842931937173 153.80676294501916 L 823.9267015706806 154.08701682208368 L 824.8691099476439 154.09683558735873 L 825.8115183246074 223.31288099459914 L 826.7539267015707 203.84966619181515 L 827.696335078534 231.50177984357597 L 828.6387434554973 216.23959134260267 L 829.5811518324607 192.66320187312348 L 830.5235602094241 192.66320187312348 L 831.4659685863874 192.66320187312348 L 832.4083769633509 192.66320187312348 L 833.3507853403141 203.99489562437898 L 834.2931937172775 225.95691976614572 L 835.2356020942409 235.70602860162384 L 836.1780104712042 206.75085551712735 L 837.1204188481676 206.75085551712735 L 838.0628272251308 206.75184256617842 L 839.0052356020942 258.45717727057223 L 839.9476439790576 248.89436917628592 L 840.8900523560209 246.7421575174842 L 841.8324607329844 235.4350156269221 L 842.7748691099476 238.09971826963218 L 843.717277486911 238.1177310277255 L 844.6596858638743 238.14603883868216 L 845.6020942408377 247.32717755225997 L 846.5445026178011 256.06528410972766 L 847.4869109947643 212.0847139616802 L 848.4293193717278 212.0847139616802 L 849.3717277486911 220.6458079917449 L 850.3141361256544 220.6458079917449 L 851.2565445026178 220.6467873671135 L 852.1989528795812 228.3641560224725 L 853.1413612565445 207.7948249449602 L 854.0837696335078 215.66592933881046 L 855.0261780104712 215.66592933881046 L 855.9685863874346 208.82375369540821 L 856.9109947643979 208.82806373747692 L 857.8534031413612 208.82806373747692 L 858.7958115183246 212.0942984776992 L 859.7382198952879 213.80379666900305 L 860.6806282722513 178.9782112474012 L 861.6230366492147 199.6397831621912 L 862.565445026178 190.38972638464577 L 863.5078534031413 191.71961941584033 L 864.4502617801047 191.7205943485506 L 865.3926701570681 191.75397206923654 L 866.3350785340314 230.72746171567474 L 867.2774869109948 230.01426706544373 L 868.2198952879581 225.2119538489321 L 869.1623036649215 225.16283469363495 L 870.1047120418848 225.20313321050554 L 871.0471204188482 225.2319416282774 L 871.9895287958116 243.77208088063128 L 872.9319371727748 244.6285848695859 L 873.8743455497382 263.6512377496705 L 874.8167539267016 237.0952102349123 L 875.7591623036649 253.16583171957015 L 876.7015706806283 242.6773194924077 L 877.6439790575917 242.6773194924077 L 878.586387434555 275.84616366509454 L 879.5287958115183 183.44645306075887 L 880.4712041884816 220.27794215232575 L 881.4136125654451 207.69187421438792 L 882.3560209424083 202.87601011114165 L 883.2984293193717 202.8817465638587 L 884.2408376963351 202.88614398782352 L 885.1832460732984 230.90061836185106 L 886.1256544502618 205.40474072495294 L 887.068062827225 224.41966219680307 L 888.0104712041885 215.8294426470179 L 888.9528795811518 219.8567196693436 L 889.8952879581152 219.85767582172556 L 890.8376963350786 219.85767582172556 L 891.7801047120419 222.94439427925786 L 892.7225130890052 234.57381173820835 L 893.6649214659686 238.44294590500527 L 894.6073298429319 237.6279918489898 L 895.5497382198953 237.0510232380886 L 896.4921465968586 237.0510232380886 L 897.4345549738221 237.0510232380886 L 898.3769633507853 240.55879316510678 L 899.3193717277487 254.36577330277538 L 900.2617801047121 247.66987982886442 L 901.2041884816754 210.47691361361004 L 902.1465968586388 216.4550882244729 L 903.089005235602 216.48157627643076 L 904.0314136125655 216.48157627643076 L 904.9738219895288 218.03460109972997 L 905.9162303664921 221.91028833176733 L 906.8586387434556 216.82819674687184 L 907.8010471204188 221.6144820350085 L 908.7434554973822 281.0443320164603 L 909.6858638743455 281.0775765727908 L 910.6282722513089 281.0775765727908 L 911.5706806282723 204.4902932785239 L 912.5130890052355 189.43690510208683 L 913.455497382199 182.37793586870973 L 914.3979057591623 205.40775786690992 L 915.3403141361256 227.2739010475844 L 916.282722513089 227.74221605476947 L 917.2251308900524 227.74221605476947 L 918.1675392670157 190.55908914487264 L 919.109947643979 201.89135798959106 L 920.0523560209424 171.75426098421582 L 920.9947643979058 180.63208242365812 L 921.937172774869 168.7601816742418 L 922.8795811518324 168.77604911879763 L 923.8219895287958 168.7908901650431 L 924.7643979057592 181.1142245989972 L 925.7068062827225 175.35493526241424 L 926.6492146596859 158.54007703347332 L 927.5916230366493 163.94636413635527 L 928.5340314136125 180.24105951631398 L 929.4764397905759 180.24105951631398 L 930.4188481675393 180.2416364849249 L 931.3612565445026 180.2445338193498 L 932.303664921466 180.09205171825636 L 933.2460732984293 193.17552314171493 L 934.1884816753927 196.94113656180048 L 935.130890052356 189.12519925246895 L 936.0732984293194 189.12519925246895 L 937.0157068062828 189.1389431063555 L 937.958115183246 160.53119550775443 L 938.9005235602094 195.7403551142368 L 939.8429319371728 178.56343061895976 L 940.7853403141361 178.56343061895976 L 941.7277486910995 178.56343061895976 L 942.6701570680628 178.56343061895976 L 943.6125654450262 178.56343061895976 L 944.5549738219895 171.96638095535178 L 945.4973821989528 188.32502825735355 L 946.4397905759163 177.0360132204276 L 947.3821989528795 158.62048663896115 L 948.3246073298429 169.7464484712984 L 949.2670157068063 170.81697313908387 L 950.2094240837696 170.81792066578515 L 951.151832460733 194.9671040897814 L 952.0942408376962 186.39863934340923 L 953.0366492146597 108.69799501035442 L 953.979057591623 143.40656268737843 L 954.9214659685864 165.04752540465313 L 955.8638743455498 165.06234063155327 L 956.8062827225131 169.50086642666562 L 957.7486910994764 123.25581766362922 L 958.6910994764398 128.7401726583464 L 959.6335078534032 130.4158326791644 L 960.5759162303665 161.1153378578793 L 961.5183246073298 170.85000917895846 L 962.4607329842933 173.19664284487692 L 963.4031413612565 174.49438101150795 L 964.3455497382199 114.62531353076548 L 965.2879581151833 85.01117775868062 L 966.2303664921466 89.71247934957591 L 967.17277486911 92.28515763363112 L 968.1151832460732 99.26931353971338 L 969.0575916230367 123.06130331268633 L 970 123.41258277581198" stroke="#f0883e" stroke-width="1.5" fill="none"/><circle cx="794.7120418848167" cy="70" r="4" fill="#f0883e" stroke="#0d1117" stroke-width="2"/><text x="790" y="90" class="annot">2025-10-29: 12.1B</text><line x1="70" y1="420" x2="970" y2="420" stroke="#8b949e" stroke-width="1.5"/>
</svg>