<svg xmlns="http://www.w3.org/2000/svg" width="1000" height="480" viewBox="0 0 1000 480">
  <style>
    .title { font: 600 18px -apple-system, system-ui, sans-serif; fill: #e6edf3; }
    .subtitle { font: 400 12px -apple-system, system-ui, sans-serif; fill: #7d8590; }
    .axis { font: 400 11px -apple-system, system-ui, sans-serif; fill: #8b949e; }
    .label { font: 500 12px -apple-system, system-ui, sans-serif; fill: #e6edf3; }
    .annot { font: 600 11px -apple-system, system-ui, sans-serif; fill: #f0883e; }
  </style>
  <rect width="1000" height="480" fill="#0d1117"/>
  <text x="24" y="32" class="title">COPM — Monthly Gross Volume (USD)</text>
  <text x="24" y="50" class="subtitle">33 months · peak month: $318.4M</text>
  <line x1="70" y1="390" x2="970" y2="390" stroke="#30363d" stroke-width="1"/><text x="62" y="394" class="axis" text-anchor="end">$0</text><line x1="70" y1="326" x2="970" y2="326" stroke="#30363d" stroke-width="1"/><text x="62" y="330" class="axis" text-anchor="end">$63.7M</text><line x1="70" y1="262" x2="970" y2="262" stroke="#30363d" stroke-width="1"/><text x="62" y="266" class="axis" text-anchor="end">$127.3M</text><line x1="70" y1="198" x2="970" y2="198" stroke="#30363d" stroke-width="1"/><text x="62" y="202" class="axis" text-anchor="end">$191.0M</text><line x1="70" y1="134.00000000000003" x2="970" y2="134.00000000000003" stroke="#30363d" stroke-width="1"/><text x="62" y="138.00000000000003" class="axis" text-anchor="end">$254.7M</text><line x1="70" y1="70" x2="970" y2="70" stroke="#30363d" stroke-width="1"/><text x="62" y="74" class="axis" text-anchor="end">$318.4M</text><rect x="73.4090909090909" y="389.9975941561528" width="20.454545454545453" height="0.0024058438471953334" fill="#3fb950" fill-opacity="0.85" rx="2"/><text x="83.63636363636363" y="408" class="axis" text-anchor="middle" transform="rotate(-45 83.63636363636363 408)">2023-09</text><rect x="100.68181818181819" y="389.9445327178223" width="20.454545454545453" height="0.0554672821776797" fill="#3fb950" fill-opacity="0.85" rx="2"/><rect x="127.95454545454545" y="389.46927645873785" width="20.454545454545453" height="0.5307235412621267" fill="#3fb950" fill-opacity="0.85" rx="2"/><text x="138.1818181818182" y="408" class="axis" text-anchor="middle" transform="rotate(-45 138.1818181818182 408)">2023-11</text><rect x="155.22727272727272" y="389.99999623080265" width="20.454545454545453" height="0.000003769197329970803" fill="#3fb950" fill-opacity="0.85" rx="2"/><rect x="182.5" y="389.99965003937746" width="20.454545454545453" height="0.00034996062253224853" fill="#3fb950" fill-opacity="0.85" rx="2"/><text x="192.72727272727272" y="408" class="axis" text-anchor="middle" transform="rotate(-45 192.72727272727272 408)">2024-01</text><rect x="209.77272727272728" y="389.93872610096207" width="20.454545454545453" height="0.0612738990379523" fill="#3fb950" fill-opacity="0.85" rx="2"/><rect x="237.04545454545453" y="389.73769734865465" width="20.454545454545453" height="0.26230265134532965" fill="#3fb950" fill-opacity="0.85" rx="2"/><text x="247.27272727272725" y="408" class="axis" text-anchor="middle" transform="rotate(-45 247.27272727272725 408)">2024-03</text><rect x="264.3181818181818" y="389.8750468620641" width="20.454545454545453" height="0.12495313793592422" fill="#3fb950" fill-opacity="0.85" rx="2"/><rect x="291.5909090909091" y="389.377289445462" width="20.454545454545453" height="0.6227105545380034" fill="#3fb950" fill-opacity="0.85" rx="2"/><text x="301.81818181818187" y="408" class="axis" text-anchor="middle" transform="rotate(-45 301.81818181818187 408)">2024-05</text><rect x="318.86363636363643" y="389.7723105572925" width="20.454545454545453" height="0.22768944270753863" fill="#3fb950" fill-opacity="0.85" rx="2"/><rect x="346.1363636363637" y="389.70613477775504" width="20.454545454545453" height="0.29386522224495903" fill="#3fb950" fill-opacity="0.85" rx="2"/><text x="356.36363636363643" y="408" class="axis" text-anchor="middle" transform="rotate(-45 356.36363636363643 408)">2024-07</text><rect x="373.40909090909093" y="388.3504149233083" width="20.454545454545453" height="1.6495850766917233" fill="#3fb950" fill-opacity="0.85" rx="2"/><rect x="400.6818181818182" y="388.10366484136335" width="20.454545454545453" height="1.896335158636666" fill="#3fb950" fill-opacity="0.85" rx="2"/><text x="410.90909090909093" y="408" class="axis" text-anchor="middle" transform="rotate(-45 410.90909090909093 408)">2024-09</text><rect x="427.9545454545455" y="389.2273693247266" width="20.454545454545453" height="0.7726306752733726" fill="#3fb950" fill-opacity="0.85" rx="2"/><rect x="455.22727272727275" y="389.75864020055013" width="20.454545454545453" height="0.24135979944984484" fill="#3fb950" fill-opacity="0.85" rx="2"/><text x="465.4545454545455" y="408" class="axis" text-anchor="middle" transform="rotate(-45 465.4545454545455 408)">2024-11</text><rect x="482.50000000000006" y="389.800093711215" width="20.454545454545453" height="0.19990628878495872" fill="#3fb950" fill-opacity="0.85" rx="2"/><rect x="509.7727272727273" y="388.9796226565366" width="20.454545454545453" height="1.0203773434634182" fill="#3fb950" fill-opacity="0.85" rx="2"/><text x="520" y="408" class="axis" text-anchor="middle" transform="rotate(-45 520 408)">2025-01</text><rect x="537.0454545454545" y="389.43286282913397" width="20.454545454545453" height="0.5671371708660511" fill="#3fb950" fill-opacity="0.85" rx="2"/><rect x="564.3181818181819" y="389.5337272820983" width="20.454545454545453" height="0.46627271790167635" fill="#3fb950" fill-opacity="0.85" rx="2"/><text x="574.5454545454546" y="408" class="axis" text-anchor="middle" transform="rotate(-45 574.5454545454546 408)">2025-03</text><rect x="591.5909090909091" y="385.7739203712602" width="20.454545454545453" height="4.226079628739809" fill="#3fb950" fill-opacity="0.85" rx="2"/><rect x="618.8636363636364" y="382.727147237012" width="20.454545454545453" height="7.2728527629879824" fill="#3fb950" fill-opacity="0.85" rx="2"/><text x="629.0909090909091" y="408" class="axis" text-anchor="middle" transform="rotate(-45 629.0909090909091 408)">2025-05</text><rect x="646.1363636363636" y="352.2791945472786" width="20.454545454545453" height="37.72080545272138" fill="#3fb950" fill-opacity="0.85" rx="2"/><rect x="673.4090909090909" y="183.6966144153149" width="20.454545454545453" height="206.3033855846851" fill="#3fb950" fill-opacity="0.85" rx="2"/><text x="683.6363636363636" y="408" class="axis" text-anchor="middle" transform="rotate(-45 683.6363636363636 408)">2025-07</text><rect x="700.6818181818181" y="95.90569389177284" width="20.454545454545453" height="294.09430610822716" fill="#3fb950" fill-opacity="0.85" rx="2"/><rect x="727.9545454545454" y="111.87708709381747" width="20.454545454545453" height="278.12291290618253" fill="#3fb950" fill-opacity="0.85" rx="2"/><text x="738.1818181818181" y="408" class="axis" text-anchor="middle" transform="rotate(-45 738.1818181818181 408)">2025-09</text><rect x="755.2272727272727" y="111.092341718218" width="20.454545454545453" height="278.907658281782" fill="#3fb950" fill-opacity="0.85" rx="2"/><rect x="782.5" y="70" width="20.454545454545453" height="320" fill="#f0883e" fill-opacity="0.85" rx="2"/><text x="792.7272727272727" y="408" class="axis" text-anchor="middle" transform="rotate(-45 792.7272727272727 408)">2025-11</text><rect x="809.7727272727273" y="301.2925146742349" width="20.454545454545453" height="88.70748532576508" fill="#3fb950" fill-opacity="0.85" rx="2"/><rect x="837.0454545454545" y="307.48402405078957" width="20.454545454545453" height="82.51597594921043" fill="#3fb950" fill-opacity="0.85" rx="2"/><text x="847.2727272727273" y="408" class="axis" text-anchor="middle" transform="rotate(-45 847.2727272727273 408)">2026-01</text><rect x="864.3181818181818" y="321.9722086525512" width="20.454545454545453" height="68.02779134744875" fill="#3fb950" fill-opacity="0.85" rx="2"/><rect x="891.5909090909091" y="328.0208952646549" width="20.454545454545453" height="61.979104735345125" fill="#3fb950" fill-opacity="0.85" rx="2"/><text x="901.8181818181819" y="408" class="axis" text-anchor="middle" transform="rotate(-45 901.8181818181819 408)">2026-03</text><rect x="918.8636363636364" y="292.58842756736095" width="20.454545454545453" height="97.41157243263905" fill="#3fb950" fill-opacity="0.85" rx="2"/><rect x="946.1363636363636" y="388.83409507639277" width="20.454545454545453" height="1.165904923607213" fill="#3fb950" fill-opacity="0.85" rx="2"/><text x="956.3636363636364" y="408" class="axis" text-anchor="middle" transform="rotate(-45 956.3636363636364 408)">2026-05</text><line x1="70" y1="390" x2="970" y2="390" stroke="#8b949e" stroke-width="1.5"/>
</svg>