<svg xmlns="http://www.w3.org/2000/svg" width="1000" height="480" viewBox="0 0 1000 480">
  <style>
    .title { font: 600 18px -apple-system, system-ui, sans-serif; fill: #e6edf3; }
    .subtitle { font: 400 12px -apple-system, system-ui, sans-serif; fill: #7d8590; }
    .axis { font: 400 11px -apple-system, system-ui, sans-serif; fill: #8b949e; }
    .label { font: 500 12px -apple-system, system-ui, sans-serif; fill: #e6edf3; }
    .annot { font: 600 11px -apple-system, system-ui, sans-serif; fill: #f0883e; }
  </style>
  <rect width="1000" height="480" fill="#0d1117"/>
  <text x="24" y="32" class="title">COPM — Top 10 Days by Gross Volume</text>
  <text x="24" y="50" class="subtitle">9 of 10 are in Aug-Nov 2025</text>
  <text x="122" y="93" class="label" text-anchor="end">2025-11-24</text><rect x="130" y="75.7" width="770" height="26.599999999999998" fill="#f0883e" fill-opacity="0.85" rx="2"/><text x="906" y="93" class="label">$38.6M</text><text x="122" y="131" class="label" text-anchor="end">2025-08-19</text><rect x="130" y="113.7" width="554.4381368270391" height="26.599999999999998" fill="#58a6ff" fill-opacity="0.85" rx="2"/><text x="690.4381368270391" y="131" class="label">$27.8M</text><text x="122" y="169" class="label" text-anchor="end">2025-09-19</text><rect x="130" y="151.7" width="552.5046258342832" height="26.599999999999998" fill="#58a6ff" fill-opacity="0.85" rx="2"/><text x="688.5046258342832" y="169" class="label">$27.7M</text><text x="122" y="207" class="label" text-anchor="end">2025-11-21</text><rect x="130" y="189.7" width="508.33407333809424" height="26.599999999999998" fill="#58a6ff" fill-opacity="0.85" rx="2"/><text x="644.3340733380942" y="207" class="label">$25.5M</text><text x="122" y="245" class="label" text-anchor="end">2025-09-18</text><rect x="130" y="227.7" width="493.0706767214232" height="26.599999999999998" fill="#58a6ff" fill-opacity="0.85" rx="2"/><text x="629.0706767214232" y="245" class="label">$24.7M</text><text x="122" y="283" class="label" text-anchor="end">2025-08-27</text><rect x="130" y="265.7" width="457.69406205408643" height="26.599999999999998" fill="#58a6ff" fill-opacity="0.85" rx="2"/><text x="593.6940620540864" y="283" class="label">$23.0M</text><text x="122" y="321" class="label" text-anchor="end">2025-08-12</text><rect x="130" y="303.7" width="447.9382494054115" height="26.599999999999998" fill="#58a6ff" fill-opacity="0.85" rx="2"/><text x="583.9382494054115" y="321" class="label">$22.5M</text><text x="122" y="359" class="label" text-anchor="end">2025-10-08</text><rect x="130" y="341.7" width="441.1871908238137" height="26.599999999999998" fill="#58a6ff" fill-opacity="0.85" rx="2"/><text x="577.1871908238137" y="359" class="label">$22.1M</text><text x="122" y="397" class="label" text-anchor="end">2025-08-15</text><rect x="130" y="379.7" width="436.9480774309686" height="26.599999999999998" fill="#58a6ff" fill-opacity="0.85" rx="2"/><text x="572.9480774309686" y="397" class="label">$21.9M</text><text x="122" y="435" class="label" text-anchor="end">2025-11-25</text><rect x="130" y="417.7" width="434.5272586071777" height="26.599999999999998" fill="#58a6ff" fill-opacity="0.85" rx="2"/><text x="570.5272586071777" y="435" class="label">$21.8M</text>
</svg>