<svg xmlns="http://www.w3.org/2000/svg" width="1000" height="480" viewBox="0 0 1000 480">
  <style>
    .title { font: 600 18px -apple-system, system-ui, sans-serif; fill: #e6edf3; }
    .subtitle { font: 400 12px -apple-system, system-ui, sans-serif; fill: #7d8590; }
    .axis { font: 400 11px -apple-system, system-ui, sans-serif; fill: #8b949e; }
    .label { font: 500 12px -apple-system, system-ui, sans-serif; fill: #e6edf3; }
    .annot { font: 600 11px -apple-system, system-ui, sans-serif; fill: #f0883e; }
  </style>
  <rect width="1000" height="480" fill="#0d1117"/>
  <text x="24" y="32" class="title">COPM — Monthly Mints vs Burns (COPM)</text>
  <text x="24" y="50" class="subtitle">Almost 1:1 over 2.6 years → healthy bidirectional peg</text>
  <rect x="24" y="58" width="12" height="12" fill="#3fb950" rx="2"/><text x="42" y="68" class="label">Mints</text><rect x="105" y="58" width="12" height="12" fill="#f85149" rx="2"/><text x="123" y="68" class="label">Burns</text><line x1="70" y1="390" x2="970" y2="390" stroke="#30363d" stroke-width="1"/><text x="62" y="394" class="axis" text-anchor="end">0</text><line x1="70" y1="330" x2="970" y2="330" stroke="#30363d" stroke-width="1"/><text x="62" y="334" class="axis" text-anchor="end">74.1B</text><line x1="70" y1="270" x2="970" y2="270" stroke="#30363d" stroke-width="1"/><text x="62" y="274" class="axis" text-anchor="end">148.2B</text><line x1="70" y1="210" x2="970" y2="210" stroke="#30363d" stroke-width="1"/><text x="62" y="214" class="axis" text-anchor="end">222.3B</text><line x1="70" y1="150.00000000000003" x2="970" y2="150.00000000000003" stroke="#30363d" stroke-width="1"/><text x="62" y="154.00000000000003" class="axis" text-anchor="end">296.5B</text><line x1="70" y1="90" x2="970" y2="90" stroke="#30363d" stroke-width="1"/><text x="62" y="94" class="axis" text-anchor="end">370.6B</text><rect x="73.4090909090909" y="389.9967618074604" width="20.454545454545453" height="0.003238192539582741" fill="#3fb950" fill-opacity="0.9" rx="1"/><rect x="73.4090909090909" y="389.9967618074604" width="20.454545454545453" height="0" fill="#f85149" fill-opacity="0.9" rx="1"/><text x="83.63636363636363" y="408" class="axis" text-anchor="middle" transform="rotate(-45 83.63636363636363 408)">2023-09</text><rect x="100.68181818181819" y="389.9106590401418" width="20.454545454545453" height="0.08934095985816713" fill="#3fb950" fill-opacity="0.9" rx="1"/><rect x="100.68181818181819" y="389.9106590401418" width="20.454545454545453" height="0" fill="#f85149" fill-opacity="0.9" rx="1"/><rect x="127.95454545454545" y="389.43652543128684" width="20.454545454545453" height="0.5634745687131804" fill="#3fb950" fill-opacity="0.9" rx="1"/><rect x="127.95454545454545" y="389.43652543128684" width="20.454545454545453" height="0" fill="#f85149" fill-opacity="0.9" rx="1"/><text x="138.1818181818182" y="408" class="axis" text-anchor="middle" transform="rotate(-45 138.1818181818182 408)">2023-11</text><rect x="155.22727272727272" y="390" width="20.454545454545453" height="0" fill="#3fb950" fill-opacity="0.9" rx="1"/><rect x="155.22727272727272" y="390" width="20.454545454545453" height="0" fill="#f85149" fill-opacity="0.9" rx="1"/><rect x="182.5" y="390" width="20.454545454545453" height="0" fill="#3fb950" fill-opacity="0.9" rx="1"/><rect x="182.5" y="390" width="20.454545454545453" height="0" fill="#f85149" fill-opacity="0.9" rx="1"/><text x="192.72727272727272" y="408" class="axis" text-anchor="middle" transform="rotate(-45 192.72727272727272 408)">2024-01</text><rect x="209.77272727272728" y="389.90285422381254" width="20.454545454545453" height="0.09714577618748223" fill="#3fb950" fill-opacity="0.9" rx="1"/><rect x="209.77272727272728" y="389.90283803284984" width="20.454545454545453" height="0.000016190962697913706" fill="#f85149" fill-opacity="0.9" rx="1"/><rect x="237.04545454545453" y="389.91904518651046" width="20.454545454545453" height="0.08095481348956853" fill="#3fb950" fill-opacity="0.9" rx="1"/><rect x="237.04545454545453" y="389.91904518651046" width="20.454545454545453" height="0" fill="#f85149" fill-opacity="0.9" rx="1"/><text x="247.27272727272725" y="408" class="axis" text-anchor="middle" transform="rotate(-45 247.27272727272725 408)">2024-03</text><rect x="264.3181818181818" y="389.9595225932552" width="20.454545454545453" height="0.04047740674478426" fill="#3fb950" fill-opacity="0.9" rx="1"/><rect x="264.3181818181818" y="389.9595225932552" width="20.454545454545453" height="0" fill="#f85149" fill-opacity="0.9" rx="1"/><rect x="291.5909090909091" y="389.54547734579756" width="20.454545454545453" height="0.45452265420241134" fill="#3fb950" fill-opacity="0.9" rx="1"/><rect x="291.5909090909091" y="389.23678105330293" width="20.454545454545453" height="0.30869629249461034" fill="#f85149" fill-opacity="0.9" rx="1"/><text x="301.81818181818187" y="408" class="axis" text-anchor="middle" transform="rotate(-45 301.81818181818187 408)">2024-05</text><rect x="318.86363636363643" y="389.8319135207516" width="20.454545454545453" height="0.16808647924839112" fill="#3fb950" fill-opacity="0.9" rx="1"/><rect x="318.86363636363643" y="389.7664873130574" width="20.454545454545453" height="0.06542620769421191" fill="#f85149" fill-opacity="0.9" rx="1"/><rect x="346.1363636363637" y="389.6580208691817" width="20.454545454545453" height="0.34197913081828957" fill="#3fb950" fill-opacity="0.9" rx="1"/><rect x="346.1363636363637" y="389.6580208691817" width="20.454545454545453" height="0" fill="#f85149" fill-opacity="0.9" rx="1"/><text x="356.36363636363643" y="408" class="axis" text-anchor="middle" transform="rotate(-45 356.36363636363643 408)">2024-07</text><rect x="373.40909090909093" y="389.32455300849176" width="20.454545454545453" height="0.6754469915082512" fill="#3fb950" fill-opacity="0.9" rx="1"/><rect x="373.40909090909093" y="388.7089962738568" width="20.454545454545453" height="0.6155567346349553" fill="#f85149" fill-opacity="0.9" rx="1"/><rect x="400.6818181818182" y="388.7058389049839" width="20.454545454545453" height="1.2941610950160976" fill="#3fb950" fill-opacity="0.9" rx="1"/><rect x="400.6818181818182" y="388.2019399671187" width="20.454545454545453" height="0.503898937865223" fill="#f85149" fill-opacity="0.9" rx="1"/><text x="410.90909090909093" y="408" class="axis" text-anchor="middle" transform="rotate(-45 410.90909090909093 408)">2024-09</text><rect x="427.9545454545455" y="389.3226760557596" width="20.454545454545453" height="0.6773239442404213" fill="#3fb950" fill-opacity="0.9" rx="1"/><rect x="427.9545454545455" y="389.097141484306" width="20.454545454545453" height="0.22553457145359895" fill="#f85149" fill-opacity="0.9" rx="1"/><rect x="455.22727272727275" y="389.7355781500105" width="20.454545454545453" height="0.2644218499895028" fill="#3fb950" fill-opacity="0.9" rx="1"/><rect x="455.22727272727275" y="389.71127839152734" width="20.454545454545453" height="0.024299758483144692" fill="#f85149" fill-opacity="0.9" rx="1"/><text x="465.4545454545455" y="408" class="axis" text-anchor="middle" transform="rotate(-45 465.4545454545455 408)">2024-11</text><rect x="482.50000000000006" y="389.7639258169465" width="20.454545454545453" height="0.23607418305351527" fill="#3fb950" fill-opacity="0.9" rx="1"/><rect x="482.50000000000006" y="389.7385340659628" width="20.454545454545453" height="0.025391750983674306" fill="#f85149" fill-opacity="0.9" rx="1"/><rect x="509.7727272727273" y="389.94924756465315" width="20.454545454545453" height="0.0507524353468689" fill="#3fb950" fill-opacity="0.9" rx="1"/><rect x="509.7727272727273" y="389.93807407640287" width="20.454545454545453" height="0.01117348825026078" fill="#f85149" fill-opacity="0.9" rx="1"/><text x="520" y="408" class="axis" text-anchor="middle" transform="rotate(-45 520 408)">2025-01</text><rect x="537.0454545454545" y="389.92880107779916" width="20.454545454545453" height="0.07119892220085217" fill="#3fb950" fill-opacity="0.9" rx="1"/><rect x="537.0454545454545" y="389.30625961364024" width="20.454545454545453" height="0.6225414641589498" fill="#f85149" fill-opacity="0.9" rx="1"/><rect x="564.3181818181819" y="389.82402130236744" width="20.454545454545453" height="0.1759786976325421" fill="#3fb950" fill-opacity="0.9" rx="1"/><rect x="564.3181818181819" y="389.5185983189914" width="20.454545454545453" height="0.305422983376032" fill="#f85149" fill-opacity="0.9" rx="1"/><text x="574.5454545454546" y="408" class="axis" text-anchor="middle" transform="rotate(-45 574.5454545454546 408)">2025-03</text><rect x="591.5909090909091" y="387.0202416794899" width="20.454545454545453" height="2.9797583205100864" fill="#3fb950" fill-opacity="0.9" rx="1"/><rect x="591.5909090909091" y="384.52012549764135" width="20.454545454545453" height="2.5001161818485818" fill="#f85149" fill-opacity="0.9" rx="1"/><rect x="618.8636363636364" y="385.7338559194887" width="20.454545454545453" height="4.266144080511297" fill="#3fb950" fill-opacity="0.9" rx="1"/><rect x="618.8636363636364" y="381.69489294066796" width="20.454545454545453" height="4.038962978820711" fill="#f85149" fill-opacity="0.9" rx="1"/><text x="629.0909090909091" y="408" class="axis" text-anchor="middle" transform="rotate(-45 629.0909090909091 408)">2025-05</text><rect x="646.1363636363636" y="373.69848776457" width="20.454545454545453" height="16.301512235429986" fill="#3fb950" fill-opacity="0.9" rx="1"/><rect x="646.1363636363636" y="357.3865587130394" width="20.454545454545453" height="16.31192905153061" fill="#f85149" fill-opacity="0.9" rx="1"/><rect x="673.4090909090909" y="279.6021371798235" width="20.454545454545453" height="110.3978628201765" fill="#3fb950" fill-opacity="0.9" rx="1"/><rect x="673.4090909090909" y="170.01086955195527" width="20.454545454545453" height="109.59126762786823" fill="#f85149" fill-opacity="0.9" rx="1"/><text x="683.6363636363636" y="408" class="axis" text-anchor="middle" transform="rotate(-45 683.6363636363636 408)">2025-07</text><rect x="700.6818181818181" y="250.24225023975285" width="20.454545454545453" height="139.75774976024715" fill="#3fb950" fill-opacity="0.9" rx="1"/><rect x="700.6818181818181" y="110.24487142244453" width="20.454545454545453" height="139.99737881730832" fill="#f85149" fill-opacity="0.9" rx="1"/><rect x="727.9545454545454" y="274.830177974774" width="20.454545454545453" height="115.169822025226" fill="#3fb950" fill-opacity="0.9" rx="1"/><rect x="727.9545454545454" y="161.13528797328928" width="20.454545454545453" height="113.69489000148475" fill="#f85149" fill-opacity="0.9" rx="1"/><text x="738.1818181818181" y="408" class="axis" text-anchor="middle" transform="rotate(-45 738.1818181818181 408)">2025-09</text><rect x="755.2272727272727" y="270.5331169328386" width="20.454545454545453" height="119.46688306716139" fill="#3fb950" fill-opacity="0.9" rx="1"/><rect x="755.2272727272727" y="151.50115039032684" width="20.454545454545453" height="119.03196654251175" fill="#f85149" fill-opacity="0.9" rx="1"/><rect x="782.5" y="239.14401709037583" width="20.454545454545453" height="150.85598290962417" fill="#3fb950" fill-opacity="0.9" rx="1"/><rect x="782.5" y="90" width="20.454545454545453" height="149.14401709037583" fill="#f85149" fill-opacity="0.9" rx="1"/><text x="792.7272727272727" y="408" class="axis" text-anchor="middle" transform="rotate(-45 792.7272727272727 408)">2025-11</text><rect x="809.7727272727273" y="353.03822079023666" width="20.454545454545453" height="36.961779209763336" fill="#3fb950" fill-opacity="0.9" rx="1"/><rect x="809.7727272727273" y="314.3486822510412" width="20.454545454545453" height="38.68953853919546" fill="#f85149" fill-opacity="0.9" rx="1"/><rect x="837.0454545454545" y="349.2025795178441" width="20.454545454545453" height="40.79742048215595" fill="#3fb950" fill-opacity="0.9" rx="1"/><rect x="837.0454545454545" y="308.76391031352495" width="20.454545454545453" height="40.43866920431913" fill="#f85149" fill-opacity="0.9" rx="1"/><text x="847.2727272727273" y="408" class="axis" text-anchor="middle" transform="rotate(-45 847.2727272727273 408)">2026-01</text><rect x="864.3181818181818" y="358.56233431251223" width="20.454545454545453" height="31.437665687487748" fill="#3fb950" fill-opacity="0.9" rx="1"/><rect x="864.3181818181818" y="324.9303278188073" width="20.454545454545453" height="33.63200649370492" fill="#f85149" fill-opacity="0.9" rx="1"/><rect x="891.5909090909091" y="360.08096184093404" width="20.454545454545453" height="29.919038159065934" fill="#3fb950" fill-opacity="0.9" rx="1"/><rect x="891.5909090909091" y="332.55666707565655" width="20.454545454545453" height="27.524294765277464" fill="#f85149" fill-opacity="0.9" rx="1"/><text x="901.8181818181819" y="408" class="axis" text-anchor="middle" transform="rotate(-45 901.8181818181819 408)">2026-03</text><rect x="918.8636363636364" y="341.43548083030043" width="20.454545454545453" height="48.56451916969954" fill="#3fb950" fill-opacity="0.9" rx="1"/><rect x="918.8636363636364" y="295.7741338811786" width="20.454545454545453" height="45.66134694912182" fill="#f85149" fill-opacity="0.9" rx="1"/><rect x="946.1363636363636" y="390" width="20.454545454545453" height="0" fill="#3fb950" fill-opacity="0.9" rx="1"/><rect x="946.1363636363636" y="389.12649844404547" width="20.454545454545453" height="0.8735015559545255" fill="#f85149" fill-opacity="0.9" rx="1"/><text x="956.3636363636364" y="408" class="axis" text-anchor="middle" transform="rotate(-45 956.3636363636364 408)">2026-05</text><line x1="70" y1="390" x2="970" y2="390" stroke="#8b949e" stroke-width="1.5"/>
</svg>