<svg xmlns="http://www.w3.org/2000/svg" width="1080" height="500" viewBox="0 0 1080 500" role="img" aria-label="COPM — Daily Gross Volume (USD)">
  <style>
    .title { font: 600 19px -apple-system, 'Segoe UI', system-ui, sans-serif; fill: #e6edf3; }
    .subtitle { font: 400 12.5px -apple-system, 'Segoe UI', system-ui, sans-serif; fill: #7d8590; }
    .axis { font: 400 11px -apple-system, 'Segoe UI', system-ui, sans-serif; fill: #8b949e; }
    .label { font: 500 12px -apple-system, 'Segoe UI', system-ui, sans-serif; fill: #e6edf3; }
    .annot { font: 600 11.5px -apple-system, 'Segoe UI', system-ui, sans-serif; }
    .badge { font: 600 11.5px -apple-system, 'Segoe UI', system-ui, sans-serif; }
    .footer { font: 400 10.5px ui-monospace, 'SF Mono', Menlo, monospace; fill: #7d8590; }
  </style>
  <defs><linearGradient id="g1" x1="0" y1="0" x2="0" y2="1">
      <stop offset="0%" stop-color="#35d07f" stop-opacity="0.35"/>
      <stop offset="100%" stop-color="#35d07f" stop-opacity="0.02"/>
    </linearGradient></defs>
  <rect width="1080" height="500" fill="#0b0e14"/>
  <rect x="8" y="8" width="1064" height="484" rx="10" fill="#11151d" stroke="#222938" stroke-width="1"/>
  <text x="28" y="40" class="title">COPM — Daily Gross Volume (USD)</text>
  <rect x="1000" y="24" width="52" height="22" rx="11" fill="#35d07f22" stroke="#35d07f" stroke-width="1"/>
  <text x="1026" y="39" class="badge" fill="#35d07f" text-anchor="middle">Celo</text>
  <text x="28" y="59" class="subtitle">Conversion: 1 USD = 4000 COP · peak day: $737K</text>
  <line x1="78" y1="424" x2="1044" y2="424" stroke="#222938" stroke-width="1"/><text x="68" y="428" class="axis" text-anchor="end">$0</text><line x1="78" y1="339.5" x2="1044" y2="339.5" stroke="#222938" stroke-width="1"/><text x="68" y="343.5" class="axis" text-anchor="end">$200K</text><line x1="78" y1="255" x2="1044" y2="255" stroke="#222938" stroke-width="1"/><text x="68" y="259" class="axis" text-anchor="end">$400K</text><line x1="78" y1="170.5" x2="1044" y2="170.5" stroke="#222938" stroke-width="1"/><text x="68" y="174.5" class="axis" text-anchor="end">$600K</text><line x1="78" y1="86" x2="1044" y2="86" stroke="#222938" stroke-width="1"/><text x="68" y="90" class="axis" text-anchor="end">$800K</text><line x1="53.58293838862559" y1="86" x2="53.58293838862559" y2="424" stroke="#222938" stroke-width="1" stroke-dasharray="2,5"/><text x="53.58293838862559" y="444" class="axis" text-anchor="middle">Sep 24</text><line x1="192.45497630331755" y1="86" x2="192.45497630331755" y2="424" stroke="#222938" stroke-width="1" stroke-dasharray="2,5"/><text x="192.45497630331755" y="444" class="axis" text-anchor="middle">Dec 24</text><line x1="329.80094786729865" y1="86" x2="329.80094786729865" y2="424" stroke="#222938" stroke-width="1" stroke-dasharray="2,5"/><text x="329.80094786729865" y="444" class="axis" text-anchor="middle">Mar 25</text><line x1="470.1990521327014" y1="86" x2="470.1990521327014" y2="424" stroke="#222938" stroke-width="1" stroke-dasharray="2,5"/><text x="470.1990521327014" y="444" class="axis" text-anchor="middle">Jun 25</text><line x1="610.5971563981042" y1="86" x2="610.5971563981042" y2="424" stroke="#222938" stroke-width="1" stroke-dasharray="2,5"/><text x="610.5971563981042" y="444" class="axis" text-anchor="middle">Sep 25</text><line x1="749.4691943127963" y1="86" x2="749.4691943127963" y2="424" stroke="#222938" stroke-width="1" stroke-dasharray="2,5"/><text x="749.4691943127963" y="444" class="axis" text-anchor="middle">Dec 25</text><line x1="886.8151658767772" y1="86" x2="886.8151658767772" y2="424" stroke="#222938" stroke-width="1" stroke-dasharray="2,5"/><text x="886.8151658767772" y="444" class="axis" text-anchor="middle">Mar 26</text><line x1="1027.2132701421801" y1="86" x2="1027.2132701421801" y2="424" stroke="#222938" stroke-width="1" stroke-dasharray="2,5"/><text x="1027.2132701421801" y="444" class="axis" text-anchor="middle">Jun 26</text><path d="M 78 424 L 78.0 423.8 L 79.5 424.0 L 81.1 424.0 L 82.6 424.0 L 84.1 424.0 L 85.6 424.0 L 87.2 424.0 L 88.7 424.0 L 90.2 424.0 L 91.7 424.0 L 93.3 424.0 L 94.8 424.0 L 96.3 424.0 L 97.8 424.0 L 99.4 424.0 L 100.9 424.0 L 102.4 338.3 L 103.9 424.0 L 105.5 424.0 L 107.0 424.0 L 108.5 424.0 L 110.0 424.0 L 111.6 391.6 L 113.1 413.2 L 114.6 424.0 L 116.2 424.0 L 117.7 424.0 L 119.2 424.0 L 120.7 424.0 L 122.3 424.0 L 123.8 424.0 L 125.3 424.0 L 126.8 424.0 L 128.4 424.0 L 129.9 424.0 L 131.4 386.2 L 132.9 403.2 L 134.5 424.0 L 136.0 424.0 L 137.5 424.0 L 139.0 424.0 L 140.6 423.9 L 142.1 396.6 L 143.6 422.4 L 145.1 409.9 L 146.7 420.3 L 148.2 423.0 L 149.7 421.0 L 151.3 409.9 L 152.8 411.3 L 154.3 416.3 L 155.8 422.3 L 157.4 421.8 L 158.9 422.2 L 160.4 421.4 L 161.9 419.9 L 163.5 418.4 L 165.0 418.3 L 166.5 419.4 L 168.0 421.0 L 169.6 421.6 L 171.1 420.8 L 172.6 420.5 L 174.1 421.2 L 175.7 408.1 L 177.2 419.0 L 178.7 416.1 L 180.2 418.5 L 181.8 416.5 L 183.3 413.2 L 184.8 409.1 L 186.4 415.9 L 187.9 392.4 L 189.4 405.2 L 190.9 416.3 L 192.5 414.8 L 194.0 401.7 L 195.5 408.9 L 197.0 358.0 L 198.6 412.7 L 200.1 420.2 L 201.6 423.1 L 203.1 424.0 L 204.7 393.6 L 206.2 418.6 L 207.7 421.8 L 209.2 421.7 L 210.8 422.5 L 212.3 422.7 L 213.8 422.4 L 215.3 412.7 L 216.9 400.8 L 218.4 420.2 L 219.9 415.3 L 221.5 416.7 L 223.0 420.6 L 224.5 421.6 L 226.0 400.4 L 227.6 410.5 L 229.1 422.9 L 230.6 421.6 L 232.1 421.3 L 233.7 423.0 L 235.2 423.3 L 236.7 417.0 L 238.2 423.4 L 239.8 423.8 L 241.3 419.4 L 242.8 422.3 L 244.3 416.8 L 245.9 417.6 L 247.4 423.0 L 248.9 421.4 L 250.4 419.3 L 252.0 420.6 L 253.5 419.6 L 255.0 422.9 L 256.5 423.1 L 258.1 415.0 L 259.6 422.4 L 261.1 420.7 L 262.7 421.7 L 264.2 421.9 L 265.7 420.5 L 267.2 415.6 L 268.8 417.9 L 270.3 417.9 L 271.8 419.5 L 273.3 420.7 L 274.9 408.5 L 276.4 423.0 L 277.9 423.1 L 279.4 410.5 L 281.0 399.0 L 282.5 400.4 L 284.0 406.2 L 285.5 412.6 L 287.1 421.9 L 288.6 418.8 L 290.1 416.3 L 291.6 407.4 L 293.2 369.7 L 294.7 422.4 L 296.2 413.2 L 297.8 423.4 L 299.3 422.0 L 300.8 410.8 L 302.3 422.3 L 303.9 421.1 L 305.4 422.5 L 306.9 422.1 L 308.4 423.5 L 310.0 423.0 L 311.5 420.7 L 313.0 422.3 L 314.5 423.0 L 316.1 423.1 L 317.6 421.2 L 319.1 422.9 L 320.6 423.1 L 322.2 422.3 L 323.7 421.2 L 325.2 421.7 L 326.7 423.0 L 328.3 418.4 L 329.8 422.7 L 331.3 420.6 L 332.9 412.7 L 334.4 410.7 L 335.9 422.1 L 337.4 422.0 L 339.0 415.4 L 340.5 423.1 L 342.0 422.4 L 343.5 398.0 L 345.1 424.0 L 346.6 424.0 L 348.1 424.0 L 349.6 418.4 L 351.2 421.4 L 352.7 423.1 L 354.2 397.0 L 355.7 415.7 L 357.3 420.4 L 358.8 423.8 L 360.3 424.0 L 361.8 424.0 L 363.4 423.8 L 364.9 423.1 L 366.4 423.8 L 368.0 423.7 L 369.5 423.7 L 371.0 424.0 L 372.5 424.0 L 374.1 424.0 L 375.6 424.0 L 377.1 424.0 L 378.6 424.0 L 380.2 421.9 L 381.7 416.3 L 383.2 420.6 L 384.7 424.0 L 386.3 400.1 L 387.8 410.3 L 389.3 406.9 L 390.8 414.9 L 392.4 424.0 L 393.9 424.0 L 395.4 423.9 L 396.9 424.0 L 398.5 424.0 L 400.0 423.6 L 401.5 424.0 L 403.1 424.0 L 404.6 424.0 L 406.1 424.0 L 407.6 424.0 L 409.2 418.2 L 410.7 418.0 L 412.2 421.6 L 413.7 416.6 L 415.3 423.9 L 416.8 424.0 L 418.3 412.8 L 419.8 417.6 L 421.4 419.9 L 422.9 424.0 L 424.4 414.1 L 425.9 424.0 L 427.5 424.0 L 429.0 423.9 L 430.5 419.5 L 432.0 409.1 L 433.6 420.9 L 435.1 421.2 L 436.6 418.3 L 438.2 417.1 L 439.7 416.5 L 441.2 419.3 L 442.7 420.7 L 444.3 420.4 L 445.8 422.8 L 447.3 423.6 L 448.8 423.1 L 450.4 414.7 L 451.9 423.2 L 453.4 409.3 L 454.9 423.5 L 456.5 421.4 L 458.0 423.4 L 459.5 422.8 L 461.0 419.4 L 462.6 410.5 L 464.1 401.4 L 465.6 389.4 L 467.1 422.6 L 468.7 423.6 L 470.2 421.7 L 471.7 423.1 L 473.3 421.2 L 474.8 411.4 L 476.3 387.4 L 477.8 423.5 L 479.4 423.8 L 480.9 411.4 L 482.4 423.2 L 483.9 423.3 L 485.5 404.2 L 487.0 421.9 L 488.5 422.8 L 490.0 423.9 L 491.6 424.0 L 493.1 423.1 L 494.6 413.1 L 496.1 388.4 L 497.7 404.6 L 499.2 416.8 L 500.7 423.2 L 502.2 423.7 L 503.8 422.9 L 505.3 408.5 L 506.8 422.5 L 508.4 402.8 L 509.9 401.3 L 511.4 424.0 L 512.9 422.7 L 514.5 423.8 L 516.0 399.0 L 517.5 422.3 L 519.0 359.9 L 520.6 408.1 L 522.1 424.0 L 523.6 418.6 L 525.1 423.7 L 526.7 423.8 L 528.2 393.2 L 529.7 402.6 L 531.2 423.0 L 532.8 424.0 L 534.3 424.0 L 535.8 422.7 L 537.3 424.0 L 538.9 418.1 L 540.4 315.0 L 541.9 421.1 L 543.5 424.0 L 545.0 417.8 L 546.5 415.7 L 548.0 407.7 L 549.6 112.8 L 551.1 324.9 L 552.6 341.9 L 554.1 423.8 L 555.7 423.6 L 557.2 410.6 L 558.7 382.8 L 560.2 387.0 L 561.8 415.2 L 563.3 422.3 L 564.8 413.2 L 566.3 423.8 L 567.9 423.0 L 569.4 412.0 L 570.9 398.8 L 572.4 423.0 L 574.0 378.0 L 575.5 423.1 L 577.0 422.8 L 578.5 402.3 L 580.1 413.6 L 581.6 403.3 L 583.1 420.6 L 584.7 422.9 L 586.2 423.9 L 587.7 423.6 L 589.2 423.7 L 590.8 422.6 L 592.3 400.5 L 593.8 409.5 L 595.3 408.0 L 596.9 423.9 L 598.4 423.1 L 599.9 418.5 L 601.4 423.4 L 603.0 410.9 L 604.5 398.2 L 606.0 423.3 L 607.5 424.0 L 609.1 423.8 L 610.6 423.3 L 612.1 423.4 L 613.6 405.3 L 615.2 395.1 L 616.7 423.0 L 618.2 423.9 L 619.8 423.9 L 621.3 417.3 L 622.8 409.6 L 624.3 423.4 L 625.9 414.6 L 627.4 424.0 L 628.9 424.0 L 630.4 424.0 L 632.0 424.0 L 633.5 424.0 L 635.0 424.0 L 636.5 424.0 L 638.1 424.0 L 639.6 424.0 L 641.1 412.5 L 642.6 370.5 L 644.2 419.2 L 645.7 424.0 L 647.2 418.7 L 648.7 424.0 L 650.3 424.0 L 651.8 424.0 L 653.3 424.0 L 654.9 419.5 L 656.4 423.8 L 657.9 424.0 L 659.4 424.0 L 661.0 424.0 L 662.5 423.3 L 664.0 422.4 L 665.5 424.0 L 667.1 412.0 L 668.6 403.1 L 670.1 423.3 L 671.6 424.0 L 673.2 424.0 L 674.7 424.0 L 676.2 424.0 L 677.7 424.0 L 679.3 424.0 L 680.8 424.0 L 682.3 424.0 L 683.8 424.0 L 685.4 423.2 L 686.9 423.7 L 688.4 424.0 L 690.0 423.8 L 691.5 424.0 L 693.0 424.0 L 694.5 423.9 L 696.1 424.0 L 697.6 423.3 L 699.1 424.0 L 700.6 423.4 L 702.2 417.7 L 703.7 424.0 L 705.2 424.0 L 706.7 424.0 L 708.3 424.0 L 709.8 424.0 L 711.3 424.0 L 712.8 415.5 L 714.4 424.0 L 715.9 424.0 L 717.4 424.0 L 718.9 413.7 L 720.5 424.0 L 722.0 361.0 L 723.5 398.8 L 725.1 423.8 L 726.6 424.0 L 728.1 423.9 L 729.6 424.0 L 731.2 418.4 L 732.7 423.8 L 734.2 378.4 L 735.7 423.2 L 737.3 423.8 L 738.8 411.5 L 740.3 423.5 L 741.8 395.4 L 743.4 422.8 L 744.9 379.0 L 746.4 419.3 L 747.9 423.4 L 749.5 422.7 L 751.0 421.8 L 752.5 421.9 L 754.0 371.8 L 755.6 413.9 L 757.1 423.5 L 758.6 422.5 L 760.2 423.4 L 761.7 421.6 L 763.2 422.8 L 764.7 405.0 L 766.3 398.0 L 767.8 423.1 L 769.3 421.0 L 770.8 421.7 L 772.4 406.7 L 773.9 422.3 L 775.4 420.5 L 776.9 349.8 L 778.5 419.7 L 780.0 423.2 L 781.5 413.5 L 783.0 420.5 L 784.6 403.9 L 786.1 422.2 L 787.6 375.2 L 789.1 423.5 L 790.7 422.1 L 792.2 416.7 L 793.7 403.6 L 795.3 423.3 L 796.8 422.6 L 798.3 420.2 L 799.8 423.4 L 801.4 423.3 L 802.9 414.2 L 804.4 417.9 L 805.9 418.3 L 807.5 412.1 L 809.0 393.2 L 810.5 421.6 L 812.0 423.5 L 813.6 422.5 L 815.1 393.8 L 816.6 415.3 L 818.1 421.5 L 819.7 406.3 L 821.2 423.0 L 822.7 423.2 L 824.2 420.9 L 825.8 422.7 L 827.3 412.5 L 828.8 422.7 L 830.4 422.1 L 831.9 423.3 L 833.4 423.3 L 834.9 421.3 L 836.5 417.9 L 838.0 371.4 L 839.5 370.6 L 841.0 406.0 L 842.6 421.4 L 844.1 423.1 L 845.6 419.6 L 847.1 418.8 L 848.7 410.3 L 850.2 408.0 L 851.7 421.9 L 853.2 418.0 L 854.8 422.5 L 856.3 420.0 L 857.8 418.0 L 859.3 419.5 L 860.9 418.8 L 862.4 421.2 L 863.9 422.2 L 865.5 422.3 L 867.0 421.6 L 868.5 401.6 L 870.0 420.3 L 871.6 411.3 L 873.1 414.9 L 874.6 421.6 L 876.1 421.5 L 877.7 421.2 L 879.2 404.6 L 880.7 410.0 L 882.2 420.0 L 883.8 419.5 L 885.3 422.1 L 886.8 422.4 L 888.3 402.4 L 889.9 419.9 L 891.4 420.6 L 892.9 413.9 L 894.4 416.3 L 896.0 418.6 L 897.5 422.6 L 899.0 403.3 L 900.5 418.5 L 902.1 416.1 L 903.6 420.9 L 905.1 422.5 L 906.7 418.9 L 908.2 417.8 L 909.7 419.7 L 911.2 399.4 L 912.8 419.7 L 914.3 412.0 L 915.8 403.8 L 917.3 420.0 L 918.9 421.3 L 920.4 423.5 L 921.9 401.5 L 923.4 412.6 L 925.0 420.5 L 926.5 413.9 L 928.0 422.0 L 929.5 385.5 L 931.1 405.3 L 932.6 418.5 L 934.1 421.7 L 935.6 422.6 L 937.2 423.2 L 938.7 422.9 L 940.2 423.5 L 941.8 420.2 L 943.3 423.0 L 944.8 417.5 L 946.3 418.7 L 947.9 418.3 L 949.4 421.5 L 950.9 423.1 L 952.4 418.3 L 954.0 371.5 L 955.5 406.4 L 957.0 420.3 L 958.5 421.4 L 960.1 422.3 L 961.6 422.6 L 963.1 420.9 L 964.6 418.4 L 966.2 413.0 L 967.7 419.9 L 969.2 415.4 L 970.7 422.4 L 972.3 423.0 L 973.8 418.3 L 975.3 418.5 L 976.9 419.7 L 978.4 420.8 L 979.9 423.1 L 981.4 423.5 L 983.0 422.5 L 984.5 418.6 L 986.0 419.7 L 987.5 404.0 L 989.1 408.1 L 990.6 402.2 L 992.1 423.5 L 993.6 423.1 L 995.2 421.0 L 996.7 423.6 L 998.2 424.0 L 999.7 407.9 L 1001.3 416.8 L 1002.8 422.1 L 1004.3 423.1 L 1005.8 422.8 L 1007.4 418.5 L 1008.9 385.6 L 1010.4 416.8 L 1012.0 419.6 L 1013.5 417.1 L 1015.0 421.6 L 1016.5 422.0 L 1018.1 399.3 L 1019.6 404.7 L 1021.1 416.4 L 1022.6 423.2 L 1024.2 424.0 L 1025.7 424.0 L 1027.2 423.6 L 1028.7 413.0 L 1030.3 416.2 L 1031.8 417.9 L 1033.3 416.7 L 1034.8 421.2 L 1036.4 422.5 L 1037.9 415.0 L 1039.4 416.1 L 1040.9 419.2 L 1042.5 408.7 L 1044.0 423.9 L 1044 424 Z" fill="url(#g1)"/><path d="M 78.0 423.8 L 79.5 424.0 L 81.1 424.0 L 82.6 424.0 L 84.1 424.0 L 85.6 424.0 L 87.2 424.0 L 88.7 424.0 L 90.2 424.0 L 91.7 424.0 L 93.3 424.0 L 94.8 424.0 L 96.3 424.0 L 97.8 424.0 L 99.4 424.0 L 100.9 424.0 L 102.4 338.3 L 103.9 424.0 L 105.5 424.0 L 107.0 424.0 L 108.5 424.0 L 110.0 424.0 L 111.6 391.6 L 113.1 413.2 L 114.6 424.0 L 116.2 424.0 L 117.7 424.0 L 119.2 424.0 L 120.7 424.0 L 122.3 424.0 L 123.8 424.0 L 125.3 424.0 L 126.8 424.0 L 128.4 424.0 L 129.9 424.0 L 131.4 386.2 L 132.9 403.2 L 134.5 424.0 L 136.0 424.0 L 137.5 424.0 L 139.0 424.0 L 140.6 423.9 L 142.1 396.6 L 143.6 422.4 L 145.1 409.9 L 146.7 420.3 L 148.2 423.0 L 149.7 421.0 L 151.3 409.9 L 152.8 411.3 L 154.3 416.3 L 155.8 422.3 L 157.4 421.8 L 158.9 422.2 L 160.4 421.4 L 161.9 419.9 L 163.5 418.4 L 165.0 418.3 L 166.5 419.4 L 168.0 421.0 L 169.6 421.6 L 171.1 420.8 L 172.6 420.5 L 174.1 421.2 L 175.7 408.1 L 177.2 419.0 L 178.7 416.1 L 180.2 418.5 L 181.8 416.5 L 183.3 413.2 L 184.8 409.1 L 186.4 415.9 L 187.9 392.4 L 189.4 405.2 L 190.9 416.3 L 192.5 414.8 L 194.0 401.7 L 195.5 408.9 L 197.0 358.0 L 198.6 412.7 L 200.1 420.2 L 201.6 423.1 L 203.1 424.0 L 204.7 393.6 L 206.2 418.6 L 207.7 421.8 L 209.2 421.7 L 210.8 422.5 L 212.3 422.7 L 213.8 422.4 L 215.3 412.7 L 216.9 400.8 L 218.4 420.2 L 219.9 415.3 L 221.5 416.7 L 223.0 420.6 L 224.5 421.6 L 226.0 400.4 L 227.6 410.5 L 229.1 422.9 L 230.6 421.6 L 232.1 421.3 L 233.7 423.0 L 235.2 423.3 L 236.7 417.0 L 238.2 423.4 L 239.8 423.8 L 241.3 419.4 L 242.8 422.3 L 244.3 416.8 L 245.9 417.6 L 247.4 423.0 L 248.9 421.4 L 250.4 419.3 L 252.0 420.6 L 253.5 419.6 L 255.0 422.9 L 256.5 423.1 L 258.1 415.0 L 259.6 422.4 L 261.1 420.7 L 262.7 421.7 L 264.2 421.9 L 265.7 420.5 L 267.2 415.6 L 268.8 417.9 L 270.3 417.9 L 271.8 419.5 L 273.3 420.7 L 274.9 408.5 L 276.4 423.0 L 277.9 423.1 L 279.4 410.5 L 281.0 399.0 L 282.5 400.4 L 284.0 406.2 L 285.5 412.6 L 287.1 421.9 L 288.6 418.8 L 290.1 416.3 L 291.6 407.4 L 293.2 369.7 L 294.7 422.4 L 296.2 413.2 L 297.8 423.4 L 299.3 422.0 L 300.8 410.8 L 302.3 422.3 L 303.9 421.1 L 305.4 422.5 L 306.9 422.1 L 308.4 423.5 L 310.0 423.0 L 311.5 420.7 L 313.0 422.3 L 314.5 423.0 L 316.1 423.1 L 317.6 421.2 L 319.1 422.9 L 320.6 423.1 L 322.2 422.3 L 323.7 421.2 L 325.2 421.7 L 326.7 423.0 L 328.3 418.4 L 329.8 422.7 L 331.3 420.6 L 332.9 412.7 L 334.4 410.7 L 335.9 422.1 L 337.4 422.0 L 339.0 415.4 L 340.5 423.1 L 342.0 422.4 L 343.5 398.0 L 345.1 424.0 L 346.6 424.0 L 348.1 424.0 L 349.6 418.4 L 351.2 421.4 L 352.7 423.1 L 354.2 397.0 L 355.7 415.7 L 357.3 420.4 L 358.8 423.8 L 360.3 424.0 L 361.8 424.0 L 363.4 423.8 L 364.9 423.1 L 366.4 423.8 L 368.0 423.7 L 369.5 423.7 L 371.0 424.0 L 372.5 424.0 L 374.1 424.0 L 375.6 424.0 L 377.1 424.0 L 378.6 424.0 L 380.2 421.9 L 381.7 416.3 L 383.2 420.6 L 384.7 424.0 L 386.3 400.1 L 387.8 410.3 L 389.3 406.9 L 390.8 414.9 L 392.4 424.0 L 393.9 424.0 L 395.4 423.9 L 396.9 424.0 L 398.5 424.0 L 400.0 423.6 L 401.5 424.0 L 403.1 424.0 L 404.6 424.0 L 406.1 424.0 L 407.6 424.0 L 409.2 418.2 L 410.7 418.0 L 412.2 421.6 L 413.7 416.6 L 415.3 423.9 L 416.8 424.0 L 418.3 412.8 L 419.8 417.6 L 421.4 419.9 L 422.9 424.0 L 424.4 414.1 L 425.9 424.0 L 427.5 424.0 L 429.0 423.9 L 430.5 419.5 L 432.0 409.1 L 433.6 420.9 L 435.1 421.2 L 436.6 418.3 L 438.2 417.1 L 439.7 416.5 L 441.2 419.3 L 442.7 420.7 L 444.3 420.4 L 445.8 422.8 L 447.3 423.6 L 448.8 423.1 L 450.4 414.7 L 451.9 423.2 L 453.4 409.3 L 454.9 423.5 L 456.5 421.4 L 458.0 423.4 L 459.5 422.8 L 461.0 419.4 L 462.6 410.5 L 464.1 401.4 L 465.6 389.4 L 467.1 422.6 L 468.7 423.6 L 470.2 421.7 L 471.7 423.1 L 473.3 421.2 L 474.8 411.4 L 476.3 387.4 L 477.8 423.5 L 479.4 423.8 L 480.9 411.4 L 482.4 423.2 L 483.9 423.3 L 485.5 404.2 L 487.0 421.9 L 488.5 422.8 L 490.0 423.9 L 491.6 424.0 L 493.1 423.1 L 494.6 413.1 L 496.1 388.4 L 497.7 404.6 L 499.2 416.8 L 500.7 423.2 L 502.2 423.7 L 503.8 422.9 L 505.3 408.5 L 506.8 422.5 L 508.4 402.8 L 509.9 401.3 L 511.4 424.0 L 512.9 422.7 L 514.5 423.8 L 516.0 399.0 L 517.5 422.3 L 519.0 359.9 L 520.6 408.1 L 522.1 424.0 L 523.6 418.6 L 525.1 423.7 L 526.7 423.8 L 528.2 393.2 L 529.7 402.6 L 531.2 423.0 L 532.8 424.0 L 534.3 424.0 L 535.8 422.7 L 537.3 424.0 L 538.9 418.1 L 540.4 315.0 L 541.9 421.1 L 543.5 424.0 L 545.0 417.8 L 546.5 415.7 L 548.0 407.7 L 549.6 112.8 L 551.1 324.9 L 552.6 341.9 L 554.1 423.8 L 555.7 423.6 L 557.2 410.6 L 558.7 382.8 L 560.2 387.0 L 561.8 415.2 L 563.3 422.3 L 564.8 413.2 L 566.3 423.8 L 567.9 423.0 L 569.4 412.0 L 570.9 398.8 L 572.4 423.0 L 574.0 378.0 L 575.5 423.1 L 577.0 422.8 L 578.5 402.3 L 580.1 413.6 L 581.6 403.3 L 583.1 420.6 L 584.7 422.9 L 586.2 423.9 L 587.7 423.6 L 589.2 423.7 L 590.8 422.6 L 592.3 400.5 L 593.8 409.5 L 595.3 408.0 L 596.9 423.9 L 598.4 423.1 L 599.9 418.5 L 601.4 423.4 L 603.0 410.9 L 604.5 398.2 L 606.0 423.3 L 607.5 424.0 L 609.1 423.8 L 610.6 423.3 L 612.1 423.4 L 613.6 405.3 L 615.2 395.1 L 616.7 423.0 L 618.2 423.9 L 619.8 423.9 L 621.3 417.3 L 622.8 409.6 L 624.3 423.4 L 625.9 414.6 L 627.4 424.0 L 628.9 424.0 L 630.4 424.0 L 632.0 424.0 L 633.5 424.0 L 635.0 424.0 L 636.5 424.0 L 638.1 424.0 L 639.6 424.0 L 641.1 412.5 L 642.6 370.5 L 644.2 419.2 L 645.7 424.0 L 647.2 418.7 L 648.7 424.0 L 650.3 424.0 L 651.8 424.0 L 653.3 424.0 L 654.9 419.5 L 656.4 423.8 L 657.9 424.0 L 659.4 424.0 L 661.0 424.0 L 662.5 423.3 L 664.0 422.4 L 665.5 424.0 L 667.1 412.0 L 668.6 403.1 L 670.1 423.3 L 671.6 424.0 L 673.2 424.0 L 674.7 424.0 L 676.2 424.0 L 677.7 424.0 L 679.3 424.0 L 680.8 424.0 L 682.3 424.0 L 683.8 424.0 L 685.4 423.2 L 686.9 423.7 L 688.4 424.0 L 690.0 423.8 L 691.5 424.0 L 693.0 424.0 L 694.5 423.9 L 696.1 424.0 L 697.6 423.3 L 699.1 424.0 L 700.6 423.4 L 702.2 417.7 L 703.7 424.0 L 705.2 424.0 L 706.7 424.0 L 708.3 424.0 L 709.8 424.0 L 711.3 424.0 L 712.8 415.5 L 714.4 424.0 L 715.9 424.0 L 717.4 424.0 L 718.9 413.7 L 720.5 424.0 L 722.0 361.0 L 723.5 398.8 L 725.1 423.8 L 726.6 424.0 L 728.1 423.9 L 729.6 424.0 L 731.2 418.4 L 732.7 423.8 L 734.2 378.4 L 735.7 423.2 L 737.3 423.8 L 738.8 411.5 L 740.3 423.5 L 741.8 395.4 L 743.4 422.8 L 744.9 379.0 L 746.4 419.3 L 747.9 423.4 L 749.5 422.7 L 751.0 421.8 L 752.5 421.9 L 754.0 371.8 L 755.6 413.9 L 757.1 423.5 L 758.6 422.5 L 760.2 423.4 L 761.7 421.6 L 763.2 422.8 L 764.7 405.0 L 766.3 398.0 L 767.8 423.1 L 769.3 421.0 L 770.8 421.7 L 772.4 406.7 L 773.9 422.3 L 775.4 420.5 L 776.9 349.8 L 778.5 419.7 L 780.0 423.2 L 781.5 413.5 L 783.0 420.5 L 784.6 403.9 L 786.1 422.2 L 787.6 375.2 L 789.1 423.5 L 790.7 422.1 L 792.2 416.7 L 793.7 403.6 L 795.3 423.3 L 796.8 422.6 L 798.3 420.2 L 799.8 423.4 L 801.4 423.3 L 802.9 414.2 L 804.4 417.9 L 805.9 418.3 L 807.5 412.1 L 809.0 393.2 L 810.5 421.6 L 812.0 423.5 L 813.6 422.5 L 815.1 393.8 L 816.6 415.3 L 818.1 421.5 L 819.7 406.3 L 821.2 423.0 L 822.7 423.2 L 824.2 420.9 L 825.8 422.7 L 827.3 412.5 L 828.8 422.7 L 830.4 422.1 L 831.9 423.3 L 833.4 423.3 L 834.9 421.3 L 836.5 417.9 L 838.0 371.4 L 839.5 370.6 L 841.0 406.0 L 842.6 421.4 L 844.1 423.1 L 845.6 419.6 L 847.1 418.8 L 848.7 410.3 L 850.2 408.0 L 851.7 421.9 L 853.2 418.0 L 854.8 422.5 L 856.3 420.0 L 857.8 418.0 L 859.3 419.5 L 860.9 418.8 L 862.4 421.2 L 863.9 422.2 L 865.5 422.3 L 867.0 421.6 L 868.5 401.6 L 870.0 420.3 L 871.6 411.3 L 873.1 414.9 L 874.6 421.6 L 876.1 421.5 L 877.7 421.2 L 879.2 404.6 L 880.7 410.0 L 882.2 420.0 L 883.8 419.5 L 885.3 422.1 L 886.8 422.4 L 888.3 402.4 L 889.9 419.9 L 891.4 420.6 L 892.9 413.9 L 894.4 416.3 L 896.0 418.6 L 897.5 422.6 L 899.0 403.3 L 900.5 418.5 L 902.1 416.1 L 903.6 420.9 L 905.1 422.5 L 906.7 418.9 L 908.2 417.8 L 909.7 419.7 L 911.2 399.4 L 912.8 419.7 L 914.3 412.0 L 915.8 403.8 L 917.3 420.0 L 918.9 421.3 L 920.4 423.5 L 921.9 401.5 L 923.4 412.6 L 925.0 420.5 L 926.5 413.9 L 928.0 422.0 L 929.5 385.5 L 931.1 405.3 L 932.6 418.5 L 934.1 421.7 L 935.6 422.6 L 937.2 423.2 L 938.7 422.9 L 940.2 423.5 L 941.8 420.2 L 943.3 423.0 L 944.8 417.5 L 946.3 418.7 L 947.9 418.3 L 949.4 421.5 L 950.9 423.1 L 952.4 418.3 L 954.0 371.5 L 955.5 406.4 L 957.0 420.3 L 958.5 421.4 L 960.1 422.3 L 961.6 422.6 L 963.1 420.9 L 964.6 418.4 L 966.2 413.0 L 967.7 419.9 L 969.2 415.4 L 970.7 422.4 L 972.3 423.0 L 973.8 418.3 L 975.3 418.5 L 976.9 419.7 L 978.4 420.8 L 979.9 423.1 L 981.4 423.5 L 983.0 422.5 L 984.5 418.6 L 986.0 419.7 L 987.5 404.0 L 989.1 408.1 L 990.6 402.2 L 992.1 423.5 L 993.6 423.1 L 995.2 421.0 L 996.7 423.6 L 998.2 424.0 L 999.7 407.9 L 1001.3 416.8 L 1002.8 422.1 L 1004.3 423.1 L 1005.8 422.8 L 1007.4 418.5 L 1008.9 385.6 L 1010.4 416.8 L 1012.0 419.6 L 1013.5 417.1 L 1015.0 421.6 L 1016.5 422.0 L 1018.1 399.3 L 1019.6 404.7 L 1021.1 416.4 L 1022.6 423.2 L 1024.2 424.0 L 1025.7 424.0 L 1027.2 423.6 L 1028.7 413.0 L 1030.3 416.2 L 1031.8 417.9 L 1033.3 416.7 L 1034.8 421.2 L 1036.4 422.5 L 1037.9 415.0 L 1039.4 416.1 L 1040.9 419.2 L 1042.5 408.7 L 1044.0 423.9" stroke="#35d07f" stroke-width="1.6" fill="none" stroke-linejoin="round"/><circle cx="549.6" cy="112.8" r="4.5" fill="#f0883e" stroke="#11151d" stroke-width="2"/><rect x="480.3545023696682" y="90" width="138.39999999999998" height="22" rx="6" fill="#0b0e14" stroke="#f0883e" stroke-width="1"/><text x="549.5545023696682" y="105" class="annot" fill="#f0883e" text-anchor="middle">2025-07-23 · $737K</text><line x1="78" y1="424" x2="1044" y2="424" stroke="#8b949e" stroke-width="1.4"/>
  <text x="28" y="484" class="footer">COPM 0xC92E…5606 · Celo · Transfer events up to 2026-06-12 · source: on-chain RPC scan</text>
</svg>