<svg xmlns="http://www.w3.org/2000/svg" width="1080" height="500" viewBox="0 0 1080 500" role="img" aria-label="COPM — Circulating Supply Over Time">
  <style>
    .title { font: 600 22px -apple-system, 'Segoe UI', system-ui, sans-serif; fill: #e6edf3; }
    .subtitle { font: 400 14px -apple-system, 'Segoe UI', system-ui, sans-serif; fill: #7d8590; }
    .axis { font: 400 13px -apple-system, 'Segoe UI', system-ui, sans-serif; fill: #8b949e; }
    .label { font: 500 14px -apple-system, 'Segoe UI', system-ui, sans-serif; fill: #e6edf3; }
    .annot { font: 600 13px -apple-system, 'Segoe UI', system-ui, sans-serif; }
    .badge { font: 600 13px -apple-system, 'Segoe UI', system-ui, sans-serif; }
    .footer { font: 400 12px ui-monospace, 'SF Mono', Menlo, monospace; fill: #7d8590; }
  </style>
  <defs><linearGradient id="g2" x1="0" y1="0" x2="0" y2="1">
      <stop offset="0%" stop-color="#fcff52" stop-opacity="0.35"/>
      <stop offset="100%" stop-color="#fcff52" stop-opacity="0.02"/>
    </linearGradient></defs>
  <rect width="1080" height="500" fill="#0b0e14"/>
  <rect x="8" y="8" width="1064" height="484" rx="10" fill="#11151d" stroke="#222938" stroke-width="1"/>
  <text x="28" y="40" class="title">COPM — Circulating Supply Over Time</text>
  <rect x="994" y="24" width="58" height="22" rx="11" fill="#35d07f22" stroke="#35d07f" stroke-width="1"/>
  <text x="1023" y="39" class="badge" fill="#35d07f" text-anchor="middle">Celo</text>
  <text x="28" y="59" class="subtitle">End-of-day supply · peak: 1.1B COPM</text>
  <line x1="78" y1="424" x2="1044" y2="424" stroke="#222938" stroke-width="1"/><text x="68" y="428" class="axis" text-anchor="end">0</text><line x1="78" y1="356.4" x2="1044" y2="356.4" stroke="#222938" stroke-width="1"/><text x="68" y="360.4" class="axis" text-anchor="end">250M</text><line x1="78" y1="288.79999999999995" x2="1044" y2="288.79999999999995" stroke="#222938" stroke-width="1"/><text x="68" y="292.79999999999995" class="axis" text-anchor="end">500M</text><line x1="78" y1="221.20000000000002" x2="1044" y2="221.20000000000002" stroke="#222938" stroke-width="1"/><text x="68" y="225.20000000000002" class="axis" text-anchor="end">750M</text><line x1="78" y1="153.59999999999997" x2="1044" y2="153.59999999999997" stroke="#222938" stroke-width="1"/><text x="68" y="157.59999999999997" class="axis" text-anchor="end">1.0B</text><line x1="78" y1="86" x2="1044" y2="86" stroke="#222938" stroke-width="1"/><text x="68" y="90" class="axis" text-anchor="end">1.3B</text><line x1="53.58293838862559" y1="86" x2="53.58293838862559" y2="424" stroke="#222938" stroke-width="1" stroke-dasharray="2,5"/><text x="53.58293838862559" y="444" class="axis" text-anchor="middle">Sep 24</text><line x1="192.45497630331755" y1="86" x2="192.45497630331755" y2="424" stroke="#222938" stroke-width="1" stroke-dasharray="2,5"/><text x="192.45497630331755" y="444" class="axis" text-anchor="middle">Dec 24</text><line x1="329.80094786729865" y1="86" x2="329.80094786729865" y2="424" stroke="#222938" stroke-width="1" stroke-dasharray="2,5"/><text x="329.80094786729865" y="444" class="axis" text-anchor="middle">Mar 25</text><line x1="470.1990521327014" y1="86" x2="470.1990521327014" y2="424" stroke="#222938" stroke-width="1" stroke-dasharray="2,5"/><text x="470.1990521327014" y="444" class="axis" text-anchor="middle">Jun 25</text><line x1="610.5971563981042" y1="86" x2="610.5971563981042" y2="424" stroke="#222938" stroke-width="1" stroke-dasharray="2,5"/><text x="610.5971563981042" y="444" class="axis" text-anchor="middle">Sep 25</text><line x1="749.4691943127963" y1="86" x2="749.4691943127963" y2="424" stroke="#222938" stroke-width="1" stroke-dasharray="2,5"/><text x="749.4691943127963" y="444" class="axis" text-anchor="middle">Dec 25</text><line x1="886.8151658767772" y1="86" x2="886.8151658767772" y2="424" stroke="#222938" stroke-width="1" stroke-dasharray="2,5"/><text x="886.8151658767772" y="444" class="axis" text-anchor="middle">Mar 26</text><line x1="1027.2132701421801" y1="86" x2="1027.2132701421801" y2="424" stroke="#222938" stroke-width="1" stroke-dasharray="2,5"/><text x="1027.2132701421801" y="444" class="axis" text-anchor="middle">Jun 26</text><path d="M 78 424 L 78.0 423.7 L 79.5 423.7 L 81.1 423.7 L 82.6 423.7 L 84.1 423.7 L 85.6 423.7 L 87.2 423.7 L 88.7 423.7 L 90.2 423.7 L 91.7 423.7 L 93.3 423.7 L 94.8 423.7 L 96.3 423.7 L 97.8 423.7 L 99.4 423.7 L 100.9 423.7 L 102.4 391.2 L 103.9 391.2 L 105.5 391.2 L 107.0 391.2 L 108.5 391.2 L 110.0 391.2 L 111.6 391.2 L 113.1 418.8 L 114.6 418.8 L 116.2 418.8 L 117.7 418.8 L 119.2 418.8 L 120.7 418.8 L 122.3 418.8 L 123.8 418.8 L 125.3 418.8 L 126.8 418.8 L 128.4 418.8 L 129.9 418.8 L 131.4 370.4 L 132.9 370.4 L 134.5 370.4 L 136.0 370.4 L 137.5 370.4 L 139.0 370.4 L 140.6 370.4 L 142.1 370.4 L 143.6 370.4 L 145.1 370.4 L 146.7 370.4 L 148.2 370.4 L 149.7 370.4 L 151.3 370.4 L 152.8 370.4 L 154.3 370.4 L 155.8 370.4 L 157.4 370.4 L 158.9 370.4 L 160.4 370.4 L 161.9 370.4 L 163.5 370.4 L 165.0 370.4 L 166.5 370.4 L 168.0 370.4 L 169.6 370.4 L 171.1 370.4 L 172.6 370.4 L 174.1 370.4 L 175.7 370.4 L 177.2 370.4 L 178.7 370.4 L 180.2 370.4 L 181.8 370.4 L 183.3 366.3 L 184.8 366.3 L 186.4 366.3 L 187.9 366.3 L 189.4 358.7 L 190.9 358.7 L 192.5 358.7 L 194.0 351.0 L 195.5 346.9 L 197.0 343.1 L 198.6 343.1 L 200.1 343.1 L 201.6 343.1 L 203.1 343.1 L 204.7 330.8 L 206.2 330.8 L 207.7 330.8 L 209.2 330.8 L 210.8 330.8 L 212.3 330.8 L 213.8 330.8 L 215.3 330.8 L 216.9 330.8 L 218.4 330.8 L 219.9 330.8 L 221.5 330.8 L 223.0 330.8 L 224.5 330.8 L 226.0 330.8 L 227.6 330.8 L 229.1 330.8 L 230.6 330.8 L 232.1 330.8 L 233.7 330.8 L 235.2 330.8 L 236.7 330.8 L 238.2 330.8 L 239.8 330.8 L 241.3 330.8 L 242.8 330.8 L 244.3 330.8 L 245.9 330.8 L 247.4 330.8 L 248.9 330.8 L 250.4 330.8 L 252.0 330.8 L 253.5 329.6 L 255.0 329.6 L 256.5 329.6 L 258.1 327.2 L 259.6 327.2 L 261.1 327.2 L 262.7 327.2 L 264.2 327.2 L 265.7 327.2 L 267.2 327.2 L 268.8 327.2 L 270.3 327.2 L 271.8 335.5 L 273.3 335.5 L 274.9 335.5 L 276.4 335.5 L 277.9 335.5 L 279.4 346.3 L 281.0 355.4 L 282.5 355.4 L 284.0 364.6 L 285.5 364.6 L 287.1 364.6 L 288.6 364.6 L 290.1 364.6 L 291.6 364.6 L 293.2 394.1 L 294.7 394.1 L 296.2 386.9 L 297.8 386.9 L 299.3 386.9 L 300.8 383.4 L 302.3 383.4 L 303.9 383.4 L 305.4 383.4 L 306.9 383.4 L 308.4 383.4 L 310.0 383.4 L 311.5 383.4 L 313.0 383.4 L 314.5 383.4 L 316.1 383.4 L 317.6 383.4 L 319.1 383.4 L 320.6 383.4 L 322.2 383.4 L 323.7 383.4 L 325.2 383.4 L 326.7 383.4 L 328.3 380.2 L 329.8 380.2 L 331.3 380.2 L 332.9 374.8 L 334.4 374.8 L 335.9 374.8 L 337.4 374.8 L 339.0 374.8 L 340.5 374.8 L 342.0 374.8 L 343.5 374.8 L 345.1 374.8 L 346.6 374.8 L 348.1 374.8 L 349.6 381.9 L 351.2 381.9 L 352.7 381.9 L 354.2 391.4 L 355.7 391.5 L 357.3 393.9 L 358.8 393.9 L 360.3 393.9 L 361.8 393.9 L 363.4 393.9 L 364.9 393.9 L 366.4 393.9 L 368.0 393.9 L 369.5 393.9 L 371.0 393.9 L 372.5 393.9 L 374.1 393.9 L 375.6 393.9 L 377.1 393.9 L 378.6 393.9 L 380.2 391.2 L 381.7 389.1 L 383.2 389.1 L 384.7 389.1 L 386.3 380.1 L 387.8 370.4 L 389.3 368.0 L 390.8 361.7 L 392.4 361.7 L 393.9 361.7 L 395.4 361.7 L 396.9 361.7 L 398.5 361.7 L 400.0 361.7 L 401.5 361.7 L 403.1 361.7 L 404.6 361.7 L 406.1 361.7 L 407.6 361.7 L 409.2 358.8 L 410.7 361.7 L 412.2 361.7 L 413.7 365.4 L 415.3 365.4 L 416.8 365.4 L 418.3 374.8 L 419.8 371.7 L 421.4 375.1 L 422.9 375.1 L 424.4 381.4 L 425.9 381.4 L 427.5 381.4 L 429.0 381.4 L 430.5 379.1 L 432.0 376.8 L 433.6 374.5 L 435.1 374.5 L 436.6 374.5 L 438.2 374.5 L 439.7 374.5 L 441.2 374.5 L 442.7 374.9 L 444.3 374.9 L 445.8 374.9 L 447.3 374.9 L 448.8 374.9 L 450.4 374.9 L 451.9 374.9 L 453.4 374.8 L 454.9 374.8 L 456.5 374.9 L 458.0 374.9 L 459.5 374.9 L 461.0 374.9 L 462.6 381.1 L 464.1 361.3 L 465.6 385.2 L 467.1 385.2 L 468.7 385.2 L 470.2 385.2 L 471.7 385.2 L 473.3 387.3 L 474.8 374.2 L 476.3 389.3 L 477.8 389.3 L 479.4 389.3 L 480.9 389.3 L 482.4 389.3 L 483.9 389.3 L 485.5 387.4 L 487.0 389.3 L 488.5 389.3 L 490.0 389.3 L 491.6 389.3 L 493.1 389.3 L 494.6 394.3 L 496.1 358.0 L 497.7 374.1 L 499.2 368.5 L 500.7 368.5 L 502.2 368.5 L 503.8 368.5 L 505.3 368.5 L 506.8 370.1 L 508.4 345.4 L 509.9 364.9 L 511.4 364.9 L 512.9 364.9 L 514.5 364.9 L 516.0 334.8 L 517.5 334.1 L 519.0 334.8 L 520.6 333.2 L 522.1 333.2 L 523.6 333.2 L 525.1 333.1 L 526.7 333.1 L 528.2 310.3 L 529.7 306.2 L 531.2 306.1 L 532.8 306.1 L 534.3 306.1 L 535.8 307.2 L 537.3 307.2 L 538.9 307.2 L 540.4 297.2 L 541.9 296.7 L 543.5 296.7 L 545.0 296.7 L 546.5 292.5 L 548.0 294.5 L 549.6 293.0 L 551.1 234.6 L 552.6 190.4 L 554.1 190.4 L 555.7 190.4 L 557.2 181.3 L 558.7 188.1 L 560.2 184.2 L 561.8 179.6 L 563.3 179.6 L 564.8 188.0 L 566.3 188.0 L 567.9 187.9 L 569.4 194.3 L 570.9 197.7 L 572.4 197.7 L 574.0 178.4 L 575.5 178.4 L 577.0 178.4 L 578.5 196.4 L 580.1 184.7 L 581.6 200.8 L 583.1 201.8 L 584.7 201.8 L 586.2 201.8 L 587.7 201.8 L 589.2 201.8 L 590.8 202.5 L 592.3 173.2 L 593.8 185.1 L 595.3 196.4 L 596.9 196.4 L 598.4 196.4 L 599.9 196.4 L 601.4 196.4 L 603.0 179.9 L 604.5 201.8 L 606.0 201.8 L 607.5 201.8 L 609.1 201.8 L 610.6 201.8 L 612.1 201.8 L 613.6 178.5 L 615.2 202.0 L 616.7 201.7 L 618.2 201.7 L 619.8 201.7 L 621.3 201.7 L 622.8 209.1 L 624.3 209.1 L 625.9 209.1 L 627.4 209.1 L 628.9 209.1 L 630.4 209.1 L 632.0 209.1 L 633.5 209.1 L 635.0 209.1 L 636.5 209.1 L 638.1 209.1 L 639.6 209.1 L 641.1 209.1 L 642.6 239.4 L 644.2 239.4 L 645.7 239.4 L 647.2 239.4 L 648.7 239.4 L 650.3 239.4 L 651.8 239.4 L 653.3 239.4 L 654.9 241.4 L 656.4 241.6 L 657.9 241.6 L 659.4 241.6 L 661.0 241.6 L 662.5 241.6 L 664.0 243.4 L 665.5 243.4 L 667.1 243.4 L 668.6 257.4 L 670.1 256.7 L 671.6 256.7 L 673.2 256.7 L 674.7 256.7 L 676.2 256.7 L 677.7 256.7 L 679.3 256.7 L 680.8 256.7 L 682.3 256.7 L 683.8 256.7 L 685.4 257.4 L 686.9 257.1 L 688.4 257.1 L 690.0 257.1 L 691.5 257.1 L 693.0 257.1 L 694.5 257.1 L 696.1 257.1 L 697.6 256.2 L 699.1 256.2 L 700.6 256.2 L 702.2 248.2 L 703.7 248.2 L 705.2 248.2 L 706.7 248.2 L 708.3 248.2 L 709.8 248.2 L 711.3 248.2 L 712.8 237.8 L 714.4 237.8 L 715.9 237.8 L 717.4 237.8 L 718.9 224.6 L 720.5 224.6 L 722.0 252.6 L 723.5 248.4 L 725.1 248.4 L 726.6 248.4 L 728.1 248.4 L 729.6 248.4 L 731.2 241.3 L 732.7 241.3 L 734.2 278.6 L 735.7 278.6 L 737.3 278.6 L 738.8 263.4 L 740.3 263.4 L 741.8 269.9 L 743.4 269.9 L 744.9 223.3 L 746.4 233.6 L 747.9 233.6 L 749.5 233.6 L 751.0 233.6 L 752.5 233.6 L 754.0 276.4 L 755.6 265.1 L 757.1 265.1 L 758.6 265.1 L 760.2 265.1 L 761.7 265.1 L 763.2 265.1 L 764.7 241.8 L 766.3 262.9 L 767.8 262.9 L 769.3 262.9 L 770.8 261.9 L 772.4 261.9 L 773.9 261.9 L 775.4 261.9 L 776.9 280.0 L 778.5 280.0 L 780.0 280.0 L 781.5 283.9 L 783.0 283.4 L 784.6 258.9 L 786.1 258.9 L 787.6 279.9 L 789.1 279.9 L 790.7 279.9 L 792.2 274.2 L 793.7 274.3 L 795.3 274.3 L 796.8 274.3 L 798.3 270.2 L 799.8 270.2 L 801.4 270.2 L 802.9 270.2 L 804.4 270.2 L 805.9 270.2 L 807.5 276.3 L 809.0 283.8 L 810.5 283.8 L 812.0 283.8 L 813.6 283.8 L 815.1 255.2 L 816.6 246.6 L 818.1 246.0 L 819.7 250.4 L 821.2 250.4 L 822.7 250.4 L 824.2 250.3 L 825.8 250.3 L 827.3 242.8 L 828.8 242.9 L 830.4 242.9 L 831.9 242.9 L 833.4 242.9 L 834.9 240.9 L 836.5 242.9 L 838.0 178.2 L 839.5 197.0 L 841.0 200.5 L 842.6 200.5 L 844.1 200.5 L 845.6 200.5 L 847.1 200.5 L 848.7 200.5 L 850.2 200.5 L 851.7 200.5 L 853.2 200.5 L 854.8 200.5 L 856.3 200.5 L 857.8 200.5 L 859.3 200.5 L 860.9 200.5 L 862.4 200.5 L 863.9 200.5 L 865.5 200.5 L 867.0 200.5 L 868.5 191.1 L 870.0 190.2 L 871.6 190.2 L 873.1 190.2 L 874.6 190.2 L 876.1 190.2 L 877.7 190.2 L 879.2 172.6 L 880.7 172.6 L 882.2 172.6 L 883.8 172.6 L 885.3 172.6 L 886.8 172.6 L 888.3 172.6 L 889.9 172.6 L 891.4 172.6 L 892.9 165.0 L 894.4 165.0 L 896.0 165.0 L 897.5 165.0 L 899.0 154.7 L 900.5 154.7 L 902.1 154.7 L 903.6 154.7 L 905.1 154.7 L 906.7 154.7 L 908.2 154.7 L 909.7 154.6 L 911.2 130.7 L 912.8 130.7 L 914.3 130.7 L 915.8 130.7 L 917.3 130.7 L 918.9 130.7 L 920.4 130.7 L 921.9 114.5 L 923.4 114.5 L 925.0 114.5 L 926.5 114.5 L 928.0 114.5 L 929.5 114.5 L 931.1 114.5 L 932.6 114.5 L 934.1 114.5 L 935.6 114.5 L 937.2 114.5 L 938.7 114.5 L 940.2 114.5 L 941.8 114.5 L 943.3 114.5 L 944.8 114.5 L 946.3 114.5 L 947.9 114.5 L 949.4 114.5 L 950.9 114.5 L 952.4 114.5 L 954.0 153.5 L 955.5 153.5 L 957.0 153.5 L 958.5 153.5 L 960.1 153.5 L 961.6 153.5 L 963.1 153.5 L 964.6 153.5 L 966.2 153.5 L 967.7 153.5 L 969.2 153.3 L 970.7 153.3 L 972.3 153.3 L 973.8 153.3 L 975.3 153.0 L 976.9 153.0 L 978.4 153.0 L 979.9 153.0 L 981.4 153.0 L 983.0 153.0 L 984.5 153.0 L 986.0 153.0 L 987.5 165.1 L 989.1 153.0 L 990.6 165.1 L 992.1 165.1 L 993.6 165.1 L 995.2 165.1 L 996.7 165.1 L 998.2 165.1 L 999.7 176.7 L 1001.3 176.7 L 1002.8 176.7 L 1004.3 176.7 L 1005.8 176.7 L 1007.4 176.7 L 1008.9 201.7 L 1010.4 201.7 L 1012.0 201.7 L 1013.5 201.7 L 1015.0 201.7 L 1016.5 201.7 L 1018.1 174.7 L 1019.6 174.7 L 1021.1 174.7 L 1022.6 174.7 L 1024.2 174.7 L 1025.7 174.7 L 1027.2 174.7 L 1028.7 163.2 L 1030.3 163.2 L 1031.8 163.2 L 1033.3 162.8 L 1034.8 162.8 L 1036.4 162.8 L 1037.9 162.8 L 1039.4 162.8 L 1040.9 162.8 L 1042.5 146.0 L 1044.0 146.0 L 1044 424 Z" fill="url(#g2)"/><path d="M 78.0 423.7 L 79.5 423.7 L 81.1 423.7 L 82.6 423.7 L 84.1 423.7 L 85.6 423.7 L 87.2 423.7 L 88.7 423.7 L 90.2 423.7 L 91.7 423.7 L 93.3 423.7 L 94.8 423.7 L 96.3 423.7 L 97.8 423.7 L 99.4 423.7 L 100.9 423.7 L 102.4 391.2 L 103.9 391.2 L 105.5 391.2 L 107.0 391.2 L 108.5 391.2 L 110.0 391.2 L 111.6 391.2 L 113.1 418.8 L 114.6 418.8 L 116.2 418.8 L 117.7 418.8 L 119.2 418.8 L 120.7 418.8 L 122.3 418.8 L 123.8 418.8 L 125.3 418.8 L 126.8 418.8 L 128.4 418.8 L 129.9 418.8 L 131.4 370.4 L 132.9 370.4 L 134.5 370.4 L 136.0 370.4 L 137.5 370.4 L 139.0 370.4 L 140.6 370.4 L 142.1 370.4 L 143.6 370.4 L 145.1 370.4 L 146.7 370.4 L 148.2 370.4 L 149.7 370.4 L 151.3 370.4 L 152.8 370.4 L 154.3 370.4 L 155.8 370.4 L 157.4 370.4 L 158.9 370.4 L 160.4 370.4 L 161.9 370.4 L 163.5 370.4 L 165.0 370.4 L 166.5 370.4 L 168.0 370.4 L 169.6 370.4 L 171.1 370.4 L 172.6 370.4 L 174.1 370.4 L 175.7 370.4 L 177.2 370.4 L 178.7 370.4 L 180.2 370.4 L 181.8 370.4 L 183.3 366.3 L 184.8 366.3 L 186.4 366.3 L 187.9 366.3 L 189.4 358.7 L 190.9 358.7 L 192.5 358.7 L 194.0 351.0 L 195.5 346.9 L 197.0 343.1 L 198.6 343.1 L 200.1 343.1 L 201.6 343.1 L 203.1 343.1 L 204.7 330.8 L 206.2 330.8 L 207.7 330.8 L 209.2 330.8 L 210.8 330.8 L 212.3 330.8 L 213.8 330.8 L 215.3 330.8 L 216.9 330.8 L 218.4 330.8 L 219.9 330.8 L 221.5 330.8 L 223.0 330.8 L 224.5 330.8 L 226.0 330.8 L 227.6 330.8 L 229.1 330.8 L 230.6 330.8 L 232.1 330.8 L 233.7 330.8 L 235.2 330.8 L 236.7 330.8 L 238.2 330.8 L 239.8 330.8 L 241.3 330.8 L 242.8 330.8 L 244.3 330.8 L 245.9 330.8 L 247.4 330.8 L 248.9 330.8 L 250.4 330.8 L 252.0 330.8 L 253.5 329.6 L 255.0 329.6 L 256.5 329.6 L 258.1 327.2 L 259.6 327.2 L 261.1 327.2 L 262.7 327.2 L 264.2 327.2 L 265.7 327.2 L 267.2 327.2 L 268.8 327.2 L 270.3 327.2 L 271.8 335.5 L 273.3 335.5 L 274.9 335.5 L 276.4 335.5 L 277.9 335.5 L 279.4 346.3 L 281.0 355.4 L 282.5 355.4 L 284.0 364.6 L 285.5 364.6 L 287.1 364.6 L 288.6 364.6 L 290.1 364.6 L 291.6 364.6 L 293.2 394.1 L 294.7 394.1 L 296.2 386.9 L 297.8 386.9 L 299.3 386.9 L 300.8 383.4 L 302.3 383.4 L 303.9 383.4 L 305.4 383.4 L 306.9 383.4 L 308.4 383.4 L 310.0 383.4 L 311.5 383.4 L 313.0 383.4 L 314.5 383.4 L 316.1 383.4 L 317.6 383.4 L 319.1 383.4 L 320.6 383.4 L 322.2 383.4 L 323.7 383.4 L 325.2 383.4 L 326.7 383.4 L 328.3 380.2 L 329.8 380.2 L 331.3 380.2 L 332.9 374.8 L 334.4 374.8 L 335.9 374.8 L 337.4 374.8 L 339.0 374.8 L 340.5 374.8 L 342.0 374.8 L 343.5 374.8 L 345.1 374.8 L 346.6 374.8 L 348.1 374.8 L 349.6 381.9 L 351.2 381.9 L 352.7 381.9 L 354.2 391.4 L 355.7 391.5 L 357.3 393.9 L 358.8 393.9 L 360.3 393.9 L 361.8 393.9 L 363.4 393.9 L 364.9 393.9 L 366.4 393.9 L 368.0 393.9 L 369.5 393.9 L 371.0 393.9 L 372.5 393.9 L 374.1 393.9 L 375.6 393.9 L 377.1 393.9 L 378.6 393.9 L 380.2 391.2 L 381.7 389.1 L 383.2 389.1 L 384.7 389.1 L 386.3 380.1 L 387.8 370.4 L 389.3 368.0 L 390.8 361.7 L 392.4 361.7 L 393.9 361.7 L 395.4 361.7 L 396.9 361.7 L 398.5 361.7 L 400.0 361.7 L 401.5 361.7 L 403.1 361.7 L 404.6 361.7 L 406.1 361.7 L 407.6 361.7 L 409.2 358.8 L 410.7 361.7 L 412.2 361.7 L 413.7 365.4 L 415.3 365.4 L 416.8 365.4 L 418.3 374.8 L 419.8 371.7 L 421.4 375.1 L 422.9 375.1 L 424.4 381.4 L 425.9 381.4 L 427.5 381.4 L 429.0 381.4 L 430.5 379.1 L 432.0 376.8 L 433.6 374.5 L 435.1 374.5 L 436.6 374.5 L 438.2 374.5 L 439.7 374.5 L 441.2 374.5 L 442.7 374.9 L 444.3 374.9 L 445.8 374.9 L 447.3 374.9 L 448.8 374.9 L 450.4 374.9 L 451.9 374.9 L 453.4 374.8 L 454.9 374.8 L 456.5 374.9 L 458.0 374.9 L 459.5 374.9 L 461.0 374.9 L 462.6 381.1 L 464.1 361.3 L 465.6 385.2 L 467.1 385.2 L 468.7 385.2 L 470.2 385.2 L 471.7 385.2 L 473.3 387.3 L 474.8 374.2 L 476.3 389.3 L 477.8 389.3 L 479.4 389.3 L 480.9 389.3 L 482.4 389.3 L 483.9 389.3 L 485.5 387.4 L 487.0 389.3 L 488.5 389.3 L 490.0 389.3 L 491.6 389.3 L 493.1 389.3 L 494.6 394.3 L 496.1 358.0 L 497.7 374.1 L 499.2 368.5 L 500.7 368.5 L 502.2 368.5 L 503.8 368.5 L 505.3 368.5 L 506.8 370.1 L 508.4 345.4 L 509.9 364.9 L 511.4 364.9 L 512.9 364.9 L 514.5 364.9 L 516.0 334.8 L 517.5 334.1 L 519.0 334.8 L 520.6 333.2 L 522.1 333.2 L 523.6 333.2 L 525.1 333.1 L 526.7 333.1 L 528.2 310.3 L 529.7 306.2 L 531.2 306.1 L 532.8 306.1 L 534.3 306.1 L 535.8 307.2 L 537.3 307.2 L 538.9 307.2 L 540.4 297.2 L 541.9 296.7 L 543.5 296.7 L 545.0 296.7 L 546.5 292.5 L 548.0 294.5 L 549.6 293.0 L 551.1 234.6 L 552.6 190.4 L 554.1 190.4 L 555.7 190.4 L 557.2 181.3 L 558.7 188.1 L 560.2 184.2 L 561.8 179.6 L 563.3 179.6 L 564.8 188.0 L 566.3 188.0 L 567.9 187.9 L 569.4 194.3 L 570.9 197.7 L 572.4 197.7 L 574.0 178.4 L 575.5 178.4 L 577.0 178.4 L 578.5 196.4 L 580.1 184.7 L 581.6 200.8 L 583.1 201.8 L 584.7 201.8 L 586.2 201.8 L 587.7 201.8 L 589.2 201.8 L 590.8 202.5 L 592.3 173.2 L 593.8 185.1 L 595.3 196.4 L 596.9 196.4 L 598.4 196.4 L 599.9 196.4 L 601.4 196.4 L 603.0 179.9 L 604.5 201.8 L 606.0 201.8 L 607.5 201.8 L 609.1 201.8 L 610.6 201.8 L 612.1 201.8 L 613.6 178.5 L 615.2 202.0 L 616.7 201.7 L 618.2 201.7 L 619.8 201.7 L 621.3 201.7 L 622.8 209.1 L 624.3 209.1 L 625.9 209.1 L 627.4 209.1 L 628.9 209.1 L 630.4 209.1 L 632.0 209.1 L 633.5 209.1 L 635.0 209.1 L 636.5 209.1 L 638.1 209.1 L 639.6 209.1 L 641.1 209.1 L 642.6 239.4 L 644.2 239.4 L 645.7 239.4 L 647.2 239.4 L 648.7 239.4 L 650.3 239.4 L 651.8 239.4 L 653.3 239.4 L 654.9 241.4 L 656.4 241.6 L 657.9 241.6 L 659.4 241.6 L 661.0 241.6 L 662.5 241.6 L 664.0 243.4 L 665.5 243.4 L 667.1 243.4 L 668.6 257.4 L 670.1 256.7 L 671.6 256.7 L 673.2 256.7 L 674.7 256.7 L 676.2 256.7 L 677.7 256.7 L 679.3 256.7 L 680.8 256.7 L 682.3 256.7 L 683.8 256.7 L 685.4 257.4 L 686.9 257.1 L 688.4 257.1 L 690.0 257.1 L 691.5 257.1 L 693.0 257.1 L 694.5 257.1 L 696.1 257.1 L 697.6 256.2 L 699.1 256.2 L 700.6 256.2 L 702.2 248.2 L 703.7 248.2 L 705.2 248.2 L 706.7 248.2 L 708.3 248.2 L 709.8 248.2 L 711.3 248.2 L 712.8 237.8 L 714.4 237.8 L 715.9 237.8 L 717.4 237.8 L 718.9 224.6 L 720.5 224.6 L 722.0 252.6 L 723.5 248.4 L 725.1 248.4 L 726.6 248.4 L 728.1 248.4 L 729.6 248.4 L 731.2 241.3 L 732.7 241.3 L 734.2 278.6 L 735.7 278.6 L 737.3 278.6 L 738.8 263.4 L 740.3 263.4 L 741.8 269.9 L 743.4 269.9 L 744.9 223.3 L 746.4 233.6 L 747.9 233.6 L 749.5 233.6 L 751.0 233.6 L 752.5 233.6 L 754.0 276.4 L 755.6 265.1 L 757.1 265.1 L 758.6 265.1 L 760.2 265.1 L 761.7 265.1 L 763.2 265.1 L 764.7 241.8 L 766.3 262.9 L 767.8 262.9 L 769.3 262.9 L 770.8 261.9 L 772.4 261.9 L 773.9 261.9 L 775.4 261.9 L 776.9 280.0 L 778.5 280.0 L 780.0 280.0 L 781.5 283.9 L 783.0 283.4 L 784.6 258.9 L 786.1 258.9 L 787.6 279.9 L 789.1 279.9 L 790.7 279.9 L 792.2 274.2 L 793.7 274.3 L 795.3 274.3 L 796.8 274.3 L 798.3 270.2 L 799.8 270.2 L 801.4 270.2 L 802.9 270.2 L 804.4 270.2 L 805.9 270.2 L 807.5 276.3 L 809.0 283.8 L 810.5 283.8 L 812.0 283.8 L 813.6 283.8 L 815.1 255.2 L 816.6 246.6 L 818.1 246.0 L 819.7 250.4 L 821.2 250.4 L 822.7 250.4 L 824.2 250.3 L 825.8 250.3 L 827.3 242.8 L 828.8 242.9 L 830.4 242.9 L 831.9 242.9 L 833.4 242.9 L 834.9 240.9 L 836.5 242.9 L 838.0 178.2 L 839.5 197.0 L 841.0 200.5 L 842.6 200.5 L 844.1 200.5 L 845.6 200.5 L 847.1 200.5 L 848.7 200.5 L 850.2 200.5 L 851.7 200.5 L 853.2 200.5 L 854.8 200.5 L 856.3 200.5 L 857.8 200.5 L 859.3 200.5 L 860.9 200.5 L 862.4 200.5 L 863.9 200.5 L 865.5 200.5 L 867.0 200.5 L 868.5 191.1 L 870.0 190.2 L 871.6 190.2 L 873.1 190.2 L 874.6 190.2 L 876.1 190.2 L 877.7 190.2 L 879.2 172.6 L 880.7 172.6 L 882.2 172.6 L 883.8 172.6 L 885.3 172.6 L 886.8 172.6 L 888.3 172.6 L 889.9 172.6 L 891.4 172.6 L 892.9 165.0 L 894.4 165.0 L 896.0 165.0 L 897.5 165.0 L 899.0 154.7 L 900.5 154.7 L 902.1 154.7 L 903.6 154.7 L 905.1 154.7 L 906.7 154.7 L 908.2 154.7 L 909.7 154.6 L 911.2 130.7 L 912.8 130.7 L 914.3 130.7 L 915.8 130.7 L 917.3 130.7 L 918.9 130.7 L 920.4 130.7 L 921.9 114.5 L 923.4 114.5 L 925.0 114.5 L 926.5 114.5 L 928.0 114.5 L 929.5 114.5 L 931.1 114.5 L 932.6 114.5 L 934.1 114.5 L 935.6 114.5 L 937.2 114.5 L 938.7 114.5 L 940.2 114.5 L 941.8 114.5 L 943.3 114.5 L 944.8 114.5 L 946.3 114.5 L 947.9 114.5 L 949.4 114.5 L 950.9 114.5 L 952.4 114.5 L 954.0 153.5 L 955.5 153.5 L 957.0 153.5 L 958.5 153.5 L 960.1 153.5 L 961.6 153.5 L 963.1 153.5 L 964.6 153.5 L 966.2 153.5 L 967.7 153.5 L 969.2 153.3 L 970.7 153.3 L 972.3 153.3 L 973.8 153.3 L 975.3 153.0 L 976.9 153.0 L 978.4 153.0 L 979.9 153.0 L 981.4 153.0 L 983.0 153.0 L 984.5 153.0 L 986.0 153.0 L 987.5 165.1 L 989.1 153.0 L 990.6 165.1 L 992.1 165.1 L 993.6 165.1 L 995.2 165.1 L 996.7 165.1 L 998.2 165.1 L 999.7 176.7 L 1001.3 176.7 L 1002.8 176.7 L 1004.3 176.7 L 1005.8 176.7 L 1007.4 176.7 L 1008.9 201.7 L 1010.4 201.7 L 1012.0 201.7 L 1013.5 201.7 L 1015.0 201.7 L 1016.5 201.7 L 1018.1 174.7 L 1019.6 174.7 L 1021.1 174.7 L 1022.6 174.7 L 1024.2 174.7 L 1025.7 174.7 L 1027.2 174.7 L 1028.7 163.2 L 1030.3 163.2 L 1031.8 163.2 L 1033.3 162.8 L 1034.8 162.8 L 1036.4 162.8 L 1037.9 162.8 L 1039.4 162.8 L 1040.9 162.8 L 1042.5 146.0 L 1044.0 146.0" stroke="#fcff52" stroke-width="1.6" fill="none" stroke-linejoin="round"/><circle cx="921.9" cy="114.5" r="4.5" fill="#f0883e" stroke="#11151d" stroke-width="2"/><rect x="846.6146919431279" y="90" width="150.6" height="22" rx="6" fill="#0b0e14" stroke="#f0883e" stroke-width="1"/><text x="921.9146919431279" y="105" class="annot" fill="#f0883e" text-anchor="middle">2026-03-24 · 1.1B</text><line x1="78" y1="424" x2="1044" y2="424" stroke="#8b949e" stroke-width="1.4"/>
  <text x="28" y="484" class="footer">COPM 0xC92E…5606 · Celo · Transfer events up to 2026-06-12 · source: on-chain RPC scan</text>
</svg>