<svg xmlns="http://www.w3.org/2000/svg" width="1080" height="500" viewBox="0 0 1080 500" role="img" aria-label="COPM — Monthly Gross Volume (USD)">
  <style>
    .title { font: 600 22px -apple-system, 'Segoe UI', system-ui, sans-serif; fill: #e6edf3; }
    .subtitle { font: 400 14px -apple-system, 'Segoe UI', system-ui, sans-serif; fill: #7d8590; }
    .axis { font: 400 13px -apple-system, 'Segoe UI', system-ui, sans-serif; fill: #8b949e; }
    .label { font: 500 14px -apple-system, 'Segoe UI', system-ui, sans-serif; fill: #e6edf3; }
    .annot { font: 600 13px -apple-system, 'Segoe UI', system-ui, sans-serif; }
    .badge { font: 600 13px -apple-system, 'Segoe UI', system-ui, sans-serif; }
    .footer { font: 400 12px ui-monospace, 'SF Mono', Menlo, monospace; fill: #7d8590; }
  </style>
  <defs></defs>
  <rect width="1080" height="500" fill="#0b0e14"/>
  <rect x="8" y="8" width="1064" height="484" rx="10" fill="#11151d" stroke="#222938" stroke-width="1"/>
  <text x="28" y="40" class="title">COPM — Monthly Gross Volume (USD)</text>
  <rect x="994" y="24" width="58" height="22" rx="11" fill="#35d07f22" stroke="#35d07f" stroke-width="1"/>
  <text x="1023" y="39" class="badge" fill="#35d07f" text-anchor="middle">Celo</text>
  <text x="28" y="59" class="subtitle">22 months · peak month: $2.2M</text>
  <line x1="78" y1="404" x2="1044" y2="404" stroke="#222938" stroke-width="1"/><text x="68" y="408" class="axis" text-anchor="end">$0</text><line x1="78" y1="340.4" x2="1044" y2="340.4" stroke="#222938" stroke-width="1"/><text x="68" y="344.4" class="axis" text-anchor="end">$500K</text><line x1="78" y1="276.8" x2="1044" y2="276.8" stroke="#222938" stroke-width="1"/><text x="68" y="280.8" class="axis" text-anchor="end">$1.0M</text><line x1="78" y1="213.20000000000002" x2="1044" y2="213.20000000000002" stroke="#222938" stroke-width="1"/><text x="68" y="217.20000000000002" class="axis" text-anchor="end">$1.5M</text><line x1="78" y1="149.6" x2="1044" y2="149.6" stroke="#222938" stroke-width="1"/><text x="68" y="153.6" class="axis" text-anchor="end">$2.0M</text><line x1="78" y1="86" x2="1044" y2="86" stroke="#222938" stroke-width="1"/><text x="68" y="90" class="axis" text-anchor="end">$2.5M</text><rect x="84.1" y="403.9" width="31.6" height="0.1" fill="#35d07f" fill-opacity="0.9" rx="2.5"/><text x="99.95454545454547" y="424" class="axis" text-anchor="middle" transform="rotate(-45 99.95454545454547 424)">Sep 24</text><rect x="128.1" y="334.6" width="31.6" height="69.4" fill="#35d07f" fill-opacity="0.9" rx="2.5"/><text x="143.86363636363637" y="424" class="axis" text-anchor="middle" transform="rotate(-45 143.86363636363637 424)">Oct 24</text><rect x="172.0" y="338.0" width="31.6" height="66.0" fill="#35d07f" fill-opacity="0.9" rx="2.5"/><text x="187.77272727272728" y="424" class="axis" text-anchor="middle" transform="rotate(-45 187.77272727272728 424)">Nov 24</text><rect x="215.9" y="317.9" width="31.6" height="86.1" fill="#35d07f" fill-opacity="0.9" rx="2.5"/><text x="231.6818181818182" y="424" class="axis" text-anchor="middle" transform="rotate(-45 231.6818181818182 424)">Dec 24</text><rect x="259.8" y="344.6" width="31.6" height="59.4" fill="#35d07f" fill-opacity="0.9" rx="2.5"/><text x="275.59090909090907" y="424" class="axis" text-anchor="middle" transform="rotate(-45 275.59090909090907 424)">Jan 25</text><rect x="303.7" y="359.3" width="31.6" height="44.7" fill="#35d07f" fill-opacity="0.9" rx="2.5"/><text x="319.49999999999994" y="424" class="axis" text-anchor="middle" transform="rotate(-45 319.49999999999994 424)">Feb 25</text><rect x="347.6" y="367.7" width="31.6" height="36.3" fill="#35d07f" fill-opacity="0.9" rx="2.5"/><text x="363.4090909090909" y="424" class="axis" text-anchor="middle" transform="rotate(-45 363.4090909090909 424)">Mar 25</text><rect x="391.5" y="367.6" width="31.6" height="36.4" fill="#35d07f" fill-opacity="0.9" rx="2.5"/><text x="407.3181818181818" y="424" class="axis" text-anchor="middle" transform="rotate(-45 407.3181818181818 424)">Apr 25</text><rect x="435.4" y="350.9" width="31.6" height="53.1" fill="#35d07f" fill-opacity="0.9" rx="2.5"/><text x="451.2272727272727" y="424" class="axis" text-anchor="middle" transform="rotate(-45 451.2272727272727 424)">May 25</text><rect x="479.3" y="334.2" width="31.6" height="69.8" fill="#35d07f" fill-opacity="0.9" rx="2.5"/><text x="495.13636363636357" y="424" class="axis" text-anchor="middle" transform="rotate(-45 495.13636363636357 424)">Jun 25</text><rect x="523.2" y="130.3" width="31.6" height="273.7" fill="#f0883e" fill-opacity="0.9" rx="2.5"/><text x="539.0" y="122.3" class="annot" fill="#f0883e" text-anchor="middle">$2.2M</text><text x="539.0454545454544" y="424" class="axis" text-anchor="middle" transform="rotate(-45 539.0454545454544 424)">Jul 25</text><rect x="567.1" y="325.6" width="31.6" height="78.4" fill="#35d07f" fill-opacity="0.9" rx="2.5"/><text x="582.9545454545454" y="424" class="axis" text-anchor="middle" transform="rotate(-45 582.9545454545454 424)">Aug 25</text><rect x="611.1" y="355.6" width="31.6" height="48.4" fill="#35d07f" fill-opacity="0.9" rx="2.5"/><text x="626.8636363636363" y="424" class="axis" text-anchor="middle" transform="rotate(-45 626.8636363636363 424)">Sep 25</text><rect x="655.0" y="390.4" width="31.6" height="13.6" fill="#35d07f" fill-opacity="0.9" rx="2.5"/><text x="670.7727272727271" y="424" class="axis" text-anchor="middle" transform="rotate(-45 670.7727272727271 424)">Oct 25</text><rect x="698.9" y="327.9" width="31.6" height="76.1" fill="#35d07f" fill-opacity="0.9" rx="2.5"/><text x="714.6818181818181" y="424" class="axis" text-anchor="middle" transform="rotate(-45 714.6818181818181 424)">Nov 25</text><rect x="742.8" y="300.9" width="31.6" height="103.1" fill="#35d07f" fill-opacity="0.9" rx="2.5"/><text x="758.590909090909" y="424" class="axis" text-anchor="middle" transform="rotate(-45 758.590909090909 424)">Dec 25</text><rect x="786.7" y="316.1" width="31.6" height="87.9" fill="#35d07f" fill-opacity="0.9" rx="2.5"/><text x="802.4999999999999" y="424" class="axis" text-anchor="middle" transform="rotate(-45 802.4999999999999 424)">Jan 26</text><rect x="830.6" y="350.5" width="31.6" height="53.5" fill="#35d07f" fill-opacity="0.9" rx="2.5"/><text x="846.4090909090908" y="424" class="axis" text-anchor="middle" transform="rotate(-45 846.4090909090908 424)">Feb 26</text><rect x="874.5" y="316.7" width="31.6" height="87.3" fill="#35d07f" fill-opacity="0.9" rx="2.5"/><text x="890.3181818181816" y="424" class="axis" text-anchor="middle" transform="rotate(-45 890.3181818181816 424)">Mar 26</text><rect x="918.4" y="352.6" width="31.6" height="51.4" fill="#35d07f" fill-opacity="0.9" rx="2.5"/><text x="934.2272727272726" y="424" class="axis" text-anchor="middle" transform="rotate(-45 934.2272727272726 424)">Apr 26</text><rect x="962.3" y="337.3" width="31.6" height="66.7" fill="#35d07f" fill-opacity="0.9" rx="2.5"/><text x="978.1363636363635" y="424" class="axis" text-anchor="middle" transform="rotate(-45 978.1363636363635 424)">May 26</text><rect x="1006.2" y="381.8" width="31.6" height="22.2" fill="#35d07f" fill-opacity="0.9" rx="2.5"/><text x="1022.0454545454544" y="424" class="axis" text-anchor="middle" transform="rotate(-45 1022.0454545454544 424)">Jun 26</text><line x1="78" y1="404" x2="1044" y2="404" stroke="#8b949e" stroke-width="1.4"/>
  <text x="28" y="484" class="footer">COPM 0xC92E…5606 · Celo · Transfer events up to 2026-06-12 · source: on-chain RPC scan</text>
</svg>