<svg xmlns="http://www.w3.org/2000/svg" width="1080" height="500" viewBox="0 0 1080 500" role="img" aria-label="COPM — Circulating Supply Over Time">
  <style>
    .title { font: 600 22px -apple-system, 'Segoe UI', system-ui, sans-serif; fill: #151515; }
    .subtitle { font: 400 14px -apple-system, 'Segoe UI', system-ui, sans-serif; fill: #6e6e66; }
    .axis { font: 400 13px -apple-system, 'Segoe UI', system-ui, sans-serif; fill: #52524c; }
    .label { font: 500 14px -apple-system, 'Segoe UI', system-ui, sans-serif; fill: #151515; }
    .annot { font: 600 13px -apple-system, 'Segoe UI', system-ui, sans-serif; }
    .badge { font: 600 13px -apple-system, 'Segoe UI', system-ui, sans-serif; }
    .footer { font: 400 12px ui-monospace, 'SF Mono', Menlo, monospace; fill: #6e6e66; }
  </style>
  <defs><linearGradient id="g5" x1="0" y1="0" x2="0" y2="1">
      <stop offset="0%" stop-color="#2a66c2" stop-opacity="0.35"/>
      <stop offset="100%" stop-color="#2a66c2" stop-opacity="0.02"/>
    </linearGradient></defs>
  <rect width="1080" height="500" fill="#eeefe9"/>
  <rect x="8" y="8" width="1064" height="484" rx="10" fill="#ffffff" stroke="#d4d5cc" stroke-width="1"/>
  <text x="28" y="40" class="title">COPM — Circulating Supply Over Time</text>
  <rect x="968.5" y="24" width="83.5" height="22" rx="11" fill="#6549c422" stroke="#6549c4" stroke-width="1"/>
  <text x="1010.25" y="39" class="badge" fill="#6549c4" text-anchor="middle">Polygon</text>
  <text x="28" y="59" class="subtitle">End-of-day supply · peak: 12.7B COPM</text>
  <line x1="78" y1="424" x2="1044" y2="424" stroke="#d4d5cc" stroke-width="1"/><text x="68" y="428" class="axis" text-anchor="end">0</text><line x1="78" y1="311.33333333333337" x2="1044" y2="311.33333333333337" stroke="#d4d5cc" stroke-width="1"/><text x="68" y="315.33333333333337" class="axis" text-anchor="end">5.0B</text><line x1="78" y1="198.66666666666669" x2="1044" y2="198.66666666666669" stroke="#d4d5cc" stroke-width="1"/><text x="68" y="202.66666666666669" class="axis" text-anchor="end">10.0B</text><line x1="78" y1="86" x2="1044" y2="86" stroke="#d4d5cc" stroke-width="1"/><text x="68" y="90" class="axis" text-anchor="end">15.0B</text><line x1="58.582914572864325" y1="86" x2="58.582914572864325" y2="424" stroke="#d4d5cc" stroke-width="1" stroke-dasharray="2,5"/><text x="58.582914572864325" y="444" class="axis" text-anchor="middle">Sep 23</text><line x1="146.93065326633166" y1="86" x2="146.93065326633166" y2="424" stroke="#d4d5cc" stroke-width="1" stroke-dasharray="2,5"/><text x="146.93065326633166" y="444" class="axis" text-anchor="middle">Dec 23</text><line x1="235.278391959799" y1="86" x2="235.278391959799" y2="424" stroke="#d4d5cc" stroke-width="1" stroke-dasharray="2,5"/><text x="235.278391959799" y="444" class="axis" text-anchor="middle">Mar 24</text><line x1="324.5969849246231" y1="86" x2="324.5969849246231" y2="424" stroke="#d4d5cc" stroke-width="1" stroke-dasharray="2,5"/><text x="324.5969849246231" y="444" class="axis" text-anchor="middle">Jun 24</text><line x1="413.9155778894472" y1="86" x2="413.9155778894472" y2="424" stroke="#d4d5cc" stroke-width="1" stroke-dasharray="2,5"/><text x="413.9155778894472" y="444" class="axis" text-anchor="middle">Sep 24</text><line x1="502.26331658291457" y1="86" x2="502.26331658291457" y2="424" stroke="#d4d5cc" stroke-width="1" stroke-dasharray="2,5"/><text x="502.26331658291457" y="444" class="axis" text-anchor="middle">Dec 24</text><line x1="589.6402010050251" y1="86" x2="589.6402010050251" y2="424" stroke="#d4d5cc" stroke-width="1" stroke-dasharray="2,5"/><text x="589.6402010050251" y="444" class="axis" text-anchor="middle">Mar 25</text><line x1="678.9587939698492" y1="86" x2="678.9587939698492" y2="424" stroke="#d4d5cc" stroke-width="1" stroke-dasharray="2,5"/><text x="678.9587939698492" y="444" class="axis" text-anchor="middle">Jun 25</text><line x1="768.2773869346734" y1="86" x2="768.2773869346734" y2="424" stroke="#d4d5cc" stroke-width="1" stroke-dasharray="2,5"/><text x="768.2773869346734" y="444" class="axis" text-anchor="middle">Sep 25</text><line x1="856.6251256281407" y1="86" x2="856.6251256281407" y2="424" stroke="#d4d5cc" stroke-width="1" stroke-dasharray="2,5"/><text x="856.6251256281407" y="444" class="axis" text-anchor="middle">Dec 25</text><line x1="944.0020100502513" y1="86" x2="944.0020100502513" y2="424" stroke="#d4d5cc" stroke-width="1" stroke-dasharray="2,5"/><text x="944.0020100502513" y="444" class="axis" text-anchor="middle">Mar 26</text><line x1="1033.3206030150754" y1="86" x2="1033.3206030150754" y2="424" stroke="#d4d5cc" stroke-width="1" stroke-dasharray="2,5"/><text x="1033.3206030150754" y="444" class="axis" text-anchor="middle">Jun 26</text><path d="M 78 424 L 78.0 423.9 L 79.0 423.9 L 79.9 423.9 L 80.9 423.9 L 81.9 423.9 L 82.9 423.9 L 83.8 423.9 L 84.8 423.9 L 85.8 423.9 L 86.7 423.9 L 87.7 423.9 L 88.7 423.9 L 89.7 423.9 L 90.6 423.9 L 91.6 423.9 L 92.6 423.9 L 93.5 423.9 L 94.5 423.9 L 95.5 423.9 L 96.4 423.9 L 97.4 423.9 L 98.4 423.9 L 99.4 423.9 L 100.3 423.9 L 101.3 423.9 L 102.3 423.9 L 103.2 423.7 L 104.2 423.7 L 105.2 423.7 L 106.2 423.7 L 107.1 423.7 L 108.1 423.7 L 109.1 423.7 L 110.0 423.7 L 111.0 423.7 L 112.0 423.7 L 113.0 423.7 L 113.9 423.7 L 114.9 423.7 L 115.9 423.7 L 116.8 421.4 L 117.8 421.4 L 118.8 421.4 L 119.7 421.4 L 120.7 421.4 L 121.7 421.4 L 122.7 421.4 L 123.6 416.9 L 124.6 416.9 L 125.6 416.9 L 126.5 416.9 L 127.5 416.9 L 128.5 416.9 L 129.5 416.9 L 130.4 416.9 L 131.4 415.5 L 132.4 415.5 L 133.3 415.5 L 134.3 415.5 L 135.3 415.5 L 136.3 415.5 L 137.2 415.5 L 138.2 406.3 L 139.2 406.3 L 140.1 406.3 L 141.1 405.7 L 142.1 405.7 L 143.0 405.7 L 144.0 405.7 L 145.0 405.7 L 146.0 405.7 L 146.9 405.7 L 147.9 405.7 L 148.9 405.7 L 149.8 405.7 L 150.8 405.7 L 151.8 405.7 L 152.8 405.7 L 153.7 405.7 L 154.7 405.7 L 155.7 405.7 L 156.6 405.7 L 157.6 405.7 L 158.6 405.7 L 159.6 405.7 L 160.5 405.7 L 161.5 405.7 L 162.5 405.7 L 163.4 405.7 L 164.4 405.7 L 165.4 405.7 L 166.3 405.7 L 167.3 405.7 L 168.3 405.7 L 169.3 405.7 L 170.2 405.7 L 171.2 405.7 L 172.2 405.7 L 173.1 405.7 L 174.1 405.7 L 175.1 405.7 L 176.1 405.7 L 177.0 405.7 L 178.0 405.7 L 179.0 405.7 L 179.9 405.7 L 180.9 405.7 L 181.9 405.7 L 182.9 405.7 L 183.8 405.7 L 184.8 405.7 L 185.8 405.7 L 186.7 405.7 L 187.7 405.7 L 188.7 405.7 L 189.6 405.7 L 190.6 405.7 L 191.6 405.7 L 192.6 405.7 L 193.5 405.7 L 194.5 405.7 L 195.5 405.7 L 196.4 405.7 L 197.4 405.7 L 198.4 405.7 L 199.4 405.7 L 200.3 405.7 L 201.3 405.7 L 202.3 405.7 L 203.2 405.7 L 204.2 405.7 L 205.2 405.7 L 206.2 405.7 L 207.1 405.7 L 208.1 405.7 L 209.1 405.7 L 210.0 405.7 L 211.0 405.3 L 212.0 405.3 L 212.9 405.3 L 213.9 404.7 L 214.9 403.6 L 215.9 403.6 L 216.8 403.6 L 217.8 403.0 L 218.8 403.0 L 219.7 403.0 L 220.7 403.0 L 221.7 403.0 L 222.7 403.0 L 223.6 403.0 L 224.6 403.0 L 225.6 403.0 L 226.5 403.0 L 227.5 403.0 L 228.5 403.0 L 229.5 403.0 L 230.4 403.0 L 231.4 403.0 L 232.4 403.0 L 233.3 403.0 L 234.3 403.0 L 235.3 402.8 L 236.2 402.8 L 237.2 402.8 L 238.2 402.8 L 239.2 402.8 L 240.1 402.8 L 241.1 402.8 L 242.1 402.8 L 243.0 402.8 L 244.0 402.8 L 245.0 402.8 L 246.0 400.8 L 246.9 400.8 L 247.9 400.8 L 248.9 400.8 L 249.8 400.8 L 250.8 400.8 L 251.8 400.8 L 252.8 400.8 L 253.7 400.8 L 254.7 400.8 L 255.7 400.8 L 256.6 400.8 L 257.6 400.8 L 258.6 400.8 L 259.5 400.8 L 260.5 400.8 L 261.5 400.8 L 262.5 400.8 L 263.4 400.8 L 264.4 400.8 L 265.4 400.8 L 266.3 400.8 L 267.3 400.6 L 268.3 400.6 L 269.3 400.6 L 270.2 400.6 L 271.2 400.6 L 272.2 400.6 L 273.1 400.6 L 274.1 400.6 L 275.1 400.6 L 276.1 400.6 L 277.0 400.6 L 278.0 400.6 L 279.0 400.6 L 279.9 400.6 L 280.9 400.6 L 281.9 400.6 L 282.9 400.6 L 283.8 400.6 L 284.8 400.6 L 285.8 399.7 L 286.7 399.7 L 287.7 399.7 L 288.7 399.7 L 289.6 399.7 L 290.6 399.7 L 291.6 399.7 L 292.6 399.7 L 293.5 399.7 L 294.5 399.7 L 295.5 397.4 L 296.4 397.4 L 297.4 397.4 L 298.4 397.4 L 299.4 396.1 L 300.3 404.6 L 301.3 404.3 L 302.3 404.3 L 303.2 395.6 L 304.2 395.6 L 305.2 395.6 L 306.2 395.6 L 307.1 395.6 L 308.1 395.6 L 309.1 395.6 L 310.0 395.6 L 311.0 395.6 L 312.0 395.6 L 312.9 395.6 L 313.9 395.6 L 314.9 395.6 L 315.9 395.6 L 316.8 395.6 L 317.8 395.6 L 318.8 395.6 L 319.7 395.6 L 320.7 395.6 L 321.7 395.6 L 322.7 395.6 L 323.6 395.6 L 324.6 395.6 L 325.6 395.6 L 326.5 395.6 L 327.5 395.6 L 328.5 395.6 L 329.5 395.6 L 330.4 395.6 L 331.4 395.6 L 332.4 395.6 L 333.3 395.6 L 334.3 395.6 L 335.3 395.6 L 336.2 395.4 L 337.2 395.4 L 338.2 395.4 L 339.2 395.4 L 340.1 395.4 L 341.1 397.2 L 342.1 397.2 L 343.0 397.2 L 344.0 397.2 L 345.0 397.2 L 346.0 397.2 L 346.9 397.2 L 347.9 392.7 L 348.9 392.7 L 349.8 392.7 L 350.8 392.7 L 351.8 392.7 L 352.8 392.7 L 353.7 392.7 L 354.7 392.7 L 355.7 392.7 L 356.6 392.7 L 357.6 392.2 L 358.6 392.2 L 359.5 392.2 L 360.5 392.2 L 361.5 392.2 L 362.5 392.2 L 363.4 392.2 L 364.4 383.6 L 365.4 383.6 L 366.3 383.6 L 367.3 383.6 L 368.3 383.6 L 369.3 383.6 L 370.2 383.6 L 371.2 383.6 L 372.2 383.6 L 373.1 383.6 L 374.1 383.6 L 375.1 383.6 L 376.1 383.2 L 377.0 383.2 L 378.0 383.2 L 379.0 383.2 L 379.9 383.2 L 380.9 383.2 L 381.9 383.2 L 382.8 383.2 L 383.8 383.2 L 384.8 383.2 L 385.8 383.2 L 386.7 383.2 L 387.7 383.2 L 388.7 383.2 L 389.6 383.2 L 390.6 383.0 L 391.6 383.0 L 392.6 383.0 L 393.5 383.0 L 394.5 378.5 L 395.5 380.4 L 396.4 380.8 L 397.4 380.8 L 398.4 382.6 L 399.4 382.6 L 400.3 382.6 L 401.3 382.6 L 402.3 382.6 L 403.2 382.6 L 404.2 380.4 L 405.2 380.4 L 406.1 380.4 L 407.1 380.4 L 408.1 382.7 L 409.1 381.6 L 410.0 381.6 L 411.0 381.6 L 412.0 381.6 L 412.9 381.6 L 413.9 381.6 L 414.9 379.3 L 415.9 379.3 L 416.8 381.6 L 417.8 381.5 L 418.8 381.5 L 419.7 381.5 L 420.7 381.5 L 421.7 381.5 L 422.7 381.5 L 423.6 381.5 L 424.6 381.5 L 425.6 381.5 L 426.5 381.5 L 427.5 381.5 L 428.5 379.3 L 429.4 359.5 L 430.4 359.5 L 431.4 359.5 L 432.4 359.5 L 433.3 359.5 L 434.3 359.5 L 435.3 359.5 L 436.2 359.5 L 437.2 359.5 L 438.2 359.5 L 439.2 357.2 L 440.1 357.2 L 441.1 357.2 L 442.1 359.6 L 443.0 359.6 L 444.0 359.2 L 445.0 359.2 L 446.0 359.2 L 446.9 359.2 L 447.9 359.2 L 448.9 356.5 L 449.8 356.5 L 450.8 358.3 L 451.8 358.3 L 452.7 358.3 L 453.7 358.3 L 454.7 358.3 L 455.7 358.3 L 456.6 358.3 L 457.6 358.3 L 458.6 358.3 L 459.5 358.3 L 460.5 358.3 L 461.5 358.3 L 462.5 358.3 L 463.4 362.4 L 464.4 362.4 L 465.4 362.4 L 466.3 360.1 L 467.3 360.1 L 468.3 360.1 L 469.3 360.1 L 470.2 360.1 L 471.2 358.2 L 472.2 347.0 L 473.1 347.0 L 474.1 347.0 L 475.1 347.0 L 476.1 347.0 L 477.0 346.5 L 478.0 346.5 L 479.0 346.5 L 479.9 340.0 L 480.9 340.0 L 481.9 340.0 L 482.8 340.0 L 483.8 340.0 L 484.8 340.0 L 485.8 339.6 L 486.7 339.6 L 487.7 339.6 L 488.7 339.6 L 489.6 339.6 L 490.6 339.6 L 491.6 339.6 L 492.6 339.6 L 493.5 339.6 L 494.5 339.6 L 495.5 339.6 L 496.4 339.6 L 497.4 339.6 L 498.4 339.6 L 499.4 340.0 L 500.3 340.3 L 501.3 340.3 L 502.3 340.3 L 503.2 340.3 L 504.2 340.3 L 505.2 340.3 L 506.1 339.6 L 507.1 339.6 L 508.1 339.9 L 509.1 339.9 L 510.0 339.8 L 511.0 339.8 L 512.0 339.8 L 512.9 335.3 L 513.9 335.3 L 514.9 335.3 L 515.9 335.3 L 516.8 335.3 L 517.8 335.3 L 518.8 335.3 L 519.7 335.3 L 520.7 334.4 L 521.7 334.4 L 522.7 334.4 L 523.6 334.4 L 524.6 334.4 L 525.6 334.4 L 526.5 334.4 L 527.5 334.4 L 528.5 334.4 L 529.4 334.4 L 530.4 334.4 L 531.4 334.4 L 532.4 334.4 L 533.3 334.4 L 534.3 334.1 L 535.3 334.1 L 536.2 334.1 L 537.2 334.1 L 538.2 333.6 L 539.2 333.6 L 540.1 333.6 L 541.1 333.7 L 542.1 333.7 L 543.0 333.7 L 544.0 333.9 L 545.0 333.9 L 546.0 333.9 L 546.9 333.9 L 547.9 333.9 L 548.9 333.9 L 549.8 333.9 L 550.8 333.9 L 551.8 333.9 L 552.7 333.9 L 553.7 333.9 L 554.7 333.9 L 555.7 333.9 L 556.6 333.9 L 557.6 333.9 L 558.6 333.9 L 559.5 333.3 L 560.5 333.3 L 561.5 333.3 L 562.5 333.3 L 563.4 333.3 L 564.4 333.4 L 565.4 333.4 L 566.3 338.3 L 567.3 338.3 L 568.3 338.0 L 569.3 338.0 L 570.2 338.0 L 571.2 349.1 L 572.2 348.6 L 573.1 348.6 L 574.1 348.6 L 575.1 348.6 L 576.0 348.6 L 577.0 348.6 L 578.0 348.8 L 579.0 348.8 L 579.9 348.9 L 580.9 348.9 L 581.9 348.9 L 582.8 348.9 L 583.8 348.9 L 584.8 348.9 L 585.8 348.9 L 586.7 348.9 L 587.7 348.9 L 588.7 348.7 L 589.6 348.7 L 590.6 348.7 L 591.6 348.5 L 592.6 348.5 L 593.5 348.5 L 594.5 348.5 L 595.5 348.5 L 596.4 348.5 L 597.4 348.5 L 598.4 347.8 L 599.3 347.8 L 600.3 347.7 L 601.3 347.8 L 602.3 347.4 L 603.2 347.4 L 604.2 347.6 L 605.2 348.5 L 606.1 346.3 L 607.1 347.7 L 608.1 347.7 L 609.1 347.7 L 610.0 347.7 L 611.0 347.7 L 612.0 347.7 L 612.9 352.2 L 613.9 352.3 L 614.9 352.1 L 615.9 352.3 L 616.8 352.3 L 617.8 352.3 L 618.8 352.3 L 619.7 352.3 L 620.7 352.3 L 621.7 352.3 L 622.6 351.9 L 623.6 351.9 L 624.6 351.9 L 625.6 351.4 L 626.5 351.4 L 627.5 349.0 L 628.5 351.9 L 629.4 352.0 L 630.4 352.0 L 631.4 352.3 L 632.4 352.2 L 633.3 352.8 L 634.3 352.8 L 635.3 352.8 L 636.2 352.8 L 637.2 352.8 L 638.2 352.8 L 639.2 352.4 L 640.1 338.8 L 641.1 338.8 L 642.1 352.1 L 643.0 352.1 L 644.0 352.1 L 645.0 352.1 L 645.9 352.2 L 646.9 352.2 L 647.9 338.9 L 648.9 338.9 L 649.8 338.5 L 650.8 338.5 L 651.8 338.5 L 652.7 338.5 L 653.7 338.1 L 654.7 304.4 L 655.7 338.0 L 656.6 338.1 L 657.6 338.1 L 658.6 338.1 L 659.5 338.1 L 660.5 338.3 L 661.5 338.3 L 662.5 338.3 L 663.4 338.3 L 664.4 338.3 L 665.4 338.3 L 666.3 338.4 L 667.3 337.8 L 668.3 337.8 L 669.3 337.2 L 670.2 337.2 L 671.2 337.2 L 672.2 337.2 L 673.1 334.9 L 674.1 336.5 L 675.1 335.4 L 676.0 332.0 L 677.0 332.6 L 678.0 332.6 L 679.0 332.6 L 679.9 332.6 L 680.9 336.2 L 681.9 323.5 L 682.8 327.6 L 683.8 333.6 L 684.8 333.6 L 685.8 333.6 L 686.7 328.1 L 687.7 342.1 L 688.7 340.1 L 689.6 353.5 L 690.6 350.9 L 691.6 350.9 L 692.6 350.9 L 693.5 347.7 L 694.5 340.5 L 695.5 339.1 L 696.4 323.1 L 697.4 328.6 L 698.4 328.6 L 699.3 328.6 L 700.3 328.6 L 701.3 344.6 L 702.3 333.5 L 703.2 336.2 L 704.2 351.5 L 705.2 332.9 L 706.1 332.9 L 707.1 332.9 L 708.1 333.9 L 709.1 319.6 L 710.0 313.3 L 711.0 297.5 L 712.0 296.8 L 712.9 296.8 L 713.9 318.9 L 714.9 295.9 L 715.9 309.8 L 716.8 301.8 L 717.8 326.3 L 718.8 326.3 L 719.7 326.3 L 720.7 290.7 L 721.7 298.9 L 722.6 283.9 L 723.6 296.6 L 724.6 301.1 L 725.6 301.1 L 726.5 301.1 L 727.5 304.0 L 728.5 289.9 L 729.4 263.5 L 730.4 240.3 L 731.4 206.0 L 732.4 206.5 L 733.3 206.5 L 734.3 200.9 L 735.3 249.1 L 736.2 219.1 L 737.2 310.4 L 738.2 295.4 L 739.2 295.4 L 740.1 295.4 L 741.1 249.5 L 742.1 315.4 L 743.0 263.7 L 744.0 263.7 L 745.0 292.7 L 745.9 292.7 L 746.9 292.7 L 747.9 321.2 L 748.9 225.6 L 749.8 239.1 L 750.8 211.8 L 751.8 327.8 L 752.7 327.9 L 753.7 327.9 L 754.7 327.9 L 755.7 232.8 L 756.6 206.4 L 757.6 270.6 L 758.6 338.9 L 759.5 338.9 L 760.5 338.9 L 761.5 331.9 L 762.5 317.0 L 763.4 301.0 L 764.4 305.7 L 765.4 317.1 L 766.3 317.1 L 767.3 317.1 L 768.3 321.7 L 769.2 284.0 L 770.2 270.9 L 771.2 265.1 L 772.2 314.4 L 773.1 314.4 L 774.1 314.4 L 775.1 273.9 L 776.0 273.5 L 777.0 272.9 L 778.0 291.7 L 779.0 258.9 L 779.9 258.9 L 780.9 258.9 L 781.9 300.0 L 782.8 223.5 L 783.8 310.6 L 784.8 314.8 L 785.8 279.1 L 786.7 279.1 L 787.7 279.1 L 788.7 326.4 L 789.6 325.8 L 790.6 352.9 L 791.6 306.0 L 792.5 313.4 L 793.5 313.4 L 794.5 313.4 L 795.5 287.3 L 796.4 276.1 L 797.4 269.4 L 798.4 244.5 L 799.3 234.9 L 800.3 234.9 L 801.3 234.9 L 802.3 311.3 L 803.2 263.2 L 804.2 261.9 L 805.2 229.1 L 806.1 225.7 L 807.1 226.1 L 808.1 226.1 L 809.1 226.1 L 810.0 273.3 L 811.0 252.8 L 812.0 183.5 L 812.9 263.9 L 813.9 263.9 L 814.9 264.0 L 815.8 223.3 L 816.8 207.6 L 817.8 203.0 L 818.8 193.0 L 819.7 168.2 L 820.7 168.2 L 821.7 168.2 L 822.6 223.0 L 823.6 243.0 L 824.6 150.6 L 825.6 253.2 L 826.5 264.0 L 827.5 264.0 L 828.5 264.0 L 829.4 264.0 L 830.4 239.5 L 831.4 254.6 L 832.4 186.6 L 833.3 186.8 L 834.3 186.8 L 835.3 186.8 L 836.2 252.7 L 837.2 269.8 L 838.2 254.9 L 839.1 201.1 L 840.1 231.0 L 841.1 231.1 L 842.1 231.1 L 843.0 231.1 L 844.0 245.8 L 845.0 200.5 L 845.9 270.4 L 846.9 293.3 L 847.9 293.3 L 848.9 294.6 L 849.8 237.2 L 850.8 219.8 L 851.8 206.5 L 852.7 177.3 L 853.7 216.1 L 854.7 216.3 L 855.7 216.3 L 856.6 270.4 L 857.6 255.2 L 858.6 276.8 L 859.5 264.8 L 860.5 246.4 L 861.5 246.4 L 862.5 246.4 L 863.4 246.4 L 864.4 255.3 L 865.4 272.4 L 866.3 280.0 L 867.3 257.4 L 868.3 257.4 L 869.2 257.4 L 870.2 297.8 L 871.2 290.4 L 872.2 288.7 L 873.1 279.8 L 874.1 281.9 L 875.1 281.9 L 876.0 282.0 L 877.0 289.1 L 878.0 296.0 L 879.0 261.6 L 879.9 261.6 L 880.9 268.3 L 881.9 268.3 L 882.8 268.3 L 883.8 274.3 L 884.8 258.2 L 885.8 264.4 L 886.7 264.4 L 887.7 259.1 L 888.7 259.1 L 889.6 259.1 L 890.6 261.6 L 891.6 262.9 L 892.5 235.7 L 893.5 251.9 L 894.5 244.7 L 895.5 245.7 L 896.4 245.7 L 897.4 245.7 L 898.4 276.2 L 899.3 275.6 L 900.3 271.9 L 901.3 271.8 L 902.3 271.8 L 903.2 271.9 L 904.2 286.3 L 905.2 287.0 L 906.1 301.9 L 907.1 281.1 L 908.1 293.7 L 909.1 285.5 L 910.0 285.5 L 911.0 311.4 L 912.0 239.2 L 912.9 268.0 L 913.9 258.2 L 914.9 254.4 L 915.8 254.4 L 916.8 254.4 L 917.8 276.3 L 918.8 256.4 L 919.7 271.2 L 920.7 264.5 L 921.7 267.7 L 922.6 267.7 L 923.6 267.7 L 924.6 270.1 L 925.6 279.2 L 926.5 282.2 L 927.5 281.6 L 928.5 281.1 L 929.4 281.1 L 930.4 281.1 L 931.4 283.8 L 932.4 294.6 L 933.3 289.4 L 934.3 260.3 L 935.3 265.0 L 936.2 265.0 L 937.2 265.0 L 938.2 266.2 L 939.1 269.3 L 940.1 265.3 L 941.1 269.0 L 942.1 315.5 L 943.0 315.5 L 944.0 315.5 L 945.0 255.7 L 945.9 243.9 L 946.9 238.4 L 947.9 256.4 L 948.9 273.5 L 949.8 273.8 L 950.8 273.8 L 951.8 244.8 L 952.7 253.6 L 953.7 230.1 L 954.7 237.0 L 955.7 227.8 L 956.6 227.8 L 957.6 227.8 L 958.6 237.4 L 959.5 232.9 L 960.5 219.8 L 961.5 224.0 L 962.4 236.7 L 963.4 236.7 L 964.4 236.7 L 965.4 236.7 L 966.3 236.6 L 967.3 246.8 L 968.3 249.8 L 969.2 243.7 L 970.2 243.7 L 971.2 243.7 L 972.2 221.3 L 973.1 248.8 L 974.1 235.4 L 975.1 235.4 L 976.0 235.4 L 977.0 235.4 L 978.0 235.4 L 979.0 230.3 L 979.9 243.0 L 980.9 234.2 L 981.9 219.8 L 982.8 228.5 L 983.8 229.4 L 984.8 229.4 L 985.7 248.2 L 986.7 241.5 L 987.7 180.8 L 988.7 208.0 L 989.6 224.9 L 990.6 224.9 L 991.6 228.3 L 992.5 192.2 L 993.5 196.5 L 994.5 197.8 L 995.5 221.8 L 996.4 229.4 L 997.4 231.2 L 998.4 232.2 L 999.3 185.5 L 1000.3 162.3 L 1001.3 166.0 L 1002.3 168.0 L 1003.2 173.5 L 1004.2 192.1 L 1005.2 192.3 L 1006.1 200.9 L 1007.1 162.0 L 1008.1 207.1 L 1009.0 138.4 L 1010.0 204.2 L 1011.0 204.9 L 1012.0 204.9 L 1012.9 180.0 L 1013.9 183.6 L 1014.9 162.4 L 1015.8 182.1 L 1016.8 216.7 L 1017.8 222.3 L 1018.8 223.6 L 1019.7 224.0 L 1020.7 208.5 L 1021.7 196.9 L 1022.6 221.4 L 1023.6 216.6 L 1024.6 219.8 L 1025.6 220.3 L 1026.5 239.5 L 1027.5 237.0 L 1028.5 241.9 L 1029.4 247.1 L 1030.4 245.8 L 1031.4 249.7 L 1032.3 251.2 L 1033.3 251.3 L 1034.3 243.4 L 1035.3 227.9 L 1036.2 244.7 L 1037.2 228.5 L 1038.2 240.3 L 1039.1 241.9 L 1040.1 243.0 L 1041.1 245.4 L 1042.1 246.7 L 1043.0 251.9 L 1044.0 252.0 L 1044 424 Z" fill="url(#g5)"/><path d="M 78.0 423.9 L 79.0 423.9 L 79.9 423.9 L 80.9 423.9 L 81.9 423.9 L 82.9 423.9 L 83.8 423.9 L 84.8 423.9 L 85.8 423.9 L 86.7 423.9 L 87.7 423.9 L 88.7 423.9 L 89.7 423.9 L 90.6 423.9 L 91.6 423.9 L 92.6 423.9 L 93.5 423.9 L 94.5 423.9 L 95.5 423.9 L 96.4 423.9 L 97.4 423.9 L 98.4 423.9 L 99.4 423.9 L 100.3 423.9 L 101.3 423.9 L 102.3 423.9 L 103.2 423.7 L 104.2 423.7 L 105.2 423.7 L 106.2 423.7 L 107.1 423.7 L 108.1 423.7 L 109.1 423.7 L 110.0 423.7 L 111.0 423.7 L 112.0 423.7 L 113.0 423.7 L 113.9 423.7 L 114.9 423.7 L 115.9 423.7 L 116.8 421.4 L 117.8 421.4 L 118.8 421.4 L 119.7 421.4 L 120.7 421.4 L 121.7 421.4 L 122.7 421.4 L 123.6 416.9 L 124.6 416.9 L 125.6 416.9 L 126.5 416.9 L 127.5 416.9 L 128.5 416.9 L 129.5 416.9 L 130.4 416.9 L 131.4 415.5 L 132.4 415.5 L 133.3 415.5 L 134.3 415.5 L 135.3 415.5 L 136.3 415.5 L 137.2 415.5 L 138.2 406.3 L 139.2 406.3 L 140.1 406.3 L 141.1 405.7 L 142.1 405.7 L 143.0 405.7 L 144.0 405.7 L 145.0 405.7 L 146.0 405.7 L 146.9 405.7 L 147.9 405.7 L 148.9 405.7 L 149.8 405.7 L 150.8 405.7 L 151.8 405.7 L 152.8 405.7 L 153.7 405.7 L 154.7 405.7 L 155.7 405.7 L 156.6 405.7 L 157.6 405.7 L 158.6 405.7 L 159.6 405.7 L 160.5 405.7 L 161.5 405.7 L 162.5 405.7 L 163.4 405.7 L 164.4 405.7 L 165.4 405.7 L 166.3 405.7 L 167.3 405.7 L 168.3 405.7 L 169.3 405.7 L 170.2 405.7 L 171.2 405.7 L 172.2 405.7 L 173.1 405.7 L 174.1 405.7 L 175.1 405.7 L 176.1 405.7 L 177.0 405.7 L 178.0 405.7 L 179.0 405.7 L 179.9 405.7 L 180.9 405.7 L 181.9 405.7 L 182.9 405.7 L 183.8 405.7 L 184.8 405.7 L 185.8 405.7 L 186.7 405.7 L 187.7 405.7 L 188.7 405.7 L 189.6 405.7 L 190.6 405.7 L 191.6 405.7 L 192.6 405.7 L 193.5 405.7 L 194.5 405.7 L 195.5 405.7 L 196.4 405.7 L 197.4 405.7 L 198.4 405.7 L 199.4 405.7 L 200.3 405.7 L 201.3 405.7 L 202.3 405.7 L 203.2 405.7 L 204.2 405.7 L 205.2 405.7 L 206.2 405.7 L 207.1 405.7 L 208.1 405.7 L 209.1 405.7 L 210.0 405.7 L 211.0 405.3 L 212.0 405.3 L 212.9 405.3 L 213.9 404.7 L 214.9 403.6 L 215.9 403.6 L 216.8 403.6 L 217.8 403.0 L 218.8 403.0 L 219.7 403.0 L 220.7 403.0 L 221.7 403.0 L 222.7 403.0 L 223.6 403.0 L 224.6 403.0 L 225.6 403.0 L 226.5 403.0 L 227.5 403.0 L 228.5 403.0 L 229.5 403.0 L 230.4 403.0 L 231.4 403.0 L 232.4 403.0 L 233.3 403.0 L 234.3 403.0 L 235.3 402.8 L 236.2 402.8 L 237.2 402.8 L 238.2 402.8 L 239.2 402.8 L 240.1 402.8 L 241.1 402.8 L 242.1 402.8 L 243.0 402.8 L 244.0 402.8 L 245.0 402.8 L 246.0 400.8 L 246.9 400.8 L 247.9 400.8 L 248.9 400.8 L 249.8 400.8 L 250.8 400.8 L 251.8 400.8 L 252.8 400.8 L 253.7 400.8 L 254.7 400.8 L 255.7 400.8 L 256.6 400.8 L 257.6 400.8 L 258.6 400.8 L 259.5 400.8 L 260.5 400.8 L 261.5 400.8 L 262.5 400.8 L 263.4 400.8 L 264.4 400.8 L 265.4 400.8 L 266.3 400.8 L 267.3 400.6 L 268.3 400.6 L 269.3 400.6 L 270.2 400.6 L 271.2 400.6 L 272.2 400.6 L 273.1 400.6 L 274.1 400.6 L 275.1 400.6 L 276.1 400.6 L 277.0 400.6 L 278.0 400.6 L 279.0 400.6 L 279.9 400.6 L 280.9 400.6 L 281.9 400.6 L 282.9 400.6 L 283.8 400.6 L 284.8 400.6 L 285.8 399.7 L 286.7 399.7 L 287.7 399.7 L 288.7 399.7 L 289.6 399.7 L 290.6 399.7 L 291.6 399.7 L 292.6 399.7 L 293.5 399.7 L 294.5 399.7 L 295.5 397.4 L 296.4 397.4 L 297.4 397.4 L 298.4 397.4 L 299.4 396.1 L 300.3 404.6 L 301.3 404.3 L 302.3 404.3 L 303.2 395.6 L 304.2 395.6 L 305.2 395.6 L 306.2 395.6 L 307.1 395.6 L 308.1 395.6 L 309.1 395.6 L 310.0 395.6 L 311.0 395.6 L 312.0 395.6 L 312.9 395.6 L 313.9 395.6 L 314.9 395.6 L 315.9 395.6 L 316.8 395.6 L 317.8 395.6 L 318.8 395.6 L 319.7 395.6 L 320.7 395.6 L 321.7 395.6 L 322.7 395.6 L 323.6 395.6 L 324.6 395.6 L 325.6 395.6 L 326.5 395.6 L 327.5 395.6 L 328.5 395.6 L 329.5 395.6 L 330.4 395.6 L 331.4 395.6 L 332.4 395.6 L 333.3 395.6 L 334.3 395.6 L 335.3 395.6 L 336.2 395.4 L 337.2 395.4 L 338.2 395.4 L 339.2 395.4 L 340.1 395.4 L 341.1 397.2 L 342.1 397.2 L 343.0 397.2 L 344.0 397.2 L 345.0 397.2 L 346.0 397.2 L 346.9 397.2 L 347.9 392.7 L 348.9 392.7 L 349.8 392.7 L 350.8 392.7 L 351.8 392.7 L 352.8 392.7 L 353.7 392.7 L 354.7 392.7 L 355.7 392.7 L 356.6 392.7 L 357.6 392.2 L 358.6 392.2 L 359.5 392.2 L 360.5 392.2 L 361.5 392.2 L 362.5 392.2 L 363.4 392.2 L 364.4 383.6 L 365.4 383.6 L 366.3 383.6 L 367.3 383.6 L 368.3 383.6 L 369.3 383.6 L 370.2 383.6 L 371.2 383.6 L 372.2 383.6 L 373.1 383.6 L 374.1 383.6 L 375.1 383.6 L 376.1 383.2 L 377.0 383.2 L 378.0 383.2 L 379.0 383.2 L 379.9 383.2 L 380.9 383.2 L 381.9 383.2 L 382.8 383.2 L 383.8 383.2 L 384.8 383.2 L 385.8 383.2 L 386.7 383.2 L 387.7 383.2 L 388.7 383.2 L 389.6 383.2 L 390.6 383.0 L 391.6 383.0 L 392.6 383.0 L 393.5 383.0 L 394.5 378.5 L 395.5 380.4 L 396.4 380.8 L 397.4 380.8 L 398.4 382.6 L 399.4 382.6 L 400.3 382.6 L 401.3 382.6 L 402.3 382.6 L 403.2 382.6 L 404.2 380.4 L 405.2 380.4 L 406.1 380.4 L 407.1 380.4 L 408.1 382.7 L 409.1 381.6 L 410.0 381.6 L 411.0 381.6 L 412.0 381.6 L 412.9 381.6 L 413.9 381.6 L 414.9 379.3 L 415.9 379.3 L 416.8 381.6 L 417.8 381.5 L 418.8 381.5 L 419.7 381.5 L 420.7 381.5 L 421.7 381.5 L 422.7 381.5 L 423.6 381.5 L 424.6 381.5 L 425.6 381.5 L 426.5 381.5 L 427.5 381.5 L 428.5 379.3 L 429.4 359.5 L 430.4 359.5 L 431.4 359.5 L 432.4 359.5 L 433.3 359.5 L 434.3 359.5 L 435.3 359.5 L 436.2 359.5 L 437.2 359.5 L 438.2 359.5 L 439.2 357.2 L 440.1 357.2 L 441.1 357.2 L 442.1 359.6 L 443.0 359.6 L 444.0 359.2 L 445.0 359.2 L 446.0 359.2 L 446.9 359.2 L 447.9 359.2 L 448.9 356.5 L 449.8 356.5 L 450.8 358.3 L 451.8 358.3 L 452.7 358.3 L 453.7 358.3 L 454.7 358.3 L 455.7 358.3 L 456.6 358.3 L 457.6 358.3 L 458.6 358.3 L 459.5 358.3 L 460.5 358.3 L 461.5 358.3 L 462.5 358.3 L 463.4 362.4 L 464.4 362.4 L 465.4 362.4 L 466.3 360.1 L 467.3 360.1 L 468.3 360.1 L 469.3 360.1 L 470.2 360.1 L 471.2 358.2 L 472.2 347.0 L 473.1 347.0 L 474.1 347.0 L 475.1 347.0 L 476.1 347.0 L 477.0 346.5 L 478.0 346.5 L 479.0 346.5 L 479.9 340.0 L 480.9 340.0 L 481.9 340.0 L 482.8 340.0 L 483.8 340.0 L 484.8 340.0 L 485.8 339.6 L 486.7 339.6 L 487.7 339.6 L 488.7 339.6 L 489.6 339.6 L 490.6 339.6 L 491.6 339.6 L 492.6 339.6 L 493.5 339.6 L 494.5 339.6 L 495.5 339.6 L 496.4 339.6 L 497.4 339.6 L 498.4 339.6 L 499.4 340.0 L 500.3 340.3 L 501.3 340.3 L 502.3 340.3 L 503.2 340.3 L 504.2 340.3 L 505.2 340.3 L 506.1 339.6 L 507.1 339.6 L 508.1 339.9 L 509.1 339.9 L 510.0 339.8 L 511.0 339.8 L 512.0 339.8 L 512.9 335.3 L 513.9 335.3 L 514.9 335.3 L 515.9 335.3 L 516.8 335.3 L 517.8 335.3 L 518.8 335.3 L 519.7 335.3 L 520.7 334.4 L 521.7 334.4 L 522.7 334.4 L 523.6 334.4 L 524.6 334.4 L 525.6 334.4 L 526.5 334.4 L 527.5 334.4 L 528.5 334.4 L 529.4 334.4 L 530.4 334.4 L 531.4 334.4 L 532.4 334.4 L 533.3 334.4 L 534.3 334.1 L 535.3 334.1 L 536.2 334.1 L 537.2 334.1 L 538.2 333.6 L 539.2 333.6 L 540.1 333.6 L 541.1 333.7 L 542.1 333.7 L 543.0 333.7 L 544.0 333.9 L 545.0 333.9 L 546.0 333.9 L 546.9 333.9 L 547.9 333.9 L 548.9 333.9 L 549.8 333.9 L 550.8 333.9 L 551.8 333.9 L 552.7 333.9 L 553.7 333.9 L 554.7 333.9 L 555.7 333.9 L 556.6 333.9 L 557.6 333.9 L 558.6 333.9 L 559.5 333.3 L 560.5 333.3 L 561.5 333.3 L 562.5 333.3 L 563.4 333.3 L 564.4 333.4 L 565.4 333.4 L 566.3 338.3 L 567.3 338.3 L 568.3 338.0 L 569.3 338.0 L 570.2 338.0 L 571.2 349.1 L 572.2 348.6 L 573.1 348.6 L 574.1 348.6 L 575.1 348.6 L 576.0 348.6 L 577.0 348.6 L 578.0 348.8 L 579.0 348.8 L 579.9 348.9 L 580.9 348.9 L 581.9 348.9 L 582.8 348.9 L 583.8 348.9 L 584.8 348.9 L 585.8 348.9 L 586.7 348.9 L 587.7 348.9 L 588.7 348.7 L 589.6 348.7 L 590.6 348.7 L 591.6 348.5 L 592.6 348.5 L 593.5 348.5 L 594.5 348.5 L 595.5 348.5 L 596.4 348.5 L 597.4 348.5 L 598.4 347.8 L 599.3 347.8 L 600.3 347.7 L 601.3 347.8 L 602.3 347.4 L 603.2 347.4 L 604.2 347.6 L 605.2 348.5 L 606.1 346.3 L 607.1 347.7 L 608.1 347.7 L 609.1 347.7 L 610.0 347.7 L 611.0 347.7 L 612.0 347.7 L 612.9 352.2 L 613.9 352.3 L 614.9 352.1 L 615.9 352.3 L 616.8 352.3 L 617.8 352.3 L 618.8 352.3 L 619.7 352.3 L 620.7 352.3 L 621.7 352.3 L 622.6 351.9 L 623.6 351.9 L 624.6 351.9 L 625.6 351.4 L 626.5 351.4 L 627.5 349.0 L 628.5 351.9 L 629.4 352.0 L 630.4 352.0 L 631.4 352.3 L 632.4 352.2 L 633.3 352.8 L 634.3 352.8 L 635.3 352.8 L 636.2 352.8 L 637.2 352.8 L 638.2 352.8 L 639.2 352.4 L 640.1 338.8 L 641.1 338.8 L 642.1 352.1 L 643.0 352.1 L 644.0 352.1 L 645.0 352.1 L 645.9 352.2 L 646.9 352.2 L 647.9 338.9 L 648.9 338.9 L 649.8 338.5 L 650.8 338.5 L 651.8 338.5 L 652.7 338.5 L 653.7 338.1 L 654.7 304.4 L 655.7 338.0 L 656.6 338.1 L 657.6 338.1 L 658.6 338.1 L 659.5 338.1 L 660.5 338.3 L 661.5 338.3 L 662.5 338.3 L 663.4 338.3 L 664.4 338.3 L 665.4 338.3 L 666.3 338.4 L 667.3 337.8 L 668.3 337.8 L 669.3 337.2 L 670.2 337.2 L 671.2 337.2 L 672.2 337.2 L 673.1 334.9 L 674.1 336.5 L 675.1 335.4 L 676.0 332.0 L 677.0 332.6 L 678.0 332.6 L 679.0 332.6 L 679.9 332.6 L 680.9 336.2 L 681.9 323.5 L 682.8 327.6 L 683.8 333.6 L 684.8 333.6 L 685.8 333.6 L 686.7 328.1 L 687.7 342.1 L 688.7 340.1 L 689.6 353.5 L 690.6 350.9 L 691.6 350.9 L 692.6 350.9 L 693.5 347.7 L 694.5 340.5 L 695.5 339.1 L 696.4 323.1 L 697.4 328.6 L 698.4 328.6 L 699.3 328.6 L 700.3 328.6 L 701.3 344.6 L 702.3 333.5 L 703.2 336.2 L 704.2 351.5 L 705.2 332.9 L 706.1 332.9 L 707.1 332.9 L 708.1 333.9 L 709.1 319.6 L 710.0 313.3 L 711.0 297.5 L 712.0 296.8 L 712.9 296.8 L 713.9 318.9 L 714.9 295.9 L 715.9 309.8 L 716.8 301.8 L 717.8 326.3 L 718.8 326.3 L 719.7 326.3 L 720.7 290.7 L 721.7 298.9 L 722.6 283.9 L 723.6 296.6 L 724.6 301.1 L 725.6 301.1 L 726.5 301.1 L 727.5 304.0 L 728.5 289.9 L 729.4 263.5 L 730.4 240.3 L 731.4 206.0 L 732.4 206.5 L 733.3 206.5 L 734.3 200.9 L 735.3 249.1 L 736.2 219.1 L 737.2 310.4 L 738.2 295.4 L 739.2 295.4 L 740.1 295.4 L 741.1 249.5 L 742.1 315.4 L 743.0 263.7 L 744.0 263.7 L 745.0 292.7 L 745.9 292.7 L 746.9 292.7 L 747.9 321.2 L 748.9 225.6 L 749.8 239.1 L 750.8 211.8 L 751.8 327.8 L 752.7 327.9 L 753.7 327.9 L 754.7 327.9 L 755.7 232.8 L 756.6 206.4 L 757.6 270.6 L 758.6 338.9 L 759.5 338.9 L 760.5 338.9 L 761.5 331.9 L 762.5 317.0 L 763.4 301.0 L 764.4 305.7 L 765.4 317.1 L 766.3 317.1 L 767.3 317.1 L 768.3 321.7 L 769.2 284.0 L 770.2 270.9 L 771.2 265.1 L 772.2 314.4 L 773.1 314.4 L 774.1 314.4 L 775.1 273.9 L 776.0 273.5 L 777.0 272.9 L 778.0 291.7 L 779.0 258.9 L 779.9 258.9 L 780.9 258.9 L 781.9 300.0 L 782.8 223.5 L 783.8 310.6 L 784.8 314.8 L 785.8 279.1 L 786.7 279.1 L 787.7 279.1 L 788.7 326.4 L 789.6 325.8 L 790.6 352.9 L 791.6 306.0 L 792.5 313.4 L 793.5 313.4 L 794.5 313.4 L 795.5 287.3 L 796.4 276.1 L 797.4 269.4 L 798.4 244.5 L 799.3 234.9 L 800.3 234.9 L 801.3 234.9 L 802.3 311.3 L 803.2 263.2 L 804.2 261.9 L 805.2 229.1 L 806.1 225.7 L 807.1 226.1 L 808.1 226.1 L 809.1 226.1 L 810.0 273.3 L 811.0 252.8 L 812.0 183.5 L 812.9 263.9 L 813.9 263.9 L 814.9 264.0 L 815.8 223.3 L 816.8 207.6 L 817.8 203.0 L 818.8 193.0 L 819.7 168.2 L 820.7 168.2 L 821.7 168.2 L 822.6 223.0 L 823.6 243.0 L 824.6 150.6 L 825.6 253.2 L 826.5 264.0 L 827.5 264.0 L 828.5 264.0 L 829.4 264.0 L 830.4 239.5 L 831.4 254.6 L 832.4 186.6 L 833.3 186.8 L 834.3 186.8 L 835.3 186.8 L 836.2 252.7 L 837.2 269.8 L 838.2 254.9 L 839.1 201.1 L 840.1 231.0 L 841.1 231.1 L 842.1 231.1 L 843.0 231.1 L 844.0 245.8 L 845.0 200.5 L 845.9 270.4 L 846.9 293.3 L 847.9 293.3 L 848.9 294.6 L 849.8 237.2 L 850.8 219.8 L 851.8 206.5 L 852.7 177.3 L 853.7 216.1 L 854.7 216.3 L 855.7 216.3 L 856.6 270.4 L 857.6 255.2 L 858.6 276.8 L 859.5 264.8 L 860.5 246.4 L 861.5 246.4 L 862.5 246.4 L 863.4 246.4 L 864.4 255.3 L 865.4 272.4 L 866.3 280.0 L 867.3 257.4 L 868.3 257.4 L 869.2 257.4 L 870.2 297.8 L 871.2 290.4 L 872.2 288.7 L 873.1 279.8 L 874.1 281.9 L 875.1 281.9 L 876.0 282.0 L 877.0 289.1 L 878.0 296.0 L 879.0 261.6 L 879.9 261.6 L 880.9 268.3 L 881.9 268.3 L 882.8 268.3 L 883.8 274.3 L 884.8 258.2 L 885.8 264.4 L 886.7 264.4 L 887.7 259.1 L 888.7 259.1 L 889.6 259.1 L 890.6 261.6 L 891.6 262.9 L 892.5 235.7 L 893.5 251.9 L 894.5 244.7 L 895.5 245.7 L 896.4 245.7 L 897.4 245.7 L 898.4 276.2 L 899.3 275.6 L 900.3 271.9 L 901.3 271.8 L 902.3 271.8 L 903.2 271.9 L 904.2 286.3 L 905.2 287.0 L 906.1 301.9 L 907.1 281.1 L 908.1 293.7 L 909.1 285.5 L 910.0 285.5 L 911.0 311.4 L 912.0 239.2 L 912.9 268.0 L 913.9 258.2 L 914.9 254.4 L 915.8 254.4 L 916.8 254.4 L 917.8 276.3 L 918.8 256.4 L 919.7 271.2 L 920.7 264.5 L 921.7 267.7 L 922.6 267.7 L 923.6 267.7 L 924.6 270.1 L 925.6 279.2 L 926.5 282.2 L 927.5 281.6 L 928.5 281.1 L 929.4 281.1 L 930.4 281.1 L 931.4 283.8 L 932.4 294.6 L 933.3 289.4 L 934.3 260.3 L 935.3 265.0 L 936.2 265.0 L 937.2 265.0 L 938.2 266.2 L 939.1 269.3 L 940.1 265.3 L 941.1 269.0 L 942.1 315.5 L 943.0 315.5 L 944.0 315.5 L 945.0 255.7 L 945.9 243.9 L 946.9 238.4 L 947.9 256.4 L 948.9 273.5 L 949.8 273.8 L 950.8 273.8 L 951.8 244.8 L 952.7 253.6 L 953.7 230.1 L 954.7 237.0 L 955.7 227.8 L 956.6 227.8 L 957.6 227.8 L 958.6 237.4 L 959.5 232.9 L 960.5 219.8 L 961.5 224.0 L 962.4 236.7 L 963.4 236.7 L 964.4 236.7 L 965.4 236.7 L 966.3 236.6 L 967.3 246.8 L 968.3 249.8 L 969.2 243.7 L 970.2 243.7 L 971.2 243.7 L 972.2 221.3 L 973.1 248.8 L 974.1 235.4 L 975.1 235.4 L 976.0 235.4 L 977.0 235.4 L 978.0 235.4 L 979.0 230.3 L 979.9 243.0 L 980.9 234.2 L 981.9 219.8 L 982.8 228.5 L 983.8 229.4 L 984.8 229.4 L 985.7 248.2 L 986.7 241.5 L 987.7 180.8 L 988.7 208.0 L 989.6 224.9 L 990.6 224.9 L 991.6 228.3 L 992.5 192.2 L 993.5 196.5 L 994.5 197.8 L 995.5 221.8 L 996.4 229.4 L 997.4 231.2 L 998.4 232.2 L 999.3 185.5 L 1000.3 162.3 L 1001.3 166.0 L 1002.3 168.0 L 1003.2 173.5 L 1004.2 192.1 L 1005.2 192.3 L 1006.1 200.9 L 1007.1 162.0 L 1008.1 207.1 L 1009.0 138.4 L 1010.0 204.2 L 1011.0 204.9 L 1012.0 204.9 L 1012.9 180.0 L 1013.9 183.6 L 1014.9 162.4 L 1015.8 182.1 L 1016.8 216.7 L 1017.8 222.3 L 1018.8 223.6 L 1019.7 224.0 L 1020.7 208.5 L 1021.7 196.9 L 1022.6 221.4 L 1023.6 216.6 L 1024.6 219.8 L 1025.6 220.3 L 1026.5 239.5 L 1027.5 237.0 L 1028.5 241.9 L 1029.4 247.1 L 1030.4 245.8 L 1031.4 249.7 L 1032.3 251.2 L 1033.3 251.3 L 1034.3 243.4 L 1035.3 227.9 L 1036.2 244.7 L 1037.2 228.5 L 1038.2 240.3 L 1039.1 241.9 L 1040.1 243.0 L 1041.1 245.4 L 1042.1 246.7 L 1043.0 251.9 L 1044.0 252.0" stroke="#2a66c2" stroke-width="1.6" fill="none" stroke-linejoin="round"/><circle cx="1009.0" cy="138.4" r="4.5" fill="#f54e00" stroke="#ffffff" stroke-width="2"/><rect x="885.6" y="100.43241796899065" width="158.4" height="22" rx="6" fill="#eeefe9" stroke="#f54e00" stroke-width="1"/><text x="964.8000000000001" y="115.43241796899065" class="annot" fill="#f54e00" text-anchor="middle">2026-05-07 · 12.7B</text><line x1="78" y1="424" x2="1044" y2="424" stroke="#52524c" stroke-width="1.4"/>
  <text x="28" y="484" class="footer">COPM 0x1205…6C23 · Polygon · Transfer events up to 2026-06-12 · source: on-chain RPC scan</text>
</svg>