<svg xmlns="http://www.w3.org/2000/svg" width="1080" height="500" viewBox="0 0 1080 500" role="img" aria-label="COPM — Monthly Gross Volume (USD)">
  <style>
    .title { font: 600 22px -apple-system, 'Segoe UI', system-ui, sans-serif; fill: #151515; }
    .subtitle { font: 400 14px -apple-system, 'Segoe UI', system-ui, sans-serif; fill: #6e6e66; }
    .axis { font: 400 13px -apple-system, 'Segoe UI', system-ui, sans-serif; fill: #52524c; }
    .label { font: 500 14px -apple-system, 'Segoe UI', system-ui, sans-serif; fill: #151515; }
    .annot { font: 600 13px -apple-system, 'Segoe UI', system-ui, sans-serif; }
    .badge { font: 600 13px -apple-system, 'Segoe UI', system-ui, sans-serif; }
    .footer { font: 400 12px ui-monospace, 'SF Mono', Menlo, monospace; fill: #6e6e66; }
  </style>
  <defs></defs>
  <rect width="1080" height="500" fill="#eeefe9"/>
  <rect x="8" y="8" width="1064" height="484" rx="10" fill="#ffffff" stroke="#d4d5cc" stroke-width="1"/>
  <text x="28" y="40" class="title">COPM — Monthly Gross Volume (USD)</text>
  <rect x="968.5" y="24" width="83.5" height="22" rx="11" fill="#6549c422" stroke="#6549c4" stroke-width="1"/>
  <text x="1010.25" y="39" class="badge" fill="#6549c4" text-anchor="middle">Polygon</text>
  <text x="28" y="59" class="subtitle">34 months · peak month: $318.4M</text>
  <line x1="78" y1="404" x2="1044" y2="404" stroke="#d4d5cc" stroke-width="1"/><text x="68" y="408" class="axis" text-anchor="end">$0</text><line x1="78" y1="324.5" x2="1044" y2="324.5" stroke="#d4d5cc" stroke-width="1"/><text x="68" y="328.5" class="axis" text-anchor="end">$100.0M</text><line x1="78" y1="245" x2="1044" y2="245" stroke="#d4d5cc" stroke-width="1"/><text x="68" y="249" class="axis" text-anchor="end">$200.0M</text><line x1="78" y1="165.5" x2="1044" y2="165.5" stroke="#d4d5cc" stroke-width="1"/><text x="68" y="169.5" class="axis" text-anchor="end">$300.0M</text><line x1="78" y1="86" x2="1044" y2="86" stroke="#d4d5cc" stroke-width="1"/><text x="68" y="90" class="axis" text-anchor="end">$400.0M</text><rect x="82.0" y="404.0" width="20.5" height="0.0" fill="#6549c4" fill-opacity="0.9" rx="2.5"/><text x="92.20588235294119" y="424" class="axis" text-anchor="middle" transform="rotate(-45 92.20588235294119 424)">Sep 23</text><rect x="110.4" y="404.0" width="20.5" height="0.0" fill="#6549c4" fill-opacity="0.9" rx="2.5"/><rect x="138.8" y="403.6" width="20.5" height="0.4" fill="#6549c4" fill-opacity="0.9" rx="2.5"/><text x="149.02941176470586" y="424" class="axis" text-anchor="middle" transform="rotate(-45 149.02941176470586 424)">Nov 23</text><rect x="167.2" y="404.0" width="20.5" height="0.0" fill="#6549c4" fill-opacity="0.9" rx="2.5"/><rect x="195.6" y="404.0" width="20.5" height="0.0" fill="#6549c4" fill-opacity="0.9" rx="2.5"/><text x="205.85294117647055" y="424" class="axis" text-anchor="middle" transform="rotate(-45 205.85294117647055 424)">Jan 24</text><rect x="224.0" y="404.0" width="20.5" height="0.0" fill="#6549c4" fill-opacity="0.9" rx="2.5"/><rect x="252.4" y="403.8" width="20.5" height="0.2" fill="#6549c4" fill-opacity="0.9" rx="2.5"/><text x="262.6764705882353" y="424" class="axis" text-anchor="middle" transform="rotate(-45 262.6764705882353 424)">Mar 24</text><rect x="280.9" y="403.9" width="20.5" height="0.1" fill="#6549c4" fill-opacity="0.9" rx="2.5"/><rect x="309.3" y="403.5" width="20.5" height="0.5" fill="#6549c4" fill-opacity="0.9" rx="2.5"/><text x="319.5" y="424" class="axis" text-anchor="middle" transform="rotate(-45 319.5 424)">May 24</text><rect x="337.7" y="403.8" width="20.5" height="0.2" fill="#6549c4" fill-opacity="0.9" rx="2.5"/><rect x="366.1" y="403.8" width="20.5" height="0.2" fill="#6549c4" fill-opacity="0.9" rx="2.5"/><text x="376.32352941176475" y="424" class="axis" text-anchor="middle" transform="rotate(-45 376.32352941176475 424)">Jul 24</text><rect x="394.5" y="402.7" width="20.5" height="1.3" fill="#6549c4" fill-opacity="0.9" rx="2.5"/><rect x="422.9" y="402.5" width="20.5" height="1.5" fill="#6549c4" fill-opacity="0.9" rx="2.5"/><text x="433.14705882352945" y="424" class="axis" text-anchor="middle" transform="rotate(-45 433.14705882352945 424)">Sep 24</text><rect x="451.3" y="403.4" width="20.5" height="0.6" fill="#6549c4" fill-opacity="0.9" rx="2.5"/><rect x="479.7" y="403.8" width="20.5" height="0.2" fill="#6549c4" fill-opacity="0.9" rx="2.5"/><text x="489.97058823529414" y="424" class="axis" text-anchor="middle" transform="rotate(-45 489.97058823529414 424)">Nov 24</text><rect x="508.2" y="403.8" width="20.5" height="0.2" fill="#6549c4" fill-opacity="0.9" rx="2.5"/><rect x="536.6" y="403.2" width="20.5" height="0.8" fill="#6549c4" fill-opacity="0.9" rx="2.5"/><text x="546.7941176470588" y="424" class="axis" text-anchor="middle" transform="rotate(-45 546.7941176470588 424)">Jan 25</text><rect x="565.0" y="403.6" width="20.5" height="0.4" fill="#6549c4" fill-opacity="0.9" rx="2.5"/><rect x="593.4" y="403.6" width="20.5" height="0.4" fill="#6549c4" fill-opacity="0.9" rx="2.5"/><text x="603.6176470588235" y="424" class="axis" text-anchor="middle" transform="rotate(-45 603.6176470588235 424)">Mar 25</text><rect x="621.8" y="400.7" width="20.5" height="3.3" fill="#6549c4" fill-opacity="0.9" rx="2.5"/><rect x="650.2" y="398.2" width="20.5" height="5.8" fill="#6549c4" fill-opacity="0.9" rx="2.5"/><text x="660.4411764705883" y="424" class="axis" text-anchor="middle" transform="rotate(-45 660.4411764705883 424)">May 25</text><rect x="678.6" y="374.2" width="20.5" height="29.8" fill="#6549c4" fill-opacity="0.9" rx="2.5"/><rect x="707.0" y="240.8" width="20.5" height="163.2" fill="#6549c4" fill-opacity="0.9" rx="2.5"/><text x="717.2647058823529" y="424" class="axis" text-anchor="middle" transform="rotate(-45 717.2647058823529 424)">Jul 25</text><rect x="735.4" y="171.4" width="20.5" height="232.6" fill="#6549c4" fill-opacity="0.9" rx="2.5"/><rect x="763.9" y="184.0" width="20.5" height="220.0" fill="#6549c4" fill-opacity="0.9" rx="2.5"/><text x="774.0882352941177" y="424" class="axis" text-anchor="middle" transform="rotate(-45 774.0882352941177 424)">Sep 25</text><rect x="792.3" y="183.4" width="20.5" height="220.6" fill="#6549c4" fill-opacity="0.9" rx="2.5"/><rect x="820.7" y="150.9" width="20.5" height="253.1" fill="#f54e00" fill-opacity="0.9" rx="2.5"/><text x="830.9" y="142.9" class="annot" fill="#f54e00" text-anchor="middle">$318.4M</text><text x="830.9117647058823" y="424" class="axis" text-anchor="middle" transform="rotate(-45 830.9117647058823 424)">Nov 25</text><rect x="849.1" y="333.8" width="20.5" height="70.2" fill="#6549c4" fill-opacity="0.9" rx="2.5"/><rect x="877.5" y="338.7" width="20.5" height="65.3" fill="#6549c4" fill-opacity="0.9" rx="2.5"/><text x="887.7352941176471" y="424" class="axis" text-anchor="middle" transform="rotate(-45 887.7352941176471 424)">Jan 26</text><rect x="905.9" y="350.2" width="20.5" height="53.8" fill="#6549c4" fill-opacity="0.9" rx="2.5"/><rect x="934.3" y="355.0" width="20.5" height="49.0" fill="#6549c4" fill-opacity="0.9" rx="2.5"/><text x="944.5588235294117" y="424" class="axis" text-anchor="middle" transform="rotate(-45 944.5588235294117 424)">Mar 26</text><rect x="962.7" y="327.0" width="20.5" height="77.0" fill="#6549c4" fill-opacity="0.9" rx="2.5"/><rect x="991.2" y="253.0" width="20.5" height="151.0" fill="#6549c4" fill-opacity="0.9" rx="2.5"/><text x="1001.3823529411765" y="424" class="axis" text-anchor="middle" transform="rotate(-45 1001.3823529411765 424)">May 26</text><rect x="1019.6" y="388.7" width="20.5" height="15.3" fill="#6549c4" fill-opacity="0.9" rx="2.5"/><line x1="78" y1="404" x2="1044" y2="404" stroke="#52524c" stroke-width="1.4"/>
  <text x="28" y="484" class="footer">COPM 0x1205…6C23 · Polygon · Transfer events up to 2026-06-12 · source: on-chain RPC scan</text>
</svg>