<svg xmlns="http://www.w3.org/2000/svg" width="1080" height="500" viewBox="0 0 1080 500" role="img" aria-label="COPM — Monthly Transfers by Chain">
  <style>
    .title { font: 600 22px -apple-system, 'Segoe UI', system-ui, sans-serif; fill: #e6edf3; }
    .subtitle { font: 400 14px -apple-system, 'Segoe UI', system-ui, sans-serif; fill: #7d8590; }
    .axis { font: 400 13px -apple-system, 'Segoe UI', system-ui, sans-serif; fill: #8b949e; }
    .label { font: 500 14px -apple-system, 'Segoe UI', system-ui, sans-serif; fill: #e6edf3; }
    .annot { font: 600 13px -apple-system, 'Segoe UI', system-ui, sans-serif; }
    .badge { font: 600 13px -apple-system, 'Segoe UI', system-ui, sans-serif; }
    .footer { font: 400 12px ui-monospace, 'SF Mono', Menlo, monospace; fill: #7d8590; }
  </style>
  <defs></defs>
  <rect width="1080" height="500" fill="#0b0e14"/>
  <rect x="8" y="8" width="1064" height="484" rx="10" fill="#11151d" stroke="#222938" stroke-width="1"/>
  <text x="28" y="40" class="title">COPM — Monthly Transfers by Chain</text>
  <rect x="909" y="24" width="143" height="22" rx="11" fill="#58a6ff22" stroke="#58a6ff" stroke-width="1"/>
  <text x="980.5" y="39" class="badge" fill="#58a6ff" text-anchor="middle">Polygon + Celo</text>
  <text x="28" y="59" class="subtitle">Transfer events per calendar month on each chain</text>
  <line x1="78" y1="404" x2="1044" y2="404" stroke="#222938" stroke-width="1"/><text x="68" y="408" class="axis" text-anchor="end">0</text><line x1="78" y1="329" x2="1044" y2="329" stroke="#222938" stroke-width="1"/><text x="68" y="333" class="axis" text-anchor="end">10,000</text><line x1="78" y1="254" x2="1044" y2="254" stroke="#222938" stroke-width="1"/><text x="68" y="258" class="axis" text-anchor="end">20,000</text><line x1="78" y1="179" x2="1044" y2="179" stroke="#222938" stroke-width="1"/><text x="68" y="183" class="axis" text-anchor="end">30,000</text><line x1="78" y1="104" x2="1044" y2="104" stroke="#222938" stroke-width="1"/><text x="68" y="108" class="axis" text-anchor="end">40,000</text><rect x="28" y="72" width="12" height="12" rx="3" fill="#9a6bff"/><text x="46" y="82" class="label">Polygon</text><rect x="130" y="72" width="12" height="12" rx="3" fill="#35d07f"/><text x="148" y="82" class="label">Celo</text><rect x="82.0" y="403.6" width="9.2" height="0.4" fill="#9a6bff" fill-opacity="0.9" rx="2"/><rect x="92.2" y="404.0" width="9.2" height="0.0" fill="#35d07f" fill-opacity="0.9" rx="2"/><text x="92.20588235294117" y="424" class="axis" text-anchor="middle" transform="rotate(-45 92.20588235294117 424)">Sep 23</text><rect x="110.4" y="403.9" width="9.2" height="0.1" fill="#9a6bff" fill-opacity="0.9" rx="2"/><rect x="120.6" y="404.0" width="9.2" height="0.0" fill="#35d07f" fill-opacity="0.9" rx="2"/><rect x="138.8" y="403.9" width="9.2" height="0.1" fill="#9a6bff" fill-opacity="0.9" rx="2"/><rect x="149.0" y="404.0" width="9.2" height="0.0" fill="#35d07f" fill-opacity="0.9" rx="2"/><text x="149.02941176470588" y="424" class="axis" text-anchor="middle" transform="rotate(-45 149.02941176470588 424)">Nov 23</text><rect x="167.2" y="404.0" width="9.2" height="0.0" fill="#9a6bff" fill-opacity="0.9" rx="2"/><rect x="177.4" y="404.0" width="9.2" height="0.0" fill="#35d07f" fill-opacity="0.9" rx="2"/><rect x="195.6" y="403.7" width="9.2" height="0.3" fill="#9a6bff" fill-opacity="0.9" rx="2"/><rect x="205.9" y="404.0" width="9.2" height="0.0" fill="#35d07f" fill-opacity="0.9" rx="2"/><text x="205.85294117647058" y="424" class="axis" text-anchor="middle" transform="rotate(-45 205.85294117647058 424)">Jan 24</text><rect x="224.0" y="403.9" width="9.2" height="0.1" fill="#9a6bff" fill-opacity="0.9" rx="2"/><rect x="234.3" y="404.0" width="9.2" height="0.0" fill="#35d07f" fill-opacity="0.9" rx="2"/><rect x="252.4" y="403.8" width="9.2" height="0.2" fill="#9a6bff" fill-opacity="0.9" rx="2"/><rect x="262.7" y="404.0" width="9.2" height="0.0" fill="#35d07f" fill-opacity="0.9" rx="2"/><text x="262.6764705882353" y="424" class="axis" text-anchor="middle" transform="rotate(-45 262.6764705882353 424)">Mar 24</text><rect x="280.9" y="403.7" width="9.2" height="0.3" fill="#9a6bff" fill-opacity="0.9" rx="2"/><rect x="291.1" y="404.0" width="9.2" height="0.0" fill="#35d07f" fill-opacity="0.9" rx="2"/><rect x="309.3" y="402.9" width="9.2" height="1.1" fill="#9a6bff" fill-opacity="0.9" rx="2"/><rect x="319.5" y="404.0" width="9.2" height="0.0" fill="#35d07f" fill-opacity="0.9" rx="2"/><text x="319.49999999999994" y="424" class="axis" text-anchor="middle" transform="rotate(-45 319.49999999999994 424)">May 24</text><rect x="337.7" y="402.2" width="9.2" height="1.8" fill="#9a6bff" fill-opacity="0.9" rx="2"/><rect x="347.9" y="404.0" width="9.2" height="0.0" fill="#35d07f" fill-opacity="0.9" rx="2"/><rect x="366.1" y="401.1" width="9.2" height="2.9" fill="#9a6bff" fill-opacity="0.9" rx="2"/><rect x="376.3" y="404.0" width="9.2" height="0.0" fill="#35d07f" fill-opacity="0.9" rx="2"/><text x="376.3235294117647" y="424" class="axis" text-anchor="middle" transform="rotate(-45 376.3235294117647 424)">Jul 24</text><rect x="394.5" y="399.2" width="9.2" height="4.8" fill="#9a6bff" fill-opacity="0.9" rx="2"/><rect x="404.7" y="404.0" width="9.2" height="0.0" fill="#35d07f" fill-opacity="0.9" rx="2"/><rect x="422.9" y="400.6" width="9.2" height="3.4" fill="#9a6bff" fill-opacity="0.9" rx="2"/><rect x="433.1" y="404.0" width="9.2" height="0.0" fill="#35d07f" fill-opacity="0.9" rx="2"/><text x="433.1470588235294" y="424" class="axis" text-anchor="middle" transform="rotate(-45 433.1470588235294 424)">Sep 24</text><rect x="451.3" y="400.9" width="9.2" height="3.1" fill="#9a6bff" fill-opacity="0.9" rx="2"/><rect x="461.6" y="395.1" width="9.2" height="8.9" fill="#35d07f" fill-opacity="0.9" rx="2"/><rect x="479.7" y="402.0" width="9.2" height="2.0" fill="#9a6bff" fill-opacity="0.9" rx="2"/><rect x="490.0" y="277.8" width="9.2" height="126.2" fill="#35d07f" fill-opacity="0.9" rx="2"/><text x="489.9705882352941" y="424" class="axis" text-anchor="middle" transform="rotate(-45 489.9705882352941 424)">Nov 24</text><rect x="508.2" y="399.9" width="9.2" height="4.1" fill="#9a6bff" fill-opacity="0.9" rx="2"/><rect x="518.4" y="327.1" width="9.2" height="76.9" fill="#35d07f" fill-opacity="0.9" rx="2"/><rect x="536.6" y="399.3" width="9.2" height="4.7" fill="#9a6bff" fill-opacity="0.9" rx="2"/><rect x="546.8" y="265.3" width="9.2" height="138.7" fill="#35d07f" fill-opacity="0.9" rx="2"/><text x="546.7941176470588" y="424" class="axis" text-anchor="middle" transform="rotate(-45 546.7941176470588 424)">Jan 25</text><rect x="565.0" y="384.6" width="9.2" height="19.4" fill="#9a6bff" fill-opacity="0.9" rx="2"/><rect x="575.2" y="314.4" width="9.2" height="89.6" fill="#35d07f" fill-opacity="0.9" rx="2"/><rect x="593.4" y="380.7" width="9.2" height="23.3" fill="#9a6bff" fill-opacity="0.9" rx="2"/><rect x="603.6" y="371.9" width="9.2" height="32.1" fill="#35d07f" fill-opacity="0.9" rx="2"/><text x="603.6176470588235" y="424" class="axis" text-anchor="middle" transform="rotate(-45 603.6176470588235 424)">Mar 25</text><rect x="621.8" y="381.1" width="9.2" height="22.9" fill="#9a6bff" fill-opacity="0.9" rx="2"/><rect x="632.0" y="401.1" width="9.2" height="2.9" fill="#35d07f" fill-opacity="0.9" rx="2"/><rect x="650.2" y="375.1" width="9.2" height="28.9" fill="#9a6bff" fill-opacity="0.9" rx="2"/><rect x="660.4" y="360.9" width="9.2" height="43.1" fill="#35d07f" fill-opacity="0.9" rx="2"/><text x="660.4411764705883" y="424" class="axis" text-anchor="middle" transform="rotate(-45 660.4411764705883 424)">May 25</text><rect x="678.6" y="366.5" width="9.2" height="37.5" fill="#9a6bff" fill-opacity="0.9" rx="2"/><rect x="688.9" y="389.3" width="9.2" height="14.7" fill="#35d07f" fill-opacity="0.9" rx="2"/><rect x="707.0" y="334.8" width="9.2" height="69.2" fill="#9a6bff" fill-opacity="0.9" rx="2"/><rect x="717.3" y="378.4" width="9.2" height="25.6" fill="#35d07f" fill-opacity="0.9" rx="2"/><text x="717.2647058823529" y="424" class="axis" text-anchor="middle" transform="rotate(-45 717.2647058823529 424)">Jul 25</text><rect x="735.4" y="252.0" width="9.2" height="152.0" fill="#9a6bff" fill-opacity="0.9" rx="2"/><rect x="745.7" y="378.9" width="9.2" height="25.1" fill="#35d07f" fill-opacity="0.9" rx="2"/><rect x="763.9" y="226.2" width="9.2" height="177.8" fill="#9a6bff" fill-opacity="0.9" rx="2"/><rect x="774.1" y="400.6" width="9.2" height="3.4" fill="#35d07f" fill-opacity="0.9" rx="2"/><text x="774.0882352941177" y="424" class="axis" text-anchor="middle" transform="rotate(-45 774.0882352941177 424)">Sep 25</text><rect x="792.3" y="180.5" width="9.2" height="223.5" fill="#9a6bff" fill-opacity="0.9" rx="2"/><rect x="802.5" y="402.1" width="9.2" height="1.9" fill="#35d07f" fill-opacity="0.9" rx="2"/><rect x="820.7" y="171.6" width="9.2" height="232.4" fill="#9a6bff" fill-opacity="0.9" rx="2"/><rect x="830.9" y="396.4" width="9.2" height="7.6" fill="#35d07f" fill-opacity="0.9" rx="2"/><text x="830.9117647058823" y="424" class="axis" text-anchor="middle" transform="rotate(-45 830.9117647058823 424)">Nov 25</text><rect x="849.1" y="290.4" width="9.2" height="113.5" fill="#9a6bff" fill-opacity="0.9" rx="2"/><rect x="859.3" y="374.0" width="9.2" height="30.0" fill="#35d07f" fill-opacity="0.9" rx="2"/><rect x="877.5" y="351.9" width="9.2" height="52.1" fill="#9a6bff" fill-opacity="0.9" rx="2"/><rect x="887.7" y="354.5" width="9.2" height="49.5" fill="#35d07f" fill-opacity="0.9" rx="2"/><text x="887.7352941176471" y="424" class="axis" text-anchor="middle" transform="rotate(-45 887.7352941176471 424)">Jan 26</text><rect x="905.9" y="367.4" width="9.2" height="36.6" fill="#9a6bff" fill-opacity="0.9" rx="2"/><rect x="916.1" y="352.3" width="9.2" height="51.7" fill="#35d07f" fill-opacity="0.9" rx="2"/><rect x="934.3" y="361.9" width="9.2" height="42.1" fill="#9a6bff" fill-opacity="0.9" rx="2"/><rect x="944.6" y="339.7" width="9.2" height="64.3" fill="#35d07f" fill-opacity="0.9" rx="2"/><text x="944.5588235294117" y="424" class="axis" text-anchor="middle" transform="rotate(-45 944.5588235294117 424)">Mar 26</text><rect x="962.7" y="364.2" width="9.2" height="39.8" fill="#9a6bff" fill-opacity="0.9" rx="2"/><rect x="973.0" y="363.4" width="9.2" height="40.7" fill="#35d07f" fill-opacity="0.9" rx="2"/><rect x="991.2" y="262.9" width="9.2" height="141.1" fill="#9a6bff" fill-opacity="0.9" rx="2"/><rect x="1001.4" y="354.7" width="9.2" height="49.3" fill="#35d07f" fill-opacity="0.9" rx="2"/><text x="1001.3823529411765" y="424" class="axis" text-anchor="middle" transform="rotate(-45 1001.3823529411765 424)">May 26</text><rect x="1019.6" y="369.7" width="9.2" height="34.3" fill="#9a6bff" fill-opacity="0.9" rx="2"/><rect x="1029.8" y="379.4" width="9.2" height="24.6" fill="#35d07f" fill-opacity="0.9" rx="2"/><line x1="78" y1="404" x2="1044" y2="404" stroke="#8b949e" stroke-width="1.4"/>
  <text x="28" y="484" class="footer">COPM on Polygon + Celo · Transfer events up to 2026-06-12 · source: on-chain RPC scan</text>
</svg>