<svg xmlns="http://www.w3.org/2000/svg" width="1080" height="500" viewBox="0 0 1080 500" role="img" aria-label="COPM — Cumulative Gross Volume by Chain (USD)">
  <style>
    .title { font: 600 22px -apple-system, 'Segoe UI', system-ui, sans-serif; fill: #e6edf3; }
    .subtitle { font: 400 14px -apple-system, 'Segoe UI', system-ui, sans-serif; fill: #7d8590; }
    .axis { font: 400 13px -apple-system, 'Segoe UI', system-ui, sans-serif; fill: #8b949e; }
    .label { font: 500 14px -apple-system, 'Segoe UI', system-ui, sans-serif; fill: #e6edf3; }
    .annot { font: 600 13px -apple-system, 'Segoe UI', system-ui, sans-serif; }
    .badge { font: 600 13px -apple-system, 'Segoe UI', system-ui, sans-serif; }
    .footer { font: 400 12px ui-monospace, 'SF Mono', Menlo, monospace; fill: #7d8590; }
  </style>
  <defs></defs>
  <rect width="1080" height="500" fill="#0b0e14"/>
  <rect x="8" y="8" width="1064" height="484" rx="10" fill="#11151d" stroke="#222938" stroke-width="1"/>
  <text x="28" y="40" class="title">COPM — Cumulative Gross Volume by Chain (USD)</text>
  <rect x="909" y="24" width="143" height="22" rx="11" fill="#58a6ff22" stroke="#58a6ff" stroke-width="1"/>
  <text x="980.5" y="39" class="badge" fill="#58a6ff" text-anchor="middle">Polygon + Celo</text>
  <text x="28" y="59" class="subtitle">Running total of on-chain volume since each deployment</text>
  <line x1="78" y1="424" x2="1044" y2="424" stroke="#222938" stroke-width="1"/><text x="68" y="428" class="axis" text-anchor="end">$0</text><line x1="78" y1="359.2" x2="1044" y2="359.2" stroke="#222938" stroke-width="1"/><text x="68" y="363.2" class="axis" text-anchor="end">$500.0M</text><line x1="78" y1="294.4" x2="1044" y2="294.4" stroke="#222938" stroke-width="1"/><text x="68" y="298.4" class="axis" text-anchor="end">$1.00B</text><line x1="78" y1="229.6" x2="1044" y2="229.6" stroke="#222938" stroke-width="1"/><text x="68" y="233.6" class="axis" text-anchor="end">$1.50B</text><line x1="78" y1="164.8" x2="1044" y2="164.8" stroke="#222938" stroke-width="1"/><text x="68" y="168.8" class="axis" text-anchor="end">$2.00B</text><line x1="78" y1="100" x2="1044" y2="100" stroke="#222938" stroke-width="1"/><text x="68" y="104" class="axis" text-anchor="end">$2.50B</text><line x1="58.582914572864325" y1="100" x2="58.582914572864325" y2="424" stroke="#222938" stroke-width="1" stroke-dasharray="2,5"/><text x="58.582914572864325" y="444" class="axis" text-anchor="middle">Sep 23</text><line x1="146.93065326633166" y1="100" x2="146.93065326633166" y2="424" stroke="#222938" stroke-width="1" stroke-dasharray="2,5"/><text x="146.93065326633166" y="444" class="axis" text-anchor="middle">Dec 23</text><line x1="235.278391959799" y1="100" x2="235.278391959799" y2="424" stroke="#222938" stroke-width="1" stroke-dasharray="2,5"/><text x="235.278391959799" y="444" class="axis" text-anchor="middle">Mar 24</text><line x1="324.5969849246231" y1="100" x2="324.5969849246231" y2="424" stroke="#222938" stroke-width="1" stroke-dasharray="2,5"/><text x="324.5969849246231" y="444" class="axis" text-anchor="middle">Jun 24</text><line x1="413.9155778894472" y1="100" x2="413.9155778894472" y2="424" stroke="#222938" stroke-width="1" stroke-dasharray="2,5"/><text x="413.9155778894472" y="444" class="axis" text-anchor="middle">Sep 24</text><line x1="502.26331658291457" y1="100" x2="502.26331658291457" y2="424" stroke="#222938" stroke-width="1" stroke-dasharray="2,5"/><text x="502.26331658291457" y="444" class="axis" text-anchor="middle">Dec 24</text><line x1="589.6402010050251" y1="100" x2="589.6402010050251" y2="424" stroke="#222938" stroke-width="1" stroke-dasharray="2,5"/><text x="589.6402010050251" y="444" class="axis" text-anchor="middle">Mar 25</text><line x1="678.9587939698492" y1="100" x2="678.9587939698492" y2="424" stroke="#222938" stroke-width="1" stroke-dasharray="2,5"/><text x="678.9587939698492" y="444" class="axis" text-anchor="middle">Jun 25</text><line x1="768.2773869346734" y1="100" x2="768.2773869346734" y2="424" stroke="#222938" stroke-width="1" stroke-dasharray="2,5"/><text x="768.2773869346734" y="444" class="axis" text-anchor="middle">Sep 25</text><line x1="856.6251256281407" y1="100" x2="856.6251256281407" y2="424" stroke="#222938" stroke-width="1" stroke-dasharray="2,5"/><text x="856.6251256281407" y="444" class="axis" text-anchor="middle">Dec 25</text><line x1="944.0020100502513" y1="100" x2="944.0020100502513" y2="424" stroke="#222938" stroke-width="1" stroke-dasharray="2,5"/><text x="944.0020100502513" y="444" class="axis" text-anchor="middle">Mar 26</text><line x1="1033.3206030150754" y1="100" x2="1033.3206030150754" y2="424" stroke="#222938" stroke-width="1" stroke-dasharray="2,5"/><text x="1033.3206030150754" y="444" class="axis" text-anchor="middle">Jun 26</text><rect x="28" y="70" width="14" height="4" rx="2" fill="#9a6bff"/><text x="48" y="76" class="label">Polygon</text><rect x="130" y="70" width="14" height="4" rx="2" fill="#35d07f"/><text x="150" y="76" class="label">Celo</text><path d="M 78.0 424.0 L 79.0 424.0 L 79.9 424.0 L 80.9 424.0 L 81.9 424.0 L 82.9 424.0 L 83.8 424.0 L 84.8 424.0 L 85.8 424.0 L 86.7 424.0 L 87.7 424.0 L 88.7 424.0 L 89.7 424.0 L 90.6 424.0 L 91.6 424.0 L 92.6 424.0 L 93.5 424.0 L 94.5 424.0 L 95.5 424.0 L 96.4 424.0 L 97.4 424.0 L 98.4 424.0 L 99.4 424.0 L 100.3 424.0 L 101.3 424.0 L 102.3 424.0 L 103.2 424.0 L 104.2 424.0 L 105.2 424.0 L 106.2 424.0 L 107.1 424.0 L 108.1 424.0 L 109.1 424.0 L 110.0 424.0 L 111.0 424.0 L 112.0 424.0 L 113.0 424.0 L 113.9 424.0 L 114.9 424.0 L 115.9 424.0 L 116.8 424.0 L 117.8 424.0 L 118.8 424.0 L 119.7 424.0 L 120.7 424.0 L 121.7 424.0 L 122.7 424.0 L 123.6 424.0 L 124.6 424.0 L 125.6 424.0 L 126.5 424.0 L 127.5 424.0 L 128.5 424.0 L 129.5 424.0 L 130.4 424.0 L 131.4 424.0 L 132.4 424.0 L 133.3 424.0 L 134.3 424.0 L 135.3 424.0 L 136.3 424.0 L 137.2 424.0 L 138.2 423.9 L 139.2 423.9 L 140.1 423.9 L 141.1 423.9 L 142.1 423.9 L 143.0 423.9 L 144.0 423.9 L 145.0 423.9 L 146.0 423.9 L 146.9 423.9 L 147.9 423.9 L 148.9 423.9 L 149.8 423.9 L 150.8 423.9 L 151.8 423.9 L 152.8 423.9 L 153.7 423.9 L 154.7 423.9 L 155.7 423.9 L 156.6 423.9 L 157.6 423.9 L 158.6 423.9 L 159.6 423.9 L 160.5 423.9 L 161.5 423.9 L 162.5 423.9 L 163.4 423.9 L 164.4 423.9 L 165.4 423.9 L 166.3 423.9 L 167.3 423.9 L 168.3 423.9 L 169.3 423.9 L 170.2 423.9 L 171.2 423.9 L 172.2 423.9 L 173.1 423.9 L 174.1 423.9 L 175.1 423.9 L 176.1 423.9 L 177.0 423.9 L 178.0 423.9 L 179.0 423.9 L 179.9 423.9 L 180.9 423.9 L 181.9 423.9 L 182.9 423.9 L 183.8 423.9 L 184.8 423.9 L 185.8 423.9 L 186.7 423.9 L 187.7 423.9 L 188.7 423.9 L 189.6 423.9 L 190.6 423.9 L 191.6 423.9 L 192.6 423.9 L 193.5 423.9 L 194.5 423.9 L 195.5 423.9 L 196.4 423.9 L 197.4 423.9 L 198.4 423.9 L 199.4 423.9 L 200.3 423.9 L 201.3 423.9 L 202.3 423.9 L 203.2 423.9 L 204.2 423.9 L 205.2 423.9 L 206.2 423.9 L 207.1 423.9 L 208.1 423.9 L 209.1 423.9 L 210.0 423.9 L 211.0 423.9 L 212.0 423.9 L 212.9 423.9 L 213.9 423.9 L 214.9 423.9 L 215.9 423.9 L 216.8 423.9 L 217.8 423.9 L 218.8 423.9 L 219.7 423.9 L 220.7 423.9 L 221.7 423.9 L 222.7 423.9 L 223.6 423.9 L 224.6 423.9 L 225.6 423.9 L 226.5 423.9 L 227.5 423.9 L 228.5 423.9 L 229.5 423.9 L 230.4 423.9 L 231.4 423.9 L 232.4 423.9 L 233.3 423.9 L 234.3 423.9 L 235.3 423.9 L 236.2 423.9 L 237.2 423.9 L 238.2 423.9 L 239.2 423.9 L 240.1 423.9 L 241.1 423.9 L 242.1 423.9 L 243.0 423.9 L 244.0 423.9 L 245.0 423.9 L 246.0 423.9 L 246.9 423.9 L 247.9 423.9 L 248.9 423.9 L 249.8 423.9 L 250.8 423.9 L 251.8 423.9 L 252.8 423.9 L 253.7 423.9 L 254.7 423.9 L 255.7 423.9 L 256.6 423.9 L 257.6 423.9 L 258.6 423.9 L 259.5 423.9 L 260.5 423.9 L 261.5 423.9 L 262.5 423.9 L 263.4 423.9 L 264.4 423.9 L 265.4 423.9 L 266.3 423.9 L 267.3 423.9 L 268.3 423.9 L 269.3 423.9 L 270.2 423.9 L 271.2 423.9 L 272.2 423.9 L 273.1 423.9 L 274.1 423.9 L 275.1 423.9 L 276.1 423.9 L 277.0 423.9 L 278.0 423.9 L 279.0 423.9 L 279.9 423.9 L 280.9 423.9 L 281.9 423.9 L 282.9 423.9 L 283.8 423.9 L 284.8 423.9 L 285.8 423.9 L 286.7 423.9 L 287.7 423.9 L 288.7 423.9 L 289.6 423.9 L 290.6 423.9 L 291.6 423.9 L 292.6 423.9 L 293.5 423.9 L 294.5 423.9 L 295.5 423.9 L 296.4 423.9 L 297.4 423.9 L 298.4 423.9 L 299.4 423.9 L 300.3 423.8 L 301.3 423.8 L 302.3 423.8 L 303.2 423.8 L 304.2 423.8 L 305.2 423.8 L 306.2 423.8 L 307.1 423.8 L 308.1 423.8 L 309.1 423.8 L 310.0 423.8 L 311.0 423.8 L 312.0 423.8 L 312.9 423.8 L 313.9 423.8 L 314.9 423.8 L 315.9 423.8 L 316.8 423.8 L 317.8 423.8 L 318.8 423.8 L 319.7 423.8 L 320.7 423.8 L 321.7 423.8 L 322.7 423.8 L 323.6 423.8 L 324.6 423.8 L 325.6 423.8 L 326.5 423.8 L 327.5 423.8 L 328.5 423.8 L 329.5 423.8 L 330.4 423.8 L 331.4 423.8 L 332.4 423.8 L 333.3 423.8 L 334.3 423.8 L 335.3 423.8 L 336.2 423.8 L 337.2 423.8 L 338.2 423.8 L 339.2 423.8 L 340.1 423.8 L 341.1 423.8 L 342.1 423.8 L 343.0 423.8 L 344.0 423.8 L 345.0 423.8 L 346.0 423.8 L 346.9 423.8 L 347.9 423.8 L 348.9 423.8 L 349.8 423.8 L 350.8 423.8 L 351.8 423.8 L 352.8 423.8 L 353.7 423.8 L 354.7 423.8 L 355.7 423.8 L 356.6 423.8 L 357.6 423.8 L 358.6 423.8 L 359.5 423.8 L 360.5 423.8 L 361.5 423.7 L 362.5 423.7 L 363.4 423.7 L 364.4 423.7 L 365.4 423.7 L 366.3 423.7 L 367.3 423.7 L 368.3 423.7 L 369.3 423.7 L 370.2 423.7 L 371.2 423.7 L 372.2 423.7 L 373.1 423.7 L 374.1 423.7 L 375.1 423.7 L 376.1 423.7 L 377.0 423.7 L 378.0 423.7 L 379.0 423.7 L 379.9 423.7 L 380.9 423.7 L 381.9 423.7 L 382.8 423.7 L 383.8 423.7 L 384.8 423.7 L 385.8 423.7 L 386.7 423.7 L 387.7 423.7 L 388.7 423.7 L 389.6 423.7 L 390.6 423.7 L 391.6 423.7 L 392.6 423.7 L 393.5 423.7 L 394.5 423.7 L 395.5 423.7 L 396.4 423.7 L 397.4 423.6 L 398.4 423.6 L 399.4 423.6 L 400.3 423.6 L 401.3 423.6 L 402.3 423.6 L 403.2 423.6 L 404.2 423.6 L 405.2 423.6 L 406.1 423.6 L 407.1 423.6 L 408.1 423.5 L 409.1 423.5 L 410.0 423.5 L 411.0 423.5 L 412.0 423.5 L 412.9 423.5 L 413.9 423.5 L 414.9 423.5 L 415.9 423.5 L 416.8 423.5 L 417.8 423.5 L 418.8 423.4 L 419.7 423.4 L 420.7 423.4 L 421.7 423.4 L 422.7 423.4 L 423.6 423.4 L 424.6 423.4 L 425.6 423.4 L 426.5 423.4 L 427.5 423.4 L 428.5 423.4 L 429.4 423.3 L 430.4 423.3 L 431.4 423.3 L 432.4 423.3 L 433.3 423.3 L 434.3 423.3 L 435.3 423.3 L 436.2 423.3 L 437.2 423.3 L 438.2 423.3 L 439.2 423.3 L 440.1 423.3 L 441.1 423.3 L 442.1 423.3 L 443.0 423.3 L 444.0 423.3 L 445.0 423.3 L 446.0 423.3 L 446.9 423.3 L 447.9 423.3 L 448.9 423.2 L 449.8 423.2 L 450.8 423.2 L 451.8 423.2 L 452.7 423.2 L 453.7 423.2 L 454.7 423.2 L 455.7 423.2 L 456.6 423.2 L 457.6 423.2 L 458.6 423.2 L 459.5 423.2 L 460.5 423.2 L 461.5 423.2 L 462.5 423.2 L 463.4 423.2 L 464.4 423.2 L 465.4 423.2 L 466.3 423.2 L 467.3 423.2 L 468.3 423.2 L 469.3 423.2 L 470.2 423.2 L 471.2 423.2 L 472.2 423.2 L 473.1 423.2 L 474.1 423.2 L 475.1 423.2 L 476.1 423.2 L 477.0 423.2 L 478.0 423.2 L 479.0 423.2 L 479.9 423.1 L 480.9 423.1 L 481.9 423.1 L 482.8 423.1 L 483.8 423.1 L 484.8 423.1 L 485.8 423.1 L 486.7 423.1 L 487.7 423.1 L 488.7 423.1 L 489.6 423.1 L 490.6 423.1 L 491.6 423.1 L 492.6 423.1 L 493.5 423.1 L 494.5 423.1 L 495.5 423.1 L 496.4 423.1 L 497.4 423.1 L 498.4 423.1 L 499.4 423.1 L 500.3 423.1 L 501.3 423.1 L 502.3 423.1 L 503.2 423.1 L 504.2 423.1 L 505.2 423.1 L 506.1 423.1 L 507.1 423.1 L 508.1 423.1 L 509.1 423.1 L 510.0 423.1 L 511.0 423.1 L 512.0 423.1 L 512.9 423.1 L 513.9 423.1 L 514.9 423.1 L 515.9 423.1 L 516.8 423.1 L 517.8 423.1 L 518.8 423.1 L 519.7 423.1 L 520.7 423.1 L 521.7 423.1 L 522.7 423.1 L 523.6 423.1 L 524.6 423.1 L 525.6 423.1 L 526.5 423.1 L 527.5 423.1 L 528.5 423.1 L 529.4 423.1 L 530.4 423.1 L 531.4 423.1 L 532.4 423.1 L 533.3 423.1 L 534.3 423.1 L 535.3 423.1 L 536.2 423.1 L 537.2 423.1 L 538.2 423.1 L 539.2 423.1 L 540.1 423.1 L 541.1 423.1 L 542.1 423.1 L 543.0 423.1 L 544.0 423.1 L 545.0 423.1 L 546.0 423.1 L 546.9 423.1 L 547.9 423.1 L 548.9 423.1 L 549.8 423.1 L 550.8 423.1 L 551.8 423.1 L 552.7 423.0 L 553.7 423.0 L 554.7 423.0 L 555.7 423.0 L 556.6 423.0 L 557.6 423.0 L 558.6 423.0 L 559.5 423.0 L 560.5 423.0 L 561.5 423.0 L 562.5 423.0 L 563.4 423.0 L 564.4 423.0 L 565.4 423.0 L 566.3 423.0 L 567.3 423.0 L 568.3 423.0 L 569.3 423.0 L 570.2 423.0 L 571.2 422.9 L 572.2 422.9 L 573.1 422.9 L 574.1 422.9 L 575.1 422.9 L 576.0 422.9 L 577.0 422.9 L 578.0 422.9 L 579.0 422.9 L 579.9 422.9 L 580.9 422.9 L 581.9 422.9 L 582.8 422.9 L 583.8 422.9 L 584.8 422.9 L 585.8 422.9 L 586.7 422.9 L 587.7 422.9 L 588.7 422.9 L 589.6 422.9 L 590.6 422.9 L 591.6 422.9 L 592.6 422.9 L 593.5 422.9 L 594.5 422.9 L 595.5 422.9 L 596.4 422.9 L 597.4 422.9 L 598.4 422.9 L 599.3 422.9 L 600.3 422.9 L 601.3 422.9 L 602.3 422.9 L 603.2 422.9 L 604.2 422.9 L 605.2 422.9 L 606.1 422.9 L 607.1 422.9 L 608.1 422.9 L 609.1 422.9 L 610.0 422.9 L 611.0 422.9 L 612.0 422.9 L 612.9 422.8 L 613.9 422.8 L 614.9 422.8 L 615.9 422.8 L 616.8 422.8 L 617.8 422.8 L 618.8 422.8 L 619.7 422.8 L 620.7 422.8 L 621.7 422.8 L 622.6 422.8 L 623.6 422.8 L 624.6 422.8 L 625.6 422.8 L 626.5 422.8 L 627.5 422.8 L 628.5 422.8 L 629.4 422.8 L 630.4 422.8 L 631.4 422.8 L 632.4 422.8 L 633.3 422.8 L 634.3 422.7 L 635.3 422.7 L 636.2 422.7 L 637.2 422.7 L 638.2 422.7 L 639.2 422.7 L 640.1 422.6 L 641.1 422.6 L 642.1 422.5 L 643.0 422.4 L 644.0 422.4 L 645.0 422.4 L 645.9 422.4 L 646.9 422.4 L 647.9 422.3 L 648.9 422.3 L 649.8 422.3 L 650.8 422.3 L 651.8 422.3 L 652.7 422.2 L 653.7 422.0 L 654.7 421.8 L 655.7 421.7 L 656.6 421.7 L 657.6 421.7 L 658.6 421.7 L 659.5 421.7 L 660.5 421.7 L 661.5 421.7 L 662.5 421.7 L 663.4 421.7 L 664.4 421.7 L 665.4 421.7 L 666.3 421.7 L 667.3 421.6 L 668.3 421.6 L 669.3 421.6 L 670.2 421.6 L 671.2 421.6 L 672.2 421.6 L 673.1 421.6 L 674.1 421.6 L 675.1 421.5 L 676.0 421.4 L 677.0 421.4 L 678.0 421.4 L 679.0 421.4 L 679.9 421.4 L 680.9 421.3 L 681.9 421.2 L 682.8 421.0 L 683.8 420.8 L 684.8 420.8 L 685.8 420.8 L 686.7 420.6 L 687.7 420.5 L 688.7 420.4 L 689.6 420.3 L 690.6 420.1 L 691.6 420.1 L 692.6 420.1 L 693.5 419.9 L 694.5 419.8 L 695.5 419.6 L 696.4 419.5 L 697.4 419.3 L 698.4 419.3 L 699.3 419.3 L 700.3 419.3 L 701.3 418.2 L 702.3 417.5 L 703.2 417.1 L 704.2 416.6 L 705.2 416.5 L 706.1 416.5 L 707.1 416.5 L 708.1 415.9 L 709.1 415.2 L 710.0 414.5 L 711.0 413.4 L 712.0 413.4 L 712.9 413.4 L 713.9 412.4 L 714.9 411.7 L 715.9 411.1 L 716.8 410.8 L 717.8 410.4 L 718.8 410.4 L 719.7 410.4 L 720.7 409.2 L 721.7 408.5 L 722.6 407.5 L 723.6 406.6 L 724.6 406.0 L 725.6 406.0 L 726.5 406.0 L 727.5 404.2 L 728.5 402.4 L 729.4 401.1 L 730.4 399.7 L 731.4 397.8 L 732.4 397.6 L 733.3 397.6 L 734.3 395.5 L 735.3 393.4 L 736.2 391.9 L 737.2 389.9 L 738.2 388.3 L 739.2 388.3 L 740.1 388.3 L 741.1 386.6 L 742.1 385.0 L 743.0 383.6 L 744.0 383.6 L 745.0 381.7 L 745.9 381.6 L 746.9 381.6 L 747.9 380.1 L 748.9 377.2 L 749.8 375.6 L 750.8 372.9 L 751.8 370.1 L 752.7 370.1 L 753.7 370.1 L 754.7 370.1 L 755.7 366.5 L 756.6 363.9 L 757.6 361.6 L 758.6 360.8 L 759.5 360.8 L 760.5 360.8 L 761.5 359.1 L 762.5 357.1 L 763.4 354.2 L 764.4 354.1 L 765.4 352.0 L 766.3 352.0 L 767.3 352.0 L 768.3 351.6 L 769.2 349.9 L 770.2 347.9 L 771.2 346.7 L 772.2 346.1 L 773.1 346.1 L 774.1 346.1 L 775.1 345.2 L 776.0 344.2 L 777.0 343.3 L 778.0 342.2 L 779.0 340.6 L 779.9 340.6 L 780.9 340.6 L 781.9 338.7 L 782.8 337.6 L 783.8 335.8 L 784.8 332.6 L 785.8 329.0 L 786.7 329.0 L 787.7 329.0 L 788.7 326.8 L 789.6 325.2 L 790.6 323.3 L 791.6 321.8 L 792.5 320.5 L 793.5 320.5 L 794.5 320.4 L 795.5 317.9 L 796.4 316.1 L 797.4 315.3 L 798.4 314.3 L 799.3 313.5 L 800.3 313.4 L 801.3 313.4 L 802.3 311.7 L 803.2 309.7 L 804.2 306.8 L 805.2 304.7 L 806.1 302.3 L 807.1 302.2 L 808.1 302.2 L 809.1 302.0 L 810.0 299.8 L 811.0 298.3 L 812.0 297.1 L 812.9 295.9 L 813.9 295.9 L 814.9 295.9 L 815.8 294.9 L 816.8 292.1 L 817.8 290.4 L 818.8 289.3 L 819.7 288.7 L 820.7 288.7 L 821.7 288.7 L 822.6 287.0 L 823.6 285.2 L 824.6 283.5 L 825.6 282.0 L 826.5 280.1 L 827.5 280.1 L 828.5 280.1 L 829.4 280.0 L 830.4 277.8 L 831.4 276.1 L 832.4 274.2 L 833.3 272.1 L 834.3 271.9 L 835.3 271.9 L 836.2 269.4 L 837.2 266.7 L 838.2 264.2 L 839.1 261.6 L 840.1 259.5 L 841.1 259.4 L 842.1 259.4 L 843.0 259.4 L 844.0 257.5 L 845.0 255.7 L 845.9 252.9 L 846.9 249.6 L 847.9 249.6 L 848.9 249.6 L 849.8 244.6 L 850.8 241.8 L 851.8 240.7 L 852.7 239.9 L 853.7 238.9 L 854.7 238.9 L 855.7 238.9 L 856.6 237.3 L 857.6 236.0 L 858.6 235.4 L 859.5 235.1 L 860.5 234.6 L 861.5 234.6 L 862.5 234.6 L 863.4 234.6 L 864.4 233.2 L 865.4 232.1 L 866.3 231.6 L 867.3 231.3 L 868.3 231.3 L 869.2 231.3 L 870.2 230.6 L 871.2 230.3 L 872.2 229.9 L 873.1 229.1 L 874.1 228.9 L 875.1 228.9 L 876.0 228.9 L 877.0 228.7 L 878.0 228.4 L 879.0 228.3 L 879.9 228.3 L 880.9 228.0 L 881.9 228.0 L 882.8 228.0 L 883.8 227.8 L 884.8 227.5 L 885.8 227.5 L 886.7 227.4 L 887.7 227.2 L 888.7 227.2 L 889.6 227.2 L 890.6 227.1 L 891.6 226.7 L 892.5 226.5 L 893.5 226.2 L 894.5 226.1 L 895.5 226.1 L 896.4 226.1 L 897.4 226.1 L 898.4 225.7 L 899.3 225.7 L 900.3 225.5 L 901.3 225.3 L 902.3 225.3 L 903.2 225.3 L 904.2 225.1 L 905.2 224.9 L 906.1 224.5 L 907.1 224.2 L 908.1 223.8 L 909.1 223.8 L 910.0 223.8 L 911.0 222.0 L 912.0 220.4 L 912.9 219.1 L 913.9 218.0 L 914.9 216.8 L 915.8 216.8 L 916.8 216.8 L 917.8 216.2 L 918.8 215.4 L 919.7 214.1 L 920.7 212.9 L 921.7 212.6 L 922.6 212.6 L 923.6 212.6 L 924.6 211.6 L 925.6 211.3 L 926.5 211.1 L 927.5 211.1 L 928.5 211.1 L 929.4 211.1 L 930.4 211.1 L 931.4 211.0 L 932.4 210.9 L 933.3 210.7 L 934.3 210.5 L 935.3 210.3 L 936.2 210.3 L 937.2 210.3 L 938.2 210.0 L 939.1 209.6 L 940.1 209.4 L 941.1 208.4 L 942.1 208.0 L 943.0 208.0 L 944.0 208.0 L 945.0 207.3 L 945.9 206.4 L 946.9 206.1 L 947.9 205.6 L 948.9 205.2 L 949.8 205.2 L 950.8 205.2 L 951.8 204.9 L 952.7 204.8 L 953.7 204.6 L 954.7 204.2 L 955.7 203.8 L 956.6 203.8 L 957.6 203.8 L 958.6 203.4 L 959.5 202.8 L 960.5 202.5 L 961.5 202.3 L 962.4 202.0 L 963.4 202.0 L 964.4 202.0 L 965.4 202.0 L 966.3 201.7 L 967.3 201.5 L 968.3 201.2 L 969.2 201.0 L 970.2 201.0 L 971.2 201.0 L 972.2 200.5 L 973.1 200.0 L 974.1 199.7 L 975.1 199.7 L 976.0 199.7 L 977.0 199.7 L 978.0 199.7 L 979.0 199.1 L 979.9 198.0 L 980.9 197.6 L 981.9 197.1 L 982.8 196.7 L 983.8 196.7 L 984.8 196.7 L 985.7 196.6 L 986.7 196.3 L 987.7 195.6 L 988.7 195.3 L 989.6 195.0 L 990.6 195.0 L 991.6 195.0 L 992.5 194.6 L 993.5 194.1 L 994.5 193.5 L 995.5 193.2 L 996.4 192.7 L 997.4 192.7 L 998.4 192.7 L 999.3 190.7 L 1000.3 189.5 L 1001.3 188.4 L 1002.3 187.5 L 1003.2 187.4 L 1004.2 187.3 L 1005.2 187.3 L 1006.1 185.9 L 1007.1 181.8 L 1008.1 179.7 L 1009.0 176.9 L 1010.0 175.3 L 1011.0 175.3 L 1012.0 175.3 L 1012.9 172.9 L 1013.9 171.4 L 1014.9 170.1 L 1015.8 169.3 L 1016.8 168.0 L 1017.8 168.0 L 1018.8 168.0 L 1019.7 168.0 L 1020.7 166.7 L 1021.7 165.9 L 1022.6 165.4 L 1023.6 165.0 L 1024.6 164.9 L 1025.6 164.9 L 1026.5 164.7 L 1027.5 163.7 L 1028.5 163.5 L 1029.4 163.3 L 1030.4 162.9 L 1031.4 162.9 L 1032.3 162.9 L 1033.3 162.4 L 1034.3 162.0 L 1035.3 161.7 L 1036.2 161.5 L 1037.2 161.2 L 1038.2 161.2 L 1039.1 161.2 L 1040.1 161.2 L 1041.1 160.7 L 1042.1 160.5 L 1043.0 160.4 L 1044.0 160.4" stroke="#9a6bff" stroke-width="1.8" fill="none" stroke-linejoin="round"/><path d="M 429.4 424.0 L 430.4 424.0 L 431.4 424.0 L 432.4 424.0 L 433.3 424.0 L 434.3 424.0 L 435.3 424.0 L 436.2 424.0 L 437.2 424.0 L 438.2 424.0 L 439.2 424.0 L 440.1 424.0 L 441.1 424.0 L 442.1 424.0 L 443.0 424.0 L 444.0 424.0 L 445.0 424.0 L 446.0 424.0 L 446.9 424.0 L 447.9 424.0 L 448.9 424.0 L 449.8 424.0 L 450.8 424.0 L 451.8 424.0 L 452.7 424.0 L 453.7 424.0 L 454.7 424.0 L 455.7 424.0 L 456.6 424.0 L 457.6 424.0 L 458.6 424.0 L 459.5 424.0 L 460.5 424.0 L 461.5 424.0 L 462.5 424.0 L 463.4 423.9 L 464.4 423.9 L 465.4 423.9 L 466.3 423.9 L 467.3 423.9 L 468.3 423.9 L 469.3 423.9 L 470.2 423.9 L 471.2 423.9 L 472.2 423.9 L 473.1 423.9 L 474.1 423.9 L 475.1 423.9 L 476.1 423.9 L 477.0 423.9 L 478.0 423.9 L 479.0 423.9 L 479.9 423.9 L 480.9 423.9 L 481.9 423.9 L 482.8 423.9 L 483.8 423.9 L 484.8 423.9 L 485.8 423.9 L 486.7 423.9 L 487.7 423.9 L 488.7 423.9 L 489.6 423.9 L 490.6 423.9 L 491.6 423.9 L 492.6 423.9 L 493.5 423.9 L 494.5 423.9 L 495.5 423.9 L 496.4 423.9 L 497.4 423.9 L 498.4 423.9 L 499.4 423.9 L 500.3 423.9 L 501.3 423.9 L 502.3 423.9 L 503.2 423.9 L 504.2 423.8 L 505.2 423.8 L 506.1 423.8 L 507.1 423.8 L 508.1 423.8 L 509.1 423.8 L 510.0 423.8 L 511.0 423.8 L 512.0 423.8 L 512.9 423.8 L 513.9 423.8 L 514.9 423.8 L 515.9 423.8 L 516.8 423.8 L 517.8 423.8 L 518.8 423.8 L 519.7 423.8 L 520.7 423.8 L 521.7 423.8 L 522.7 423.8 L 523.6 423.8 L 524.6 423.8 L 525.6 423.8 L 526.5 423.8 L 527.5 423.8 L 528.5 423.8 L 529.4 423.8 L 530.4 423.8 L 531.4 423.8 L 532.4 423.8 L 533.3 423.8 L 534.3 423.8 L 535.3 423.8 L 536.2 423.8 L 537.2 423.8 L 538.2 423.8 L 539.2 423.8 L 540.1 423.8 L 541.1 423.8 L 542.1 423.8 L 543.0 423.8 L 544.0 423.8 L 545.0 423.8 L 546.0 423.8 L 546.9 423.8 L 547.9 423.8 L 548.9 423.8 L 549.8 423.8 L 550.8 423.8 L 551.8 423.7 L 552.7 423.7 L 553.7 423.7 L 554.7 423.7 L 555.7 423.7 L 556.6 423.7 L 557.6 423.7 L 558.6 423.7 L 559.5 423.7 L 560.5 423.7 L 561.5 423.7 L 562.5 423.7 L 563.4 423.7 L 564.4 423.7 L 565.4 423.7 L 566.3 423.7 L 567.3 423.7 L 568.3 423.7 L 569.3 423.7 L 570.2 423.7 L 571.2 423.7 L 572.2 423.7 L 573.1 423.7 L 574.1 423.7 L 575.1 423.7 L 576.0 423.7 L 577.0 423.7 L 578.0 423.7 L 579.0 423.7 L 579.9 423.7 L 580.9 423.7 L 581.9 423.7 L 582.8 423.7 L 583.8 423.7 L 584.8 423.7 L 585.8 423.7 L 586.7 423.7 L 587.7 423.7 L 588.7 423.7 L 589.6 423.7 L 590.6 423.7 L 591.6 423.7 L 592.6 423.7 L 593.5 423.7 L 594.5 423.7 L 595.5 423.7 L 596.4 423.7 L 597.4 423.7 L 598.4 423.6 L 599.3 423.6 L 600.3 423.6 L 601.3 423.6 L 602.3 423.6 L 603.2 423.6 L 604.2 423.6 L 605.2 423.6 L 606.1 423.6 L 607.1 423.6 L 608.1 423.6 L 609.1 423.6 L 610.0 423.6 L 611.0 423.6 L 612.0 423.6 L 612.9 423.6 L 613.9 423.6 L 614.9 423.6 L 615.9 423.6 L 616.8 423.6 L 617.8 423.6 L 618.8 423.6 L 619.7 423.6 L 620.7 423.6 L 621.7 423.6 L 622.6 423.6 L 623.6 423.6 L 624.6 423.6 L 625.6 423.6 L 626.5 423.6 L 627.5 423.6 L 628.5 423.6 L 629.4 423.6 L 630.4 423.6 L 631.4 423.6 L 632.4 423.6 L 633.3 423.6 L 634.3 423.6 L 635.3 423.6 L 636.2 423.6 L 637.2 423.6 L 638.2 423.6 L 639.2 423.6 L 640.1 423.6 L 641.1 423.6 L 642.1 423.6 L 643.0 423.6 L 644.0 423.6 L 645.0 423.6 L 645.9 423.6 L 646.9 423.6 L 647.9 423.6 L 648.9 423.6 L 649.8 423.6 L 650.8 423.6 L 651.8 423.6 L 652.7 423.6 L 653.7 423.6 L 654.7 423.6 L 655.7 423.6 L 656.6 423.6 L 657.6 423.6 L 658.6 423.6 L 659.5 423.6 L 660.5 423.6 L 661.5 423.6 L 662.5 423.6 L 663.4 423.6 L 664.4 423.6 L 665.4 423.6 L 666.3 423.6 L 667.3 423.6 L 668.3 423.6 L 669.3 423.6 L 670.2 423.6 L 671.2 423.6 L 672.2 423.6 L 673.1 423.6 L 674.1 423.6 L 675.1 423.6 L 676.0 423.5 L 677.0 423.5 L 678.0 423.5 L 679.0 423.5 L 679.9 423.5 L 680.9 423.5 L 681.9 423.5 L 682.8 423.5 L 683.8 423.5 L 684.8 423.5 L 685.8 423.5 L 686.7 423.5 L 687.7 423.5 L 688.7 423.5 L 689.6 423.5 L 690.6 423.5 L 691.6 423.5 L 692.6 423.5 L 693.5 423.5 L 694.5 423.5 L 695.5 423.5 L 696.4 423.5 L 697.4 423.5 L 698.4 423.5 L 699.3 423.5 L 700.3 423.5 L 701.3 423.5 L 702.3 423.5 L 703.2 423.5 L 704.2 423.5 L 705.2 423.5 L 706.1 423.5 L 707.1 423.5 L 708.1 423.5 L 709.1 423.5 L 710.0 423.4 L 711.0 423.4 L 712.0 423.4 L 712.9 423.4 L 713.9 423.4 L 714.9 423.4 L 715.9 423.4 L 716.8 423.4 L 717.8 423.4 L 718.8 423.4 L 719.7 423.4 L 720.7 423.4 L 721.7 423.4 L 722.6 423.4 L 723.6 423.4 L 724.6 423.4 L 725.6 423.4 L 726.5 423.4 L 727.5 423.4 L 728.5 423.4 L 729.4 423.3 L 730.4 423.2 L 731.4 423.2 L 732.4 423.2 L 733.3 423.2 L 734.3 423.2 L 735.3 423.2 L 736.2 423.2 L 737.2 423.2 L 738.2 423.2 L 739.2 423.2 L 740.1 423.2 L 741.1 423.2 L 742.1 423.2 L 743.0 423.2 L 744.0 423.2 L 745.0 423.2 L 745.9 423.2 L 746.9 423.2 L 747.9 423.2 L 748.9 423.1 L 749.8 423.1 L 750.8 423.1 L 751.8 423.1 L 752.7 423.1 L 753.7 423.1 L 754.7 423.1 L 755.7 423.1 L 756.6 423.1 L 757.6 423.1 L 758.6 423.1 L 759.5 423.1 L 760.5 423.1 L 761.5 423.1 L 762.5 423.1 L 763.4 423.1 L 764.4 423.1 L 765.4 423.1 L 766.3 423.1 L 767.3 423.1 L 768.3 423.1 L 769.2 423.1 L 770.2 423.1 L 771.2 423.1 L 772.2 423.1 L 773.1 423.1 L 774.1 423.1 L 775.1 423.1 L 776.0 423.1 L 777.0 423.1 L 778.0 423.1 L 779.0 423.1 L 779.9 423.1 L 780.9 423.1 L 781.9 423.1 L 782.8 423.1 L 783.8 423.1 L 784.8 423.1 L 785.8 423.1 L 786.7 423.1 L 787.7 423.1 L 788.7 423.1 L 789.6 423.1 L 790.6 423.1 L 791.6 423.1 L 792.5 423.1 L 793.5 423.1 L 794.5 423.1 L 795.5 423.1 L 796.4 423.1 L 797.4 423.1 L 798.4 423.1 L 799.3 423.1 L 800.3 423.1 L 801.3 423.1 L 802.3 423.1 L 803.2 423.1 L 804.2 423.1 L 805.2 423.0 L 806.1 423.0 L 807.1 423.0 L 808.1 423.0 L 809.1 423.0 L 810.0 423.0 L 811.0 423.0 L 812.0 423.0 L 812.9 423.0 L 813.9 423.0 L 814.9 423.0 L 815.8 423.0 L 816.8 423.0 L 817.8 423.0 L 818.8 423.0 L 819.7 423.0 L 820.7 423.0 L 821.7 423.0 L 822.6 423.0 L 823.6 423.0 L 824.6 423.0 L 825.6 423.0 L 826.5 423.0 L 827.5 423.0 L 828.5 423.0 L 829.4 423.0 L 830.4 423.0 L 831.4 423.0 L 832.4 423.0 L 833.3 423.0 L 834.3 423.0 L 835.3 423.0 L 836.2 423.0 L 837.2 423.0 L 838.2 423.0 L 839.1 423.0 L 840.1 423.0 L 841.1 423.0 L 842.1 423.0 L 843.0 423.0 L 844.0 423.0 L 845.0 423.0 L 845.9 423.0 L 846.9 423.0 L 847.9 423.0 L 848.9 423.0 L 849.8 423.0 L 850.8 423.0 L 851.8 423.0 L 852.7 423.0 L 853.7 423.0 L 854.7 423.0 L 855.7 423.0 L 856.6 423.0 L 857.6 423.0 L 858.6 423.0 L 859.5 423.0 L 860.5 422.9 L 861.5 422.9 L 862.5 422.9 L 863.4 422.9 L 864.4 422.9 L 865.4 422.9 L 866.3 422.9 L 867.3 422.9 L 868.3 422.9 L 869.2 422.9 L 870.2 422.9 L 871.2 422.9 L 872.2 422.9 L 873.1 422.9 L 874.1 422.9 L 875.1 422.9 L 876.0 422.9 L 877.0 422.9 L 878.0 422.9 L 879.0 422.9 L 879.9 422.9 L 880.9 422.9 L 881.9 422.9 L 882.8 422.9 L 883.8 422.9 L 884.8 422.9 L 885.8 422.9 L 886.7 422.9 L 887.7 422.9 L 888.7 422.9 L 889.6 422.9 L 890.6 422.9 L 891.6 422.9 L 892.5 422.9 L 893.5 422.9 L 894.5 422.8 L 895.5 422.8 L 896.4 422.8 L 897.4 422.8 L 898.4 422.8 L 899.3 422.8 L 900.3 422.8 L 901.3 422.8 L 902.3 422.8 L 903.2 422.8 L 904.2 422.8 L 905.2 422.8 L 906.1 422.8 L 907.1 422.8 L 908.1 422.8 L 909.1 422.8 L 910.0 422.8 L 911.0 422.8 L 912.0 422.8 L 912.9 422.8 L 913.9 422.8 L 914.9 422.8 L 915.8 422.8 L 916.8 422.8 L 917.8 422.8 L 918.8 422.8 L 919.7 422.8 L 920.7 422.8 L 921.7 422.8 L 922.6 422.8 L 923.6 422.8 L 924.6 422.8 L 925.6 422.8 L 926.5 422.8 L 927.5 422.8 L 928.5 422.8 L 929.4 422.8 L 930.4 422.8 L 931.4 422.8 L 932.4 422.7 L 933.3 422.7 L 934.3 422.7 L 935.3 422.7 L 936.2 422.7 L 937.2 422.7 L 938.2 422.7 L 939.1 422.7 L 940.1 422.7 L 941.1 422.7 L 942.1 422.7 L 943.0 422.7 L 944.0 422.7 L 945.0 422.7 L 945.9 422.7 L 946.9 422.7 L 947.9 422.7 L 948.9 422.7 L 949.8 422.7 L 950.8 422.7 L 951.8 422.7 L 952.7 422.7 L 953.7 422.7 L 954.7 422.7 L 955.7 422.7 L 956.6 422.7 L 957.6 422.7 L 958.6 422.7 L 959.5 422.7 L 960.5 422.7 L 961.5 422.7 L 962.4 422.7 L 963.4 422.7 L 964.4 422.7 L 965.4 422.7 L 966.3 422.7 L 967.3 422.7 L 968.3 422.7 L 969.2 422.7 L 970.2 422.7 L 971.2 422.6 L 972.2 422.6 L 973.1 422.6 L 974.1 422.6 L 975.1 422.6 L 976.0 422.6 L 977.0 422.6 L 978.0 422.6 L 979.0 422.6 L 979.9 422.6 L 980.9 422.6 L 981.9 422.6 L 982.8 422.6 L 983.8 422.6 L 984.8 422.6 L 985.7 422.6 L 986.7 422.6 L 987.7 422.6 L 988.7 422.6 L 989.6 422.6 L 990.6 422.6 L 991.6 422.6 L 992.5 422.6 L 993.5 422.6 L 994.5 422.6 L 995.5 422.6 L 996.4 422.6 L 997.4 422.6 L 998.4 422.6 L 999.3 422.6 L 1000.3 422.6 L 1001.3 422.6 L 1002.3 422.6 L 1003.2 422.6 L 1004.2 422.6 L 1005.2 422.6 L 1006.1 422.6 L 1007.1 422.6 L 1008.1 422.6 L 1009.0 422.6 L 1010.0 422.6 L 1011.0 422.6 L 1012.0 422.6 L 1012.9 422.6 L 1013.9 422.6 L 1014.9 422.6 L 1015.8 422.6 L 1016.8 422.5 L 1017.8 422.5 L 1018.8 422.5 L 1019.7 422.5 L 1020.7 422.5 L 1021.7 422.5 L 1022.6 422.5 L 1023.6 422.5 L 1024.6 422.5 L 1025.6 422.5 L 1026.5 422.5 L 1027.5 422.5 L 1028.5 422.5 L 1029.4 422.5 L 1030.4 422.5 L 1031.4 422.5 L 1032.3 422.5 L 1033.3 422.5 L 1034.3 422.5 L 1035.3 422.5 L 1036.2 422.5 L 1037.2 422.5 L 1038.2 422.5 L 1039.1 422.5 L 1040.1 422.5 L 1041.1 422.5 L 1042.1 422.5 L 1043.0 422.5 L 1044.0 422.5" stroke="#35d07f" stroke-width="1.8" fill="none" stroke-linejoin="round"/><line x1="78" y1="424" x2="1044" y2="424" stroke="#8b949e" stroke-width="1.4"/>
  <text x="28" y="484" class="footer">COPM on Polygon + Celo · Transfer events up to 2026-06-12 · source: on-chain RPC scan</text>
</svg>