<svg xmlns="http://www.w3.org/2000/svg" width="1080" height="500" viewBox="0 0 1080 500" role="img" aria-label="COPM — Circulating Supply by Chain">
  <style>
    .title { font: 600 22px -apple-system, 'Segoe UI', system-ui, sans-serif; fill: #e6edf3; }
    .subtitle { font: 400 14px -apple-system, 'Segoe UI', system-ui, sans-serif; fill: #7d8590; }
    .axis { font: 400 13px -apple-system, 'Segoe UI', system-ui, sans-serif; fill: #8b949e; }
    .label { font: 500 14px -apple-system, 'Segoe UI', system-ui, sans-serif; fill: #e6edf3; }
    .annot { font: 600 13px -apple-system, 'Segoe UI', system-ui, sans-serif; }
    .badge { font: 600 13px -apple-system, 'Segoe UI', system-ui, sans-serif; }
    .footer { font: 400 12px ui-monospace, 'SF Mono', Menlo, monospace; fill: #7d8590; }
  </style>
  <defs></defs>
  <rect width="1080" height="500" fill="#0b0e14"/>
  <rect x="8" y="8" width="1064" height="484" rx="10" fill="#11151d" stroke="#222938" stroke-width="1"/>
  <text x="28" y="40" class="title">COPM — Circulating Supply by Chain</text>
  <rect x="909" y="24" width="143" height="22" rx="11" fill="#58a6ff22" stroke="#58a6ff" stroke-width="1"/>
  <text x="980.5" y="39" class="badge" fill="#58a6ff" text-anchor="middle">Polygon + Celo</text>
  <text x="28" y="59" class="subtitle">End-of-day supply derived from on-chain mints and burns</text>
  <line x1="78" y1="424" x2="1044" y2="424" stroke="#222938" stroke-width="1"/><text x="68" y="428" class="axis" text-anchor="end">0</text><line x1="78" y1="316" x2="1044" y2="316" stroke="#222938" stroke-width="1"/><text x="68" y="320" class="axis" text-anchor="end">5.0B</text><line x1="78" y1="208" x2="1044" y2="208" stroke="#222938" stroke-width="1"/><text x="68" y="212" class="axis" text-anchor="end">10.0B</text><line x1="78" y1="100" x2="1044" y2="100" stroke="#222938" stroke-width="1"/><text x="68" y="104" class="axis" text-anchor="end">15.0B</text><line x1="58.582914572864325" y1="100" x2="58.582914572864325" y2="424" stroke="#222938" stroke-width="1" stroke-dasharray="2,5"/><text x="58.582914572864325" y="444" class="axis" text-anchor="middle">Sep 23</text><line x1="146.93065326633166" y1="100" x2="146.93065326633166" y2="424" stroke="#222938" stroke-width="1" stroke-dasharray="2,5"/><text x="146.93065326633166" y="444" class="axis" text-anchor="middle">Dec 23</text><line x1="235.278391959799" y1="100" x2="235.278391959799" y2="424" stroke="#222938" stroke-width="1" stroke-dasharray="2,5"/><text x="235.278391959799" y="444" class="axis" text-anchor="middle">Mar 24</text><line x1="324.5969849246231" y1="100" x2="324.5969849246231" y2="424" stroke="#222938" stroke-width="1" stroke-dasharray="2,5"/><text x="324.5969849246231" y="444" class="axis" text-anchor="middle">Jun 24</text><line x1="413.9155778894472" y1="100" x2="413.9155778894472" y2="424" stroke="#222938" stroke-width="1" stroke-dasharray="2,5"/><text x="413.9155778894472" y="444" class="axis" text-anchor="middle">Sep 24</text><line x1="502.26331658291457" y1="100" x2="502.26331658291457" y2="424" stroke="#222938" stroke-width="1" stroke-dasharray="2,5"/><text x="502.26331658291457" y="444" class="axis" text-anchor="middle">Dec 24</text><line x1="589.6402010050251" y1="100" x2="589.6402010050251" y2="424" stroke="#222938" stroke-width="1" stroke-dasharray="2,5"/><text x="589.6402010050251" y="444" class="axis" text-anchor="middle">Mar 25</text><line x1="678.9587939698492" y1="100" x2="678.9587939698492" y2="424" stroke="#222938" stroke-width="1" stroke-dasharray="2,5"/><text x="678.9587939698492" y="444" class="axis" text-anchor="middle">Jun 25</text><line x1="768.2773869346734" y1="100" x2="768.2773869346734" y2="424" stroke="#222938" stroke-width="1" stroke-dasharray="2,5"/><text x="768.2773869346734" y="444" class="axis" text-anchor="middle">Sep 25</text><line x1="856.6251256281407" y1="100" x2="856.6251256281407" y2="424" stroke="#222938" stroke-width="1" stroke-dasharray="2,5"/><text x="856.6251256281407" y="444" class="axis" text-anchor="middle">Dec 25</text><line x1="944.0020100502513" y1="100" x2="944.0020100502513" y2="424" stroke="#222938" stroke-width="1" stroke-dasharray="2,5"/><text x="944.0020100502513" y="444" class="axis" text-anchor="middle">Mar 26</text><line x1="1033.3206030150754" y1="100" x2="1033.3206030150754" y2="424" stroke="#222938" stroke-width="1" stroke-dasharray="2,5"/><text x="1033.3206030150754" y="444" class="axis" text-anchor="middle">Jun 26</text><rect x="28" y="70" width="14" height="4" rx="2" fill="#9a6bff"/><text x="48" y="76" class="label">Polygon</text><rect x="130" y="70" width="14" height="4" rx="2" fill="#35d07f"/><text x="150" y="76" class="label">Celo</text><path d="M 78.0 423.9 L 79.0 423.9 L 79.9 423.9 L 80.9 423.9 L 81.9 423.9 L 82.9 423.9 L 83.8 423.9 L 84.8 423.9 L 85.8 423.9 L 86.7 423.9 L 87.7 423.9 L 88.7 423.9 L 89.7 423.9 L 90.6 423.9 L 91.6 423.9 L 92.6 423.9 L 93.5 423.9 L 94.5 423.9 L 95.5 423.9 L 96.4 423.9 L 97.4 423.9 L 98.4 423.9 L 99.4 423.9 L 100.3 423.9 L 101.3 423.9 L 102.3 423.9 L 103.2 423.7 L 104.2 423.7 L 105.2 423.7 L 106.2 423.7 L 107.1 423.7 L 108.1 423.7 L 109.1 423.7 L 110.0 423.7 L 111.0 423.7 L 112.0 423.7 L 113.0 423.7 L 113.9 423.7 L 114.9 423.7 L 115.9 423.7 L 116.8 421.5 L 117.8 421.5 L 118.8 421.5 L 119.7 421.5 L 120.7 421.5 L 121.7 421.5 L 122.7 421.5 L 123.6 417.2 L 124.6 417.2 L 125.6 417.2 L 126.5 417.2 L 127.5 417.2 L 128.5 417.2 L 129.5 417.2 L 130.4 417.2 L 131.4 415.9 L 132.4 415.9 L 133.3 415.9 L 134.3 415.9 L 135.3 415.9 L 136.3 415.9 L 137.2 415.9 L 138.2 407.0 L 139.2 407.0 L 140.1 407.0 L 141.1 406.5 L 142.1 406.5 L 143.0 406.5 L 144.0 406.5 L 145.0 406.5 L 146.0 406.5 L 146.9 406.5 L 147.9 406.5 L 148.9 406.5 L 149.8 406.5 L 150.8 406.5 L 151.8 406.5 L 152.8 406.5 L 153.7 406.5 L 154.7 406.5 L 155.7 406.5 L 156.6 406.5 L 157.6 406.5 L 158.6 406.5 L 159.6 406.5 L 160.5 406.5 L 161.5 406.5 L 162.5 406.5 L 163.4 406.5 L 164.4 406.5 L 165.4 406.5 L 166.3 406.5 L 167.3 406.5 L 168.3 406.5 L 169.3 406.5 L 170.2 406.5 L 171.2 406.5 L 172.2 406.5 L 173.1 406.5 L 174.1 406.5 L 175.1 406.5 L 176.1 406.5 L 177.0 406.5 L 178.0 406.5 L 179.0 406.5 L 179.9 406.5 L 180.9 406.5 L 181.9 406.5 L 182.9 406.5 L 183.8 406.5 L 184.8 406.5 L 185.8 406.5 L 186.7 406.5 L 187.7 406.5 L 188.7 406.5 L 189.6 406.5 L 190.6 406.5 L 191.6 406.5 L 192.6 406.5 L 193.5 406.5 L 194.5 406.5 L 195.5 406.5 L 196.4 406.5 L 197.4 406.5 L 198.4 406.5 L 199.4 406.5 L 200.3 406.5 L 201.3 406.5 L 202.3 406.5 L 203.2 406.5 L 204.2 406.5 L 205.2 406.5 L 206.2 406.5 L 207.1 406.5 L 208.1 406.5 L 209.1 406.5 L 210.0 406.5 L 211.0 406.1 L 212.0 406.1 L 212.9 406.1 L 213.9 405.5 L 214.9 404.4 L 215.9 404.4 L 216.8 404.4 L 217.8 403.9 L 218.8 403.9 L 219.7 403.9 L 220.7 403.9 L 221.7 403.9 L 222.7 403.9 L 223.6 403.9 L 224.6 403.9 L 225.6 403.9 L 226.5 403.9 L 227.5 403.9 L 228.5 403.9 L 229.5 403.9 L 230.4 403.9 L 231.4 403.9 L 232.4 403.9 L 233.3 403.9 L 234.3 403.9 L 235.3 403.7 L 236.2 403.7 L 237.2 403.7 L 238.2 403.7 L 239.2 403.7 L 240.1 403.7 L 241.1 403.7 L 242.1 403.7 L 243.0 403.7 L 244.0 403.7 L 245.0 403.7 L 246.0 401.7 L 246.9 401.7 L 247.9 401.7 L 248.9 401.7 L 249.8 401.7 L 250.8 401.7 L 251.8 401.7 L 252.8 401.7 L 253.7 401.7 L 254.7 401.7 L 255.7 401.7 L 256.6 401.7 L 257.6 401.7 L 258.6 401.7 L 259.5 401.7 L 260.5 401.7 L 261.5 401.7 L 262.5 401.7 L 263.4 401.7 L 264.4 401.7 L 265.4 401.7 L 266.3 401.7 L 267.3 401.5 L 268.3 401.5 L 269.3 401.5 L 270.2 401.5 L 271.2 401.5 L 272.2 401.5 L 273.1 401.5 L 274.1 401.5 L 275.1 401.5 L 276.1 401.5 L 277.0 401.5 L 278.0 401.5 L 279.0 401.5 L 279.9 401.5 L 280.9 401.5 L 281.9 401.5 L 282.9 401.5 L 283.8 401.5 L 284.8 401.5 L 285.8 400.7 L 286.7 400.7 L 287.7 400.7 L 288.7 400.7 L 289.6 400.7 L 290.6 400.7 L 291.6 400.7 L 292.6 400.7 L 293.5 400.7 L 294.5 400.7 L 295.5 398.5 L 296.4 398.5 L 297.4 398.5 L 298.4 398.5 L 299.4 397.2 L 300.3 405.4 L 301.3 405.1 L 302.3 405.1 L 303.2 396.8 L 304.2 396.8 L 305.2 396.8 L 306.2 396.8 L 307.1 396.8 L 308.1 396.8 L 309.1 396.8 L 310.0 396.8 L 311.0 396.8 L 312.0 396.8 L 312.9 396.8 L 313.9 396.8 L 314.9 396.8 L 315.9 396.8 L 316.8 396.8 L 317.8 396.8 L 318.8 396.8 L 319.7 396.8 L 320.7 396.8 L 321.7 396.8 L 322.7 396.8 L 323.6 396.8 L 324.6 396.8 L 325.6 396.8 L 326.5 396.8 L 327.5 396.8 L 328.5 396.8 L 329.5 396.8 L 330.4 396.8 L 331.4 396.8 L 332.4 396.8 L 333.3 396.8 L 334.3 396.8 L 335.3 396.8 L 336.2 396.6 L 337.2 396.6 L 338.2 396.6 L 339.2 396.6 L 340.1 396.6 L 341.1 398.4 L 342.1 398.4 L 343.0 398.4 L 344.0 398.4 L 345.0 398.4 L 346.0 398.4 L 346.9 398.4 L 347.9 394.0 L 348.9 394.0 L 349.8 394.0 L 350.8 394.0 L 351.8 394.0 L 352.8 394.0 L 353.7 394.0 L 354.7 394.0 L 355.7 394.0 L 356.6 394.0 L 357.6 393.6 L 358.6 393.6 L 359.5 393.6 L 360.5 393.6 L 361.5 393.6 L 362.5 393.5 L 363.4 393.5 L 364.4 385.2 L 365.4 385.2 L 366.3 385.2 L 367.3 385.2 L 368.3 385.2 L 369.3 385.2 L 370.2 385.2 L 371.2 385.2 L 372.2 385.2 L 373.1 385.2 L 374.1 385.2 L 375.1 385.2 L 376.1 384.9 L 377.0 384.9 L 378.0 384.9 L 379.0 384.9 L 379.9 384.9 L 380.9 384.9 L 381.9 384.9 L 382.8 384.9 L 383.8 384.9 L 384.8 384.9 L 385.8 384.9 L 386.7 384.9 L 387.7 384.9 L 388.7 384.9 L 389.6 384.9 L 390.6 384.7 L 391.6 384.7 L 392.6 384.7 L 393.5 384.7 L 394.5 380.4 L 395.5 382.2 L 396.4 382.6 L 397.4 382.6 L 398.4 384.3 L 399.4 384.3 L 400.3 384.3 L 401.3 384.3 L 402.3 384.3 L 403.2 384.3 L 404.2 382.2 L 405.2 382.2 L 406.1 382.2 L 407.1 382.2 L 408.1 384.4 L 409.1 383.3 L 410.0 383.3 L 411.0 383.3 L 412.0 383.3 L 412.9 383.3 L 413.9 383.3 L 414.9 381.1 L 415.9 381.1 L 416.8 383.4 L 417.8 383.2 L 418.8 383.3 L 419.7 383.3 L 420.7 383.3 L 421.7 383.3 L 422.7 383.3 L 423.6 383.3 L 424.6 383.3 L 425.6 383.3 L 426.5 383.3 L 427.5 383.3 L 428.5 381.1 L 429.4 362.2 L 430.4 362.2 L 431.4 362.2 L 432.4 362.2 L 433.3 362.2 L 434.3 362.2 L 435.3 362.2 L 436.2 362.2 L 437.2 362.2 L 438.2 362.2 L 439.2 360.0 L 440.1 360.0 L 441.1 360.0 L 442.1 362.2 L 443.0 362.2 L 444.0 361.9 L 445.0 361.9 L 446.0 361.9 L 446.9 361.9 L 447.9 361.9 L 448.9 359.3 L 449.8 359.3 L 450.8 361.1 L 451.8 361.1 L 452.7 361.1 L 453.7 361.1 L 454.7 361.1 L 455.7 361.1 L 456.6 361.1 L 457.6 361.1 L 458.6 361.1 L 459.5 361.1 L 460.5 361.1 L 461.5 361.1 L 462.5 361.1 L 463.4 364.9 L 464.4 364.9 L 465.4 364.9 L 466.3 362.8 L 467.3 362.8 L 468.3 362.8 L 469.3 362.8 L 470.2 362.8 L 471.2 361.0 L 472.2 350.2 L 473.1 350.2 L 474.1 350.2 L 475.1 350.2 L 476.1 350.2 L 477.0 349.8 L 478.0 349.8 L 479.0 349.8 L 479.9 343.5 L 480.9 343.5 L 481.9 343.5 L 482.8 343.5 L 483.8 343.5 L 484.8 343.5 L 485.8 343.1 L 486.7 343.1 L 487.7 343.1 L 488.7 343.1 L 489.6 343.1 L 490.6 343.1 L 491.6 343.1 L 492.6 343.1 L 493.5 343.1 L 494.5 343.1 L 495.5 343.1 L 496.4 343.1 L 497.4 343.1 L 498.4 343.1 L 499.4 343.4 L 500.3 343.8 L 501.3 343.8 L 502.3 343.8 L 503.2 343.8 L 504.2 343.8 L 505.2 343.8 L 506.1 343.1 L 507.1 343.1 L 508.1 343.4 L 509.1 343.4 L 510.0 343.3 L 511.0 343.3 L 512.0 343.3 L 512.9 339.0 L 513.9 339.0 L 514.9 339.0 L 515.9 339.0 L 516.8 339.0 L 517.8 339.0 L 518.8 339.0 L 519.7 339.0 L 520.7 338.1 L 521.7 338.1 L 522.7 338.1 L 523.6 338.1 L 524.6 338.1 L 525.6 338.1 L 526.5 338.1 L 527.5 338.1 L 528.5 338.1 L 529.4 338.1 L 530.4 338.1 L 531.4 338.1 L 532.4 338.1 L 533.3 338.1 L 534.3 337.9 L 535.3 337.9 L 536.2 337.9 L 537.2 337.9 L 538.2 337.3 L 539.2 337.3 L 540.1 337.3 L 541.1 337.4 L 542.1 337.4 L 543.0 337.4 L 544.0 337.6 L 545.0 337.6 L 546.0 337.6 L 546.9 337.6 L 547.9 337.6 L 548.9 337.6 L 549.8 337.6 L 550.8 337.6 L 551.8 337.6 L 552.7 337.6 L 553.7 337.6 L 554.7 337.6 L 555.7 337.6 L 556.6 337.6 L 557.6 337.6 L 558.6 337.6 L 559.5 337.1 L 560.5 337.1 L 561.5 337.1 L 562.5 337.1 L 563.4 337.1 L 564.4 337.1 L 565.4 337.1 L 566.3 341.8 L 567.3 341.9 L 568.3 341.6 L 569.3 341.6 L 570.2 341.6 L 571.2 352.2 L 572.2 351.8 L 573.1 351.8 L 574.1 351.8 L 575.1 351.8 L 576.0 351.8 L 577.0 351.8 L 578.0 351.9 L 579.0 352.0 L 579.9 352.0 L 580.9 352.0 L 581.9 352.0 L 582.8 352.0 L 583.8 352.0 L 584.8 352.0 L 585.8 352.0 L 586.7 352.0 L 587.7 352.0 L 588.7 351.8 L 589.6 351.8 L 590.6 351.8 L 591.6 351.6 L 592.6 351.6 L 593.5 351.7 L 594.5 351.7 L 595.5 351.6 L 596.4 351.6 L 597.4 351.6 L 598.4 351.0 L 599.3 351.0 L 600.3 350.9 L 601.3 351.0 L 602.3 350.6 L 603.2 350.6 L 604.2 350.7 L 605.2 351.6 L 606.1 349.5 L 607.1 350.8 L 608.1 350.9 L 609.1 350.9 L 610.0 350.9 L 611.0 350.9 L 612.0 350.9 L 612.9 355.2 L 613.9 355.2 L 614.9 355.0 L 615.9 355.2 L 616.8 355.2 L 617.8 355.2 L 618.8 355.3 L 619.7 355.3 L 620.7 355.3 L 621.7 355.3 L 622.6 354.9 L 623.6 354.9 L 624.6 354.9 L 625.6 354.4 L 626.5 354.4 L 627.5 352.1 L 628.5 354.9 L 629.4 354.9 L 630.4 354.9 L 631.4 355.2 L 632.4 355.1 L 633.3 355.7 L 634.3 355.7 L 635.3 355.7 L 636.2 355.7 L 637.2 355.7 L 638.2 355.7 L 639.2 355.3 L 640.1 342.3 L 641.1 342.3 L 642.1 355.1 L 643.0 355.1 L 644.0 355.1 L 645.0 355.1 L 645.9 355.2 L 646.9 355.2 L 647.9 342.5 L 648.9 342.5 L 649.8 342.0 L 650.8 342.0 L 651.8 342.0 L 652.7 342.1 L 653.7 341.7 L 654.7 309.3 L 655.7 341.5 L 656.6 341.6 L 657.6 341.6 L 658.6 341.6 L 659.5 341.6 L 660.5 341.8 L 661.5 341.9 L 662.5 341.9 L 663.4 341.9 L 664.4 341.9 L 665.4 341.9 L 666.3 341.9 L 667.3 341.4 L 668.3 341.4 L 669.3 340.8 L 670.2 340.8 L 671.2 340.8 L 672.2 340.8 L 673.1 338.6 L 674.1 340.1 L 675.1 339.1 L 676.0 335.8 L 677.0 336.4 L 678.0 336.4 L 679.0 336.4 L 679.9 336.4 L 680.9 339.8 L 681.9 327.7 L 682.8 331.6 L 683.8 337.4 L 684.8 337.4 L 685.8 337.4 L 686.7 332.0 L 687.7 345.5 L 688.7 343.6 L 689.6 356.4 L 690.6 354.0 L 691.6 354.0 L 692.6 354.0 L 693.5 350.8 L 694.5 344.0 L 695.5 342.6 L 696.4 327.3 L 697.4 332.6 L 698.4 332.6 L 699.3 332.6 L 700.3 332.6 L 701.3 347.9 L 702.3 337.2 L 703.2 339.8 L 704.2 354.5 L 705.2 336.7 L 706.1 336.7 L 707.1 336.7 L 708.1 337.6 L 709.1 323.9 L 710.0 317.9 L 711.0 302.7 L 712.0 302.1 L 712.9 302.1 L 713.9 323.3 L 714.9 301.2 L 715.9 314.6 L 716.8 306.8 L 717.8 330.3 L 718.8 330.3 L 719.7 330.3 L 720.7 296.3 L 721.7 304.1 L 722.6 289.7 L 723.6 301.8 L 724.6 306.2 L 725.6 306.2 L 726.5 306.2 L 727.5 309.0 L 728.5 295.5 L 729.4 270.2 L 730.4 247.9 L 731.4 215.1 L 732.4 215.5 L 733.3 215.5 L 734.3 210.1 L 735.3 256.3 L 736.2 227.6 L 737.2 315.1 L 738.2 300.7 L 739.2 300.7 L 740.1 300.7 L 741.1 256.7 L 742.1 319.9 L 743.0 270.3 L 744.0 270.3 L 745.0 298.1 L 745.9 298.2 L 746.9 298.2 L 747.9 325.5 L 748.9 233.8 L 749.8 246.7 L 750.8 220.6 L 751.8 331.8 L 752.7 331.9 L 753.7 331.9 L 754.7 331.9 L 755.7 240.7 L 756.6 215.4 L 757.6 277.0 L 758.6 342.4 L 759.5 342.4 L 760.5 342.4 L 761.5 335.8 L 762.5 321.5 L 763.4 306.1 L 764.4 310.6 L 765.4 321.5 L 766.3 321.5 L 767.3 321.5 L 768.3 326.0 L 769.2 289.8 L 770.2 277.3 L 771.2 271.7 L 772.2 318.9 L 773.1 318.9 L 774.1 319.0 L 775.1 280.1 L 776.0 279.7 L 777.0 279.1 L 778.0 297.2 L 779.0 265.7 L 779.9 265.8 L 780.9 265.8 L 781.9 305.1 L 782.8 231.8 L 783.8 315.3 L 784.8 319.3 L 785.8 285.1 L 786.7 285.1 L 787.7 285.1 L 788.7 330.4 L 789.6 329.9 L 790.6 355.8 L 791.6 310.9 L 792.5 317.9 L 793.5 317.9 L 794.5 317.9 L 795.5 293.0 L 796.4 282.2 L 797.4 275.8 L 798.4 251.9 L 799.3 242.7 L 800.3 242.7 L 801.3 242.7 L 802.3 316.0 L 803.2 269.9 L 804.2 268.6 L 805.2 237.1 L 806.1 233.9 L 807.1 234.3 L 808.1 234.3 L 809.1 234.3 L 810.0 279.5 L 811.0 259.8 L 812.0 193.5 L 812.9 270.6 L 813.9 270.6 L 814.9 270.6 L 815.8 231.6 L 816.8 216.6 L 817.8 212.2 L 818.8 202.5 L 819.7 178.8 L 820.7 178.8 L 821.7 178.8 L 822.6 231.4 L 823.6 250.5 L 824.6 161.9 L 825.6 260.3 L 826.5 270.6 L 827.5 270.6 L 828.5 270.6 L 829.4 270.6 L 830.4 247.1 L 831.4 261.6 L 832.4 196.4 L 833.3 196.6 L 834.3 196.6 L 835.3 196.6 L 836.2 259.8 L 837.2 276.2 L 838.2 261.9 L 839.1 210.3 L 840.1 239.0 L 841.1 239.1 L 842.1 239.1 L 843.0 239.1 L 844.0 253.2 L 845.0 209.8 L 845.9 276.8 L 846.9 298.7 L 847.9 298.7 L 848.9 300.0 L 849.8 244.9 L 850.8 228.3 L 851.8 215.5 L 852.7 187.5 L 853.7 224.7 L 854.7 224.9 L 855.7 224.9 L 856.6 276.7 L 857.6 262.2 L 858.6 282.9 L 859.5 271.4 L 860.5 253.8 L 861.5 253.8 L 862.5 253.8 L 863.4 253.8 L 864.4 262.3 L 865.4 278.7 L 866.3 286.0 L 867.3 264.3 L 868.3 264.3 L 869.2 264.3 L 870.2 303.0 L 871.2 295.9 L 872.2 294.3 L 873.1 285.8 L 874.1 287.8 L 875.1 287.8 L 876.0 287.8 L 877.0 294.7 L 878.0 301.3 L 879.0 268.3 L 879.9 268.3 L 880.9 274.7 L 881.9 274.7 L 882.8 274.7 L 883.8 280.5 L 884.8 265.1 L 885.8 271.0 L 886.7 271.0 L 887.7 265.9 L 888.7 265.9 L 889.6 265.9 L 890.6 268.3 L 891.6 269.6 L 892.5 243.5 L 893.5 259.0 L 894.5 252.1 L 895.5 253.1 L 896.4 253.1 L 897.4 253.1 L 898.4 282.3 L 899.3 281.7 L 900.3 278.2 L 901.3 278.1 L 902.3 278.1 L 903.2 278.2 L 904.2 292.1 L 905.2 292.7 L 906.1 306.9 L 907.1 287.1 L 908.1 299.1 L 909.1 291.2 L 910.0 291.2 L 911.0 316.1 L 912.0 246.9 L 912.9 274.5 L 913.9 265.0 L 914.9 261.4 L 915.8 261.4 L 916.8 261.4 L 917.8 282.4 L 918.8 263.3 L 919.7 277.6 L 920.7 271.1 L 921.7 274.1 L 922.6 274.1 L 923.6 274.1 L 924.6 276.5 L 925.6 285.2 L 926.5 288.1 L 927.5 287.5 L 928.5 287.0 L 929.4 287.0 L 930.4 287.0 L 931.4 289.6 L 932.4 300.0 L 933.3 295.0 L 934.3 267.1 L 935.3 271.6 L 936.2 271.6 L 937.2 271.6 L 938.2 272.8 L 939.1 275.7 L 940.1 271.9 L 941.1 275.5 L 942.1 320.0 L 943.0 320.0 L 944.0 320.0 L 945.0 262.6 L 945.9 251.4 L 946.9 246.1 L 947.9 263.3 L 948.9 279.7 L 949.8 280.0 L 950.8 280.0 L 951.8 252.2 L 952.7 260.7 L 953.7 238.1 L 954.7 244.8 L 955.7 235.9 L 956.6 235.9 L 957.6 235.9 L 958.6 245.1 L 959.5 240.8 L 960.5 228.2 L 961.5 232.3 L 962.4 244.5 L 963.4 244.5 L 964.4 244.5 L 965.4 244.5 L 966.3 244.4 L 967.3 254.2 L 968.3 257.0 L 969.2 251.1 L 970.2 251.1 L 971.2 251.1 L 972.2 229.7 L 973.1 256.1 L 974.1 243.2 L 975.1 243.2 L 976.0 243.2 L 977.0 243.2 L 978.0 243.2 L 979.0 238.3 L 979.9 250.5 L 980.9 242.1 L 981.9 228.3 L 982.8 236.6 L 983.8 237.4 L 984.8 237.4 L 985.7 255.5 L 986.7 249.1 L 987.7 190.9 L 988.7 216.9 L 989.6 233.1 L 990.6 233.1 L 991.6 236.4 L 992.5 201.8 L 993.5 205.9 L 994.5 207.2 L 995.5 230.2 L 996.4 237.5 L 997.4 239.2 L 998.4 240.2 L 999.3 195.4 L 1000.3 173.2 L 1001.3 176.7 L 1002.3 178.6 L 1003.2 183.9 L 1004.2 201.7 L 1005.2 201.9 L 1006.1 210.1 L 1007.1 172.8 L 1008.1 216.1 L 1009.0 150.3 L 1010.0 213.3 L 1011.0 214.0 L 1012.0 214.0 L 1012.9 190.1 L 1013.9 193.5 L 1014.9 173.3 L 1015.8 192.1 L 1016.8 225.3 L 1017.8 230.6 L 1018.8 231.9 L 1019.7 232.3 L 1020.7 217.4 L 1021.7 206.3 L 1022.6 229.8 L 1023.6 225.2 L 1024.6 228.3 L 1025.6 228.7 L 1026.5 247.1 L 1027.5 244.8 L 1028.5 249.5 L 1029.4 254.4 L 1030.4 253.2 L 1031.4 257.0 L 1032.3 258.3 L 1033.3 258.4 L 1034.3 250.9 L 1035.3 236.0 L 1036.2 252.2 L 1037.2 236.6 L 1038.2 247.9 L 1039.1 249.5 L 1040.1 250.5 L 1041.1 252.8 L 1042.1 254.0 L 1043.0 259.1 L 1044.0 259.1" stroke="#9a6bff" stroke-width="1.8" fill="none" stroke-linejoin="round"/><path d="M 429.4 424.0 L 430.4 424.0 L 431.4 424.0 L 432.4 424.0 L 433.3 424.0 L 434.3 424.0 L 435.3 424.0 L 436.2 424.0 L 437.2 424.0 L 438.2 424.0 L 439.2 424.0 L 440.1 424.0 L 441.1 424.0 L 442.1 424.0 L 443.0 424.0 L 444.0 424.0 L 445.0 421.4 L 446.0 421.4 L 446.9 421.4 L 447.9 421.4 L 448.9 421.4 L 449.8 421.4 L 450.8 421.4 L 451.8 423.6 L 452.7 423.6 L 453.7 423.6 L 454.7 423.6 L 455.7 423.6 L 456.6 423.6 L 457.6 423.6 L 458.6 423.6 L 459.5 423.6 L 460.5 423.6 L 461.5 423.6 L 462.5 423.6 L 463.4 419.7 L 464.4 419.7 L 465.4 419.7 L 466.3 419.7 L 467.3 419.7 L 468.3 419.7 L 469.3 419.7 L 470.2 419.7 L 471.2 419.7 L 472.2 419.7 L 473.1 419.7 L 474.1 419.7 L 475.1 419.7 L 476.1 419.7 L 477.0 419.7 L 478.0 419.7 L 479.0 419.7 L 479.9 419.7 L 480.9 419.7 L 481.9 419.7 L 482.8 419.7 L 483.8 419.7 L 484.8 419.7 L 485.8 419.7 L 486.7 419.7 L 487.7 419.7 L 488.7 419.7 L 489.6 419.7 L 490.6 419.7 L 491.6 419.7 L 492.6 419.7 L 493.5 419.7 L 494.5 419.7 L 495.5 419.7 L 496.4 419.4 L 497.4 419.4 L 498.4 419.4 L 499.4 419.4 L 500.3 418.8 L 501.3 418.8 L 502.3 418.8 L 503.2 418.2 L 504.2 417.8 L 505.2 417.5 L 506.1 417.5 L 507.1 417.5 L 508.1 417.5 L 509.1 417.5 L 510.0 416.6 L 511.0 416.6 L 512.0 416.6 L 512.9 416.6 L 513.9 416.6 L 514.9 416.6 L 515.9 416.6 L 516.8 416.6 L 517.8 416.6 L 518.8 416.6 L 519.7 416.6 L 520.7 416.6 L 521.7 416.6 L 522.7 416.6 L 523.6 416.6 L 524.6 416.6 L 525.6 416.6 L 526.5 416.6 L 527.5 416.6 L 528.5 416.6 L 529.4 416.6 L 530.4 416.6 L 531.4 416.6 L 532.4 416.6 L 533.3 416.6 L 534.3 416.6 L 535.3 416.6 L 536.2 416.6 L 537.2 416.6 L 538.2 416.6 L 539.2 416.6 L 540.1 416.6 L 541.1 416.5 L 542.1 416.5 L 543.0 416.5 L 544.0 416.3 L 545.0 416.3 L 546.0 416.3 L 546.9 416.3 L 547.9 416.3 L 548.9 416.3 L 549.8 416.3 L 550.8 416.3 L 551.8 416.3 L 552.7 416.9 L 553.7 416.9 L 554.7 416.9 L 555.7 416.9 L 556.6 416.9 L 557.6 417.8 L 558.6 418.5 L 559.5 418.5 L 560.5 419.3 L 561.5 419.3 L 562.5 419.3 L 563.4 419.3 L 564.4 419.3 L 565.4 419.3 L 566.3 421.6 L 567.3 421.6 L 568.3 421.0 L 569.3 421.0 L 570.2 421.0 L 571.2 420.8 L 572.2 420.8 L 573.1 420.8 L 574.1 420.8 L 575.1 420.8 L 576.0 420.8 L 577.0 420.8 L 578.0 420.8 L 579.0 420.8 L 579.9 420.8 L 580.9 420.8 L 581.9 420.8 L 582.8 420.8 L 583.8 420.8 L 584.8 420.8 L 585.8 420.8 L 586.7 420.8 L 587.7 420.8 L 588.7 420.5 L 589.6 420.5 L 590.6 420.5 L 591.6 420.1 L 592.6 420.1 L 593.5 420.1 L 594.5 420.1 L 595.5 420.1 L 596.4 420.1 L 597.4 420.1 L 598.4 420.1 L 599.3 420.1 L 600.3 420.1 L 601.3 420.1 L 602.3 420.6 L 603.2 420.6 L 604.2 420.6 L 605.2 421.4 L 606.1 421.4 L 607.1 421.6 L 608.1 421.6 L 609.1 421.6 L 610.0 421.6 L 611.0 421.6 L 612.0 421.6 L 612.9 421.6 L 613.9 421.6 L 614.9 421.6 L 615.9 421.6 L 616.8 421.6 L 617.8 421.6 L 618.8 421.6 L 619.7 421.6 L 620.7 421.6 L 621.7 421.4 L 622.6 421.2 L 623.6 421.2 L 624.6 421.2 L 625.6 420.5 L 626.5 419.7 L 627.5 419.5 L 628.5 419.0 L 629.4 419.0 L 630.4 419.0 L 631.4 419.0 L 632.4 419.0 L 633.3 419.0 L 634.3 419.0 L 635.3 419.0 L 636.2 419.0 L 637.2 419.0 L 638.2 419.0 L 639.2 419.0 L 640.1 418.8 L 641.1 419.0 L 642.1 419.0 L 643.0 419.3 L 644.0 419.3 L 645.0 419.3 L 645.9 420.1 L 646.9 419.8 L 647.9 420.1 L 648.9 420.1 L 649.8 420.6 L 650.8 420.6 L 651.8 420.6 L 652.7 420.6 L 653.7 420.4 L 654.7 420.2 L 655.7 420.0 L 656.6 420.0 L 657.6 420.0 L 658.6 420.0 L 659.5 420.0 L 660.5 420.0 L 661.5 420.1 L 662.5 420.1 L 663.4 420.1 L 664.4 420.1 L 665.4 420.1 L 666.3 420.1 L 667.3 420.1 L 668.3 420.1 L 669.3 420.1 L 670.2 420.1 L 671.2 420.1 L 672.2 420.1 L 673.1 420.1 L 674.1 420.6 L 675.1 419.0 L 676.0 420.9 L 677.0 420.9 L 678.0 420.9 L 679.0 420.9 L 679.9 420.9 L 680.9 421.1 L 681.9 420.0 L 682.8 421.2 L 683.8 421.2 L 684.8 421.2 L 685.8 421.2 L 686.7 421.2 L 687.7 421.2 L 688.7 421.1 L 689.6 421.2 L 690.6 421.2 L 691.6 421.2 L 692.6 421.2 L 693.5 421.2 L 694.5 421.6 L 695.5 418.7 L 696.4 420.0 L 697.4 419.6 L 698.4 419.6 L 699.3 419.6 L 700.3 419.6 L 701.3 419.6 L 702.3 419.7 L 703.2 417.7 L 704.2 419.3 L 705.2 419.3 L 706.1 419.3 L 707.1 419.3 L 708.1 416.9 L 709.1 416.8 L 710.0 416.9 L 711.0 416.8 L 712.0 416.8 L 712.9 416.8 L 713.9 416.7 L 714.9 416.7 L 715.9 414.9 L 716.8 414.6 L 717.8 414.6 L 718.8 414.6 L 719.7 414.6 L 720.7 414.7 L 721.7 414.7 L 722.6 414.7 L 723.6 413.9 L 724.6 413.8 L 725.6 413.8 L 726.5 413.8 L 727.5 413.5 L 728.5 413.7 L 729.4 413.5 L 730.4 408.9 L 731.4 405.3 L 732.4 405.3 L 733.3 405.3 L 734.3 404.6 L 735.3 405.2 L 736.2 404.8 L 737.2 404.5 L 738.2 404.5 L 739.2 405.1 L 740.1 405.1 L 741.1 405.1 L 742.1 405.7 L 743.0 405.9 L 744.0 405.9 L 745.0 404.4 L 745.9 404.4 L 746.9 404.4 L 747.9 405.8 L 748.9 404.9 L 749.8 406.2 L 750.8 406.2 L 751.8 406.2 L 752.7 406.2 L 753.7 406.2 L 754.7 406.2 L 755.7 406.3 L 756.6 404.0 L 757.6 404.9 L 758.6 405.8 L 759.5 405.8 L 760.5 405.8 L 761.5 405.8 L 762.5 405.8 L 763.4 404.5 L 764.4 406.3 L 765.4 406.3 L 766.3 406.3 L 767.3 406.3 L 768.3 406.3 L 769.2 406.3 L 770.2 404.4 L 771.2 406.3 L 772.2 406.2 L 773.1 406.2 L 774.1 406.2 L 775.1 406.2 L 776.0 406.8 L 777.0 406.8 L 778.0 406.8 L 779.0 406.8 L 779.9 406.8 L 780.9 406.8 L 781.9 406.8 L 782.8 406.8 L 783.8 406.8 L 784.8 406.8 L 785.8 406.8 L 786.7 406.8 L 787.7 406.8 L 788.7 409.3 L 789.6 409.3 L 790.6 409.3 L 791.6 409.3 L 792.5 409.3 L 793.5 409.3 L 794.5 409.3 L 795.5 409.3 L 796.4 409.4 L 797.4 409.4 L 798.4 409.4 L 799.3 409.4 L 800.3 409.4 L 801.3 409.4 L 802.3 409.6 L 803.2 409.6 L 804.2 409.6 L 805.2 410.7 L 806.1 410.6 L 807.1 410.6 L 808.1 410.6 L 809.1 410.6 L 810.0 410.6 L 811.0 410.6 L 812.0 410.6 L 812.9 410.6 L 813.9 410.6 L 814.9 410.6 L 815.8 410.7 L 816.8 410.7 L 817.8 410.7 L 818.8 410.7 L 819.7 410.7 L 820.7 410.7 L 821.7 410.7 L 822.6 410.7 L 823.6 410.6 L 824.6 410.6 L 825.6 410.6 L 826.5 410.0 L 827.5 410.0 L 828.5 410.0 L 829.4 410.0 L 830.4 410.0 L 831.4 410.0 L 832.4 410.0 L 833.3 409.1 L 834.3 409.1 L 835.3 409.1 L 836.2 409.1 L 837.2 408.1 L 838.2 408.1 L 839.1 410.3 L 840.1 410.0 L 841.1 410.0 L 842.1 410.0 L 843.0 410.0 L 844.0 410.0 L 845.0 409.4 L 845.9 409.4 L 846.9 412.4 L 847.9 412.4 L 848.9 412.4 L 849.8 411.2 L 850.8 411.2 L 851.8 411.7 L 852.7 411.7 L 853.7 408.0 L 854.7 408.8 L 855.7 408.8 L 856.6 408.8 L 857.6 408.8 L 858.6 408.8 L 859.5 412.2 L 860.5 411.3 L 861.5 411.3 L 862.5 411.3 L 863.4 411.3 L 864.4 411.3 L 865.4 411.3 L 866.3 409.4 L 867.3 411.1 L 868.3 411.1 L 869.2 411.1 L 870.2 411.1 L 871.2 411.1 L 872.2 411.1 L 873.1 411.1 L 874.1 412.5 L 875.1 412.5 L 876.0 412.5 L 877.0 412.8 L 878.0 412.8 L 879.0 410.8 L 879.9 410.8 L 880.9 412.5 L 881.9 412.5 L 882.8 412.5 L 883.8 412.0 L 884.8 412.0 L 885.8 412.0 L 886.7 412.0 L 887.7 411.7 L 888.7 411.7 L 889.6 411.7 L 890.6 411.7 L 891.6 411.7 L 892.5 411.7 L 893.5 412.2 L 894.5 412.8 L 895.5 412.8 L 896.4 412.8 L 897.4 412.8 L 898.4 410.5 L 899.3 409.8 L 900.3 409.8 L 901.3 410.1 L 902.3 410.1 L 903.2 410.1 L 904.2 410.1 L 905.2 410.1 L 906.1 409.5 L 907.1 409.5 L 908.1 409.5 L 909.1 409.5 L 910.0 409.5 L 911.0 409.4 L 912.0 409.5 L 912.9 404.4 L 913.9 405.9 L 914.9 406.1 L 915.8 406.1 L 916.8 406.1 L 917.8 406.1 L 918.8 406.1 L 919.7 406.1 L 920.7 406.1 L 921.7 406.1 L 922.6 406.1 L 923.6 406.1 L 924.6 406.1 L 925.6 406.1 L 926.5 406.1 L 927.5 406.1 L 928.5 406.1 L 929.4 406.1 L 930.4 406.1 L 931.4 406.1 L 932.4 405.4 L 933.3 405.3 L 934.3 405.3 L 935.3 405.3 L 936.2 405.3 L 937.2 405.3 L 938.2 405.3 L 939.1 403.9 L 940.1 403.9 L 941.1 403.9 L 942.1 403.9 L 943.0 403.9 L 944.0 403.9 L 945.0 403.9 L 945.9 403.9 L 946.9 403.9 L 947.9 403.3 L 948.9 403.3 L 949.8 403.3 L 950.8 403.3 L 951.8 402.5 L 952.7 402.5 L 953.7 402.5 L 954.7 402.5 L 955.7 402.5 L 956.6 402.5 L 957.6 402.5 L 958.6 402.5 L 959.5 400.6 L 960.5 400.6 L 961.5 400.6 L 962.4 400.6 L 963.4 400.6 L 964.4 400.6 L 965.4 400.6 L 966.3 399.3 L 967.3 399.3 L 968.3 399.3 L 969.2 399.3 L 970.2 399.3 L 971.2 399.3 L 972.2 399.3 L 973.1 399.3 L 974.1 399.3 L 975.1 399.3 L 976.0 399.3 L 977.0 399.3 L 978.0 399.3 L 979.0 399.3 L 979.9 399.3 L 980.9 399.3 L 981.9 399.3 L 982.8 399.3 L 983.8 399.3 L 984.8 399.3 L 985.7 399.3 L 986.7 402.4 L 987.7 402.4 L 988.7 402.4 L 989.6 402.4 L 990.6 402.4 L 991.6 402.4 L 992.5 402.4 L 993.5 402.4 L 994.5 402.4 L 995.5 402.4 L 996.4 402.4 L 997.4 402.4 L 998.4 402.4 L 999.3 402.4 L 1000.3 402.4 L 1001.3 402.4 L 1002.3 402.4 L 1003.2 402.4 L 1004.2 402.4 L 1005.2 402.4 L 1006.1 402.4 L 1007.1 402.4 L 1008.1 403.3 L 1009.0 402.4 L 1010.0 403.3 L 1011.0 403.3 L 1012.0 403.3 L 1012.9 403.3 L 1013.9 403.3 L 1014.9 403.3 L 1015.8 404.2 L 1016.8 404.2 L 1017.8 404.2 L 1018.8 404.2 L 1019.7 404.2 L 1020.7 404.2 L 1021.7 406.2 L 1022.6 406.2 L 1023.6 406.2 L 1024.6 406.2 L 1025.6 406.2 L 1026.5 406.2 L 1027.5 404.1 L 1028.5 404.1 L 1029.4 404.1 L 1030.4 404.1 L 1031.4 404.1 L 1032.3 404.1 L 1033.3 404.1 L 1034.3 403.2 L 1035.3 403.2 L 1036.2 403.2 L 1037.2 403.1 L 1038.2 403.1 L 1039.1 403.1 L 1040.1 403.1 L 1041.1 403.1 L 1042.1 403.1 L 1043.0 401.8 L 1044.0 401.8" stroke="#35d07f" stroke-width="1.8" fill="none" stroke-linejoin="round"/><line x1="78" y1="424" x2="1044" y2="424" stroke="#8b949e" stroke-width="1.4"/>
  <text x="28" y="484" class="footer">COPM on Polygon + Celo · Transfer events up to 2026-06-12 · source: on-chain RPC scan</text>
</svg>